<svg class="hills" width="1117" height="498" viewBox="0 0 1117 498" fill="none" xmlns="http://www.w3.org/2000/svg">
<g clip-path="url(#clip0_142_354)">
<g clip-path="url(#clip1_142_354)">
<path d="M858.458 240.699C849.739 189.477 874.22 180.987 903.693 166.685C933.167 152.382 929.156 132.246 947.446 119.794C965.736 107.343 995.82 126.477 1026.45 112.567C1057.08 98.6567 1041.08 72.251 1058.34 57.274C1075.61 42.297 1118.64 56.4686 1130.65 49.5025C1142.66 42.5365 1145.13 14.6722 1164.07 0L1208.3 262.511L867.396 319.851L858.458 240.699Z" fill="#F8A16B"/>
<path d="M870.296 262.294C861.576 211.071 886.057 202.582 915.531 188.279C945.004 173.977 941.08 153.841 959.327 141.563C977.573 129.286 1007.64 148.094 1038.33 134.227C1069.02 120.36 1052.96 93.9111 1070.22 78.9341C1087.49 63.9571 1130.52 78.1287 1142.53 71.1626C1152.87 65.1979 1156.14 43.7991 1168.87 28.5608L1164.07 0.0653076C1145.13 14.7811 1142.66 42.6235 1130.65 49.5678C1118.64 56.5121 1075.59 42.3623 1058.34 57.3393C1041.1 72.3164 1057.06 98.7003 1026.45 112.632C995.842 126.564 965.692 107.473 947.446 119.794C929.199 132.116 933.145 152.448 903.694 166.663C874.242 180.878 849.826 189.411 858.459 240.677L867.397 319.829L876.662 318.283L870.296 262.294Z" fill="#FAB174"/>
<path d="M709.403 278.292C1024.34 155.164 1351.82 228.311 1351.82 228.311L1298.8 605.226L676.862 530.257L709.403 278.292Z" fill="url(#paint0_radial_142_354)"/>
<path d="M1334.22 353.447C1230.7 280.264 1121.24 237.241 1026.6 209.847C1001.37 211.592 975.358 214.174 948.613 217.751C1063.35 244.699 1201.07 289.194 1329.91 384.057L1334.22 353.447Z" fill="#F26B4E"/>
<path d="M1300.07 455.209C1172.81 346.522 1028.25 278.728 838.61 239.937C818.018 244.849 797.325 250.473 776.533 256.808C989.694 292.382 1146.17 360.49 1281.92 476.417L1300.07 455.209Z" fill="#F26B4E"/>
<path d="M706.764 312.698C762.318 324.675 846.656 344.859 935.294 381.279C1027.2 419.038 1109.29 468.495 1179.3 528.276L1197.45 507.068C1032.92 366.6 841.919 313.283 712.586 285.401L706.764 312.698Z" fill="#F26B4E"/>
<path d="M1338.45 323.375L1340.78 306.799C1269.28 261.733 1196.15 229.959 1128.1 206.814C1112.52 206.746 1096.38 206.907 1079.68 207.297C1116.44 218.161 1152.62 230.864 1188.1 245.358C1240.48 266.754 1290.81 292.868 1338.45 323.375Z" fill="#F26B4E"/>
<path d="M1325.4 416.155C1209.34 322.059 1078.03 260.703 910.858 223.383C897.827 225.563 884.692 228.008 871.454 230.717C1057.12 267.212 1198.81 331.173 1322.81 433.729L1325.4 416.155Z" fill="#F26B4E"/>
<path d="M756.311 280.368C812.185 292.412 896.798 312.678 985.917 349.276C1078.42 387.295 1161.11 437.1 1231.62 497.326L1241.53 485.751C1078.15 346.235 888.198 293.221 759.572 265.483L756.311 280.368Z" fill="#F26B4E"/>
</g>
<ellipse cx="720.08" cy="597.639" rx="706.553" ry="323.812" transform="rotate(-2.51461 720.08 597.639)" fill="url(#paint1_linear_142_354)"/>
<path d="M935.949 309.843L944.633 314.615C944.902 314.76 945.203 314.835 945.509 314.834H988.128C988.612 314.834 989.076 314.642 989.418 314.3C989.76 313.959 989.952 313.496 989.952 313.012V184.406C989.952 183.957 989.863 183.513 989.691 183.098C989.518 182.684 989.265 182.308 988.946 181.991C988.628 181.675 988.249 181.424 987.833 181.254C987.417 181.084 986.972 180.998 986.522 181H937.135C936.651 181 936.187 181.192 935.845 181.534C935.503 181.875 935.311 182.338 935.311 182.821L935 308.277C935.006 308.598 935.097 308.913 935.263 309.188C935.43 309.463 935.667 309.689 935.949 309.843Z" fill="url(#paint2_linear_142_354)"/>
<path d="M945.144 314.943L1012.63 353.483L1061.63 348.675L990.08 314.834L945.144 314.943Z" fill="url(#paint3_linear_142_354)"/>
<path d="M988.328 181H944.962V314.761H989.934V182.585C989.934 182.375 989.892 182.168 989.811 181.974C989.73 181.781 989.612 181.605 989.462 181.458C989.313 181.31 989.136 181.194 988.941 181.115C988.746 181.037 988.538 180.998 988.328 181Z" fill="url(#paint4_linear_142_354)"/>
<g opacity="0.7" filter="url(#filter0_d_142_354)">
<path d="M967.256 218.01V214.531H963.389V214.167H967.256V210.142H963.389V209.759H967.256V206.335C966.442 206.286 965.679 205.921 965.13 205.32C964.58 204.718 964.286 203.927 964.311 203.113C964.336 202.299 964.678 201.527 965.263 200.96C965.849 200.393 966.632 200.076 967.448 200.076C968.264 200.076 969.047 200.393 969.633 200.96C970.218 201.527 970.56 202.299 970.584 203.113C970.609 203.927 970.316 204.718 969.766 205.32C969.216 205.921 968.454 206.286 967.639 206.335V209.723H971.507V210.142H967.639V214.204H971.507V214.568H967.639V218.047C969.824 218.097 971.9 219.005 973.418 220.574C974.936 222.143 975.774 224.246 975.748 226.427C975.723 228.609 974.838 230.692 973.284 232.225C971.73 233.759 969.633 234.619 967.448 234.619C965.263 234.619 963.166 233.759 961.612 232.225C960.058 230.692 959.173 228.609 959.147 226.427C959.122 224.246 959.959 222.143 961.477 220.574C962.995 219.005 965.072 218.097 967.256 218.047V218.01ZM970.194 203.239C970.197 202.694 970.038 202.159 969.737 201.704C969.436 201.249 969.006 200.894 968.501 200.683C967.997 200.473 967.442 200.417 966.906 200.523C966.37 200.628 965.877 200.89 965.491 201.276C965.104 201.662 964.842 202.154 964.736 202.689C964.63 203.224 964.686 203.778 964.897 204.282C965.108 204.785 965.464 205.214 965.92 205.515C966.375 205.816 966.911 205.975 967.457 205.971C968.183 205.971 968.879 205.683 969.392 205.171C969.905 204.659 970.194 203.964 970.194 203.239ZM967.457 234.202C969.492 234.131 971.421 233.28 972.844 231.826C974.266 230.372 975.073 228.426 975.097 226.393C975.12 224.361 974.359 222.397 972.97 220.911C971.581 219.424 969.672 218.529 967.639 218.411H967.256C965.223 218.531 963.315 219.428 961.927 220.916C960.54 222.405 959.78 224.369 959.806 226.402C959.832 228.435 960.641 230.38 962.066 231.833C963.491 233.285 965.422 234.134 967.457 234.202Z" fill="#CF384B"/>
</g>
<path d="M944.961 314.761L935.091 309.297V182.603C935.096 182.179 935.267 181.774 935.567 181.475C935.867 181.175 936.272 181.005 936.697 181H944.961V314.761Z" fill="url(#paint5_linear_142_354)"/>
</g>
<defs>
<filter id="filter0_d_142_354" x="955.147" y="196.076" width="24.6021" height="42.5432" filterUnits="userSpaceOnUse" color-interpolation-filters="sRGB">
<feFlood flood-opacity="0" result="BackgroundImageFix"/>
<feColorMatrix in="SourceAlpha" type="matrix" values="0 0 0 0 0 0 0 0 0 0 0 0 0 0 0 0 0 0 127 0" result="hardAlpha"/>
<feOffset/>
<feGaussianBlur stdDeviation="2"/>
<feColorMatrix type="matrix" values="0 0 0 0 0.917647 0 0 0 0 0.462745 0 0 0 0 0.262745 0 0 0 1 0"/>
<feBlend mode="normal" in2="BackgroundImageFix" result="effect1_dropShadow_142_354"/>
<feBlend mode="normal" in="SourceGraphic" in2="effect1_dropShadow_142_354" result="shape"/>
</filter>
<radialGradient id="paint0_radial_142_354" cx="0" cy="0" r="1" gradientUnits="userSpaceOnUse" gradientTransform="translate(836.684 439.061) rotate(8.01428) scale(620.604 619.713)">
<stop stop-color="#F8A16B"/>
<stop offset="1" stop-color="#F26B4E"/>
</radialGradient>
<linearGradient id="paint1_linear_142_354" x1="998.385" y1="265.5" x2="341.798" y2="389.381" gradientUnits="userSpaceOnUse">
<stop stop-color="#EF3C5A"/>
<stop offset="1" stop-color="#F26B4E"/>
</linearGradient>
<linearGradient id="paint2_linear_142_354" x1="917.668" y1="201.29" x2="947.393" y2="231.046" gradientUnits="userSpaceOnUse">
<stop stop-color="#CF384B"/>
<stop offset="0.3" stop-color="#CD374A"/>
<stop offset="0.46" stop-color="#C53448"/>
<stop offset="0.58" stop-color="#B73044"/>
<stop offset="0.69" stop-color="#A4293E"/>
<stop offset="0.79" stop-color="#8B2037"/>
<stop offset="0.87" stop-color="#6D152E"/>
<stop offset="0.96" stop-color="#490824"/>
<stop offset="1" stop-color="#32001D"/>
</linearGradient>
<linearGradient id="paint3_linear_142_354" x1="977.564" y1="300.828" x2="1021.41" y2="353.61" gradientUnits="userSpaceOnUse">
<stop stop-color="#32001D" stop-opacity="0.8"/>
<stop offset="0.52" stop-color="#8C2037" stop-opacity="0.34"/>
<stop offset="1" stop-color="#CF384B" stop-opacity="0"/>
</linearGradient>
<linearGradient id="paint4_linear_142_354" x1="-4082.92" y1="1886.45" x2="-2818.25" y2="2311.65" gradientUnits="userSpaceOnUse">
<stop stop-color="#CF384B"/>
<stop offset="0.3" stop-color="#CD374A"/>
<stop offset="0.46" stop-color="#C53448"/>
<stop offset="0.58" stop-color="#B73044"/>
<stop offset="0.69" stop-color="#A4293E"/>
<stop offset="0.79" stop-color="#8B2037"/>
<stop offset="0.87" stop-color="#6D152E"/>
<stop offset="0.96" stop-color="#490824"/>
<stop offset="1" stop-color="#32001D"/>
</linearGradient>
<linearGradient id="paint5_linear_142_354" x1="940.035" y1="185.426" x2="940.035" y2="302.649" gradientUnits="userSpaceOnUse">
<stop offset="0.02" stop-color="#801B43"/>
<stop offset="0.49" stop-color="#CF384B"/>
<stop offset="0.64" stop-color="#CD374A"/>
<stop offset="0.72" stop-color="#C53448"/>
<stop offset="0.79" stop-color="#B73044"/>
<stop offset="0.84" stop-color="#A4293E"/>
<stop offset="0.89" stop-color="#8B2037"/>
<stop offset="0.94" stop-color="#6D152E"/>
<stop offset="0.98" stop-color="#490824"/>
<stop offset="1" stop-color="#32001D"/>
</linearGradient>
<clipPath id="clip0_142_354">
<rect width="1117" height="498" fill="white"/>
</clipPath>
<clipPath id="clip1_142_354">
<rect width="484" height="328" fill="white" transform="translate(674)"/>
</clipPath>
</defs>
</svg>
