<svg width="1132" height="1441" viewBox="0 0 1132 1441" fill="none" xmlns="http://www.w3.org/2000/svg">
<g opacity="0.25">
<rect x="0.5" y="1.5" width="1130" height="1439" stroke="#FFE9C9"/>
<line y1="0.5" x2="1131" y2="0.5" stroke="#FFE9C9"/>
<line y1="90.5" x2="1131" y2="90.5" stroke="#FFE9C9"/>
<line y1="180.5" x2="1131" y2="180.5" stroke="#FFE9C9"/>
<line y1="270.5" x2="1131" y2="270.5" stroke="#FFE9C9"/>
<line y1="360.5" x2="1131" y2="360.5" stroke="#FFE9C9"/>
<line y1="450.5" x2="1131" y2="450.5" stroke="#FFE9C9"/>
<line y1="540.5" x2="1131" y2="540.5" stroke="#FFE9C9"/>
<line y1="630.5" x2="1131" y2="630.5" stroke="#FFE9C9"/>
<line y1="720.5" x2="1131" y2="720.5" stroke="#FFE9C9"/>
<line y1="810.5" x2="1131" y2="810.5" stroke="#FFE9C9"/>
<line y1="900.5" x2="1131" y2="900.5" stroke="#FFE9C9"/>
<line y1="990.5" x2="1131" y2="990.5" stroke="#FFE9C9"/>
<line y1="1080.5" x2="1131" y2="1080.5" stroke="#FFE9C9"/>
<line y1="1170.5" x2="1131" y2="1170.5" stroke="#FFE9C9"/>
<line y1="1260.5" x2="1131" y2="1260.5" stroke="#FFE9C9"/>
<line y1="1350.5" x2="1131" y2="1350.5" stroke="#FFE9C9"/>
<line y1="1440.5" x2="1131" y2="1440.5" stroke="#FFE9C9"/>
<line x1="0.5" y1="1" x2="0.499937" y2="1441" stroke="#FFE9C9"/>
<line x1="87.5" y1="1" x2="87.4999" y2="1441" stroke="#FFE9C9"/>
<line x1="174.5" y1="1" x2="174.5" y2="1441" stroke="#FFE9C9"/>
<line x1="261.5" y1="1" x2="261.5" y2="1441" stroke="#FFE9C9"/>
<line x1="348.5" y1="1" x2="348.5" y2="1441" stroke="#FFE9C9"/>
<line x1="435.5" y1="1" x2="435.5" y2="1441" stroke="#FFE9C9"/>
<line x1="522.5" y1="1" x2="522.5" y2="1441" stroke="#FFE9C9"/>
<line x1="609.5" y1="1" x2="609.5" y2="1441" stroke="#FFE9C9"/>
<line x1="696.5" y1="1" x2="696.5" y2="1441" stroke="#FFE9C9"/>
<line x1="783.5" y1="1" x2="783.5" y2="1441" stroke="#FFE9C9"/>
<line x1="870.5" y1="1" x2="870.5" y2="1441" stroke="#FFE9C9"/>
<line x1="957.501" y1="1" x2="957.501" y2="1441" stroke="#FFE9C9"/>
<line x1="1044.5" y1="1" x2="1044.5" y2="1441" stroke="#FFE9C9"/>
<line x1="1131.5" y1="1" x2="1131.5" y2="1441" stroke="#FFE9C9"/>
</g>
</svg>
