<svg width="118" height="26" viewBox="0 0 118 26" fill="none" xmlns="http://www.w3.org/2000/svg">
<path d="M11.16 24.032V15.616H32.632V10.016H11.16V7.232H34.488V1.632H0.92V24.032H11.16ZM64.8938 24H76.0938L59.6138 1.632H48.3818L31.9337 24H43.1658L44.9898 21.536H63.0698L64.8938 24ZM58.8778 15.936H49.0538L53.9818 9.248L58.8778 15.936ZM117.652 12.832C117.652 4.096 110.196 0.991999 96.2118 0.991999C82.1958 0.991999 74.7398 4.096 74.7398 12.832C74.7398 22.144 83.1238 24.64 96.2118 24.64C100.916 24.64 104.884 24.352 108.052 23.616L111.124 25.664L116.724 21.952L114.644 20.576C116.628 18.784 117.652 16.256 117.652 12.832ZM96.2118 19.04C89.6518 19.04 85.9398 17.792 85.9398 12.832C85.9398 7.84 89.6518 6.592 96.2118 6.592C102.836 6.592 106.452 7.84 106.452 12.832C106.452 13.6 106.356 14.304 106.164 14.912L103.54 13.12L97.9398 16.864L100.724 18.752C99.4118 18.944 97.9078 19.04 96.2118 19.04Z" fill="#FFE9C9"/>
</svg>
