<svg width="299" height="25" viewBox="0 0 299 25" fill="none" xmlns="http://www.w3.org/2000/svg">
<path d="M37.664 1.632H0.352V7.232H13.856V24.032H24.128V7.232H37.664V1.632ZM68.9105 1.632V10.016H50.2225V1.632H39.9825V24.032H50.2225V15.616H68.9105V24.032H79.1505V1.632H68.9105ZM93.2538 18.432V15.616H115.654V10.016H93.2538V7.232H117.542V1.632H83.0138V24.032H117.542V18.432H93.2538ZM152.629 18.432V1.632H142.389V24.032H175.957V18.432H152.629ZM220.183 12.832C220.183 4.096 212.727 0.991999 198.743 0.991999C184.727 0.991999 177.271 4.096 177.271 12.832C177.271 22.144 185.655 24.64 198.743 24.64C212.727 24.64 220.183 22.144 220.183 12.832ZM208.983 12.832C208.983 17.792 205.239 19.04 198.743 19.04C192.183 19.04 188.471 17.792 188.471 12.832C188.471 7.84 192.183 6.592 198.743 6.592C205.367 6.592 208.983 7.84 208.983 12.832ZM250.116 24.032H261.7L256.036 16.864C259.236 15.328 261.316 12.832 261.316 10.016C261.316 5.376 255.684 1.632 248.74 1.632H223.076V24.032H233.316V18.432H245.7L250.116 24.032ZM233.316 7.232H246.852C249.188 7.232 251.044 8.48 251.044 10.016C251.044 11.552 249.188 12.832 246.852 12.832H233.316V7.232ZM274.629 18.432V15.616H297.029V10.016H274.629V7.232H298.917V1.632H264.389V24.032H298.917V18.432H274.629Z" fill="#FFE9C9"/>
</svg>
