<svg width="85" height="99" viewBox="0 0 85 99" fill="none" xmlns="http://www.w3.org/2000/svg">
<path d="M73.5577 75.7323H70.7788C75.587 72.3661 78.455 66.8578 78.4615 60.9767V59.3372H71.4787C72.8943 55.1117 73.5971 50.6785 73.5577 46.2211C73.5577 24.9917 59.9904 0.314697 42.5 0.314697C25.0096 0.314697 11.4423 24.9917 11.4423 46.2211C11.4029 50.6785 12.1056 55.1117 13.5214 59.3372H6.53846V60.9767C6.54503 66.8578 9.41296 72.3661 14.2212 75.7323H11.4423C8.40884 75.736 5.49997 76.9458 3.35535 79.0977C1.20999 81.2487 0.00373626 84.1663 0 87.2089V98.6855H85V87.2089C84.9964 84.1663 83.7901 81.2487 81.6447 79.0977C79.5 76.9459 76.5912 75.7361 73.5577 75.7323ZM60.4808 75.7323H52.3974C52.8038 72.1269 54.5186 68.7973 57.2158 66.3783C59.9123 63.96 63.4018 62.6205 67.0192 62.6162H75.1026C74.6962 66.2216 72.9814 69.5512 70.2842 71.9702C67.5877 74.3885 64.0982 75.728 60.4808 75.7323ZM55.5769 60.9767C54.2765 60.9767 53.0286 60.4585 52.1093 59.5363C51.19 58.614 50.6732 57.3624 50.6732 56.0582C50.6732 54.7541 51.1898 53.5023 52.1093 52.5802C53.0288 51.6582 54.2767 51.1398 55.5769 51.1398C56.8771 51.1398 58.1252 51.658 59.0446 52.5802C59.9639 53.5025 60.4807 54.7541 60.4807 56.0582C60.4807 57.3624 59.964 58.6142 59.0446 59.5363C58.1251 60.4583 56.8771 60.9767 55.5769 60.9767ZM14.7115 46.2211C14.7115 26.9142 27.107 3.59372 42.5 3.59372C57.893 3.59372 70.2885 26.9142 70.2885 46.2211C70.3468 50.6983 69.5704 55.1462 68 59.3372H67.0192C65.5867 59.343 64.1593 59.5209 62.7692 59.8671C63.4034 58.6975 63.7405 57.3894 63.75 56.0582C63.7609 53.9268 62.9436 51.8745 61.4711 50.3375C59.9992 48.8004 57.9874 47.8986 55.8637 47.8241C53.7394 47.7494 51.6699 48.5069 50.0936 49.9371C48.5181 51.3672 47.5593 53.3566 47.4212 55.4837C47.2833 57.6113 47.9766 59.7084 49.3544 61.331C50.7321 62.9544 52.6864 63.9747 54.8018 64.1768C51.7245 67.0335 49.7426 70.882 49.2017 75.0518C44.7773 75.933 40.2224 75.933 35.7979 75.0518C35.6074 73.5535 35.228 72.0853 34.6682 70.683C36.4014 71.0431 38.2054 70.6845 39.6698 69.6868C41.1336 68.69 42.132 67.1404 42.4369 65.3919C42.7419 63.6433 42.3274 61.8457 41.2883 60.4096C40.2484 58.9729 38.6729 58.0206 36.9215 57.7696C35.1694 57.5185 33.3911 57.9899 31.9921 59.0775C30.5932 60.1644 29.6933 61.774 29.4977 63.5379C26.2715 60.8218 22.193 59.3336 17.9803 59.3374H16.9996C15.4292 55.1464 14.6528 50.6986 14.7111 46.2213L14.7115 46.2211ZM32.6923 64.2557C32.6923 63.3862 33.0368 62.5518 33.6497 61.937C34.2627 61.3222 35.0946 60.9767 35.9615 60.9767C36.8285 60.9767 37.6604 61.3222 38.2734 61.937C38.8863 62.5518 39.2308 63.3862 39.2308 64.2557C39.2308 65.1252 38.8863 65.9596 38.2734 66.5745C37.6604 67.1893 36.8285 67.5347 35.9615 67.5347C35.0946 67.5347 34.2627 67.1893 33.6497 66.5745C33.0368 65.9596 32.6923 65.1252 32.6923 64.2557ZM9.89736 62.6162H17.9808C21.598 62.6206 25.0877 63.96 27.7842 66.3783C30.4814 68.7973 32.1961 72.1269 32.6026 75.7323H24.5192C20.902 75.7279 17.4123 74.3885 14.7158 71.9702C12.0186 69.5512 10.3039 66.2216 9.89736 62.6162ZM81.7308 95.4065H3.26923V87.2089C3.27215 85.0357 4.13397 82.952 5.66567 81.415C7.19812 79.8786 9.27565 79.0143 11.4423 79.0113H73.5577C75.7243 79.0143 77.8019 79.8787 79.3343 81.415C80.8661 82.952 81.7278 85.0357 81.7308 87.2089V95.4065Z" fill="url(#paint0_linear_60_109)"/>
<path d="M57.3036 41.382C59.0764 41.382 60.7769 40.6777 62.0311 39.4242C63.2846 38.1699 63.989 36.4694 63.989 34.6966C63.989 32.9238 63.2846 31.2233 62.0311 29.9691C60.7768 28.7156 59.0763 28.0112 57.3036 28.0112C55.5308 28.0112 53.8302 28.7156 52.576 29.9691C51.3225 31.2234 50.6182 32.9238 50.6182 34.6966C50.6182 36.4694 51.3225 38.17 52.576 39.4242C53.8303 40.6777 55.5308 41.382 57.3036 41.382ZM57.3036 31.3539C58.19 31.3539 59.0406 31.7061 59.6673 32.3329C60.2941 32.9596 60.6463 33.8102 60.6463 34.6966C60.6463 35.583 60.2941 36.4336 59.6673 37.0604C59.0406 37.6871 58.19 38.0393 57.3036 38.0393C56.4172 38.0393 55.5665 37.6871 54.9398 37.0604C54.313 36.4336 53.9609 35.583 53.9609 34.6966C53.9609 33.8102 54.313 32.9596 54.9398 32.3329C55.5665 31.7061 56.4172 31.3539 57.3036 31.3539Z" fill="url(#paint1_linear_60_109)"/>
<path d="M34.3818 46.6349C34.3818 48.0278 34.9353 49.3646 35.9202 50.3493C36.9051 51.3341 38.2419 51.8877 39.6346 51.8877C41.0274 51.8877 42.3644 51.3343 43.3491 50.3493C44.3338 49.3644 44.8875 48.0277 44.8875 46.6349C44.8875 45.2421 44.334 43.9052 43.3491 42.9204C42.3642 41.9357 41.0274 41.3821 39.6346 41.3821C38.2419 41.3821 36.9049 41.9355 35.9202 42.9204C34.9354 43.9054 34.3818 45.2421 34.3818 46.6349ZM41.3857 46.6349C41.3857 47.3431 40.9589 47.9817 40.3047 48.2522C39.6504 48.5234 38.8976 48.3741 38.3966 47.8731C37.8955 47.372 37.7462 46.6193 38.0174 45.965C38.2879 45.3107 38.9266 44.8839 39.6347 44.8839C40.0991 44.8839 40.5446 45.0684 40.8729 45.3967C41.2012 45.725 41.3857 46.1706 41.3857 46.6349Z" fill="url(#paint2_linear_60_109)"/>
<path d="M42.9774 10.3134L42.7887 8.65781L42.6066 7C39.5329 7.49653 36.6014 8.65112 34.0103 10.3857C29.9553 13.0373 24.7397 18.3092 22.9214 28.3693L26.1838 28.9663C29.2265 12.1343 42.4173 10.3805 42.9776 10.3134L42.9774 10.3134Z" fill="url(#paint3_linear_60_109)"/>
<path d="M6.68555 89.135H16.2361V92.0002H6.68555V89.135Z" fill="url(#paint4_linear_60_109)"/>
<path d="M18.146 82.4495H27.6966V85.3146H18.146V82.4495Z" fill="url(#paint5_linear_60_109)"/>
<path d="M35.3369 85.3147H47.7526V88.1799H35.3369V85.3147Z" fill="url(#paint6_linear_60_109)"/>
<path d="M52.5283 82.4495H55.3935V85.3146H52.5283V82.4495Z" fill="url(#paint7_linear_60_109)"/>
<path d="M26.7417 89.135H29.6069V92.0002H26.7417V89.135Z" fill="url(#paint8_linear_60_109)"/>
<path d="M66.854 82.4495H73.5394V85.3146H66.854V82.4495Z" fill="url(#paint9_linear_60_109)"/>
<path d="M60.1685 89.135H63.9887V92.0002H60.1685V89.135Z" fill="url(#paint10_linear_60_109)"/>
<defs>
<linearGradient id="paint0_linear_60_109" x1="-1.09376e-07" y1="50.4281" x2="86.6806" y2="48.7002" gradientUnits="userSpaceOnUse">
<stop stop-color="#EF3C5A"/>
<stop offset="0.296875" stop-color="#F04A3D"/>
<stop offset="1" stop-color="#F47C20"/>
</linearGradient>
<linearGradient id="paint1_linear_60_109" x1="50.6182" y1="34.8228" x2="64.2515" y2="34.5082" gradientUnits="userSpaceOnUse">
<stop stop-color="#EF3C5A"/>
<stop offset="0.296875" stop-color="#F04A3D"/>
<stop offset="1" stop-color="#F47C20"/>
</linearGradient>
<linearGradient id="paint2_linear_60_109" x1="34.3818" y1="46.734" x2="45.0937" y2="46.4869" gradientUnits="userSpaceOnUse">
<stop stop-color="#EF3C5A"/>
<stop offset="0.296875" stop-color="#F04A3D"/>
<stop offset="1" stop-color="#F47C20"/>
</linearGradient>
<linearGradient id="paint3_linear_60_109" x1="22.9214" y1="18.1904" x2="43.3732" y2="17.7596" gradientUnits="userSpaceOnUse">
<stop stop-color="#EF3C5A"/>
<stop offset="0.296875" stop-color="#F04A3D"/>
<stop offset="1" stop-color="#F47C20"/>
</linearGradient>
<linearGradient id="paint4_linear_60_109" x1="6.68555" y1="90.5946" x2="16.3715" y2="89.8498" gradientUnits="userSpaceOnUse">
<stop stop-color="#EF3C5A"/>
<stop offset="0.296875" stop-color="#F04A3D"/>
<stop offset="1" stop-color="#F47C20"/>
</linearGradient>
<linearGradient id="paint5_linear_60_109" x1="18.146" y1="83.9091" x2="27.832" y2="83.1642" gradientUnits="userSpaceOnUse">
<stop stop-color="#EF3C5A"/>
<stop offset="0.296875" stop-color="#F04A3D"/>
<stop offset="1" stop-color="#F47C20"/>
</linearGradient>
<linearGradient id="paint6_linear_60_109" x1="35.3369" y1="86.7743" x2="47.8778" y2="85.5206" gradientUnits="userSpaceOnUse">
<stop stop-color="#EF3C5A"/>
<stop offset="0.296875" stop-color="#F04A3D"/>
<stop offset="1" stop-color="#F47C20"/>
</linearGradient>
<linearGradient id="paint7_linear_60_109" x1="52.5283" y1="83.9091" x2="55.4497" y2="83.8417" gradientUnits="userSpaceOnUse">
<stop stop-color="#EF3C5A"/>
<stop offset="0.296875" stop-color="#F04A3D"/>
<stop offset="1" stop-color="#F47C20"/>
</linearGradient>
<linearGradient id="paint8_linear_60_109" x1="26.7417" y1="90.5946" x2="29.6631" y2="90.5272" gradientUnits="userSpaceOnUse">
<stop stop-color="#EF3C5A"/>
<stop offset="0.296875" stop-color="#F04A3D"/>
<stop offset="1" stop-color="#F47C20"/>
</linearGradient>
<linearGradient id="paint9_linear_60_109" x1="66.854" y1="83.9091" x2="73.6546" y2="83.543" gradientUnits="userSpaceOnUse">
<stop stop-color="#EF3C5A"/>
<stop offset="0.296875" stop-color="#F04A3D"/>
<stop offset="1" stop-color="#F47C20"/>
</linearGradient>
<linearGradient id="paint10_linear_60_109" x1="60.1685" y1="90.5946" x2="64.0621" y2="90.4749" gradientUnits="userSpaceOnUse">
<stop stop-color="#EF3C5A"/>
<stop offset="0.296875" stop-color="#F04A3D"/>
<stop offset="1" stop-color="#F47C20"/>
</linearGradient>
</defs>
</svg>
