<svg width="226" height="23" viewBox="0 0 226 23" fill="none" xmlns="http://www.w3.org/2000/svg">
<path d="M18.8926 1.03V14.14L7.22262 1.03H0.232617V22.03H6.62262V9.55L17.7226 22.03H25.3126V1.03H18.8926ZM54.9836 11.53C54.9836 3.34 50.3036 0.429999 41.5736 0.429999C32.8136 0.429999 28.1636 3.34 28.1636 11.53C28.1636 20.26 33.3836 22.6 41.5736 22.6C50.3036 22.6 54.9836 20.26 54.9836 11.53ZM47.9936 11.53C47.9936 16.18 45.6536 17.35 41.5736 17.35C37.4936 17.35 35.1536 16.18 35.1536 11.53C35.1536 6.85 37.4936 5.68 41.5736 5.68C45.7136 5.68 47.9936 6.85 47.9936 11.53ZM70.0696 8.89H70.0396C66.3496 8.77 63.8896 8.92 63.8896 7.15C63.8896 5.68 66.2596 5.68 69.9496 5.68C73.7296 5.68 76.0696 5.68 76.0696 8.02H82.4896C82.4896 1.6 78.1096 0.429999 69.9496 0.429999C62.1196 0.429999 57.4096 1.6 57.4096 7.15C57.4096 12.67 62.0296 13.27 69.8596 13.54H69.8896C73.5796 13.69 76.3096 13.54 76.3096 15.61C76.3096 17.35 73.6696 17.35 69.9496 17.35C66.1996 17.35 63.5296 17.35 63.5296 15.01H57.1396C57.1396 21.43 61.7896 22.6 69.9496 22.6C77.7796 22.6 82.7896 21.43 82.7896 15.61C82.7896 9.76 77.8996 9.16 70.0696 8.89ZM107.59 1.03H84.2802V6.28H92.7102V22.03H99.1302V6.28H107.59V1.03ZM126.634 22.03H133.864L130.324 15.31C132.334 13.87 133.654 11.53 133.654 8.89C133.654 4.54 130.114 1.03 125.764 1.03H109.744V22.03H116.134V16.78H123.874L126.634 22.03ZM116.134 6.28H124.594C126.064 6.28 127.234 7.45 127.234 8.89C127.234 10.33 126.064 11.53 124.594 11.53H116.134V6.28ZM162.62 11.53C162.62 3.34 157.94 0.429999 149.21 0.429999C140.45 0.429999 135.8 3.34 135.8 11.53C135.8 20.26 141.02 22.6 149.21 22.6C157.94 22.6 162.62 20.26 162.62 11.53ZM155.63 11.53C155.63 16.18 153.29 17.35 149.21 17.35C145.13 17.35 142.79 16.18 142.79 11.53C142.79 6.85 145.13 5.68 149.21 5.68C153.35 5.68 155.63 6.85 155.63 11.53ZM187.636 1.03L180.646 15.01L173.656 1.03H165.496V22.03H171.886V10.36L177.736 22.03H183.556L189.406 10.36V22.03H195.826V1.03H187.636ZM225.491 11.53C225.491 3.34 220.811 0.429999 212.081 0.429999C203.321 0.429999 198.671 3.34 198.671 11.53C198.671 20.26 203.891 22.6 212.081 22.6C220.811 22.6 225.491 20.26 225.491 11.53ZM218.501 11.53C218.501 16.18 216.161 17.35 212.081 17.35C208.001 17.35 205.661 16.18 205.661 11.53C205.661 6.85 208.001 5.68 212.081 5.68C216.221 5.68 218.501 6.85 218.501 11.53Z" fill="#F8A16B"/>
</svg>
