<svg width="230" height="78" viewBox="0 0 230 78" fill="none" xmlns="http://www.w3.org/2000/svg">
<path d="M14.0491 13.89H14.0191C10.3291 13.77 7.86906 13.92 7.86906 12.15C7.86906 10.68 10.2391 10.68 13.9291 10.68C17.7091 10.68 20.0491 10.68 20.0491 13.02H26.4691C26.4691 6.6 22.0891 5.43 13.9291 5.43C6.09906 5.43 1.38906 6.6 1.38906 12.15C1.38906 17.67 6.00906 18.27 13.8391 18.54H13.8691C17.5591 18.69 20.2891 18.54 20.2891 20.61C20.2891 22.35 17.6491 22.35 13.9291 22.35C10.1791 22.35 7.50906 22.35 7.50906 20.01H1.11906C1.11906 26.43 5.76906 27.6 13.9291 27.6C21.7591 27.6 26.7691 26.43 26.7691 20.61C26.7691 14.76 21.8791 14.16 14.0491 13.89ZM29.3397 16.53C29.3397 25.26 34.5597 27.6 41.5797 27.6C48.5697 27.6 53.8197 25.26 53.8197 16.53V6.03H47.3997V16.53C47.3997 21.18 45.0897 22.35 41.5797 22.35C38.0697 22.35 35.7297 21.18 35.7297 16.53V6.03H29.3397V16.53ZM71.3437 6.03H57.0637V27.03H63.4537V21.78H71.3437C75.6937 21.78 79.2037 18.24 79.2037 13.89C79.2037 9.54 75.6937 6.03 71.3437 6.03ZM70.1737 16.53H63.4537V11.28H70.1737C71.6137 11.28 72.8137 12.45 72.8137 13.89C72.8137 15.33 71.6137 16.53 70.1737 16.53ZM93.9423 27.03C102.282 27.03 106.752 24.81 106.752 16.53C106.752 8.79 102.282 6.03 93.9423 6.03H81.7023V27.03H93.9423ZM88.0923 21.78V11.28H93.9423C97.9023 11.28 100.362 12.09 100.362 16.53C100.362 20.94 97.8423 21.78 93.9423 21.78H88.0923ZM135.604 16.53C135.604 8.34 130.924 5.43 122.194 5.43C113.434 5.43 108.784 8.34 108.784 16.53C108.784 25.26 114.004 27.6 122.194 27.6C130.924 27.6 135.604 25.26 135.604 16.53ZM128.614 16.53C128.614 21.18 126.274 22.35 122.194 22.35C118.114 22.35 115.774 21.18 115.774 16.53C115.774 11.85 118.114 10.68 122.194 10.68C126.334 10.68 128.614 11.85 128.614 16.53ZM151.68 15.93V20.61H156.42C155.37 21.93 153.54 22.35 151.11 22.35C147.03 22.35 144.69 21.18 144.69 16.53C144.69 11.85 147.03 10.68 151.11 10.68C154.2 10.68 156.24 11.34 157.08 13.59H164.28C163.23 7.65 158.73 5.43 151.11 5.43C142.35 5.43 137.7 8.34 137.7 16.53C137.7 25.26 142.95 27.6 151.11 27.6C154.74 27.6 157.68 27.21 159.84 26.1V27.03H164.52V15.93H151.68ZM180.918 15.93V20.61H185.658C184.608 21.93 182.778 22.35 180.348 22.35C176.268 22.35 173.928 21.18 173.928 16.53C173.928 11.85 176.268 10.68 180.348 10.68C183.438 10.68 185.478 11.34 186.318 13.59H193.518C192.468 7.65 187.968 5.43 180.348 5.43C171.588 5.43 166.938 8.34 166.938 16.53C166.938 25.26 172.188 27.6 180.348 27.6C183.978 27.6 186.918 27.21 189.078 26.1V27.03H193.758V15.93H180.918ZM203.346 27.03V6.03H196.956V27.03H203.346ZM213.366 21.78V19.14H227.376V13.89H213.366V11.28H228.546V6.03H206.976V27.03H228.546V21.78H213.366Z" fill="#F8A16B"/>
<path d="M99.35 46.03L95.18 58.54L91.01 46.03H85.52L81.35 58.54L77.18 46.03H70.19L77.18 67.03H84.17L88.25 54.76L92.33 67.03H99.35L106.34 46.03H99.35ZM114.705 61.78V59.14H128.715V53.89H114.705V51.28H129.885V46.03H108.315V67.03H129.885V61.78H114.705ZM154.4 55.99C155.3 54.94 155.84 53.56 155.84 52.06C155.84 48.73 153.11 46.03 149.78 46.03L133.1 46V67L150.95 67.03C154.28 67.03 157.01 64.3 157.01 60.97C157.01 58.9 155.96 57.07 154.4 55.99ZM147.95 51.28C148.76 51.28 149.42 51.91 149.42 52.72C149.42 53.53 148.76 54.19 147.95 54.19H139.49V51.28H147.95ZM149.12 61.78H139.49V58.84H149.12C149.93 58.84 150.59 59.5 150.59 60.31C150.59 61.12 149.93 61.78 149.12 61.78Z" fill="#FFE9C9"/>
</svg>
