<svg width="63" height="64" viewBox="0 0 63 64" fill="none" xmlns="http://www.w3.org/2000/svg">
<path d="M3.32758 35.1384V60.7152H8.21513V35.1384H3.32758ZM29.8371 38.6237C29.8371 36.4615 33.1646 36.4615 33.1646 38.6237V44.8722C33.1646 47.0344 29.8371 47.0344 29.8371 44.8722V38.6237ZM41.977 35.1384V42.4598C41.977 56.2208 21.0245 55.9221 21.0245 42.4598V35.1384H11.5416V60.7152H51.4584V35.1384H41.9755H41.977ZM24.3521 35.1384V42.4598C24.3521 51.8495 38.6482 51.6417 38.6482 42.4598V35.1384H24.3521ZM48.9795 0.813968C50.0833 -1.04546 52.9428 0.613048 51.8391 2.46905L48.4668 8.12322C47.3605 9.98264 44.504 8.32314 45.6077 6.46814L48.979 0.813968H48.9795ZM11.1618 2.46905C10.059 0.611132 12.915 -1.04445 14.0214 0.813968L17.3927 6.46814C18.4965 8.32315 15.6404 9.98264 14.5336 8.12322L11.1613 2.46905H11.1618ZM29.4367 1.64127C29.4367 -0.520962 32.7636 -0.520962 32.7636 1.64127V7.29632C32.7636 9.45855 29.4367 9.45855 29.4367 7.29632V1.64127ZM54.7868 15.3329V31.8535H59.6743V21.5533C59.6743 18.6026 57.6133 16.0553 54.7868 15.3323V15.3329ZM54.7868 35.1387V60.7156H59.6743V35.1387H54.7868ZM51.4598 31.8541V15.1294H11.543V31.8541H51.4598ZM8.21539 31.8541V15.3424C5.38529 16.082 3.32783 18.6378 3.32783 21.5968V31.8536L8.21539 31.8541ZM9.8793 11.8454H53.1659C58.5788 11.8454 63 16.2103 63 21.5543V62.3583C63 63.2649 62.2553 64 61.3371 64H1.66289C0.744631 64 0 63.2648 0 62.3583V21.5971C0 16.2301 4.44064 11.845 9.8779 11.845L9.8793 11.8454Z" fill="url(#paint0_linear_60_98)"/>
<defs>
<linearGradient id="paint0_linear_60_98" x1="-8.10669e-08" y1="32.6038" x2="64.238" y2="31.145" gradientUnits="userSpaceOnUse">
<stop stop-color="#EF3C5A"/>
<stop offset="0.296875" stop-color="#F04A3D"/>
<stop offset="1" stop-color="#F47C20"/>
</linearGradient>
</defs>
</svg>
