<svg width="58" height="53" viewBox="0 0 58 53" fill="none" xmlns="http://www.w3.org/2000/svg">
<path d="M27.591 27.7623H32.6114C33.9946 27.7623 35.1163 28.8823 35.1163 30.2859C35.1163 31.6798 33.993 32.8096 32.6114 32.8096H25.0797H25.0721C23.6913 32.8037 22.5743 31.6679 22.5743 30.2753V20.2013C22.5743 18.8016 23.6876 17.6666 25.0827 17.6666C26.4681 17.6666 27.591 18.8048 27.591 20.2013L27.591 27.7623ZM52.6708 27.0279L53.7157 25.9771C54.695 24.9918 56.276 24.9851 57.2625 25.9776C58.2422 26.9633 58.2493 28.554 57.2629 29.5465L51.941 34.901C51.4513 35.3937 50.8113 35.6417 50.1705 35.6425C49.5292 35.6434 48.8875 35.3971 48.3942 34.901L43.0722 29.5465C42.0929 28.5608 42.0862 26.9701 43.0726 25.9776C44.0524 24.9918 45.6334 24.9847 46.6199 25.9771L47.6534 27.0169C47.6571 26.845 47.6592 26.673 47.6592 26.5002C47.6592 14.652 38.1131 5.0482 26.3378 5.0482C14.5617 5.0482 5.01522 14.6528 5.01522 26.5002C5.01522 38.3477 14.5613 47.9522 26.3378 47.9522C31.4451 47.9522 36.1329 46.1456 39.8049 43.1326L43.8868 46.2617C39.2284 50.4522 33.0782 53 26.3387 53C11.7922 53 0 41.1356 0 26.5C0 11.8644 11.7922 0 26.3387 0C40.8852 0 52.6775 11.8644 52.6775 26.5C52.6775 26.6762 52.6758 26.8524 52.672 27.0277L52.6708 27.0279Z" fill="url(#paint0_linear_60_90)"/>
<defs>
<linearGradient id="paint0_linear_60_90" x1="-7.4633e-08" y1="27" x2="59.1326" y2="25.5071" gradientUnits="userSpaceOnUse">
<stop stop-color="#EF3C5A"/>
<stop offset="0.296875" stop-color="#F04A3D"/>
<stop offset="1" stop-color="#F47C20"/>
</linearGradient>
</defs>
</svg>
