<?xml version="1.0" encoding="UTF-8" standalone="no"?>
<svg
   aria-hidden="true"
   focusable="false"
   role="img"
   viewBox="0 0 512 512"
   version="1.1"
   xmlns="http://www.w3.org/2000/svg"
   xmlns:svg="http://www.w3.org/2000/svg">
  <g
     class="group">
    <path
       class="pane"
       d="M 94,226 H 242 V 62 H 94 Z M 270,62 V 226 H 418 V 62 Z" />
    <path
       class="frame"
       d="M 480,31.2879 C 480,13.614788 465.67311,0 448,0 H 63.2879 C 45.614788,0 32,13.614788 32,31.2879 v 258.1363 l 448,-0.7121 z M 242,226 H 94 V 62 h 148 z m 176,0 H 270 V 62 h 148 z m 78,221.2879 H 480 V 320.7121 H 416 V 447.2879 H 96.7121 v -128 H 33.2879 L 32,448.7121 H 14.5758 C 5.7392437,448.7121 0,455.16344 0,464 v 32 c 0,8.83656 6.4513439,16 15.2879,16 H 496.7121 C 505.54866,512 512,505.54866 512,496.7121 v -33.4242 c 0,-8.83656 -7.16344,-16 -16,-16 z" />
  </g>
</svg>
