<svg width="490" height="563" fill="none" xmlns="http://www.w3.org/2000/svg"><path d="m.257 299.248 30.62-17.699 61.24 35.398-30.62 17.706-61.24-35.405Z" fill="url(#a)"/><path d="m30.877 246.144 30.62-17.699 61.239 35.405-30.62 17.699-61.239-35.405Z" fill="url(#b)"/><path d="m428.761 157.558-61.24 35.398-122.423-70.768-122.361 70.865-61.24-35.405 184.06-106.201 60.718 35.308 122.486 70.803Z" fill="url(#c)"/><path d="M30.877 281.549v-35.398l61.24 35.398v35.398l-61.24-35.398Z" fill="url(#d)"/><path d="M245.556 476.252V563L0 420.663l.257-121.325 61.24 35.398v35.329l184.059 106.187Z" fill="url(#e)"/><path d="M61.497 228.445v-70.797l61.24 35.399v70.803l-61.24-35.405Z" fill="url(#f)"/><path d="M61.497 370.051v-35.398l30.62-17.706v-35.398l30.62-17.699v-70.803l122.298-70.894.188 141.697L61.497 370.051Z" fill="url(#g)"/><path d="m490 299.157-30.62-17.699-61.239 35.398 30.619 17.699L490 299.157Z" fill="url(#h)"/><path d="m459.38 246.053-30.619-17.699-61.24 35.398 30.62 17.706 61.239-35.405Z" fill="url(#i)"/><path d="M459.38 281.458v-35.405l-61.239 35.405v35.398l61.239-35.398Z" fill="url(#j)"/><path d="M490 299.241v122.452L245.556 563v-86.748l183.378-106.229-.174.021v-35.398L490 299.241Z" fill="url(#k)"/><path d="M428.76 228.354v-70.803l-61.246 35.405v70.796l61.246-35.398Z" fill="url(#l)"/><path d="M428.76 369.954v-35.399l-30.619-17.699v-35.398l-30.627-17.706v-70.796l-122.479-70.803v141.599L428.76 369.954Z" fill="url(#m)"/><path d="m61.497 370.051 183.538-106.299 183.726 106.202L245.55 476.252 61.497 370.051Z" fill="url(#n)"/><path d="M123.07 334.555v35.405l121.965 70.887v-35.398L123.07 334.555Z" fill="url(#o)"/><path d="m367.778 334.653-.007 35.405-122.736 70.796v-35.398l122.743-70.803Z" fill="url(#p)"/><path d="M221.849 13.737v23.639c0 7.589-6.14 13.737-13.721 13.737H176.66l-22.024 20.185-.139-20.185h-.807c-7.58 0-13.721-6.148-13.721-13.737V13.737C139.976 6.148 146.117 0 153.697 0h54.438c7.574 0 13.714 6.148 13.714 13.737Z" fill="#F0DAC0"/><path d="M135.428 157.704c15.958 0 28.895-12.952 28.895-28.93 0-15.977-12.937-28.93-28.895-28.93s-28.895 12.953-28.895 28.93c0 15.978 12.937 28.93 28.895 28.93Z" fill="url(#q)"/><path d="M250.23 13.737v23.639c0 7.589 6.14 13.737 13.72 13.737h31.469l22.024 20.185.139-20.185h.807c7.58 0 13.721-6.148 13.721-13.737V13.737C332.103 6.148 325.962 0 318.382 0h-54.439c-7.58 0-13.72 6.148-13.72 13.737h.007Z" fill="#F0DAC0"/><path d="M135.428 157.704c15.958 0 28.895-12.952 28.895-28.93 0-15.977-12.937-28.93-28.895-28.93s-28.895 12.953-28.895 28.93c0 15.978 12.937 28.93 28.895 28.93Z" fill="url(#r)"/><path d="M135.428 157.704c15.958 0 28.895-12.952 28.895-28.93 0-15.977-12.937-28.93-28.895-28.93s-28.895 12.953-28.895 28.93c0 15.978 12.937 28.93 28.895 28.93Z" fill="#F0DAC0"/><path d="M339.245 157.704c15.958 0 28.895-12.952 28.895-28.93 0-15.977-12.937-28.93-28.895-28.93-15.959 0-28.895 12.953-28.895 28.93 0 15.978 12.936 28.93 28.895 28.93Z" fill="url(#s)"/><path d="M339.245 157.704c15.958 0 28.895-12.952 28.895-28.93 0-15.977-12.937-28.93-28.895-28.93-15.959 0-28.895 12.953-28.895 28.93 0 15.978 12.936 28.93 28.895 28.93Z" fill="url(#t)"/><path d="M339.245 157.704c15.958 0 28.895-12.952 28.895-28.93 0-15.977-12.937-28.93-28.895-28.93-15.959 0-28.895 12.953-28.895 28.93 0 15.978 12.936 28.93 28.895 28.93Z" fill="url(#u)"/><path d="M339.245 157.704c15.958 0 28.895-12.952 28.895-28.93 0-15.977-12.937-28.93-28.895-28.93-15.959 0-28.895 12.953-28.895 28.93 0 15.978 12.936 28.93 28.895 28.93Z" fill="#F0DAC0"/><path style="mix-blend-mode:lighten" d="M135.428 201.896c38.246 0 69.251-31.042 69.251-69.334s-31.005-69.334-69.251-69.334c-38.246 0-69.25 31.042-69.25 69.334s31.004 69.334 69.25 69.334Z" fill="url(#v)"/><path style="mix-blend-mode:lighten" d="M332.251 201.896c38.246 0 69.251-31.042 69.251-69.334s-31.005-69.334-69.251-69.334C294.005 63.228 263 94.27 263 132.562s31.005 69.334 69.251 69.334Z" fill="url(#w)"/><path style="mix-blend-mode:lighten" d="M329.46 201.896c38.246 0 69.251-31.042 69.251-69.334s-31.005-69.334-69.251-69.334c-38.246 0-69.251 31.042-69.251 69.334s31.005 69.334 69.251 69.334Z" fill="url(#x)"/><path d="M178.989 289.848h-.02v-.014l.02.014Z" fill="#6E1D42"/><path d="m205.263 256.191 91.797-29.278-61.212-59.475-30.585 88.753Z" fill="url(#y)"/><path d="m235.848 167.438 60.336 23.805.876 35.67-61.212-59.475Z" fill="url(#z)"/><path d="m297.06 226.913-25.668 78.009-66.136-48.731 91.804-29.278Z" fill="url(#A)"/><path d="m297.06 226.913-.883-35.67 19.527 58.953-18.644-23.283Z" fill="url(#B)"/><path d="m173.079 208.009 22.601 92.067 9.583-43.885-32.184-48.182Z" fill="url(#C)"/><path d="m271.392 304.923-75.712-4.846 9.583-43.886 66.129 48.732Z" fill="url(#D)"/><path d="m271.392 304.922-15.55 19.934-60.162-24.78 75.712 4.846Z" fill="url(#E)"/><path d="m205.263 256.191 30.585-88.753-62.769 40.571 32.184 48.182Z" fill="url(#F)"/><path d="m315.704 250.196-44.312 54.726 25.668-78.009 18.644 23.283Z" fill="url(#G)"/><path d="m205.263 256.191 91.797-29.278-61.212-59.475-30.585 88.753Z" fill="url(#H)"/><path d="m235.848 167.438 60.336 23.805.876 35.67-61.212-59.475Z" fill="url(#I)"/><path d="m297.06 226.913-25.668 78.009-66.136-48.731 91.804-29.278Z" fill="url(#J)"/><path d="m297.06 226.913-.883-35.67 19.527 58.953-18.644-23.283Z" fill="url(#K)"/><path d="m173.079 208.009 22.601 92.067 9.583-43.885-32.184-48.182Z" fill="url(#L)"/><path d="m271.392 304.923-75.712-4.846 9.583-43.886 66.129 48.732Z" fill="url(#M)"/><path d="m271.392 304.922-15.55 19.934-60.162-24.78 75.712 4.846Z" fill="url(#N)"/><path d="m205.263 256.191 30.585-88.753-62.769 40.571 32.184 48.182Z" fill="url(#O)"/><path d="m315.704 250.196-44.312 54.726 25.668-78.009 18.644 23.283Z" fill="url(#P)"/><defs><linearGradient id="a" x1=".257" y1="308.097" x2="92.117" y2="308.097" gradientUnits="userSpaceOnUse"><stop stop-color="#ED7F57" stop-opacity=".8"/><stop offset=".21" stop-color="#D2605C" stop-opacity=".87"/><stop offset=".47" stop-color="#B94361" stop-opacity=".94"/><stop offset=".73" stop-color="#AA3264" stop-opacity=".99"/><stop offset="1" stop-color="#A62D65"/></linearGradient><linearGradient id="b" x1="30.877" y1="255" x2="122.736" y2="255" gradientUnits="userSpaceOnUse"><stop stop-color="#ED7F57" stop-opacity=".8"/><stop offset=".21" stop-color="#D2605C" stop-opacity=".87"/><stop offset=".47" stop-color="#B94361" stop-opacity=".94"/><stop offset=".73" stop-color="#AA3264" stop-opacity=".99"/><stop offset="1" stop-color="#A62D65"/></linearGradient><linearGradient id="c" x1="61.497" y1="122.25" x2="428.761" y2="122.25" gradientUnits="userSpaceOnUse"><stop stop-color="#ED7F57" stop-opacity=".8"/><stop offset=".21" stop-color="#D2605C" stop-opacity=".87"/><stop offset=".47" stop-color="#B94361" stop-opacity=".94"/><stop offset=".73" stop-color="#AA3264" stop-opacity=".99"/><stop offset="1" stop-color="#A62D65"/></linearGradient><linearGradient id="d" x1="53.84" y1="294.827" x2="69.181" y2="268.287" gradientUnits="userSpaceOnUse"><stop stop-color="#A32C63" stop-opacity=".8"/><stop offset=".17" stop-color="#792045" stop-opacity=".88"/><stop offset=".35" stop-color="#59162E" stop-opacity=".93"/><stop offset=".53" stop-color="#42101D" stop-opacity=".97"/><stop offset=".74" stop-color="#340C14" stop-opacity=".99"/><stop offset="1" stop-color="#300B11"/></linearGradient><linearGradient id="e" x1="96.553" y1="476.865" x2="149.355" y2="385.521" gradientUnits="userSpaceOnUse"><stop stop-color="#A32C63" stop-opacity=".8"/><stop offset=".17" stop-color="#792045" stop-opacity=".88"/><stop offset=".35" stop-color="#59162E" stop-opacity=".93"/><stop offset=".53" stop-color="#42101D" stop-opacity=".97"/><stop offset=".74" stop-color="#340C14" stop-opacity=".99"/><stop offset="1" stop-color="#300B11"/></linearGradient><linearGradient id="f" x1="76.81" y1="237.294" x2="107.485" y2="184.229" gradientUnits="userSpaceOnUse"><stop stop-color="#A32C63" stop-opacity=".8"/><stop offset=".17" stop-color="#792045" stop-opacity=".88"/><stop offset=".35" stop-color="#59162E" stop-opacity=".93"/><stop offset=".53" stop-color="#42101D" stop-opacity=".97"/><stop offset=".74" stop-color="#340C14" stop-opacity=".99"/><stop offset="1" stop-color="#300B11"/></linearGradient><linearGradient id="g" x1="92.117" y1="387.75" x2="245.492" y2="122.417" gradientUnits="userSpaceOnUse"><stop stop-color="#A32C63" stop-opacity=".8"/><stop offset=".17" stop-color="#792045" stop-opacity=".88"/><stop offset=".35" stop-color="#59162E" stop-opacity=".93"/><stop offset=".53" stop-color="#42101D" stop-opacity=".97"/><stop offset=".74" stop-color="#340C14" stop-opacity=".99"/><stop offset="1" stop-color="#300B11"/></linearGradient><linearGradient id="h" x1="398.141" y1="308.007" x2="490" y2="308.007" gradientUnits="userSpaceOnUse"><stop stop-color="#ED7F57" stop-opacity=".8"/><stop offset=".21" stop-color="#D2605C" stop-opacity=".87"/><stop offset=".47" stop-color="#B94361" stop-opacity=".94"/><stop offset=".73" stop-color="#AA3264" stop-opacity=".99"/><stop offset="1" stop-color="#A62D65"/></linearGradient><linearGradient id="i" x1="367.521" y1="254.903" x2="459.38" y2="254.903" gradientUnits="userSpaceOnUse"><stop stop-color="#ED7F57" stop-opacity=".8"/><stop offset=".21" stop-color="#D2605C" stop-opacity=".87"/><stop offset=".47" stop-color="#B94361" stop-opacity=".94"/><stop offset=".73" stop-color="#AA3264" stop-opacity=".99"/><stop offset="1" stop-color="#A62D65"/></linearGradient><linearGradient id="j" x1="405.79" y1="321.278" x2="451.806" y2="241.68" gradientUnits="userSpaceOnUse"><stop stop-color="#A32C63" stop-opacity=".8"/><stop offset=".17" stop-color="#792045" stop-opacity=".88"/><stop offset=".35" stop-color="#59162E" stop-opacity=".93"/><stop offset=".53" stop-color="#42101D" stop-opacity=".97"/><stop offset=".74" stop-color="#340C14" stop-opacity=".99"/><stop offset="1" stop-color="#300B11"/></linearGradient><linearGradient id="k" x1="395.811" y1="508.239" x2="339.619" y2="354.039" gradientUnits="userSpaceOnUse"><stop stop-color="#A32C63" stop-opacity=".8"/><stop offset=".17" stop-color="#792045" stop-opacity=".88"/><stop offset=".35" stop-color="#59162E" stop-opacity=".93"/><stop offset=".53" stop-color="#42101D" stop-opacity=".97"/><stop offset=".74" stop-color="#340C14" stop-opacity=".99"/><stop offset="1" stop-color="#300B11"/></linearGradient><linearGradient id="l" x1="411.604" y1="247.689" x2="384.613" y2="173.641" gradientUnits="userSpaceOnUse"><stop stop-color="#A32C63" stop-opacity=".8"/><stop offset=".17" stop-color="#792045" stop-opacity=".88"/><stop offset=".35" stop-color="#59162E" stop-opacity=".93"/><stop offset=".53" stop-color="#42101D" stop-opacity=".97"/><stop offset=".74" stop-color="#340C14" stop-opacity=".99"/><stop offset="1" stop-color="#300B11"/></linearGradient><linearGradient id="m" x1="306.274" y1="299.157" x2="367.624" y2="193.02" gradientUnits="userSpaceOnUse"><stop stop-color="#A32C63" stop-opacity=".8"/><stop offset=".17" stop-color="#792045" stop-opacity=".88"/><stop offset=".35" stop-color="#59162E" stop-opacity=".93"/><stop offset=".53" stop-color="#42101D" stop-opacity=".97"/><stop offset=".74" stop-color="#340C14" stop-opacity=".99"/><stop offset="1" stop-color="#300B11"/></linearGradient><linearGradient id="n" x1="61.497" y1="370.002" x2="428.761" y2="370.002" gradientUnits="userSpaceOnUse"><stop stop-color="#ED7F57" stop-opacity=".8"/><stop offset=".21" stop-color="#D2605C" stop-opacity=".87"/><stop offset=".47" stop-color="#B94361" stop-opacity=".94"/><stop offset=".73" stop-color="#AA3264" stop-opacity=".99"/><stop offset="1" stop-color="#A62D65"/></linearGradient><linearGradient id="o" x1="176.813" y1="428.802" x2="191.326" y2="346.607" gradientUnits="userSpaceOnUse"><stop stop-color="#A32C63" stop-opacity=".8"/><stop offset=".17" stop-color="#792045" stop-opacity=".88"/><stop offset=".35" stop-color="#59162E" stop-opacity=".93"/><stop offset=".53" stop-color="#42101D" stop-opacity=".97"/><stop offset=".74" stop-color="#340C14" stop-opacity=".99"/><stop offset="1" stop-color="#300B11"/></linearGradient><linearGradient id="p" x1="245.035" y1="387.757" x2="367.778" y2="387.757" gradientUnits="userSpaceOnUse"><stop stop-color="#A32C63" stop-opacity=".8"/><stop offset=".17" stop-color="#792045" stop-opacity=".88"/><stop offset=".35" stop-color="#59162E" stop-opacity=".93"/><stop offset=".53" stop-color="#42101D" stop-opacity=".97"/><stop offset=".74" stop-color="#340C14" stop-opacity=".99"/><stop offset="1" stop-color="#300B11"/></linearGradient><linearGradient id="q" x1="120.984" y1="103.715" x2="149.931" y2="153.803" gradientUnits="userSpaceOnUse"><stop stop-color="#ED7F57" stop-opacity=".8"/><stop offset=".19" stop-color="#D5635B" stop-opacity=".87"/><stop offset=".47" stop-color="#BB4560" stop-opacity=".94"/><stop offset=".74" stop-color="#AB3363" stop-opacity=".99"/><stop offset="1" stop-color="#A62D65"/></linearGradient><linearGradient id="r" x1="120.984" y1="153.833" x2="149.931" y2="103.746" gradientUnits="userSpaceOnUse"><stop stop-color="#ED7F57" stop-opacity=".8"/><stop offset=".19" stop-color="#D5635B" stop-opacity=".87"/><stop offset=".47" stop-color="#BB4560" stop-opacity=".94"/><stop offset=".74" stop-color="#AB3363" stop-opacity=".99"/><stop offset="1" stop-color="#A62D65"/></linearGradient><linearGradient id="s" x1="353.696" y1="153.833" x2="324.742" y2="103.746" gradientUnits="userSpaceOnUse"><stop stop-color="#ED7F57" stop-opacity=".8"/><stop offset=".19" stop-color="#D5635B" stop-opacity=".87"/><stop offset=".47" stop-color="#BB4560" stop-opacity=".94"/><stop offset=".74" stop-color="#AB3363" stop-opacity=".99"/><stop offset="1" stop-color="#A62D65"/></linearGradient><linearGradient id="t" x1="353.696" y1="153.833" x2="324.742" y2="103.746" gradientUnits="userSpaceOnUse"><stop stop-color="#ED7F57" stop-opacity=".8"/><stop offset=".19" stop-color="#D5635B" stop-opacity=".87"/><stop offset=".47" stop-color="#BB4560" stop-opacity=".94"/><stop offset=".74" stop-color="#AB3363" stop-opacity=".99"/><stop offset="1" stop-color="#A62D65"/></linearGradient><linearGradient id="u" x1="353.696" y1="153.833" x2="324.742" y2="103.746" gradientUnits="userSpaceOnUse"><stop stop-color="#ED7F57" stop-opacity=".8"/><stop offset=".19" stop-color="#D5635B" stop-opacity=".87"/><stop offset=".47" stop-color="#BB4560" stop-opacity=".94"/><stop offset=".74" stop-color="#AB3363" stop-opacity=".99"/><stop offset="1" stop-color="#A62D65"/></linearGradient><linearGradient id="y" x1="205.263" y1="211.818" x2="297.06" y2="211.818" gradientUnits="userSpaceOnUse"><stop stop-color="#EC774B" stop-opacity=".8"/><stop offset=".3" stop-color="#BF5747" stop-opacity=".87"/><stop offset=".76" stop-color="#842D43" stop-opacity=".96"/><stop offset="1" stop-color="#6E1D42"/></linearGradient><linearGradient id="z" x1="235.848" y1="197.175" x2="297.06" y2="197.175" gradientUnits="userSpaceOnUse"><stop stop-color="#EC774B" stop-opacity=".8"/><stop offset=".21" stop-color="#DC6B49" stop-opacity=".83"/><stop offset=".56" stop-color="#B14D46" stop-opacity=".89"/><stop offset="1" stop-color="#6E1D42"/></linearGradient><linearGradient id="A" x1="205.256" y1="265.917" x2="297.06" y2="265.917" gradientUnits="userSpaceOnUse"><stop stop-color="#EC774B" stop-opacity=".8"/><stop offset=".19" stop-color="#E16F4A" stop-opacity=".82"/><stop offset=".47" stop-color="#C45A48" stop-opacity=".86"/><stop offset=".78" stop-color="#953944" stop-opacity=".94"/><stop offset="1" stop-color="#6E1D42"/></linearGradient><linearGradient id="B" x1="296.177" y1="220.716" x2="315.704" y2="220.716" gradientUnits="userSpaceOnUse"><stop stop-color="#EC774B" stop-opacity=".8"/><stop offset=".44" stop-color="#A84646" stop-opacity=".91"/><stop offset=".79" stop-color="#7D2843" stop-opacity=".97"/><stop offset="1" stop-color="#6E1D42"/></linearGradient><linearGradient id="C" x1="173.079" y1="254.039" x2="205.263" y2="254.039" gradientUnits="userSpaceOnUse"><stop stop-color="#EC774B" stop-opacity=".8"/><stop offset=".57" stop-color="#A04145" stop-opacity=".92"/><stop offset="1" stop-color="#6E1D42"/></linearGradient><linearGradient id="D" x1="195.68" y1="280.56" x2="271.392" y2="280.56" gradientUnits="userSpaceOnUse"><stop stop-color="#EC774B" stop-opacity=".8"/><stop offset=".44" stop-color="#A84646" stop-opacity=".91"/><stop offset=".79" stop-color="#7D2843" stop-opacity=".97"/><stop offset="1" stop-color="#6E1D42"/></linearGradient><linearGradient id="E" x1="195.68" y1="312.47" x2="271.392" y2="312.47" gradientUnits="userSpaceOnUse"><stop stop-color="#EC774B" stop-opacity=".8"/><stop offset=".21" stop-color="#DC6B49" stop-opacity=".83"/><stop offset=".56" stop-color="#B14D46" stop-opacity=".89"/><stop offset="1" stop-color="#6E1D42"/></linearGradient><linearGradient id="F" x1="0" y1="211.818" x2="235.848" y2="211.818" gradientUnits="userSpaceOnUse"><stop stop-color="#EC774B" stop-opacity=".8"/><stop offset=".57" stop-color="#A04145" stop-opacity=".92"/><stop offset="1" stop-color="#6E1D42"/></linearGradient><linearGradient id="G" x1="271.392" y1="265.917" x2="315.704" y2="265.917" gradientUnits="userSpaceOnUse"><stop stop-color="#EC774B" stop-opacity=".8"/><stop offset=".23" stop-color="#C15847" stop-opacity=".87"/><stop offset=".54" stop-color="#933844" stop-opacity=".94"/><stop offset=".8" stop-color="#772442" stop-opacity=".98"/><stop offset="1" stop-color="#6E1D42"/></linearGradient><linearGradient id="H" x1="205.263" y1="211.818" x2="297.06" y2="211.818" gradientUnits="userSpaceOnUse"><stop stop-color="#EC774B" stop-opacity=".8"/><stop offset=".3" stop-color="#BF5747" stop-opacity=".87"/><stop offset=".76" stop-color="#842D43" stop-opacity=".96"/><stop offset="1" stop-color="#6E1D42"/></linearGradient><linearGradient id="I" x1="235.848" y1="197.175" x2="297.06" y2="197.175" gradientUnits="userSpaceOnUse"><stop stop-color="#EC774B" stop-opacity=".8"/><stop offset=".21" stop-color="#DC6B49" stop-opacity=".83"/><stop offset=".56" stop-color="#B14D46" stop-opacity=".89"/><stop offset="1" stop-color="#6E1D42"/></linearGradient><linearGradient id="J" x1="205.256" y1="265.917" x2="297.06" y2="265.917" gradientUnits="userSpaceOnUse"><stop stop-color="#EC774B" stop-opacity=".8"/><stop offset=".19" stop-color="#E16F4A" stop-opacity=".82"/><stop offset=".47" stop-color="#C45A48" stop-opacity=".86"/><stop offset=".78" stop-color="#953944" stop-opacity=".94"/><stop offset="1" stop-color="#6E1D42"/></linearGradient><linearGradient id="K" x1="296.177" y1="220.716" x2="315.704" y2="220.716" gradientUnits="userSpaceOnUse"><stop stop-color="#EC774B" stop-opacity=".8"/><stop offset=".44" stop-color="#A84646" stop-opacity=".91"/><stop offset=".79" stop-color="#7D2843" stop-opacity=".97"/><stop offset="1" stop-color="#6E1D42"/></linearGradient><linearGradient id="L" x1="173.079" y1="254.039" x2="205.263" y2="254.039" gradientUnits="userSpaceOnUse"><stop stop-color="#EC774B" stop-opacity=".8"/><stop offset=".57" stop-color="#A04145" stop-opacity=".92"/><stop offset="1" stop-color="#6E1D42"/></linearGradient><linearGradient id="M" x1="195.68" y1="280.56" x2="271.392" y2="280.56" gradientUnits="userSpaceOnUse"><stop stop-color="#EC774B" stop-opacity=".8"/><stop offset=".44" stop-color="#A84646" stop-opacity=".91"/><stop offset=".79" stop-color="#7D2843" stop-opacity=".97"/><stop offset="1" stop-color="#6E1D42"/></linearGradient><linearGradient id="N" x1="195.68" y1="312.47" x2="271.392" y2="312.47" gradientUnits="userSpaceOnUse"><stop stop-color="#EC774B" stop-opacity=".8"/><stop offset=".21" stop-color="#DC6B49" stop-opacity=".83"/><stop offset=".56" stop-color="#B14D46" stop-opacity=".89"/><stop offset="1" stop-color="#6E1D42"/></linearGradient><linearGradient id="O" x1="0" y1="211.818" x2="235.848" y2="211.818" gradientUnits="userSpaceOnUse"><stop stop-color="#EC774B" stop-opacity=".8"/><stop offset=".57" stop-color="#A04145" stop-opacity=".92"/><stop offset="1" stop-color="#6E1D42"/></linearGradient><linearGradient id="P" x1="271.392" y1="265.917" x2="315.704" y2="265.917" gradientUnits="userSpaceOnUse"><stop stop-color="#EC774B" stop-opacity=".8"/><stop offset=".23" stop-color="#C15847" stop-opacity=".87"/><stop offset=".54" stop-color="#933844" stop-opacity=".94"/><stop offset=".8" stop-color="#772442" stop-opacity=".98"/><stop offset="1" stop-color="#6E1D42"/></linearGradient><radialGradient id="v" cx="0" cy="0" r="1" gradientUnits="userSpaceOnUse" gradientTransform="matrix(69.2509 0 0 69.3341 135.428 132.562)"><stop stop-color="#E89780"/><stop offset=".04" stop-color="#E99C87" stop-opacity=".94"/><stop offset=".31" stop-color="#F0BFB1" stop-opacity=".61"/><stop offset=".55" stop-color="#F6DAD2" stop-opacity=".35"/><stop offset=".75" stop-color="#FBEEEA" stop-opacity=".16"/><stop offset=".91" stop-color="#FEFAF9" stop-opacity=".04"/><stop offset="1" stop-color="#fff" stop-opacity="0"/></radialGradient><radialGradient id="w" cx="0" cy="0" r="1" gradientUnits="userSpaceOnUse" gradientTransform="matrix(69.2509 0 0 69.3341 332.251 132.562)"><stop stop-color="#E89780"/><stop offset=".04" stop-color="#E99C87" stop-opacity=".94"/><stop offset=".31" stop-color="#F0BFB1" stop-opacity=".61"/><stop offset=".55" stop-color="#F6DAD2" stop-opacity=".35"/><stop offset=".75" stop-color="#FBEEEA" stop-opacity=".16"/><stop offset=".91" stop-color="#FEFAF9" stop-opacity=".04"/><stop offset="1" stop-color="#fff" stop-opacity="0"/></radialGradient><radialGradient id="x" cx="0" cy="0" r="1" gradientUnits="userSpaceOnUse" gradientTransform="matrix(69.2509 0 0 69.3341 329.46 .348)"><stop stop-color="#E89780"/><stop offset=".04" stop-color="#E99C87" stop-opacity=".94"/><stop offset=".31" stop-color="#F0BFB1" stop-opacity=".61"/><stop offset=".55" stop-color="#F6DAD2" stop-opacity=".35"/><stop offset=".75" stop-color="#FBEEEA" stop-opacity=".16"/><stop offset=".91" stop-color="#FEFAF9" stop-opacity=".04"/><stop offset="1" stop-color="#fff" stop-opacity="0"/></radialGradient></defs></svg>