<svg width="81" height="38" fill="none" xmlns="http://www.w3.org/2000/svg"><path d="M23.522 15.99c.9-1.05 1.44-2.43 1.44-3.93 0-3.33-2.73-6.03-6.06-6.03L2.222 6v21l17.85.03c3.33 0 6.06-2.73 6.06-6.06 0-2.07-1.05-3.9-2.61-4.98Zm-6.45-4.71c.81 0 1.47.63 1.47 1.44 0 .81-.66 1.47-1.47 1.47h-8.46v-2.91h8.46Zm1.17 10.5h-9.63v-2.94h9.63c.81 0 1.47.66 1.47 1.47 0 .81-.66 1.47-1.47 1.47Zm17.03 0v-2.64h14.01v-5.25h-14.01v-2.61h15.18V6.03h-21.57v21h21.57v-5.25h-15.18ZM72.327 6.03v13.11L60.657 6.03h-6.99v21h6.39V14.55l11.1 12.48h7.59v-21h-6.42Z" fill="#F8A16B"/></svg>