<svg width="128" height="38" fill="none" xmlns="http://www.w3.org/2000/svg"><path d="M23.394 15.99c.9-1.05 1.44-2.43 1.44-3.93 0-3.33-2.73-6.03-6.06-6.03L2.094 6v21l17.85.03c3.33 0 6.06-2.73 6.06-6.06 0-2.07-1.05-3.9-2.61-4.98Zm-6.45-4.71c.81 0 1.47.63 1.47 1.44 0 .81-.66 1.47-1.47 1.47h-8.46v-2.91h8.46Zm1.17 10.5h-9.63v-2.94h9.63c.81 0 1.47.66 1.47 1.47 0 .81-.66 1.47-1.47 1.47Zm17.03 0V6.03h-6.39v21h21v-5.25h-14.61ZM70.678 27h7.02L67.408 6.03h-7.02L50.098 27h7.02l1.14-2.31h11.28l1.14 2.31Zm-3.75-7.56h-6.15l3.09-6.27 3.06 6.27Zm25.678-4.29 9.63-9.12h-8.16l-8.19 7.71V6.03h-6.39v21h6.39v-5.55l2.22-2.07 6.54 7.62h8.16l-10.2-11.88Zm18.505 6.63v-2.64h14.01v-5.25h-14.01v-2.61h15.18V6.03h-21.57v21h21.57v-5.25h-15.18Z" fill="#F8A16B"/></svg>