<svg width="263" height="78" fill="none" xmlns="http://www.w3.org/2000/svg"><path d="M14.539 27.03c8.34 0 12.81-2.22 12.81-10.5 0-7.74-4.47-10.5-12.81-10.5H2.299v21h12.24Zm-5.85-5.25v-10.5h5.85c3.96 0 6.42.81 6.42 5.25 0 4.41-2.52 5.25-6.42 5.25h-5.85ZM47.797 27h7.02L44.527 6.03h-7.02L27.217 27h7.02l1.14-2.31h11.28l1.14 2.31Zm-3.75-7.56h-6.15l3.09-6.27 3.06 6.27Zm29.458 7.59h7.23l-3.54-6.72c2.01-1.44 3.33-3.78 3.33-6.42 0-4.35-3.54-7.86-7.89-7.86h-16.02v21h6.39v-5.25h7.74l2.76 5.25Zm-10.5-15.75h8.46c1.47 0 2.64 1.17 2.64 2.61s-1.17 2.64-2.64 2.64h-8.46v-5.25Zm47.517-5.25-4.17 12.51-4.17-12.51h-5.49l-4.17 12.51-4.17-12.51h-6.99l6.99 21h6.99l4.08-12.27 4.08 12.27h7.02l6.99-21h-6.99Zm15.355 21v-21h-6.39v21h6.39Zm22.289-21v13.11l-11.67-13.11h-6.99v21h6.39V14.55l11.1 12.48h7.59v-21h-6.42Zm9.361 0v5.25h13.26l-13.26 10.59v5.16h23.31v-5.25h-13.26l13.26-10.62V6.03h-23.31Zm32.627 15.75v-2.64h14.01v-5.25h-14.01v-2.61h15.18V6.03h-21.57v21h21.57v-5.25h-15.18Zm35.285 5.25h7.23l-3.54-6.72c2.01-1.44 3.33-3.78 3.33-6.42 0-4.35-3.54-7.86-7.89-7.86h-16.02v21h6.39v-5.25h7.74l2.76 5.25Zm-10.5-15.75h8.46c1.47 0 2.64 1.17 2.64 2.61s-1.17 2.64-2.64 2.64h-8.46v-5.25Zm46.486 5.25c0-8.19-4.68-11.1-13.41-11.1-8.76 0-13.41 2.91-13.41 11.1 0 8.73 5.22 11.07 13.41 11.07 8.73 0 13.41-2.34 13.41-11.07Zm-6.99 0c0 4.65-2.34 5.82-6.42 5.82s-6.42-1.17-6.42-5.82c0-4.68 2.34-5.85 6.42-5.85 4.14 0 6.42 1.17 6.42 5.85Z" fill="#F8A16B"/><path d="M90.042 58.84c-.72 2.76-2.85 3.51-6.15 3.51-4.08 0-6.42-1.17-6.42-5.82 0-4.68 2.34-5.85 6.42-5.85 3.36 0 5.46.75 6.15 3.51h7.11c-.84-6.39-5.4-8.76-13.26-8.76-8.76 0-13.41 2.91-13.41 11.1 0 8.73 5.25 11.07 13.41 11.07 7.92 0 12.48-1.92 13.29-8.76h-7.14Zm27.962-12.81v7.86h-11.67v-7.86h-6.39v21h6.39v-7.89h11.67v7.89h6.42v-21h-6.42ZM146.789 67h7.02l-10.29-20.97h-7.02L126.209 67h7.02l1.14-2.31h11.28l1.14 2.31Zm-3.75-7.56h-6.15l3.09-6.27 3.06 6.27Zm18.959 7.59v-21h-6.39v21h6.39Zm22.289-21v13.11l-11.67-13.11h-6.99v21h6.39V54.55l11.1 12.48h7.59v-21h-6.42Z" fill="#FFE9C9"/></svg>