<svg width="36" height="81" fill="none" xmlns="http://www.w3.org/2000/svg"><path d="M35.69 38.643c.194 4.267-.435 7.588-1.978 10.452-1.428 2.65-3.67 4.92-7.056 7.14a2.876 2.876 0 0 1-1.58.474 2.87 2.87 0 0 1-2.39-1.268 2.814 2.814 0 0 1 .803-3.927c4.08-2.677 5.943-5.244 6.393-9.25h-16.62a1.9 1.9 0 0 1-1.91-1.888 1.9 1.9 0 0 1 1.91-1.89h16.646c-.403-2.603-2.293-5.566-4.761-7.786-1.086-.853-2.5-1.737-4.073-2.652l-.126-.054a2.854 2.854 0 0 1-.763-.459c-.695-.395-1.411-.796-2.138-1.202-5.525-3.09-11.773-6.585-14.758-11.442C.806 11.284-.26 7.264.053 2.741.161 1.178 1.53 0 3.107.106c1.58.107 2.771 1.46 2.663 3.02-.18 2.588.268 4.924 1.38 7.087h16.427a1.9 1.9 0 0 1 1.91 1.889 1.9 1.9 0 0 1-1.91 1.89H9.93a23.694 23.694 0 0 0 2.452 2.162c.085.065.163.135.238.207 2.471 1.81 5.462 3.482 8.245 5.038.958.535 1.899 1.062 2.807 1.586 1.94.865 3.777 2.101 5.406 3.573.112.092.224.185.332.278.127.11.24.23.342.354 3.305 3.237 5.615 7.44 5.929 11.355l.001.05.006.047Zm-18.013 15.88c-.726-.407-1.444-.807-2.138-1.203a2.868 2.868 0 0 0-.763-.458l-.126-.054c-1.574-.915-2.987-1.8-4.073-2.652a17.921 17.921 0 0 1-1.776-1.846H23.58a1.9 1.9 0 0 0 1.91-1.889 1.9 1.9 0 0 0-1.91-1.889H6.766c-.105 0-.207.01-.307.027-.384-.909-.63-1.81-.702-2.665-.103-2.367.09-4.292.666-5.963H23.07a1.9 1.9 0 0 0 1.91-1.889 1.9 1.9 0 0 0-1.91-1.89H8.756c.916-.967 2.064-1.882 3.48-2.81a2.814 2.814 0 0 0 .803-3.928 2.872 2.872 0 0 0-2.39-1.268c-.543 0-1.093.153-1.58.473-3.386 2.221-5.628 4.49-7.056 7.14C.469 34.625-.16 37.947.035 42.213l.005.046v.05c.315 3.916 2.625 8.119 5.93 11.355.102.125.214.245.341.355.108.093.22.185.333.278 1.629 1.472 3.466 2.708 5.405 3.572.909.524 1.85 1.052 2.808 1.587 2.783 1.556 5.773 3.228 8.245 5.038.075.073.153.142.238.207 1.243.96 2.305 1.946 3.192 2.966H12.705a1.9 1.9 0 0 0-1.91 1.89 1.9 1.9 0 0 0 1.91 1.888h16.248c.833 1.936 1.159 4.013 1.001 6.284-.108 1.56 1.084 2.913 2.663 3.02 1.577.106 2.946-1.072 3.054-2.633.313-4.523-.752-8.544-3.235-12.15-2.985-4.857-9.234-8.354-14.758-11.442ZM13.262 7.947h16.462c-.893 2.984-2.9 5.627-6.109 8.107a2.813 2.813 0 0 0-.494 3.977 2.873 2.873 0 0 0 2.26 1.09c.617 0 1.238-.197 1.762-.601 6.414-4.955 9.294-10.804 8.804-17.88-.109-1.561-1.479-2.741-3.055-2.633-1.578.107-2.77 1.46-2.662 3.02.027.39.038.774.036 1.153a1.873 1.873 0 0 0-.191-.01H13.262a1.9 1.9 0 0 0-1.91 1.889 1.9 1.9 0 0 0 1.91 1.889Zm9.758 65.764H7.276c.784-3.255 2.842-6.105 6.285-8.765a2.813 2.813 0 0 0 .495-3.977 2.887 2.887 0 0 0-4.022-.489C3.62 65.434.74 71.283 1.23 78.36 1.334 79.855 2.592 81 4.086 81c.065 0 .132-.002.198-.007 1.579-.107 2.771-1.46 2.663-3.02-.012-.163-.02-.324-.026-.485h16.1a1.9 1.9 0 0 0 1.91-1.889 1.9 1.9 0 0 0-1.91-1.888Z" fill="url(#a)"/><defs><linearGradient id="a" x1="0" y1="41.264" x2="36.722" y2="40.888" gradientUnits="userSpaceOnUse"><stop stop-color="#EF3C5A"/><stop offset=".297" stop-color="#F04A3D"/><stop offset="1" stop-color="#F47C20"/></linearGradient></defs></svg>