<svg width="104" height="104" fill="none" xmlns="http://www.w3.org/2000/svg"><path d="M96.57 0c-3.062 0-5.698 2.068-6.506 4.78-6.043 2.065-14.07 7.587-20.306 12.358C44.09 3.653 12.36 22.136 12.36 51.832a39.236 39.236 0 0 0 4.505 18.218C11.947 76.46 6.285 84.704 4.356 90.797A6.726 6.726 0 0 0 0 97.13a6.784 6.784 0 0 0 6.777 6.777c3.15 0 5.8-2.173 6.562-5.126 6.04-2.17 13.9-7.606 19.983-12.278a39.23 39.23 0 0 0 18.216 4.506c21.617 0 39.202-17.576 39.202-39.178a39.267 39.267 0 0 0-4.506-18.242c4.783-6.254 10.318-14.299 12.368-20.322 2.763-.867 4.767-3.456 4.767-6.468 0-3.749-3.05-6.8-6.8-6.8Zm0 4.33a2.472 2.472 0 0 1 2.47 2.47c0 1.277-.984 2.35-2.369 2.467-.034.005-.068-.001-.102.005-1.021 0-1.9-.624-2.278-1.522-.674-1.612.51-3.42 2.278-3.42ZM44.347 17.714l-3.36 3.36a2.163 2.163 0 1 0 3.061 3.06l7.16-7.159c.11 0 .218-.017.33-.017a34.908 34.908 0 0 1 15.227 3.5l-5.658 5.657a2.164 2.164 0 1 0 3.06 3.061l6.458-6.457c4.024 2.641 7.489 5.896 10.4 10.5-6.87 8.687-14.794 17.408-22.756 25.366-7.82 7.819-16.7 15.912-25.314 22.715-1.98-1.251-3-2.119-3.96-2.936l6.117-6.118a2.164 2.164 0 1 0-3.06-3.06l-6.172 6.171c-5.861-6.392-8.95-14.052-9.163-22.659l13.666-13.667a2.164 2.164 0 1 0-3.06-3.06L17.202 46.09c2.355-14.144 13.212-25.44 27.145-28.378v.001ZM6.776 99.58a2.45 2.45 0 0 1-2.448-2.447c0-1.227.864-2.247 2.152-2.445.093-.018.195-.026.296-.026 1.384 0 2.47 1.086 2.47 2.497-.011 1.335-1.12 2.421-2.47 2.421Zm6.192-5.256c-.752-1.654-2.375-3.081-4.022-3.636 1.639-4.098 5.197-9.845 10.314-16.645.1.145.217.276.318.42 2.906 4.091 6.18 7.191 9.749 9.651-6.606 4.973-12.262 8.5-16.359 10.21Zm41.38-7.783 4.028-4.029a2.164 2.164 0 1 0-3.06-3.06l-7.056 7.055a34.876 34.876 0 0 1-11.169-2.952c8.135-6.538 16.771-14.436 24.265-21.928 8.426-8.422 16.194-17.142 21.928-24.266.623 1.37 1.124 2.79 1.564 4.23L73.03 53.409a2.164 2.164 0 1 0 3.061 3.06l9.879-9.878c.262 1.732.442 3.478.442 5.243 0 18.268-14.146 33.268-32.062 34.706Zm29.493-56.946a39.535 39.535 0 0 0-10.083-10.063c6.704-5.03 12.4-8.563 16.487-10.237.642 1.623 2.047 3.131 3.831 3.834-1.67 4.072-5.204 9.76-10.234 16.466Z" fill="url(#a)"/><path d="M102.287 90.805c0-5.1-4.148-9.246-9.247-9.246-5.1 0-9.248 4.148-9.248 9.246 0 5.1 4.149 9.248 9.248 9.248 5.099 0 9.247-4.148 9.247-9.248Zm-14.165 0a4.923 4.923 0 0 1 4.918-4.917 4.923 4.923 0 0 1 4.917 4.917 4.923 4.923 0 0 1-4.917 4.918 4.923 4.923 0 0 1-4.918-4.918Z" fill="url(#b)"/><path d="M10.328 22.351c5.1 0 9.247-4.148 9.247-9.246 0-5.1-4.148-9.249-9.247-9.249-5.1 0-9.248 4.15-9.248 9.249 0 5.1 4.149 9.246 9.248 9.246Zm0-14.164a4.923 4.923 0 0 1 4.918 4.918 4.923 4.923 0 0 1-4.918 4.917 4.923 4.923 0 0 1-4.918-4.917 4.923 4.923 0 0 1 4.918-4.918Z" fill="url(#c)"/><defs><linearGradient id="a" x1="0" y1="52.934" x2="105.399" y2="50.515" gradientUnits="userSpaceOnUse"><stop stop-color="#EF3C5A"/><stop offset=".297" stop-color="#F04A3D"/><stop offset="1" stop-color="#F47C20"/></linearGradient><linearGradient id="b" x1="83.792" y1="90.981" x2="102.65" y2="90.546" gradientUnits="userSpaceOnUse"><stop stop-color="#EF3C5A"/><stop offset=".297" stop-color="#F04A3D"/><stop offset="1" stop-color="#F47C20"/></linearGradient><linearGradient id="c" x1="1.08" y1="13.278" x2="19.938" y2="12.843" gradientUnits="userSpaceOnUse"><stop stop-color="#EF3C5A"/><stop offset=".297" stop-color="#F04A3D"/><stop offset="1" stop-color="#F47C20"/></linearGradient></defs></svg>