<svg width="507" height="492" fill="none" xmlns="http://www.w3.org/2000/svg"><path d="m144.145 366.454 163.294-94.384 36.243 21.137-199.514 114.98-.023-41.733Z" fill="url(#a)"/><path d="m144.145 366.407-36.349-20.96 163.294-94.261 36.255 20.978-163.2 94.243Z" fill="url(#b)"/><path d="m144.098 366.36.041 41.88-36.273-20.931-.07-41.862 36.302 20.913Z" fill="url(#c)"/><path d="M380.031 230.302 507 157.019l-36.273-20.931L343.7 209.353l36.331 20.949Z" fill="url(#d)"/><path d="m507 157.019-.029 41.88-90.644 52.451-36.296-21.048L507 157.019Z" fill="url(#e)"/><path d="m180.476 303.549-.147-230.208 36.414 20.896-.041 188.352-36.226 20.96Z" fill="url(#f)"/><path d="m216.737 94.085 36.22-20.785-36.385-21.019-36.243 21.06 36.408 20.744Z" fill="url(#g)"/><path d="m252.957 73.3.058 188.363-36.313 20.926-.012-188.44L252.957 73.3Z" fill="url(#h)"/><path d="M216.443 366.548 216.731 492l-36.355-20.984.165-83.66 35.902-20.808Z" fill="url(#i)"/><path d="m216.731 492 36.267-20.984-.018-125.528-36.278 20.954.029 125.558Z" fill="url(#j)"/><path d="m71.511 94.278.024 41.78 108.882 62.9-.041-41.921L71.511 94.278Z" fill="url(#k)"/><path d="m71.511 94.278 36.391-21.001 72.527 41.915.024 41.833L71.511 94.278Z" fill="url(#l)"/><path d="m253.051 198.922 181.368 104.674 36.214-21.013-217.588-125.552.006 41.891Z" fill="url(#m)"/><path d="m253.051 198.922 181.368 104.674 36.214-21.013-217.588-125.552.006 41.891Z" fill="url(#n)"/><path d="m434.419 303.596.065 41.815-181.386-104.55-.047-42.038 181.368 104.773Z" fill="url(#o)"/><path d="m434.419 303.596.065 41.815-181.386-104.55-.047-42.038 181.368 104.773Z" fill="url(#p)"/><path d="m470.633 282.583.652 40.506-36.801 22.322-.023-41.856 36.172-20.972Z" fill="url(#q)"/><path d="m307.41 41.88 36.225-20.937L307.41 0l-36.255 20.978L307.41 41.88Z" fill="url(#r)"/><path d="m307.451 356.464-.03 104.075 36.32-20.843.347-63.264-36.637-19.968Z" fill="url(#s)"/><path d="m307.421 460.539-36.196-20.973-.076-104.479 36.302 21.377-.03 104.075Z" fill="url(#t)"/><path d="m181.034 198.928-163.94 94.126 35.984 20.773 127.956-73.195v-41.704Z" fill="url(#u)"/><path d="m181.034 198.928-163.94 94.126 35.984 20.773 127.956-73.195v-41.704Z" fill="url(#v)"/><path d="M470.68 408.404v41.734l-36.266 20.907-.012-41.727 36.278-20.914Z" fill="url(#w)"/><path d="m307.398 314.056 163.611 94.266-36.648 20.861-163.259-94.349 36.296-20.778Z" fill="url(#x)"/><path d="m89.615 188.486 54.718 31.585-36.655 20.861-54.359-31.667 36.296-20.779Z" fill="url(#y)"/><path d="M434.414 471.045 253.051 366.378l-.082-20.89 18.18-10.525 163.253 94.179.012 41.903Z" fill="url(#z)"/><path d="m271.131 167.531.024-146.553 36.272 20.896.112 146.659-36.408-21.002Z" fill="url(#A)"/><path d="m343.635 20.943.088 188.41-36.249-20.802-.064-146.677 36.225-20.931Z" fill="url(#B)"/><path d="M343.682 293.207v42.097l-36.284-21.248 36.284-20.849Z" fill="url(#C)"/><path d="m53.078 313.827.353 42.132-36.76-21.231.423-41.674 35.984 20.773Z" fill="url(#D)"/><path d="m253.045 157.031 18.074-10.384.012 20.885-18.086-10.501Z" fill="#A82D65"/><path d="m343.688 146.559 72.698-42.103-36.179-20.596-36.56 20.755.041 41.944Z" fill="url(#E)"/><path d="m416.245 104.615-.129 41.815-72.481 42.673.053-42.514 72.557-41.974Z" fill="url(#F)"/><path d="M53.078 313.827v42.132l127.286-73.306.67-42.021-127.956 73.195Z" fill="url(#G)"/><path d="m180.476 303.549-18.233 10.425-18.274-10.355 18.291-10.512 18.099-10.454.117 20.896Z" fill="url(#H)"/><path d="M53.32 209.265v42.261l18.608 10.431 35.75-21.025-54.359-31.667Z" fill="url(#I)"/><path d="M57.449 297.421c11.585 0 20.976-9.384 20.976-20.96 0-11.577-9.391-20.961-20.976-20.961-11.585 0-20.977 9.384-20.977 20.961 0 11.576 9.392 20.96 20.977 20.96Z" fill="url(#J)"/><path d="M57.449 297.421c11.585 0 20.976-9.384 20.976-20.96 0-11.577-9.391-20.961-20.976-20.961-11.585 0-20.977 9.384-20.977 20.961 0 11.576 9.392 20.96 20.977 20.96Z" fill="url(#K)"/><path d="M57.449 297.421c11.585 0 20.976-9.384 20.976-20.96 0-11.577-9.391-20.961-20.976-20.961-11.585 0-20.977 9.384-20.977 20.961 0 11.576 9.392 20.96 20.977 20.96Z" fill="#F2DCC2"/><path style="mix-blend-mode:lighten" d="M57.449 329.522c31.728 0 57.449-25.701 57.449-57.405s-25.721-57.405-57.45-57.405C25.722 214.712 0 240.413 0 272.117s25.72 57.405 57.449 57.405Z" fill="url(#L)"/><defs><linearGradient id="a" x1="144.145" y1="340.129" x2="343.682" y2="340.129" gradientUnits="userSpaceOnUse"><stop stop-color="#A82D65" stop-opacity=".8"/><stop offset=".2" stop-color="#98285A" stop-opacity=".83"/><stop offset=".55" stop-color="#6F1D3D" stop-opacity=".89"/><stop offset="1" stop-color="#300B11"/></linearGradient><linearGradient id="b" x1="107.796" y1="308.796" x2="307.345" y2="308.796" gradientUnits="userSpaceOnUse"><stop stop-color="#FF8059" stop-opacity=".8"/><stop offset=".06" stop-color="#F7785A" stop-opacity=".82"/><stop offset=".43" stop-color="#CB4F60" stop-opacity=".92"/><stop offset=".76" stop-color="#B13563" stop-opacity=".98"/><stop offset="1" stop-color="#A82D65"/></linearGradient><linearGradient id="c" x1="116.901" y1="392.527" x2="135.019" y2="361.124" gradientUnits="userSpaceOnUse"><stop stop-color="#A82D65" stop-opacity=".8"/><stop offset=".31" stop-color="#7D2047" stop-opacity=".87"/><stop offset=".76" stop-color="#451120" stop-opacity=".96"/><stop offset="1" stop-color="#300B11"/></linearGradient><linearGradient id="d" x1="489.031" y1="206.348" x2="361.685" y2="159.962" gradientUnits="userSpaceOnUse"><stop stop-color="#FF8059" stop-opacity=".8"/><stop offset=".05" stop-color="#F87959" stop-opacity=".81"/><stop offset=".43" stop-color="#CC4F5F" stop-opacity=".92"/><stop offset=".76" stop-color="#B13663" stop-opacity=".98"/><stop offset="1" stop-color="#A82D65"/></linearGradient><linearGradient id="e" x1="507" y1="204.188" x2="380.031" y2="204.188" gradientUnits="userSpaceOnUse"><stop stop-color="#A82D65" stop-opacity=".8"/><stop offset=".2" stop-color="#98285A" stop-opacity=".83"/><stop offset=".55" stop-color="#6F1D3D" stop-opacity=".89"/><stop offset="1" stop-color="#300B11"/></linearGradient><linearGradient id="f" x1="156.093" y1="82.157" x2="230.054" y2="285.518" gradientUnits="userSpaceOnUse"><stop stop-color="#A82D65" stop-opacity=".8"/><stop offset=".18" stop-color="#9E2A5E" stop-opacity=".82"/><stop offset=".45" stop-color="#83224B" stop-opacity=".86"/><stop offset=".76" stop-color="#57162C" stop-opacity=".93"/><stop offset="1" stop-color="#300B11"/></linearGradient><linearGradient id="g" x1="180.329" y1="73.183" x2="252.957" y2="73.183" gradientUnits="userSpaceOnUse"><stop stop-color="#FF8059" stop-opacity=".8"/><stop offset=".06" stop-color="#F7785A" stop-opacity=".82"/><stop offset=".43" stop-color="#CB4F60" stop-opacity=".92"/><stop offset=".76" stop-color="#B13563" stop-opacity=".98"/><stop offset="1" stop-color="#A82D65"/></linearGradient><linearGradient id="h" x1="184.952" y1="264.269" x2="284.593" y2="91.548" gradientUnits="userSpaceOnUse"><stop stop-color="#A82D65" stop-opacity=".8"/><stop offset=".38" stop-color="#721D3F" stop-opacity=".89"/><stop offset=".78" stop-color="#42101D" stop-opacity=".97"/><stop offset="1" stop-color="#300B11"/></linearGradient><linearGradient id="i" x1="180.488" y1="471.092" x2="234.715" y2="377.089" gradientUnits="userSpaceOnUse"><stop stop-color="#A82D65" stop-opacity=".8"/><stop offset=".31" stop-color="#7D2047" stop-opacity=".87"/><stop offset=".76" stop-color="#451120" stop-opacity=".96"/><stop offset="1" stop-color="#300B11"/></linearGradient><linearGradient id="j" x1="198.275" y1="395.902" x2="271.382" y2="441.618" gradientUnits="userSpaceOnUse"><stop stop-color="#A82D65" stop-opacity=".8"/><stop offset="1" stop-color="#A82D65" stop-opacity=".8"/></linearGradient><linearGradient id="k" x1="149.185" y1="210.315" x2="102.836" y2="82.886" gradientUnits="userSpaceOnUse"><stop stop-color="#A82D65" stop-opacity=".8"/><stop offset=".05" stop-color="#A02A5F" stop-opacity=".81"/><stop offset=".47" stop-color="#631935" stop-opacity=".91"/><stop offset=".81" stop-color="#3E0E1A" stop-opacity=".98"/><stop offset="1" stop-color="#300B11"/></linearGradient><linearGradient id="l" x1="174.25" y1="162.225" x2="98.383" y2="71.747" gradientUnits="userSpaceOnUse"><stop stop-color="#FF8059" stop-opacity=".8"/><stop offset=".06" stop-color="#F7785A" stop-opacity=".82"/><stop offset=".43" stop-color="#CB4F60" stop-opacity=".92"/><stop offset=".76" stop-color="#B13563" stop-opacity=".98"/><stop offset="1" stop-color="#A82D65"/></linearGradient><linearGradient id="m" x1="253.045" y1="230.313" x2="470.633" y2="230.313" gradientUnits="userSpaceOnUse"><stop stop-color="#FF8059" stop-opacity=".8"/><stop offset=".08" stop-color="#E0625D" stop-opacity=".87"/><stop offset=".19" stop-color="#C74A60" stop-opacity=".93"/><stop offset=".32" stop-color="#B53963" stop-opacity=".97"/><stop offset=".5" stop-color="#AA2F64" stop-opacity=".99"/><stop offset="1" stop-color="#A82D65"/></linearGradient><linearGradient id="n" x1="253.045" y1="230.313" x2="470.633" y2="230.313" gradientUnits="userSpaceOnUse"><stop stop-color="#FF8059" stop-opacity=".8"/><stop offset=".06" stop-color="#F7785A" stop-opacity=".82"/><stop offset=".43" stop-color="#CB4F60" stop-opacity=".92"/><stop offset=".76" stop-color="#B13563" stop-opacity=".98"/><stop offset="1" stop-color="#A82D65"/></linearGradient><linearGradient id="o" x1="253.051" y1="272.117" x2="434.484" y2="272.117" gradientUnits="userSpaceOnUse"><stop stop-color="#A82D65" stop-opacity=".8"/><stop offset=".05" stop-color="#A02A5F" stop-opacity=".81"/><stop offset=".47" stop-color="#631935" stop-opacity=".91"/><stop offset=".81" stop-color="#3E0E1A" stop-opacity=".98"/><stop offset="1" stop-color="#300B11"/></linearGradient><linearGradient id="p" x1="253.051" y1="272.117" x2="434.484" y2="272.117" gradientUnits="userSpaceOnUse"><stop stop-color="#A82D65" stop-opacity=".8"/><stop offset=".05" stop-color="#A02A5F" stop-opacity=".81"/><stop offset=".47" stop-color="#631935" stop-opacity=".91"/><stop offset=".81" stop-color="#3E0E1A" stop-opacity=".98"/><stop offset="1" stop-color="#300B11"/></linearGradient><linearGradient id="q" x1="434.373" y1="345.347" x2="470.592" y2="282.559" gradientUnits="userSpaceOnUse"><stop stop-color="#A82D65" stop-opacity=".8"/><stop offset=".2" stop-color="#98285A" stop-opacity=".83"/><stop offset=".55" stop-color="#6F1D3D" stop-opacity=".89"/><stop offset="1" stop-color="#300B11"/></linearGradient><linearGradient id="r" x1="271.155" y1="20.943" x2="343.635" y2="20.943" gradientUnits="userSpaceOnUse"><stop stop-color="#FF8059" stop-opacity=".8"/><stop offset=".06" stop-color="#F7785A" stop-opacity=".82"/><stop offset=".43" stop-color="#CB4F60" stop-opacity=".92"/><stop offset=".76" stop-color="#B13563" stop-opacity=".98"/><stop offset="1" stop-color="#A82D65"/></linearGradient><linearGradient id="s" x1="307.421" y1="408.504" x2="344.088" y2="408.504" gradientUnits="userSpaceOnUse"><stop stop-color="#A82D65" stop-opacity=".8"/><stop offset="1" stop-color="#A82D65" stop-opacity=".8"/></linearGradient><linearGradient id="t" x1="266.637" y1="437.013" x2="311.881" y2="358.582" gradientUnits="userSpaceOnUse"><stop stop-color="#A82D65" stop-opacity=".8"/><stop offset=".31" stop-color="#7D2047" stop-opacity=".87"/><stop offset=".76" stop-color="#451120" stop-opacity=".96"/><stop offset="1" stop-color="#300B11"/></linearGradient><linearGradient id="u" x1="17.094" y1="256.374" x2="181.034" y2="256.374" gradientUnits="userSpaceOnUse"><stop stop-color="#FF8059" stop-opacity=".8"/><stop offset=".06" stop-color="#F7785A" stop-opacity=".82"/><stop offset=".43" stop-color="#CB4F60" stop-opacity=".92"/><stop offset=".76" stop-color="#B13563" stop-opacity=".98"/><stop offset="1" stop-color="#A82D65"/></linearGradient><linearGradient id="v" x1="17.094" y1="256.374" x2="181.034" y2="256.374" gradientUnits="userSpaceOnUse"><stop stop-color="#FF8059" stop-opacity=".8"/><stop offset=".06" stop-color="#F7785A" stop-opacity=".82"/><stop offset=".43" stop-color="#CB4F60" stop-opacity=".92"/><stop offset=".76" stop-color="#B13563" stop-opacity=".98"/><stop offset="1" stop-color="#A82D65"/></linearGradient><linearGradient id="w" x1="461.593" y1="455.379" x2="443.521" y2="424.059" gradientUnits="userSpaceOnUse"><stop stop-color="#A82D65" stop-opacity=".8"/><stop offset=".2" stop-color="#98285A" stop-opacity=".83"/><stop offset=".55" stop-color="#6F1D3D" stop-opacity=".89"/><stop offset="1" stop-color="#300B11"/></linearGradient><linearGradient id="x" x1="271.102" y1="371.619" x2="471.009" y2="371.619" gradientUnits="userSpaceOnUse"><stop stop-color="#FF8059" stop-opacity=".8"/><stop offset=".06" stop-color="#F7785A" stop-opacity=".82"/><stop offset=".43" stop-color="#CB4F60" stop-opacity=".92"/><stop offset=".76" stop-color="#B13563" stop-opacity=".98"/><stop offset="1" stop-color="#A82D65"/></linearGradient><linearGradient id="y" x1="53.319" y1="214.712" x2="144.333" y2="214.712" gradientUnits="userSpaceOnUse"><stop stop-color="#FF8059" stop-opacity=".8"/><stop offset=".06" stop-color="#F7785A" stop-opacity=".82"/><stop offset=".43" stop-color="#CB4F60" stop-opacity=".92"/><stop offset=".76" stop-color="#B13563" stop-opacity=".98"/><stop offset="1" stop-color="#A82D65"/></linearGradient><linearGradient id="z" x1="359.002" y1="484.334" x2="330.836" y2="324.449" gradientUnits="userSpaceOnUse"><stop stop-color="#A82D65" stop-opacity=".8"/><stop offset=".05" stop-color="#A02A5F" stop-opacity=".81"/><stop offset=".47" stop-color="#631935" stop-opacity=".91"/><stop offset=".81" stop-color="#3E0E1A" stop-opacity=".98"/><stop offset="1" stop-color="#300B11"/></linearGradient><linearGradient id="A" x1="237.384" y1="61.191" x2="341.238" y2="148.404" gradientUnits="userSpaceOnUse"><stop stop-color="#A82D65" stop-opacity=".8"/><stop offset=".24" stop-color="#912655" stop-opacity=".84"/><stop offset=".71" stop-color="#57162C" stop-opacity=".93"/><stop offset="1" stop-color="#300B11"/></linearGradient><linearGradient id="B" x1="293.77" y1="180.644" x2="375.351" y2="39.238" gradientUnits="userSpaceOnUse"><stop stop-color="#A82D65" stop-opacity=".8"/><stop offset=".27" stop-color="#7A1F44" stop-opacity=".88"/><stop offset=".56" stop-color="#511428" stop-opacity=".94"/><stop offset=".82" stop-color="#380D17" stop-opacity=".99"/><stop offset="1" stop-color="#300B11"/></linearGradient><linearGradient id="C" x1="307.398" y1="314.255" x2="343.682" y2="314.255" gradientUnits="userSpaceOnUse"><stop stop-color="#A82D65" stop-opacity=".8"/><stop offset="1" stop-color="#A82D65" stop-opacity=".8"/></linearGradient><linearGradient id="D" x1="26.175" y1="340.234" x2="44.329" y2="308.767" gradientUnits="userSpaceOnUse"><stop stop-color="#A82D65" stop-opacity=".8"/><stop offset=".31" stop-color="#7D2047" stop-opacity=".87"/><stop offset=".76" stop-color="#451120" stop-opacity=".96"/><stop offset="1" stop-color="#300B11"/></linearGradient><linearGradient id="E" x1="344.299" y1="147.07" x2="395.035" y2="86.557" gradientUnits="userSpaceOnUse"><stop stop-color="#FF8059" stop-opacity=".8"/><stop offset=".4" stop-color="#E1635D" stop-opacity=".87"/><stop offset="1" stop-color="#A82D65"/></linearGradient><linearGradient id="F" x1="343.635" y1="146.859" x2="416.245" y2="146.859" gradientUnits="userSpaceOnUse"><stop stop-color="#A82D65" stop-opacity=".8"/><stop offset=".38" stop-color="#721D3F" stop-opacity=".89"/><stop offset=".78" stop-color="#42101D" stop-opacity=".97"/><stop offset="1" stop-color="#300B11"/></linearGradient><linearGradient id="G" x1="53.078" y1="298.296" x2="181.034" y2="298.296" gradientUnits="userSpaceOnUse"><stop stop-color="#A82D65" stop-opacity=".8"/><stop offset=".2" stop-color="#98285A" stop-opacity=".83"/><stop offset=".55" stop-color="#6F1D3D" stop-opacity=".89"/><stop offset="1" stop-color="#300B11"/></linearGradient><linearGradient id="H" x1="143.969" y1="298.313" x2="180.476" y2="298.313" gradientUnits="userSpaceOnUse"><stop stop-color="#A82D65" stop-opacity=".8"/><stop offset=".05" stop-color="#A02A5F" stop-opacity=".81"/><stop offset=".47" stop-color="#631935" stop-opacity=".91"/><stop offset=".81" stop-color="#3E0E1A" stop-opacity=".98"/><stop offset="1" stop-color="#300B11"/></linearGradient><linearGradient id="I" x1="53.319" y1="235.614" x2="107.678" y2="235.614" gradientUnits="userSpaceOnUse"><stop stop-color="#A82D65" stop-opacity=".8"/><stop offset=".05" stop-color="#A02A5F" stop-opacity=".81"/><stop offset=".47" stop-color="#631935" stop-opacity=".91"/><stop offset=".81" stop-color="#3E0E1A" stop-opacity=".98"/><stop offset="1" stop-color="#300B11"/></linearGradient><linearGradient id="J" x1="36.472" y1="276.461" x2="78.425" y2="276.461" gradientUnits="userSpaceOnUse"><stop stop-color="#FF8059" stop-opacity=".8"/><stop offset=".61" stop-color="#C54860" stop-opacity=".93"/><stop offset="1" stop-color="#A82D65"/></linearGradient><linearGradient id="K" x1="36.472" y1="276.461" x2="78.425" y2="276.461" gradientUnits="userSpaceOnUse"><stop stop-color="#FF8059" stop-opacity=".8"/><stop offset=".61" stop-color="#C54860" stop-opacity=".93"/><stop offset="1" stop-color="#A82D65"/></linearGradient><radialGradient id="L" cx="0" cy="0" r="1" gradientUnits="userSpaceOnUse" gradientTransform="matrix(57.4488 0 0 57.4052 57.449 272.117)"><stop stop-color="#EA9980"/><stop offset=".05" stop-color="#EB9F88" stop-opacity=".94"/><stop offset=".32" stop-color="#F2C1B1" stop-opacity=".61"/><stop offset=".55" stop-color="#F7DBD3" stop-opacity=".35"/><stop offset=".75" stop-color="#FBEEEA" stop-opacity=".16"/><stop offset=".91" stop-color="#FEFAF9" stop-opacity=".04"/><stop offset="1" stop-color="#fff" stop-opacity="0"/></radialGradient></defs></svg>