<svg width="229" height="51" fill="none" xmlns="http://www.w3.org/2000/svg">\<style>.genesis-tone-1{fill:var(--svg-tone-1, #32011D)}.genesis-tone-2{fill:var(--svg-tone-2, var(--svg-tone-1, #32011D))}</style><path class="genesis-tone-1" d="M25.404 15.011h-.012c0 5.775-4.937 6.93-12.688 6.93C4.952 21.941 0 20.786 0 14.434h6.352c0 2.31 2.62 2.31 6.352 2.31s6.293 0 6.293-1.732c0-2.033-2.713-1.897-6.367-2.021h-.025C4.853 12.722.287 12.126.287 6.639S4.937 0 12.688 0c7.751 0 12.414 1.155 12.414 7.507H18.75c0-2.31-2.311-2.31-6.062-2.31-3.75 0-6.006 0-6.006 1.442 0 1.758 2.435 1.607 6.093 1.733h.027c7.749.266 12.6.865 12.6 6.64h.002ZM50.268 8.375c0 4.298-3.497 7.795-7.795 7.795H34.68v5.196h-6.352V.581h14.146c4.298 0 7.795 3.497 7.795 7.794Zm-6.352 0a2.6 2.6 0 0 0-2.598-2.598h-6.64v5.197h6.64a2.6 2.6 0 0 0 2.598-2.599ZM67.847 19.055H56.666l-1.14 2.311h-6.951L58.767.581h6.945l10.2 20.785h-6.938l-1.127-2.31ZM62.227 7.66l-3.056 6.2h6.083l-3.024-6.2h-.003ZM109.167.58l-6.929 20.786h-6.93L91.268 9.24l-4.042 12.126h-6.93L73.37.581h6.93l4.127 12.385L88.555.581h5.428l4.127 12.385L102.238.581h6.929ZM135.937.58v20.786h-7.507L117.459 9.024v12.342h-6.351V.581h6.929l11.548 12.99V.582h6.352ZM170.641 19.055H159.46l-1.14 2.311h-6.951L161.561.581h6.945l10.201 20.785h-6.939l-1.127-2.31Zm-5.62-11.396-3.055 6.2h6.083l-3.025-6.2h-.003ZM194.469 16.167h-7.649v5.196h-6.352V.581h15.879c4.298 0 7.795 3.497 7.795 7.794a7.796 7.796 0 0 1-3.281 6.352l3.503 6.64h-7.152l-2.743-5.197v-.003Zm-7.649-5.197h8.372a2.6 2.6 0 0 0 2.598-2.598 2.6 2.6 0 0 0-2.598-2.598h-8.372v5.196ZM228.684 5.777h-8.372v15.59h-6.352V5.776h-8.372V.581h23.096v5.196Z"/><g opacity=".5"><path class="genesis-tone-2" d="M26.56 37.987v10.97H21.94v-.907c-2.16 1.087-5.054 1.486-8.647 1.486C5.196 49.536 0 47.225 0 38.566c0-8.083 4.619-10.971 13.294-10.971 7.526 0 11.999 2.187 13.034 8.085h-7.124c-.831-2.243-2.852-2.886-5.91-2.886-4.057 0-6.364 1.156-6.364 5.774 0 4.619 2.31 5.774 6.364 5.774 2.406 0 4.201-.414 5.255-1.733h-4.693V37.99H26.56v-.003ZM51.087 43.761v5.197H29.723V28.172h21.364v5.197H36.075v2.598h13.856v5.196H36.075v2.599h15.011ZM79.076 28.172v20.786H71.57L60.6 36.616v12.342h-6.352V28.172h6.93l11.548 12.991v-12.99h6.352ZM104.027 43.761v5.197H82.663V28.172h21.364v5.197H89.015v2.598h13.856v5.196H89.015v2.599h15.012ZM131.881 42.606h-.013c0 5.774-4.936 6.93-12.688 6.93-7.751 0-12.703-1.156-12.703-7.508h6.351c0 2.311 2.62 2.311 6.352 2.311s6.293 0 6.293-1.733c0-2.033-2.712-1.897-6.367-2.02h-.025c-7.748-.266-12.311-.865-12.311-6.35 0-5.483 4.647-6.638 12.401-6.638s12.413 1.155 12.413 7.507h-6.352c0-2.311-2.31-2.311-6.061-2.311s-6.006 0-6.006 1.443c0 1.758 2.435 1.606 6.092 1.733h.028c7.749.266 12.599.865 12.599 6.64l-.003-.004ZM134.803 48.958V28.172h6.352v20.786h-6.352ZM169.411 42.606h-.012c0 5.774-4.937 6.93-12.689 6.93-7.751 0-12.703-1.156-12.703-7.508h6.352c0 2.311 2.619 2.311 6.351 2.311 3.732 0 6.294 0 6.294-1.733 0-2.033-2.713-1.897-6.368-2.02h-.024c-7.749-.266-12.312-.865-12.312-6.35 0-5.483 4.647-6.638 12.401-6.638 7.755 0 12.413 1.155 12.413 7.507h-6.351c0-2.311-2.311-2.311-6.062-2.311-3.75 0-6.006 0-6.006 1.443 0 1.758 2.435 1.606 6.093 1.733h.027c7.749.266 12.599.865 12.599 6.64l-.003-.004ZM189.739 51c-6.602 0-11.971-5.37-11.971-11.971 0-6.603 5.369-11.972 11.971-11.972s11.972 5.37 11.972 11.972c0 6.602-5.37 11.971-11.972 11.971Zm0-22.24c-5.662 0-10.269 4.606-10.269 10.269 0 5.662 4.607 10.269 10.269 10.269 5.663 0 10.27-4.607 10.27-10.27 0-5.662-4.607-10.269-10.27-10.269Z"/><path class="genesis-tone-2" d="M195.025 41.695c0-2.92-2.366-10.619-5.286-10.619-2.919 0-5.286 7.7-5.286 10.619a5.286 5.286 0 0 0 10.572 0Z"/></g></svg>