<svg xmlns="http://www.w3.org/2000/svg" viewBox="0 0 1129.9 1441" style="enable-background:new 0 0 1129.9 1441" xml:space="preserve"><style>.st3{fill:none;stroke:#ffe9c9}</style><g style="opacity:.25" id="Layer_1"><path class="st3" d="M1130.5 1440.5H.5V1.5h1130M0 .5h1131M0 90.5h1131M0 180.5h1131M0 270.5h1131M0 360.5h1131M0 450.5h1131M0 540.5h1131M0 630.5h1131M0 720.5h1131M0 810.5h1131M0 900.5h1131M0 990.5h1131M0 1080.5h1131M0 1170.5h1131M0 1260.5h1131M0 1350.5h1131M0 1440.5h1131M.5 1v1440M87.5 1v1440M174.5 1v1440M261.5 1v1440M348.5 1v1440M435.5 1v1440M522.5 1v1440M609.5 1v1440M696.5 1v1440M783.5 1v1440M870.5 1v1440M957.5 1v1440M1044.5 1v1440"/></g></svg>