<svg width="118" height="26" fill="none" xmlns="http://www.w3.org/2000/svg"><path d="M11.16 24.032v-8.416h21.472v-5.6H11.16V7.232h23.328v-5.6H.92v22.4h10.24ZM64.894 24h11.2L59.614 1.632H48.382L31.934 24h11.232l1.824-2.464h18.08L64.894 24Zm-6.016-8.064h-9.824l4.928-6.688 4.896 6.688Zm58.774-3.104c0-8.736-7.456-11.84-21.44-11.84-14.016 0-21.472 3.104-21.472 11.84 0 9.312 8.384 11.808 21.472 11.808 4.704 0 8.672-.288 11.84-1.024l3.072 2.048 5.6-3.712-2.08-1.376c1.984-1.792 3.008-4.32 3.008-7.744Zm-21.44 6.208c-6.56 0-10.272-1.248-10.272-6.208 0-4.992 3.712-6.24 10.272-6.24 6.624 0 10.24 1.248 10.24 6.24 0 .768-.096 1.472-.288 2.08l-2.624-1.792-5.6 3.744 2.784 1.888c-1.312.192-2.816.288-4.512.288Z" fill="#FFE9C9"/></svg>