<svg width="331" height="25" fill="none" xmlns="http://www.w3.org/2000/svg"><path d="M11.16 24.032v-8.416h21.472v-5.6H11.16V7.232h23.328v-5.6H.92v22.4h10.24Zm67.867-11.2c0-8.736-7.456-11.84-21.44-11.84-14.016 0-21.472 3.104-21.472 11.84 0 9.312 8.384 11.808 21.472 11.808 13.984 0 21.44-2.496 21.44-11.808Zm-11.2 0c0 4.96-3.744 6.208-10.24 6.208-6.56 0-10.272-1.248-10.272-6.208 0-4.992 3.712-6.24 10.272-6.24 6.624 0 10.24 1.248 10.24 6.24Zm13.581 0c0 9.312 8.384 11.808 19.616 11.808 11.168 0 19.552-2.496 19.552-11.808v-11.2h-10.24v11.2c0 4.96-3.744 6.208-9.312 6.208-5.632 0-9.376-1.248-9.376-6.208v-11.2h-10.24v11.2Zm72.399-11.2v13.984L135.151 1.632h-11.2v22.4h10.24V10.72l17.728 13.312h12.16v-22.4h-10.272Zm33.697 22.4c13.376 0 20.512-2.368 20.512-11.2 0-8.256-7.136-11.2-20.512-11.2H167.92v22.4h19.584Zm-9.344-5.6v-11.2h9.344c6.336 0 10.272.864 10.272 5.6 0 4.704-4.032 5.6-10.272 5.6h-9.344Zm42.938 0v-2.816h22.4v-5.6h-22.4V7.232h24.288v-5.6h-34.528v22.4h34.528v-5.6h-24.288Zm54.612 5.6h11.584l-5.664-7.168c3.2-1.536 5.28-4.032 5.28-6.848 0-4.64-5.632-8.384-12.576-8.384H248.67v22.4h10.24v-5.6h12.384l4.416 5.6Zm-16.8-16.8h13.536c2.336 0 4.192 1.248 4.192 2.784 0 1.536-1.856 2.816-4.192 2.816H258.91v-5.6Zm50.817 2.784h-.032c-5.92-.128-9.856.032-9.856-1.856 0-1.568 3.808-1.568 9.696-1.568 6.08 0 9.824 0 9.824 2.496h10.272c0-6.848-7.008-8.096-20.096-8.096-12.512 0-20.032 1.248-20.032 7.168 0 5.888 7.392 6.528 19.904 6.816h.032c5.92.16 10.304 0 10.304 2.208 0 1.856-4.256 1.856-10.176 1.856-6.016 0-10.272 0-10.272-2.496h-10.24c0 6.848 7.455 8.096 20.512 8.096 12.544 0 20.512-1.248 20.512-7.456h.032c0-6.24-7.84-6.88-20.384-7.168Z" fill="#fff"/></svg>