<svg width="383" height="25" fill="none" xmlns="http://www.w3.org/2000/svg"><path d="M21.664 10.016h-.032c-5.92-.128-9.856.032-9.856-1.856 0-1.568 3.808-1.568 9.696-1.568 6.08 0 9.824 0 9.824 2.496h10.272c0-6.848-7.008-8.096-20.096-8.096C8.96.992 1.44 2.24 1.44 8.16c0 5.888 7.392 6.528 19.904 6.816h.032c5.92.16 10.304 0 10.304 2.208 0 1.856-4.256 1.856-10.176 1.856-6.016 0-10.272 0-10.272-2.496H.992c0 6.848 7.456 8.096 20.512 8.096 12.544 0 20.512-1.248 20.512-7.456h.032c0-6.24-7.84-6.88-20.384-7.168Zm53.237-8.384v13.984L56.245 1.632h-11.2v22.4h10.24V10.72l17.728 13.312h12.16v-22.4H74.901Zm24.353 16.8v-2.816h22.4v-5.6h-22.4V7.232h24.288v-5.6H89.014v22.4h34.528v-5.6H99.254ZM157.706 24h11.2l-16.48-22.368h-11.232L124.746 24h11.232l1.824-2.464h18.08L157.706 24Zm-6.016-8.064h-9.824l4.928-6.688 4.896 6.688Zm39.971-4.576 15.424-9.728h-13.056l-13.088 8.224V1.632h-10.24v22.4h10.24v-5.92l3.52-2.208 10.496 8.128h13.056L191.661 11.36Zm62.701-9.728h-22.848v22.4h10.24v-5.6h12.608c6.944 0 12.608-3.776 12.608-8.416 0-4.64-5.664-8.384-12.608-8.384Zm-1.856 11.2h-10.752v-5.6h10.752c2.304 0 4.192 1.248 4.192 2.784 0 1.536-1.888 2.816-4.192 2.816Zm27.217 5.6v-2.816h22.4v-5.6h-22.4V7.232h24.288v-5.6h-34.528v22.4h34.528v-5.6h-24.288Zm37.812 0v-2.816h22.4v-5.6h-22.4V7.232h24.288v-5.6h-34.528v22.4h34.528v-5.6h-24.288Zm48.533-7.072 15.424-9.728h-13.056l-13.088 8.224V1.632h-10.24v22.4h10.24v-5.92l3.52-2.208 10.496 8.128h13.056L366.068 11.36Z" fill="#FFE9C9"/></svg>