<svg width="299" height="25" fill="none" xmlns="http://www.w3.org/2000/svg"><path d="M37.664 1.632H.352v5.6h13.504v16.8h10.272v-16.8h13.536v-5.6Zm31.246 0v8.384H50.222V1.632h-10.24v22.4h10.24v-8.416H68.91v8.416h10.24v-22.4H68.91Zm24.344 16.8v-2.816h22.4v-5.6h-22.4V7.232h24.288v-5.6H83.014v22.4h34.528v-5.6H93.254Zm59.375 0v-16.8h-10.24v22.4h33.568v-5.6h-23.328Zm67.554-5.6c0-8.736-7.456-11.84-21.44-11.84-14.016 0-21.472 3.104-21.472 11.84 0 9.312 8.384 11.808 21.472 11.808 13.984 0 21.44-2.496 21.44-11.808Zm-11.2 0c0 4.96-3.744 6.208-10.24 6.208-6.56 0-10.272-1.248-10.272-6.208 0-4.992 3.712-6.24 10.272-6.24 6.624 0 10.24 1.248 10.24 6.24Zm41.133 11.2H261.7l-5.664-7.168c3.2-1.536 5.28-4.032 5.28-6.848 0-4.64-5.632-8.384-12.576-8.384h-25.664v22.4h10.24v-5.6H245.7l4.416 5.6Zm-16.8-16.8h13.536c2.336 0 4.192 1.248 4.192 2.784 0 1.536-1.856 2.816-4.192 2.816h-13.536v-5.6Zm41.313 11.2v-2.816h22.4v-5.6h-22.4V7.232h24.288v-5.6h-34.528v22.4h34.528v-5.6h-24.288Z" fill="#FFE9C9"/></svg>