<svg width="252" height="24" fill="none" xmlns="http://www.w3.org/2000/svg"><path d="M37.664.632H.352v5.6h13.504v16.8h10.272v-16.8h13.536v-5.6Zm29.358 22.4h11.584l-5.663-7.168c3.2-1.536 5.28-4.032 5.28-6.848 0-4.64-5.632-8.384-12.576-8.384H39.982v22.4h10.24v-5.6h12.384l4.416 5.6Zm-16.8-16.8h13.536c2.336 0 4.193 1.248 4.193 2.784 0 1.536-1.856 2.816-4.192 2.816H50.221v-5.6ZM112.175 23h11.2L106.895.632H95.663L79.215 23h11.232l1.824-2.464h18.08L112.175 23Zm-6.016-8.064h-9.824l4.928-6.688 4.896 6.688Zm29.251 8.096V.632h-10.24v22.4h10.24Zm14.125-5.6V.632h-10.24v22.4h33.568v-5.6h-23.328Zm35.906 0v-2.816h22.4v-5.6h-22.4V6.232h24.288v-5.6h-34.528v22.4h34.528v-5.6h-24.288Zm54.613 5.6h11.584l-5.664-7.168c3.2-1.536 5.28-4.032 5.28-6.848 0-4.64-5.632-8.384-12.576-8.384h-25.664v22.4h10.24v-5.6h12.384l4.416 5.6Zm-16.8-16.8h13.536c2.336 0 4.192 1.248 4.192 2.784 0 1.536-1.856 2.816-4.192 2.816h-13.536v-5.6Z" fill="#FFE9C9"/></svg>