<svg width="612" height="25" fill="none" xmlns="http://www.w3.org/2000/svg"><path d="m47.624 1.632-6.688 13.344L34.28 1.632h-8.768l-6.688 13.344-6.656-13.344H.968l11.2 22.4h11.2l6.528-13.088 6.528 13.088h11.2l11.2-22.4h-11.2Zm42.036 0v8.384H70.972V1.632h-10.24v22.4h10.24v-8.416h18.689v8.416H99.9v-22.4H89.66Zm55.992 11.2c0-8.736-7.456-11.84-21.44-11.84-14.016 0-21.472 3.104-21.472 11.84 0 9.312 8.384 11.808 21.472 11.808 13.984 0 21.44-2.496 21.44-11.808Zm-11.2 0c0 4.96-3.744 6.208-10.24 6.208-6.56 0-10.272-1.248-10.272-6.208 0-4.992 3.712-6.24 10.272-6.24 6.624 0 10.24 1.248 10.24 6.24Zm45.896 11.2v-22.4h-10.24v22.4h10.24Zm23.629-14.016h-.032c-5.92-.128-9.856.032-9.856-1.856 0-1.568 3.808-1.568 9.696-1.568 6.08 0 9.824 0 9.824 2.496h10.272c0-6.848-7.008-8.096-20.096-8.096-12.512 0-20.032 1.248-20.032 7.168 0 5.888 7.392 6.528 19.904 6.816h.032c5.92.16 10.304 0 10.304 2.208 0 1.856-4.256 1.856-10.176 1.856-6.016 0-10.272 0-10.272-2.496h-10.24c0 6.848 7.455 8.096 20.512 8.096 12.544 0 20.512-1.248 20.512-7.456h.032c0-6.24-7.84-6.88-20.384-7.168Zm64.687 0h-.032c-5.92-.128-9.856.032-9.856-1.856 0-1.568 3.808-1.568 9.696-1.568 6.08 0 9.824 0 9.824 2.496h10.272c0-6.848-7.008-8.096-20.096-8.096-12.512 0-20.032 1.248-20.032 7.168 0 5.888 7.392 6.528 19.904 6.816h.032c5.92.16 10.304 0 10.304 2.208 0 1.856-4.256 1.856-10.176 1.856-6.016 0-10.272 0-10.272-2.496h-10.24c0 6.848 7.456 8.096 20.512 8.096 12.544 0 20.512-1.248 20.512-7.456h.032c0-6.24-7.84-6.88-20.384-7.168Zm46.229-8.384h-22.848v22.4h10.24v-5.6h12.608c6.944 0 12.608-3.776 12.608-8.416 0-4.64-5.664-8.384-12.608-8.384Zm-1.856 11.2h-10.752v-5.6h10.752c2.304 0 4.192 1.248 4.192 2.784 0 1.536-1.888 2.816-4.192 2.816ZM357.738 24h11.2l-16.48-22.368h-11.232L324.777 24h11.233l1.824-2.464h18.08L357.738 24Zm-6.016-8.064h-9.824l4.928-6.688 4.896 6.688Zm59.996-14.304-6.688 13.344-6.656-13.344h-8.768l-6.688 13.344-6.656-13.344h-11.2l11.2 22.4h11.2l6.528-13.088 6.528 13.088h11.2l11.2-22.4h-11.2Zm42.964 0v13.984L436.026 1.632h-11.2v22.4h10.24V10.72l17.728 13.312h12.16v-22.4h-10.272ZM521.238 24h11.2l-16.48-22.368h-11.232L488.277 24h11.233l1.824-2.464h18.08L521.238 24Zm-6.016-8.064h-9.824l4.928-6.688 4.896 6.688Zm46.051 8.096h11.584l-5.664-7.168c3.2-1.536 5.28-4.032 5.28-6.848 0-4.64-5.633-8.384-12.576-8.384h-25.664v22.4h10.24v-5.6h12.384l4.416 5.6Zm-16.8-16.8h13.536c2.336 0 4.192 1.248 4.192 2.784 0 1.536-1.856 2.816-4.192 2.816h-13.536v-5.6Zm66.816-5.6h-37.312v5.6h13.504v16.8h10.272v-16.8h13.536v-5.6Z" fill="#FFE9C9"/></svg>