<svg width="117" height="110" fill="none" xmlns="http://www.w3.org/2000/svg"><path d="M93.323 17.637h3.528v3.527h-3.528v-3.527Z" fill="url(#a)"/><path d="M84.505 12.346h3.527v3.527h-3.527v-3.527Z" fill="url(#b)"/><path d="m113.493 62.148-4.301 3.965a16.706 16.706 0 0 0-4.922-11.804 13.208 13.208 0 0 1-3.893-9.4v-.207c2.138-1.057 3.527-3.243 3.527-5.773a6.285 6.285 0 0 0-1.855-4.478l-1.672-1.671v-2.798c0-1.504-.33-2.968-.938-4.32l.92-.615 5.3 3.527 7.064-4.7v-.947C112.723 10.286 102.437 0 89.795 0 77.153 0 66.868 10.286 66.868 22.927v.944l7.053 4.703 5.289-3.527.936.626a10.539 10.539 0 0 0-.933 4.31v2.797l-1.672 1.672c-1.195 1.194-1.855 2.784-1.855 4.583a6.313 6.313 0 0 0 3.527 5.667v.207c0 3.55-1.382 6.887-3.892 9.399a16.713 16.713 0 0 0-4.923 11.808l-4.3-3.97-.894 2.522c-1.27 3.587-1.864 10.89-1.864 14.697 0 16.532 11.868 29.982 26.455 29.982 14.587 0 26.455-13.45 26.455-29.982 0-3.807-.593-11.11-1.866-14.699l-.891-2.518Zm-5.663-46.313c-.134.009-.265.039-.398.039a5.297 5.297 0 0 1-5.291-5.291c0-.75.181-1.48.495-2.16a19.462 19.462 0 0 1 5.194 7.412ZM94.496 4.128c-.875 1.753-2.657 2.927-4.7 2.927-2.045 0-3.827-1.174-4.701-2.927 1.508-.378 3.078-.6 4.7-.6 1.623 0 3.192.222 4.7.6ZM76.954 8.424c.314.68.496 1.41.496 2.159a5.297 5.297 0 0 1-5.291 5.29c-.134 0-.265-.03-.399-.038a19.456 19.456 0 0 1 5.194-7.411Zm-3.033 15.912-3.503-2.337c.044-.933.176-1.842.347-2.735.46.073.924.137 1.394.137 4.862 0 8.818-3.956 8.818-8.818 0-1.507-.418-2.963-1.152-4.269.624-.375 1.27-.715 1.938-1.02 1.373 3.15 4.462 5.288 8.032 5.288 3.57 0 6.66-2.139 8.033-5.289.667.306 1.314.646 1.939 1.021-.736 1.306-1.154 2.762-1.154 4.269 0 4.862 3.956 8.818 8.819 8.818.469 0 .933-.064 1.393-.138.173.894.303 1.802.35 2.734l-3.513 2.338-5.3-3.527-5.291 3.527-5.29-3.527-5.287 3.527-5.282-3.527-5.291 3.528Zm6.114 12.61 2.706-2.706v-4.257a7 7 0 0 1 .403-2.307l1.347.899 5.288-3.527 5.29 3.527 1.372-.916c.26.744.409 1.524.409 2.324v4.257l2.705 2.707c.531.529.822 1.233.822 2.088 0 1.21-.772 2.278-1.919 2.66a6.364 6.364 0 0 0-4.003 4.006 2.802 2.802 0 0 1-2.662 1.918h-3.996c-1.21 0-2.28-.77-2.663-1.919a6.363 6.363 0 0 0-4.004-4.005c-1.144-.381-1.917-1.452-1.917-2.765 0-.75.292-1.453.822-1.984Zm-2.22 19.857a16.69 16.69 0 0 0 4.614-8.665 6.31 6.31 0 0 0 5.368 3.009h3.996a6.312 6.312 0 0 0 5.37-3.007 16.702 16.702 0 0 0 4.613 8.663 13.208 13.208 0 0 1 3.892 9.398v.737l-4.429-4.08-5.73 5.29-5.73-5.29-5.73 5.29-5.724-5.29-4.403 4.065V66.2c0-3.55 1.383-6.889 3.893-9.398Zm26.932 14.082a8.794 8.794 0 0 1-7.898 4.953c-4.113 0-7.622-2.886-8.54-6.822l1.47-1.358 5.73 5.29 5.734-5.29 3.504 3.227ZM67.35 84.757c.424-.064.853-.101 1.282-.101 4.862 0 8.818 3.956 8.818 8.818A8.709 8.709 0 0 1 75 99.541c-3.83-3.746-6.59-8.906-7.65-14.784Zm10.357 17.045a12.2 12.2 0 0 0 3.27-8.328c0-6.807-5.54-12.345-12.345-12.345-.563 0-1.124.054-1.681.132-.039-.63-.083-1.256-.083-1.896 0-2.75.344-7.407.983-10.802l4.747 4.386 5.73-5.291 5.722 5.29 1.383-1.276c1.855 4.541 6.322 7.693 11.417 7.693 4.963 0 9.375-2.991 11.305-7.501l3.586-3.305c.638 3.397.982 8.055.982 10.806 0 2.73-.361 5.365-1.03 7.847-1.365-.507-2.802-.792-4.261-.792-6.806 0-12.345 5.538-12.345 12.345 0 2.057.532 4.072 1.504 5.867a20.057 20.057 0 0 1-6.795 1.188c-4.44 0-8.574-1.487-12.089-4.018Zm22.075 1.338a8.693 8.693 0 0 1-1.167-4.375c0-4.863 3.955-8.818 8.818-8.818 1.065 0 2.119.212 3.116.59-2.231 5.494-6.043 9.953-10.767 12.603Z" fill="url(#c)"/><path d="M26.455 38.8C11.868 38.8 0 54.625 0 74.075c0 19.45 11.868 35.273 26.455 35.273 14.587 0 26.455-15.823 26.455-35.273 0-19.45-11.868-35.273-26.455-35.273Zm22.927 35.274c0 3.35-.382 6.578-1.08 9.612-2.478-1.69-4.21-5.443-4.21-9.612 0-4.17 1.732-7.922 4.21-9.612a42.873 42.873 0 0 1 1.08 9.612ZM34.412 44.34c-1.44 3.024-4.54 5.042-7.957 5.042-3.418 0-6.517-2.018-7.958-5.042 2.483-1.279 5.157-2.013 7.958-2.013 2.8 0 5.474.734 7.957 2.013Zm-13.915 60.353c1.277-2.536 3.53-4.166 5.958-4.166 2.428 0 4.68 1.63 5.958 4.166-1.903.711-3.894 1.125-5.958 1.125s-4.055-.414-5.958-1.125Zm15.099-1.524c-1.868-3.753-5.34-6.17-9.141-6.17s-7.274 2.417-9.142 6.17c-8.101-4.9-13.786-16.091-13.786-29.097 0-12.014 4.847-22.486 11.972-27.878 2.088 4.038 6.305 6.715 10.956 6.715 4.65 0 8.867-2.677 10.955-6.715 4.343 3.286 7.82 8.473 9.89 14.732-3.99 2.07-6.736 7.27-6.736 13.147 0 5.877 2.746 11.077 6.733 13.146-2.347 7.108-6.521 12.818-11.701 15.95Z" fill="url(#d)"/><path d="M37.037 56.438h3.527v3.527h-3.527v-3.528Z" fill="url(#e)"/><path d="M33.51 89.947h3.527v3.527H33.51v-3.527Z" fill="url(#f)"/><path d="M14.11 52.91h3.527v3.528h-3.528V52.91Z" fill="url(#g)"/><defs><linearGradient id="a" x1="93.323" y1="19.434" x2="96.92" y2="19.351" gradientUnits="userSpaceOnUse"><stop stop-color="#EF3C5A"/><stop offset=".297" stop-color="#F04A3D"/><stop offset="1" stop-color="#F47C20"/></linearGradient><linearGradient id="b" x1="84.505" y1="14.143" x2="88.101" y2="14.06" gradientUnits="userSpaceOnUse"><stop stop-color="#EF3C5A"/><stop offset=".297" stop-color="#F04A3D"/><stop offset="1" stop-color="#F47C20"/></linearGradient><linearGradient id="c" x1="63.34" y1="55.705" x2="117.311" y2="55.102" gradientUnits="userSpaceOnUse"><stop stop-color="#EF3C5A"/><stop offset=".297" stop-color="#F04A3D"/><stop offset="1" stop-color="#F47C20"/></linearGradient><linearGradient id="d" x1="0" y1="74.739" x2="53.961" y2="73.806" gradientUnits="userSpaceOnUse"><stop stop-color="#EF3C5A"/><stop offset=".297" stop-color="#F04A3D"/><stop offset="1" stop-color="#F47C20"/></linearGradient><linearGradient id="e" x1="37.037" y1="58.234" x2="40.633" y2="58.151" gradientUnits="userSpaceOnUse"><stop stop-color="#EF3C5A"/><stop offset=".297" stop-color="#F04A3D"/><stop offset="1" stop-color="#F47C20"/></linearGradient><linearGradient id="f" x1="33.51" y1="91.744" x2="37.106" y2="91.661" gradientUnits="userSpaceOnUse"><stop stop-color="#EF3C5A"/><stop offset=".297" stop-color="#F04A3D"/><stop offset="1" stop-color="#F47C20"/></linearGradient><linearGradient id="g" x1="14.109" y1="54.707" x2="17.706" y2="54.624" gradientUnits="userSpaceOnUse"><stop stop-color="#EF3C5A"/><stop offset=".297" stop-color="#F04A3D"/><stop offset="1" stop-color="#F47C20"/></linearGradient></defs></svg>