<svg width="461" height="25" fill="none" xmlns="http://www.w3.org/2000/svg"><path d="M29.848 1.632v8.384H11.16V1.632H.92v22.4h10.24v-8.416h18.688v8.416h10.24v-22.4h-10.24Zm55.991 11.2c0-8.736-7.456-11.84-21.44-11.84-14.016 0-21.472 3.104-21.472 11.84 0 9.312 8.384 11.808 21.472 11.808 13.984 0 21.44-2.496 21.44-11.808Zm-11.2 0c0 4.96-3.744 6.208-10.24 6.208-6.56 0-10.272-1.248-10.272-6.208 0-4.992 3.712-6.24 10.272-6.24 6.624 0 10.24 1.248 10.24 6.24Zm57.266-11.2-6.688 13.344-6.656-13.344h-8.768l-6.688 13.344-6.656-13.344h-11.2l11.2 22.4h11.2l6.528-13.088 6.528 13.088h11.2l11.2-22.4h-11.2Zm44.911 22.4v-22.4h-10.24v22.4h10.24Zm39.629-22.4h-37.312v5.6h13.504v16.8h10.272v-16.8h13.536v-5.6Zm68.585 0-6.688 13.344-6.656-13.344h-8.768l-6.688 13.344-6.656-13.344h-11.2l11.2 22.4h11.2l6.528-13.088 6.528 13.088h11.2l11.2-22.4h-11.2Zm53.497 11.2c0-8.736-7.456-11.84-21.44-11.84-14.016 0-21.472 3.104-21.472 11.84 0 9.312 8.384 11.808 21.472 11.808 13.984 0 21.44-2.496 21.44-11.808Zm-11.2 0c0 4.96-3.744 6.208-10.24 6.208-6.56 0-10.272-1.248-10.272-6.208 0-4.992 3.712-6.24 10.272-6.24 6.624 0 10.24 1.248 10.24 6.24Zm41.133 11.2h11.584l-5.664-7.168c3.2-1.536 5.28-4.032 5.28-6.848 0-4.64-5.632-8.384-12.576-8.384H341.42v22.4h10.24v-5.6h12.384l4.416 5.6Zm-16.8-16.8h13.536c2.336 0 4.192 1.248 4.192 2.784 0 1.536-1.856 2.816-4.192 2.816H351.66v-5.6Zm52.033 4.128 15.424-9.728h-13.056l-13.088 8.224V1.632h-10.24v22.4h10.24v-5.92l3.52-2.208 10.496 8.128h13.056L403.693 11.36Zm36.596-1.344h-.032c-5.92-.128-9.856.032-9.856-1.856 0-1.568 3.808-1.568 9.696-1.568 6.08 0 9.824 0 9.824 2.496h10.272c0-6.848-7.008-8.096-20.096-8.096-12.512 0-20.032 1.248-20.032 7.168 0 5.888 7.392 6.528 19.904 6.816h.032c5.92.16 10.304 0 10.304 2.208 0 1.856-4.256 1.856-10.176 1.856-6.016 0-10.272 0-10.272-2.496h-10.24c0 6.848 7.456 8.096 20.512 8.096 12.544 0 20.512-1.248 20.512-7.456h.032c0-6.24-7.84-6.88-20.384-7.168Z" fill="#FFE9C9"/></svg>