<svg width="475" height="27" fill="none" xmlns="http://www.w3.org/2000/svg"><path d="M28.21 1.165h-7.603V13.6c0 5.507-2.735 6.893-6.182 6.893-3.482 0-6.253-1.386-6.253-6.893H.604c0 10.34 6.182 13.11 13.821 13.11 7.568 0 13.786-2.77 13.786-13.11V1.165ZM62.88 13.6C62.88 3.9 57.339.454 47 .454 36.624.454 31.117 3.9 31.117 13.6c0 10.34 6.182 13.11 15.882 13.11 10.34 0 15.882-2.77 15.882-13.11Zm-8.278 0c0 5.507-2.77 6.893-7.603 6.893-4.832 0-7.603-1.386-7.603-6.893 0-5.543 2.77-6.928 7.603-6.928 4.903 0 7.603 1.385 7.603 6.928Zm19.253 12.435V1.165h-7.568v24.87h7.568Zm26.398-24.87V16.69L86.432 1.165h-8.279v24.87h7.568v-14.78l13.147 14.78h8.989V1.165h-7.604Zm54.112 0h-27.607v6.217h9.984v18.653h7.604V7.383h10.019V1.165Zm23.94 0v9.308h-13.821V1.165h-7.568v24.87h7.568v-9.344h13.821v9.345h7.604V1.165h-7.604Zm19.454 18.653V16.69h16.592v-6.218h-16.592v-3.09h17.978V1.164h-25.546v24.87h25.546v-6.217h-17.978Zm59.517-18.653v9.308h-13.821V1.165h-7.568v24.87h7.568v-9.344h13.821v9.345h7.604V1.165h-7.604Zm19.454 24.87V1.165h-7.568v24.87h7.568Zm25.616-24.87-7.603 15.17-7.603-15.17h-8.279l12.436 24.87h6.892l12.436-24.87h-8.279Zm17.964 18.653V16.69h16.592v-6.218H320.31v-3.09h17.978V1.164h-25.546v24.87h25.546v-6.217H320.31Zm64.349-18.653-8.278 16.556-8.279-16.556h-9.664v24.87h7.568v-13.82l6.928 13.82h6.893l6.928-13.82v13.82h7.604V1.165h-9.7Zm21.561 24.87V1.165h-7.568v24.87h7.568Zm26.398-24.87V16.69L418.797 1.165h-8.278v24.87h7.568v-14.78l13.146 14.78h8.989V1.165h-7.604Zm26.4 24.87c9.878 0 15.171-2.629 15.171-12.435 0-9.167-5.293-12.435-15.171-12.435h-14.496v24.87h14.496Zm-6.928-6.217V7.382h6.928c4.69 0 7.604.96 7.604 6.218 0 5.223-2.985 6.218-7.604 6.218h-6.928Z" fill="#CF384B"/></svg>