<svg width="50" height="50" fill="none" xmlns="http://www.w3.org/2000/svg"><g clip-path="url(#a)"><path d="M14.167 11.667a14.168 14.168 0 1 0 0 28.335 14.168 14.168 0 0 0 0-28.335Zm22.5 1.666c-.876 0-1.743.324-2.552.952-.808.628-1.543 1.549-2.162 2.71-.62 1.16-1.11 2.538-1.445 4.055A22.328 22.328 0 0 0 30 25.833c0 1.642.172 3.267.508 4.784.335 1.516.826 2.894 1.445 4.055.619 1.16 1.354 2.082 2.162 2.71.81.628 1.676.951 2.552.951.875 0 1.742-.323 2.55-.951.81-.628 1.545-1.55 2.164-2.71.619-1.16 1.11-2.539 1.445-4.055.335-1.517.507-3.142.507-4.784 0-1.641-.172-3.267-.507-4.783-.335-1.517-.826-2.895-1.445-4.056-.62-1.16-1.354-2.081-2.163-2.71-.809-.627-1.676-.95-2.551-.95ZM47.5 15c-.663 0-1.299 1.141-1.768 3.173-.469 2.032-.732 4.787-.732 7.66s.263 5.629.732 7.66c.47 2.032 1.105 3.174 1.768 3.174s1.299-1.142 1.768-3.173c.469-2.032.732-4.788.732-7.66 0-2.874-.263-5.63-.732-7.661C48.798 16.141 48.163 15 47.5 15Z" style="fill:var(--medium-tone, black)"/></g><defs><clipPath id="a"><path fill="#fff" d="M0 0h50v50H0z"/></clipPath></defs></svg>