<svg width="85" height="99" fill="none" xmlns="http://www.w3.org/2000/svg"><path d="M73.558 75.732h-2.78a18.035 18.035 0 0 0 7.683-14.755v-1.64H71.48a40.175 40.175 0 0 0 2.079-13.116C73.558 24.991 59.99.315 42.5.315c-17.49 0-31.058 24.677-31.058 45.906a40.17 40.17 0 0 0 2.08 13.116H6.537v1.64a18.036 18.036 0 0 0 7.683 14.755h-2.779a11.437 11.437 0 0 0-8.087 3.366A11.506 11.506 0 0 0 0 87.208v11.478h85V87.209a11.506 11.506 0 0 0-3.355-8.111 11.438 11.438 0 0 0-8.087-3.366Zm-13.077 0h-8.084a14.79 14.79 0 0 1 4.819-9.354 14.71 14.71 0 0 1 9.803-3.762h8.084a14.79 14.79 0 0 1-4.819 9.354 14.71 14.71 0 0 1-9.803 3.762Zm-4.904-14.755c-1.3 0-2.548-.518-3.468-1.44a4.928 4.928 0 0 1 0-6.957 4.898 4.898 0 0 1 6.936 0 4.928 4.928 0 0 1 0 6.956 4.899 4.899 0 0 1-3.468 1.44ZM14.712 46.22c0-19.307 12.395-42.627 27.788-42.627s27.788 23.32 27.788 42.627A36.043 36.043 0 0 1 68 59.337h-.98a17.89 17.89 0 0 0-4.25.53 8.112 8.112 0 0 0 .98-3.809 8.21 8.21 0 0 0-2.279-5.72 8.16 8.16 0 0 0-11.377-.4 8.213 8.213 0 0 0-.74 11.394 8.163 8.163 0 0 0 5.448 2.845 17.998 17.998 0 0 0-5.6 10.875c-4.425.881-8.98.881-13.404 0a17.86 17.86 0 0 0-1.13-4.369 6.523 6.523 0 0 0 5.002-.996 6.574 6.574 0 0 0 1.618-9.277 6.536 6.536 0 0 0-4.366-2.64 6.522 6.522 0 0 0-4.93 1.307 6.564 6.564 0 0 0-2.494 4.46 17.858 17.858 0 0 0-11.518-4.2H17a36.043 36.043 0 0 1-2.289-13.116Zm17.98 18.035c0-.87.345-1.704.958-2.319a3.265 3.265 0 0 1 4.623 0 3.285 3.285 0 0 1 0 4.638 3.265 3.265 0 0 1-4.623 0 3.285 3.285 0 0 1-.958-2.32Zm-22.795-1.64h8.084a14.71 14.71 0 0 1 9.803 3.762 14.79 14.79 0 0 1 4.819 9.354h-8.084a14.71 14.71 0 0 1-9.803-3.762 14.79 14.79 0 0 1-4.819-9.354Zm71.834 32.79H3.269V87.21a8.224 8.224 0 0 1 2.397-5.794 8.175 8.175 0 0 1 5.776-2.404h62.116a8.175 8.175 0 0 1 5.776 2.404 8.224 8.224 0 0 1 2.397 5.794v8.197Z" fill="url(#a)"/><path d="M57.304 41.382a6.688 6.688 0 0 0 6.685-6.685 6.688 6.688 0 0 0-6.685-6.686 6.688 6.688 0 0 0-6.686 6.686 6.688 6.688 0 0 0 6.686 6.685Zm0-10.028a3.343 3.343 0 1 1 0 6.686 3.343 3.343 0 0 1 0-6.686Z" fill="url(#b)"/><path d="M34.382 46.635a5.253 5.253 0 1 0 10.507 0 5.253 5.253 0 0 0-10.507 0Zm7.004 0a1.75 1.75 0 1 1-3.5 0 1.75 1.75 0 0 1 3.5 0Z" fill="url(#c)"/><path d="m42.977 10.313-.188-1.655L42.607 7a21.662 21.662 0 0 0-8.597 3.386c-4.055 2.651-9.27 7.923-11.089 17.983l3.263.597c3.043-16.832 16.233-18.585 16.794-18.653Z" fill="url(#d)"/><path d="M6.686 89.135h9.55V92h-9.55v-2.865Z" fill="url(#e)"/><path d="M18.146 82.45h9.55v2.865h-9.55V82.45Z" fill="url(#f)"/><path d="M35.337 85.315h12.416v2.865H35.337v-2.865Z" fill="url(#g)"/><path d="M52.528 82.45h2.866v2.865h-2.866V82.45Z" fill="url(#h)"/><path d="M26.742 89.135h2.865V92h-2.865v-2.865Z" fill="url(#i)"/><path d="M66.854 82.45h6.685v2.865h-6.685V82.45Z" fill="url(#j)"/><path d="M60.169 89.135h3.82V92h-3.82v-2.865Z" fill="url(#k)"/><defs><linearGradient id="a" x1="0" y1="50.428" x2="86.681" y2="48.7" gradientUnits="userSpaceOnUse"><stop stop-color="#EF3C5A"/><stop offset=".297" stop-color="#F04A3D"/><stop offset="1" stop-color="#F47C20"/></linearGradient><linearGradient id="b" x1="50.618" y1="34.823" x2="64.251" y2="34.508" gradientUnits="userSpaceOnUse"><stop stop-color="#EF3C5A"/><stop offset=".297" stop-color="#F04A3D"/><stop offset="1" stop-color="#F47C20"/></linearGradient><linearGradient id="c" x1="34.382" y1="46.734" x2="45.094" y2="46.487" gradientUnits="userSpaceOnUse"><stop stop-color="#EF3C5A"/><stop offset=".297" stop-color="#F04A3D"/><stop offset="1" stop-color="#F47C20"/></linearGradient><linearGradient id="d" x1="22.921" y1="18.19" x2="43.373" y2="17.76" gradientUnits="userSpaceOnUse"><stop stop-color="#EF3C5A"/><stop offset=".297" stop-color="#F04A3D"/><stop offset="1" stop-color="#F47C20"/></linearGradient><linearGradient id="e" x1="6.686" y1="90.595" x2="16.372" y2="89.85" gradientUnits="userSpaceOnUse"><stop stop-color="#EF3C5A"/><stop offset=".297" stop-color="#F04A3D"/><stop offset="1" stop-color="#F47C20"/></linearGradient><linearGradient id="f" x1="18.146" y1="83.909" x2="27.832" y2="83.164" gradientUnits="userSpaceOnUse"><stop stop-color="#EF3C5A"/><stop offset=".297" stop-color="#F04A3D"/><stop offset="1" stop-color="#F47C20"/></linearGradient><linearGradient id="g" x1="35.337" y1="86.774" x2="47.878" y2="85.521" gradientUnits="userSpaceOnUse"><stop stop-color="#EF3C5A"/><stop offset=".297" stop-color="#F04A3D"/><stop offset="1" stop-color="#F47C20"/></linearGradient><linearGradient id="h" x1="52.528" y1="83.909" x2="55.45" y2="83.842" gradientUnits="userSpaceOnUse"><stop stop-color="#EF3C5A"/><stop offset=".297" stop-color="#F04A3D"/><stop offset="1" stop-color="#F47C20"/></linearGradient><linearGradient id="i" x1="26.742" y1="90.595" x2="29.663" y2="90.527" gradientUnits="userSpaceOnUse"><stop stop-color="#EF3C5A"/><stop offset=".297" stop-color="#F04A3D"/><stop offset="1" stop-color="#F47C20"/></linearGradient><linearGradient id="j" x1="66.854" y1="83.909" x2="73.655" y2="83.543" gradientUnits="userSpaceOnUse"><stop stop-color="#EF3C5A"/><stop offset=".297" stop-color="#F04A3D"/><stop offset="1" stop-color="#F47C20"/></linearGradient><linearGradient id="k" x1="60.169" y1="90.595" x2="64.062" y2="90.475" gradientUnits="userSpaceOnUse"><stop stop-color="#EF3C5A"/><stop offset=".297" stop-color="#F04A3D"/><stop offset="1" stop-color="#F47C20"/></linearGradient></defs></svg>