<svg width="229" height="78" fill="none" xmlns="http://www.w3.org/2000/svg"><path d="M20.893 6.03v13.11L9.223 6.03h-6.99v21h6.39V14.55l11.1 12.48h7.59v-21h-6.42Zm36.09 10.5c0-8.19-4.68-11.1-13.41-11.1-8.76 0-13.41 2.91-13.41 11.1 0 8.73 5.22 11.07 13.41 11.07 8.73 0 13.41-2.34 13.41-11.07Zm-6.99 0c0 4.65-2.34 5.82-6.42 5.82s-6.42-1.17-6.42-5.82c0-4.68 2.34-5.85 6.42-5.85 4.14 0 6.42 1.17 6.42 5.85Zm22.077-2.64h-.03c-3.69-.12-6.15.03-6.15-1.74 0-1.47 2.37-1.47 6.06-1.47 3.78 0 6.12 0 6.12 2.34h6.42c0-6.42-4.38-7.59-12.54-7.59-7.83 0-12.54 1.17-12.54 6.72 0 5.52 4.62 6.12 12.45 6.39h.03c3.69.15 6.42 0 6.42 2.07 0 1.74-2.64 1.74-6.36 1.74-3.75 0-6.42 0-6.42-2.34h-6.39c0 6.42 4.65 7.59 12.81 7.59 7.83 0 12.84-1.17 12.84-6.99 0-5.85-4.89-6.45-12.72-6.72Zm37.52-7.86H86.28v5.25h8.43v15.75h6.42V11.28h8.46V6.03Zm19.044 21h7.23l-3.54-6.72c2.01-1.44 3.33-3.78 3.33-6.42 0-4.35-3.54-7.86-7.89-7.86h-16.02v21h6.39v-5.25h7.74l2.76 5.25Zm-10.5-15.75h8.46c1.47 0 2.64 1.17 2.64 2.61s-1.17 2.64-2.64 2.64h-8.46v-5.25Zm46.486 5.25c0-8.19-4.68-11.1-13.41-11.1-8.76 0-13.41 2.91-13.41 11.1 0 8.73 5.22 11.07 13.41 11.07 8.73 0 13.41-2.34 13.41-11.07Zm-6.99 0c0 4.65-2.34 5.82-6.42 5.82s-6.42-1.17-6.42-5.82c0-4.68 2.34-5.85 6.42-5.85 4.14 0 6.42 1.17 6.42 5.85Zm32.006-10.5-6.99 13.98-6.99-13.98h-8.16v21h6.39V15.36l5.85 11.67h5.82l5.85-11.67v11.67h6.42v-21h-8.19Zm37.855 10.5c0-8.19-4.68-11.1-13.41-11.1-8.76 0-13.41 2.91-13.41 11.1 0 8.73 5.22 11.07 13.41 11.07 8.73 0 13.41-2.34 13.41-11.07Zm-6.99 0c0 4.65-2.34 5.82-6.42 5.82s-6.42-1.17-6.42-5.82c0-4.68 2.34-5.85 6.42-5.85 4.14 0 6.42 1.17 6.42 5.85Z" fill="#F8A16B"/><path d="M95.85 67h7.021l-10.29-20.97h-7.02L75.27 67h7.02l1.14-2.31h11.28L95.85 67Zm-3.75-7.56h-6.15l3.09-6.27 3.06 6.27Zm29.459 7.59h7.23l-3.54-6.72c2.01-1.44 3.33-3.78 3.33-6.42 0-4.35-3.54-7.86-7.89-7.86h-16.02v21h6.39v-5.25h7.74l2.76 5.25Zm-10.5-15.75h8.46c1.47 0 2.64 1.17 2.64 2.61s-1.17 2.64-2.64 2.64h-8.46v-5.25Zm42.286-5.25h-23.31v5.25h8.43v15.75h6.42V51.28h8.46v-5.25Z" fill="#FFE9C9"/></svg>