<svg width="291" height="75" fill="none" xmlns="http://www.w3.org/2000/svg"><path d="M100.08 6.03H85.8v21h6.39v-5.25h7.89c4.35 0 7.86-3.54 7.86-7.89s-3.51-7.86-7.86-7.86Zm-1.17 10.5h-6.72v-5.25h6.72c1.44 0 2.64 1.17 2.64 2.61s-1.2 2.64-2.64 2.64Zm28.419 10.5h7.23l-3.54-6.72c2.01-1.44 3.33-3.78 3.33-6.42 0-4.35-3.54-7.86-7.89-7.86h-16.02v21h6.39v-5.25h7.74l2.76 5.25Zm-10.5-15.75h8.46c1.47 0 2.64 1.17 2.64 2.61s-1.17 2.64-2.64 2.64h-8.46v-5.25Zm26.836 15.75v-21h-6.39v21h6.39Zm21.629-21-6.42 12.81-6.42-12.81h-6.99l10.5 21h5.82l10.5-21h-6.99ZM189.716 27h7.02l-10.29-20.97h-7.02L169.136 27h7.02l1.14-2.31h11.28l1.14 2.31Zm-3.75-7.56h-6.15l3.09-6.27 3.06 6.27Zm31.156-13.41h-23.31v5.25h8.43v15.75h6.42V11.28h8.46V6.03Zm8.545 15.75v-2.64h14.01v-5.25h-14.01v-2.61h15.18V6.03h-21.57v21h21.57v-5.25h-15.18ZM107.94 43.03l-6.99 13.98-6.99-13.98H85.8v21h6.39V52.36l5.85 11.67h5.82l5.85-11.67v11.67h6.42v-21h-8.19Zm18.205 15.75v-2.64h14.01v-5.25h-14.01v-2.61h15.18v-5.25h-21.57v21h21.57v-5.25h-15.18Zm40.235-15.75h-23.31v5.25h8.43v15.75h6.42V48.28h8.46v-5.25ZM184.032 64h7.02l-10.29-20.97h-7.02L163.452 64h7.02l1.14-2.31h11.28l1.14 2.31Zm-3.75-7.56h-6.15l3.09-6.27 3.06 6.27Zm24.809 7.59c8.34 0 12.81-2.22 12.81-10.5 0-7.74-4.47-10.5-12.81-10.5h-12.24v21h12.24Zm-5.85-5.25v-10.5h5.85c3.96 0 6.42.81 6.42 5.25 0 4.41-2.52 5.25-6.42 5.25h-5.85ZM238.349 64h7.02l-10.29-20.97h-7.02L217.769 64h7.02l1.14-2.31h11.28l1.14 2.31Zm-3.75-7.56h-6.15l3.09-6.27 3.06 6.27Zm31.156-13.41h-23.31v5.25h8.43v15.75h6.42V48.28h8.46v-5.25ZM283.407 64h7.02l-10.29-20.97h-7.02L262.827 64h7.02l1.14-2.31h11.28l1.14 2.31Zm-3.75-7.56h-6.15l3.09-6.27 3.06 6.27Z" fill="#FFE9C9"/><rect y="3" width="65" height="65" rx="5" fill="#FFE9C9"/><path d="M53.838 16.072 50.774 13 25.786 38.08a10.728 10.728 0 0 0-5.96-1.812C13.856 36.268 9 41.145 9 47.135 9 53.13 13.856 58 19.826 58c5.968 0 10.828-4.874 10.828-10.865 0-2.21-.669-4.265-1.804-5.981l12.63-12.678 4.964 4.982 3.061-3.072-4.964-4.982 3.434-3.446 4.964 4.982L56 23.868l-4.962-4.986 2.8-2.81ZM19.826 53.653c-3.582 0-6.495-2.924-6.495-6.519 0-3.594 2.913-6.521 6.495-6.521 3.581 0 6.495 2.924 6.495 6.521 0 3.596-2.914 6.52-6.495 6.52Z" fill="#1D0D1B"/></svg>