<svg width="391" height="619" fill="none" xmlns="http://www.w3.org/2000/svg"><g clip-path="url(#a)"><path d="M115.841 37.27.757 104.02l-.056 90.169 116.9 67.694 156.8-.966 115.897-67.221-.084-89.302L273.104 36.2l-157.263 1.07Z" fill="url(#b)"/><path d="M115.841 37.27.757 104.02l-.056 90.169 116.9 67.694 156.8-.966 115.897-67.221-.084-89.302L273.104 36.2l-157.263 1.07Z" fill="url(#c)"/><path d="M115.841 361.26.757 428.002l-.056 90.169 116.9 67.701 156.8-.972 115.897-67.215-.084-89.302-117.11-68.194-157.263 1.071Z" fill="url(#d)"/><path d="M115.841 361.26.757 428.002l-.056 90.169 116.9 67.701 156.8-.972 115.897-67.215-.084-89.302-117.11-68.194-157.263 1.071Z" fill="url(#e)"/><path d="M310.156 125.425H71.32v12.999h.042c0 .324-.042 8.588-.042 8.912 0 38.582 53.463 69.857 119.418 69.857 65.954 0 119.418-31.275 119.418-69.857 0-.324-.035-8.588-.042-8.912h.042v-12.999Z" fill="url(#f)"/><path d="M310.156 125.425H71.32v12.999h.042c0 .324-.042 8.588-.042 8.912 0 38.582 53.463 69.857 119.418 69.857 65.954 0 119.418-31.275 119.418-69.857 0-.324-.035-8.588-.042-8.912h.042v-12.999Z" fill="url(#g)"/><path d="M190.738 195.767c65.953 0 119.418-31.275 119.418-69.856 0-38.58-53.465-69.857-119.418-69.857S71.32 87.33 71.32 125.911s53.465 69.856 119.418 69.856Z" fill="url(#h)"/><path d="M190.738 195.767c65.953 0 119.418-31.275 119.418-69.856 0-38.58-53.465-69.857-119.418-69.857S71.32 87.33 71.32 125.911s53.465 69.856 119.418 69.856Z" fill="url(#i)"/><path d="M190.738 145.399c26.676 0 48.301-21.725 48.301-48.523 0-26.798-21.625-48.523-48.301-48.523-26.677 0-48.302 21.725-48.302 48.523 0 26.798 21.625 48.523 48.302 48.523Z" fill="url(#j)"/><path d="M190.738 145.399c26.676 0 48.301-21.725 48.301-48.523 0-26.798-21.625-48.523-48.301-48.523-26.677 0-48.302 21.725-48.302 48.523 0 26.798 21.625 48.523 48.302 48.523Z" fill="#F2DCC2"/><path d="M.701 227.31v290.861M390.298 227.31v290.861" stroke="#FF8059" stroke-width="2" stroke-miterlimit="10"/><path d="m102.684 433.336 75.478 43.774 100.636-58.365-75.478-43.774-100.636 58.365Z" fill="url(#k)"/><path d="m102.684 433.336 75.478 43.774 100.636-58.365-75.478-43.774-100.636 58.365Z" fill="url(#l)"/><path d="m178.163 477.11 100.636-58.365v62.529l-100.636 58.365V477.11Z" fill="url(#m)"/><path d="M102.684 433.336v62.529l75.478 43.774V477.11l-75.478-43.774Z" fill="url(#n)"/><path d="m259.519 371.906-.919 46.331-79.827 46.332.147-13.88.701-34.791c0-20.08-11.972-43.393-26.742-52.087l-4.194-2.473c-6.621-3.89-12.673-4.186-17.344-1.515-.028.007-.042.014-.07.028l78.08-45.204c6.032-3.551 13.508-3.467 19.392.324 19.912 10.223 27.03 31.543 29.471 42.823a53.123 53.123 0 0 1 1.199 11.287v2.881l.106-.049v-.007Z" fill="url(#o)"/><path d="m259.519 371.906-.919 46.331-79.827 46.332.147-13.88.701-34.791c0-20.08-11.972-43.393-26.742-52.087l-4.194-2.473c-6.621-3.89-12.673-4.186-17.344-1.515-.028.007-.042.014-.07.028l78.08-45.204c6.032-3.551 13.508-3.467 19.392.324 19.912 10.223 27.03 31.543 29.471 42.823a53.123 53.123 0 0 1 1.199 11.287v2.881l.106-.049v-.007Z" fill="url(#p)"/><path d="m226.521 405.119 3.513 17.198-16.278 9.441 3.275-21.334c-2.041-.536-3.359-2.551-3.359-5.679 0-5.228 3.675-11.611 8.227-14.239 4.544-2.635 8.226-.535 8.226 4.7 0 3.262-1.43 6.954-3.597 9.92l-.007-.007Z" fill="#FF8059"/><path d="m179.628 415.898-.701 34.791-.147 13.88-56.823-32.818v-49.798c0-11.069 3.64-18.847 9.391-22.13 4.671-2.67 10.723-2.375 17.344 1.515l4.194 2.473c14.77 8.701 26.742 32.007 26.742 52.087Z" fill="url(#q)"/><path d="m179.628 415.898-.701 34.791-.147 13.88-56.823-32.818v-49.798c0-11.069 3.64-18.847 9.391-22.13 4.671-2.67 10.723-2.375 17.344 1.515l4.194 2.473c14.77 8.701 26.742 32.007 26.742 52.087Z" fill="url(#r)"/><path d="M117.601 295.011V584.9M274.401 294.039V584.9" stroke="#FF8059" stroke-width="2" stroke-miterlimit="10"/><path d="M117.601 261.883v33.128l156.8-.972v-33.122l-156.8.966Z" fill="url(#s)"/><path d="M117.601 261.883v33.128l156.8-.972v-33.122l-156.8.966Z" fill="url(#t)"/><path d="M.701 227.31v-33.121l116.9 67.694v33.128L.701 227.31Z" fill="url(#u)"/><path d="M.701 227.31v-33.121l116.9 67.694v33.128L.701 227.31Z" fill="url(#v)"/><path d="M390.299 193.696v33.121l-115.898 67.222v-33.122l115.898-67.221Z" fill="url(#w)"/><path d="M390.299 193.696v33.121l-115.898 67.222v-33.122l115.898-67.221Z" fill="url(#x)"/><path d="M117.601 585.872V619l156.8-.972V584.9l-156.8.972Z" fill="url(#y)"/><path d="M117.601 585.872V619l156.8-.972V584.9l-156.8.972Z" fill="url(#z)"/><path d="M390.299 517.685v33.121l-115.898 67.222v-33.129l115.898-67.214Z" fill="url(#A)"/><path d="M390.299 517.685v33.121l-115.898 67.222v-33.129l115.898-67.214Z" fill="url(#B)"/><path d="M.701 551.299v-33.128l116.9 67.701V619L.701 551.299Z" fill="url(#C)"/><path d="M.701 551.299v-33.128l116.9 67.701V619L.701 551.299Z" fill="url(#D)"/><path style="mix-blend-mode:lighten" d="M190.738 195.739c53.806 0 97.424-43.818 97.424-97.87C288.162 43.819 244.544 0 190.738 0c-53.806 0-97.424 43.818-97.424 97.87 0 54.051 43.618 97.869 97.424 97.869Z" fill="url(#E)"/></g><defs><linearGradient id="b" x1=".701" y1="149.041" x2="390.298" y2="149.041" gradientUnits="userSpaceOnUse"><stop stop-color="#FF8059" stop-opacity=".8"/><stop offset=".03" stop-color="#FB7C59" stop-opacity=".81"/><stop offset=".67" stop-color="#BF4361" stop-opacity=".95"/><stop offset="1" stop-color="#A82D65"/></linearGradient><linearGradient id="c" x1=".701" y1="149.041" x2="390.298" y2="149.041" gradientUnits="userSpaceOnUse"><stop stop-color="#FF8059" stop-opacity=".8"/><stop offset=".3" stop-color="#EA6C5B" stop-opacity=".85"/><stop offset=".87" stop-color="#B63A63" stop-opacity=".97"/><stop offset="1" stop-color="#A82D65"/></linearGradient><linearGradient id="d" x1="0" y1="473.031" x2=".701" y2="473.031" gradientUnits="userSpaceOnUse"><stop stop-color="#FF8059" stop-opacity=".8"/><stop offset=".3" stop-color="#EA6C5B" stop-opacity=".85"/><stop offset=".87" stop-color="#B63A63" stop-opacity=".97"/><stop offset="1" stop-color="#A82D65"/></linearGradient><linearGradient id="e" x1="0" y1="473.031" x2=".701" y2="473.031" gradientUnits="userSpaceOnUse"><stop stop-color="#FF8059" stop-opacity=".8"/><stop offset=".3" stop-color="#EA6C5B" stop-opacity=".85"/><stop offset=".87" stop-color="#B63A63" stop-opacity=".97"/><stop offset="1" stop-color="#A82D65"/></linearGradient><linearGradient id="f" x1="71.32" y1="171.312" x2="310.156" y2="171.312" gradientUnits="userSpaceOnUse"><stop stop-color="#A82D65" stop-opacity=".8"/><stop offset=".26" stop-color="#7B2045" stop-opacity=".87"/><stop offset=".56" stop-color="#521429" stop-opacity=".94"/><stop offset=".82" stop-color="#390D17" stop-opacity=".98"/><stop offset="1" stop-color="#300B11"/></linearGradient><linearGradient id="g" x1="71.32" y1="171.312" x2="310.156" y2="171.312" gradientUnits="userSpaceOnUse"><stop stop-color="#A82D65" stop-opacity=".8"/><stop offset=".26" stop-color="#7B2045" stop-opacity=".87"/><stop offset=".56" stop-color="#521429" stop-opacity=".94"/><stop offset=".82" stop-color="#390D17" stop-opacity=".98"/><stop offset="1" stop-color="#300B11"/></linearGradient><linearGradient id="h" x1="71.32" y1="125.911" x2="310.156" y2="125.911" gradientUnits="userSpaceOnUse"><stop stop-color="#FF8059" stop-opacity=".8"/><stop offset=".03" stop-color="#FB7C59" stop-opacity=".81"/><stop offset=".67" stop-color="#BF4361" stop-opacity=".95"/><stop offset="1" stop-color="#A82D65"/></linearGradient><linearGradient id="i" x1="71.32" y1="125.911" x2="310.156" y2="125.911" gradientUnits="userSpaceOnUse"><stop stop-color="#FF8059" stop-opacity=".8"/><stop offset=".03" stop-color="#FB7C59" stop-opacity=".81"/><stop offset=".67" stop-color="#BF4361" stop-opacity=".95"/><stop offset="1" stop-color="#A82D65"/></linearGradient><linearGradient id="j" x1="142.443" y1="96.876" x2="239.039" y2="96.876" gradientUnits="userSpaceOnUse"><stop stop-color="#FF8059" stop-opacity=".8"/><stop offset=".03" stop-color="#FB7C59" stop-opacity=".81"/><stop offset=".67" stop-color="#BF4361" stop-opacity=".95"/><stop offset="1" stop-color="#A82D65"/></linearGradient><linearGradient id="k" x1="102.684" y1="426.037" x2="278.798" y2="426.037" gradientUnits="userSpaceOnUse"><stop stop-color="#FF8059" stop-opacity=".8"/><stop offset=".3" stop-color="#EA6C5B" stop-opacity=".85"/><stop offset=".87" stop-color="#B63A63" stop-opacity=".97"/><stop offset="1" stop-color="#A82D65"/></linearGradient><linearGradient id="l" x1="102.684" y1="426.037" x2="278.798" y2="426.037" gradientUnits="userSpaceOnUse"><stop stop-color="#FF8059" stop-opacity=".8"/><stop offset=".3" stop-color="#EA6C5B" stop-opacity=".85"/><stop offset=".87" stop-color="#B63A63" stop-opacity=".97"/><stop offset="1" stop-color="#A82D65"/></linearGradient><linearGradient id="m" x1="189.84" y1="546.417" x2="267.645" y2="412.274" gradientUnits="userSpaceOnUse"><stop stop-color="#A82D65" stop-opacity=".8"/><stop offset=".34" stop-color="#791F44" stop-opacity=".88"/><stop offset=".77" stop-color="#44101F" stop-opacity=".97"/><stop offset="1" stop-color="#300B11"/></linearGradient><linearGradient id="n" x1="126.943" y1="509.935" x2="154.081" y2="463.147" gradientUnits="userSpaceOnUse"><stop stop-color="#A82D65" stop-opacity=".8"/><stop offset=".31" stop-color="#87234E" stop-opacity=".85"/><stop offset=".96" stop-color="#350C14" stop-opacity=".99"/><stop offset="1" stop-color="#300B11"/></linearGradient><linearGradient id="o" x1="131.278" y1="388.308" x2="259.519" y2="388.308" gradientUnits="userSpaceOnUse"><stop stop-color="#A82D65" stop-opacity=".8"/><stop offset=".13" stop-color="#8B2451" stop-opacity=".85"/><stop offset=".35" stop-color="#631935" stop-opacity=".91"/><stop offset=".57" stop-color="#461121" stop-opacity=".96"/><stop offset=".79" stop-color="#350C15" stop-opacity=".99"/><stop offset="1" stop-color="#300B11"/></linearGradient><linearGradient id="p" x1="131.278" y1="388.308" x2="259.519" y2="388.308" gradientUnits="userSpaceOnUse"><stop stop-color="#A82D65" stop-opacity=".8"/><stop offset=".58" stop-color="#5E1831" stop-opacity=".92"/><stop offset="1" stop-color="#300B11"/></linearGradient><linearGradient id="q" x1="121.957" y1="411.319" x2="179.628" y2="411.319" gradientUnits="userSpaceOnUse"><stop stop-color="#A82D65" stop-opacity=".8"/><stop offset=".13" stop-color="#8B2451" stop-opacity=".85"/><stop offset=".35" stop-color="#631935" stop-opacity=".91"/><stop offset=".57" stop-color="#461121" stop-opacity=".96"/><stop offset=".79" stop-color="#350C15" stop-opacity=".99"/><stop offset="1" stop-color="#300B11"/></linearGradient><linearGradient id="r" x1="137.484" y1="440.755" x2="174.769" y2="376.464" gradientUnits="userSpaceOnUse"><stop stop-color="#A82D65" stop-opacity=".8"/><stop offset=".13" stop-color="#8B2451" stop-opacity=".85"/><stop offset=".35" stop-color="#631935" stop-opacity=".91"/><stop offset=".57" stop-color="#461121" stop-opacity=".96"/><stop offset=".79" stop-color="#350C15" stop-opacity=".99"/><stop offset="1" stop-color="#300B11"/></linearGradient><linearGradient id="s" x1="117.601" y1="277.961" x2="274.401" y2="277.961" gradientUnits="userSpaceOnUse"><stop stop-color="#A82D65" stop-opacity=".8"/><stop offset=".26" stop-color="#7B2045" stop-opacity=".87"/><stop offset=".56" stop-color="#521429" stop-opacity=".94"/><stop offset=".82" stop-color="#390D17" stop-opacity=".98"/><stop offset="1" stop-color="#300B11"/></linearGradient><linearGradient id="t" x1="169.052" y1="324.849" x2="223.32" y2="231.287" gradientUnits="userSpaceOnUse"><stop stop-color="#A82D65" stop-opacity=".8"/><stop offset=".13" stop-color="#8B2451" stop-opacity=".85"/><stop offset=".35" stop-color="#631935" stop-opacity=".91"/><stop offset=".57" stop-color="#461121" stop-opacity=".96"/><stop offset=".79" stop-color="#350C15" stop-opacity=".99"/><stop offset="1" stop-color="#300B11"/></linearGradient><linearGradient id="u" x1=".701" y1="244.6" x2="117.601" y2="244.6" gradientUnits="userSpaceOnUse"><stop stop-color="#A82D65" stop-opacity=".8"/><stop offset=".05" stop-color="#982859" stop-opacity=".83"/><stop offset=".19" stop-color="#721D3F" stop-opacity=".89"/><stop offset=".34" stop-color="#54152A" stop-opacity=".94"/><stop offset=".51" stop-color="#400F1C" stop-opacity=".97"/><stop offset=".7" stop-color="#330C13" stop-opacity=".99"/><stop offset="1" stop-color="#300B11"/></linearGradient><linearGradient id="v" x1="51.991" y1="257.056" x2="66.41" y2="232.193" gradientUnits="userSpaceOnUse"><stop stop-color="#A82D65" stop-opacity=".8"/><stop offset=".23" stop-color="#82224A" stop-opacity=".86"/><stop offset=".55" stop-color="#55152B" stop-opacity=".94"/><stop offset=".82" stop-color="#390D17" stop-opacity=".98"/><stop offset="1" stop-color="#300B11"/></linearGradient><linearGradient id="w" x1="274.401" y1="243.867" x2="390.299" y2="243.867" gradientUnits="userSpaceOnUse"><stop stop-color="#A82D65" stop-opacity=".8"/><stop offset=".05" stop-color="#982859" stop-opacity=".83"/><stop offset=".19" stop-color="#721D3F" stop-opacity=".89"/><stop offset=".34" stop-color="#54152A" stop-opacity=".94"/><stop offset=".51" stop-color="#400F1C" stop-opacity=".97"/><stop offset=".7" stop-color="#330C13" stop-opacity=".99"/><stop offset="1" stop-color="#300B11"/></linearGradient><linearGradient id="x" x1="296.241" y1="306.699" x2="368.961" y2="181.316" gradientUnits="userSpaceOnUse"><stop stop-color="#A82D65" stop-opacity=".8"/><stop offset=".09" stop-color="#942757" stop-opacity=".83"/><stop offset=".34" stop-color="#691B38" stop-opacity=".9"/><stop offset=".58" stop-color="#491222" stop-opacity=".96"/><stop offset=".8" stop-color="#360C15" stop-opacity=".99"/><stop offset="1" stop-color="#300B11"/></linearGradient><linearGradient id="y" x1="117.601" y1="601.95" x2="274.401" y2="601.95" gradientUnits="userSpaceOnUse"><stop stop-color="#A82D65" stop-opacity=".8"/><stop offset=".18" stop-color="#8E2553" stop-opacity=".84"/><stop offset=".73" stop-color="#4A1223" stop-opacity=".96"/><stop offset="1" stop-color="#300B11"/></linearGradient><linearGradient id="z" x1="117.601" y1="601.95" x2="274.401" y2="601.95" gradientUnits="userSpaceOnUse"><stop stop-color="#A82D65" stop-opacity=".8"/><stop offset=".18" stop-color="#8E2553" stop-opacity=".84"/><stop offset=".73" stop-color="#4A1223" stop-opacity=".96"/><stop offset="1" stop-color="#300B11"/></linearGradient><linearGradient id="A" x1="274.401" y1="567.856" x2="390.299" y2="567.856" gradientUnits="userSpaceOnUse"><stop stop-color="#A82D65" stop-opacity=".8"/><stop offset=".09" stop-color="#942757" stop-opacity=".83"/><stop offset=".34" stop-color="#691B38" stop-opacity=".9"/><stop offset=".58" stop-color="#491222" stop-opacity=".96"/><stop offset=".8" stop-color="#360C15" stop-opacity=".99"/><stop offset="1" stop-color="#300B11"/></linearGradient><linearGradient id="B" x1="274.401" y1="567.856" x2="390.299" y2="567.856" gradientUnits="userSpaceOnUse"><stop stop-color="#A82D65" stop-opacity=".8"/><stop offset=".18" stop-color="#8E2553" stop-opacity=".84"/><stop offset=".73" stop-color="#4A1223" stop-opacity=".96"/><stop offset="1" stop-color="#300B11"/></linearGradient><linearGradient id="C" x1=".701" y1="568.582" x2="117.601" y2="568.582" gradientUnits="userSpaceOnUse"><stop stop-color="#A82D65" stop-opacity=".8"/><stop offset=".18" stop-color="#8E2553" stop-opacity=".84"/><stop offset=".73" stop-color="#4A1223" stop-opacity=".96"/><stop offset="1" stop-color="#300B11"/></linearGradient><linearGradient id="D" x1=".701" y1="568.582" x2="117.601" y2="568.582" gradientUnits="userSpaceOnUse"><stop stop-color="#A82D65" stop-opacity=".8"/><stop offset=".18" stop-color="#8E2553" stop-opacity=".84"/><stop offset=".73" stop-color="#4A1223" stop-opacity=".96"/><stop offset="1" stop-color="#300B11"/></linearGradient><radialGradient id="E" cx="0" cy="0" r="1" gradientUnits="userSpaceOnUse" gradientTransform="matrix(97.4239 0 0 97.8696 190.738 97.87)"><stop stop-color="#EA9980"/><stop offset=".05" stop-color="#EB9F88" stop-opacity=".94"/><stop offset=".32" stop-color="#F2C1B1" stop-opacity=".61"/><stop offset=".55" stop-color="#F7DBD3" stop-opacity=".35"/><stop offset=".75" stop-color="#FBEEEA" stop-opacity=".16"/><stop offset=".91" stop-color="#FEFAF9" stop-opacity=".04"/><stop offset="1" stop-color="#fff" stop-opacity="0"/></radialGradient><clipPath id="a"><path fill="#fff" d="M0 0h391v619H0z"/></clipPath></defs></svg>