<svg width="306" height="75" fill="none" xmlns="http://www.w3.org/2000/svg"><path d="M100.01 13.89h-.03c-3.69-.12-6.15.03-6.15-1.74 0-1.47 2.37-1.47 6.06-1.47 3.78 0 6.12 0 6.12 2.34h6.42c0-6.42-4.38-7.59-12.54-7.59-7.83 0-12.54 1.17-12.54 6.72 0 5.52 4.62 6.12 12.45 6.39h.03c3.69.15 6.42 0 6.42 2.07 0 1.74-2.64 1.74-6.36 1.74-3.75 0-6.42 0-6.42-2.34h-6.39c0 6.42 4.65 7.59 12.81 7.59 7.83 0 12.84-1.17 12.84-6.99 0-5.85-4.89-6.45-12.72-6.72Zm37.521-7.86h-23.31v5.25h8.43v15.75h6.42V11.28h8.46V6.03Zm19.044 21h7.23l-3.54-6.72c2.01-1.44 3.33-3.78 3.33-6.42 0-4.35-3.54-7.86-7.89-7.86h-16.02v21h6.39v-5.25h7.74l2.76 5.25Zm-10.5-15.75h8.46c1.47 0 2.64 1.17 2.64 2.61s-1.17 2.64-2.64 2.64h-8.46v-5.25Zm26.836 15.75v-21h-6.39v21h6.39Zm16.739-11.88 9.63-9.12h-8.16l-8.19 7.71V6.03h-6.39v21h6.39v-5.55l2.22-2.07 6.54 7.62h8.16l-10.2-11.88Zm18.505 11.88v-21h-6.39v21h6.39Zm22.289-21v13.11l-11.67-13.11h-6.99v21h6.39V14.55l11.1 12.48h7.59v-21h-6.42Zm23.251 9.9v4.68h4.74c-1.05 1.32-2.88 1.74-5.31 1.74-4.08 0-6.42-1.17-6.42-5.82 0-4.68 2.34-5.85 6.42-5.85 3.09 0 5.13.66 5.97 2.91h7.2c-1.05-5.94-5.55-8.16-13.17-8.16-8.76 0-13.41 2.91-13.41 11.1 0 8.73 5.25 11.07 13.41 11.07 3.63 0 6.57-.39 8.73-1.5v.93h4.68v-11.1h-12.84ZM106.55 64h7.02l-10.29-20.97h-7.02L85.97 64h7.02l1.14-2.31h11.28l1.14 2.31Zm-3.75-7.56h-6.15l3.09-6.27 3.06 6.27Zm18.958 2.34v-2.64h14.01v-5.25h-14.01v-2.61h15.18v-5.25h-21.57v21h21.57v-5.25h-15.18Zm30.606-7.89h-.03c-3.69-.12-6.15.03-6.15-1.74 0-1.47 2.37-1.47 6.06-1.47 3.78 0 6.12 0 6.12 2.34h6.42c0-6.42-4.38-7.59-12.54-7.59-7.83 0-12.54 1.17-12.54 6.72 0 5.52 4.62 6.12 12.45 6.39h.03c3.69.15 6.42 0 6.42 2.07 0 1.74-2.64 1.74-6.36 1.74-3.75 0-6.42 0-6.42-2.34h-6.39c0 6.42 4.65 7.59 12.81 7.59 7.83 0 12.84-1.17 12.84-6.99 0-5.85-4.89-6.45-12.72-6.72Zm37.52-7.86h-23.31v5.25h8.43v15.75h6.42V48.28h8.46v-5.25Zm20.214 0v7.86h-11.67v-7.86h-6.39v21h6.39v-7.89h11.67v7.89h6.42v-21h-6.42Zm16.426 15.75v-2.64h14.01v-5.25h-14.01v-2.61h15.18v-5.25h-21.57v21h21.57v-5.25h-15.18Zm40.235-15.75h-23.31v5.25h8.43v15.75h6.42V48.28h8.46v-5.25Zm8.544 21v-21h-6.39v21h6.39Zm22.41-8.19c-.72 2.76-2.85 3.51-6.15 3.51-4.08 0-6.42-1.17-6.42-5.82 0-4.68 2.34-5.85 6.42-5.85 3.36 0 5.46.75 6.15 3.51h7.11c-.84-6.39-5.4-8.76-13.26-8.76-8.76 0-13.41 2.91-13.41 11.1 0 8.73 5.25 11.07 13.41 11.07 7.92 0 12.48-1.92 13.29-8.76h-7.14Z" fill="#FFE9C9"/><rect y="3" width="65" height="65" rx="5" fill="#FFE9C9"/><path d="M50.453 51.98a6.85 6.85 0 0 0-4.223 4.223l-1.283 3.692a.137.137 0 0 1-.263 0l-1.28-3.693a6.849 6.849 0 0 0-4.225-4.222l-3.691-1.283a.137.137 0 0 1 0-.259l3.69-1.283a6.85 6.85 0 0 0 4.226-4.222l1.28-3.693a.137.137 0 0 1 .263 0l1.283 3.693a6.85 6.85 0 0 0 4.223 4.223l3.694 1.282a.137.137 0 0 1 0 .259l-3.694 1.283ZM53.433 25.543a8.562 8.562 0 0 0-5.279 5.278l-1.603 4.616a.172.172 0 0 1-.326 0l-1.603-4.616a8.563 8.563 0 0 0-5.28-5.279l-4.615-1.603a.171.171 0 0 1 0-.323l4.616-1.604a8.562 8.562 0 0 0 5.279-5.278l1.603-4.616a.171.171 0 0 1 .326 0l1.603 4.616a8.562 8.562 0 0 0 5.279 5.278l4.615 1.604a.172.172 0 0 1 0 .323l-4.615 1.604ZM33.139 39.946a11.892 11.892 0 0 0-7.33 7.33l-2.229 6.412a.238.238 0 0 1-.45 0l-2.228-6.411a11.892 11.892 0 0 0-7.33-7.331L7.16 37.719a.238.238 0 0 1 0-.45l6.411-2.227a11.892 11.892 0 0 0 7.33-7.331L23.13 21.3a.238.238 0 0 1 .45 0l2.228 6.411a11.892 11.892 0 0 0 7.33 7.331l6.413 2.227a.238.238 0 0 1 0 .45l-6.412 2.227Z" fill="#1D0D1B"/></svg>