<svg width="230" height="78" fill="none" xmlns="http://www.w3.org/2000/svg"><path d="M14.05 13.89h-.03c-3.69-.12-6.15.03-6.15-1.74 0-1.47 2.37-1.47 6.06-1.47 3.78 0 6.12 0 6.12 2.34h6.42c0-6.42-4.38-7.59-12.54-7.59-7.83 0-12.54 1.17-12.54 6.72 0 5.52 4.62 6.12 12.45 6.39h.03c3.69.15 6.42 0 6.42 2.07 0 1.74-2.64 1.74-6.36 1.74-3.75 0-6.42 0-6.42-2.34H1.12c0 6.42 4.65 7.59 12.81 7.59 7.83 0 12.84-1.17 12.84-6.99 0-5.85-4.89-6.45-12.72-6.72Zm15.29 2.64c0 8.73 5.22 11.07 12.24 11.07 6.99 0 12.24-2.34 12.24-11.07V6.03H47.4v10.5c0 4.65-2.31 5.82-5.82 5.82-3.51 0-5.85-1.17-5.85-5.82V6.03h-6.39v10.5Zm42.004-10.5h-14.28v21h6.39v-5.25h7.89c4.35 0 7.86-3.54 7.86-7.89s-3.51-7.86-7.86-7.86Zm-1.17 10.5h-6.72v-5.25h6.72c1.44 0 2.64 1.17 2.64 2.61s-1.2 2.64-2.64 2.64Zm23.768 10.5c8.34 0 12.81-2.22 12.81-10.5 0-7.74-4.47-10.5-12.81-10.5h-12.24v21h12.24Zm-5.85-5.25v-10.5h5.85c3.96 0 6.42.81 6.42 5.25 0 4.41-2.52 5.25-6.42 5.25h-5.85Zm47.512-5.25c0-8.19-4.68-11.1-13.41-11.1-8.76 0-13.41 2.91-13.41 11.1 0 8.73 5.22 11.07 13.41 11.07 8.73 0 13.41-2.34 13.41-11.07Zm-6.99 0c0 4.65-2.34 5.82-6.42 5.82s-6.42-1.17-6.42-5.82c0-4.68 2.34-5.85 6.42-5.85 4.14 0 6.42 1.17 6.42 5.85Zm23.066-.6v4.68h4.74c-1.05 1.32-2.88 1.74-5.31 1.74-4.08 0-6.42-1.17-6.42-5.82 0-4.68 2.34-5.85 6.42-5.85 3.09 0 5.13.66 5.97 2.91h7.2c-1.05-5.94-5.55-8.16-13.17-8.16-8.76 0-13.41 2.91-13.41 11.1 0 8.73 5.25 11.07 13.41 11.07 3.63 0 6.57-.39 8.73-1.5v.93h4.68v-11.1h-12.84Zm29.238 0v4.68h4.74c-1.05 1.32-2.88 1.74-5.31 1.74-4.08 0-6.42-1.17-6.42-5.82 0-4.68 2.34-5.85 6.42-5.85 3.09 0 5.13.66 5.97 2.91h7.2c-1.05-5.94-5.55-8.16-13.17-8.16-8.76 0-13.41 2.91-13.41 11.1 0 8.73 5.25 11.07 13.41 11.07 3.63 0 6.57-.39 8.73-1.5v.93h4.68v-11.1h-12.84Zm22.428 11.1v-21h-6.39v21h6.39Zm10.02-5.25v-2.64h14.01v-5.25h-14.01v-2.61h15.18V6.03h-21.57v21h21.57v-5.25h-15.18Z" fill="#F8A16B"/><path d="m99.35 46.03-4.17 12.51-4.17-12.51h-5.49l-4.17 12.51-4.17-12.51h-6.99l6.99 21h6.99l4.08-12.27 4.08 12.27h7.02l6.99-21h-6.99Zm15.355 15.75v-2.64h14.01v-5.25h-14.01v-2.61h15.18v-5.25h-21.57v21h21.57v-5.25h-15.18Zm39.695-5.79c.9-1.05 1.44-2.43 1.44-3.93 0-3.33-2.73-6.03-6.06-6.03L133.1 46v21l17.85.03c3.33 0 6.06-2.73 6.06-6.06 0-2.07-1.05-3.9-2.61-4.98Zm-6.45-4.71c.81 0 1.47.63 1.47 1.44 0 .81-.66 1.47-1.47 1.47h-8.46v-2.91h8.46Zm1.17 10.5h-9.63v-2.94h9.63c.81 0 1.47.66 1.47 1.47 0 .81-.66 1.47-1.47 1.47Z" fill="#FFE9C9"/></svg>