<svg width="857" height="218" fill="none" xmlns="http://www.w3.org/2000/svg"><g fill="#FFE9C9"><path d="M109.295 64.622c0 24.847-21.241 29.858-54.589 29.858C19.931 94.48.052 89.508.052 62.17h27.275c0 9.944 11.276 9.944 27.327 9.944 15.74 0 27.068 0 27.068-7.452 0-8.75-11.679-8.165-27.392-8.71h-.117C20.878 54.808 1.246 52.225 1.246 28.689 1.246 5.154 21.24.13 54.589.13c34.775 0 53.409 4.973 53.409 32.312h-27.34c0-9.944-9.94-9.944-26.082-9.944-15.74 0-25.835 0-25.835 6.218 0 7.569 10.485 6.92 26.224 7.465h.117c33.361 1.012 54.213 3.583 54.213 28.442ZM216.255 36.05a33.593 33.593 0 0 1-9.832 23.708 33.562 33.562 0 0 1-23.698 9.836h-33.529v22.368h-27.327V2.505h60.856a33.561 33.561 0 0 1 23.698 9.837 33.593 33.593 0 0 1 9.832 23.708Zm-27.249 0a11.208 11.208 0 0 0-3.28-7.909 11.196 11.196 0 0 0-7.906-3.281h-28.546V47.2h28.546a11.196 11.196 0 0 0 7.85-3.29 11.207 11.207 0 0 0 3.271-7.861h.065ZM291.891 82.018h-48.089l-4.84 9.944h-29.974l43.846-89.457h29.844l43.897 89.457h-29.844l-4.84-9.944ZM267.717 32.92l-13.184 26.73h26.16l-12.976-26.73ZM469.659 2.505l-29.844 89.457h-29.844l-17.388-52.186-17.388 52.186h-29.844L315.507 2.505h29.844l17.764 53.303 17.751-53.303h23.356l17.751 53.303 17.764-53.303h29.922ZM584.832 2.505v89.457h-32.296L505.343 38.84v53.12h-27.327V2.506h29.844l49.684 55.912V2.505h27.288ZM489.512 200.786h-48.127l-4.866 9.983h-29.844l43.793-89.508h29.844l43.898 89.508h-29.845l-4.853-9.983Zm-24.174-49.044-13.157 26.677h26.172l-13.015-26.677ZM592.034 188.363h-32.92v22.406h-27.327v-89.508h68.318a33.527 33.527 0 0 1 31.971 23.326 33.552 33.552 0 0 1-12.507 37.558l15.078 28.559h-30.818l-11.795-22.341Zm-32.92-22.367h36.021a11.187 11.187 0 0 0 10.805-11.184 11.187 11.187 0 0 0-10.805-11.184h-36.021v22.368ZM739.219 143.628h-36.021v67.141h-27.249v-67.141h-36.034v-22.367h99.355l-.051 22.367ZM806.005 218.013a50.947 50.947 0 0 1-47.077-31.47 50.998 50.998 0 0 1 11.046-55.556 50.941 50.941 0 0 1 78.399 7.725 50.988 50.988 0 0 1 8.588 28.322 51.054 51.054 0 0 1-14.944 36.029 51.01 51.01 0 0 1-36.012 14.95Zm0-94.766a43.709 43.709 0 0 0-40.397 26.99 43.753 43.753 0 0 0 9.468 47.666 43.708 43.708 0 0 0 22.383 11.973 43.714 43.714 0 0 0 44.88-18.594 43.753 43.753 0 0 0 7.369-24.3 43.781 43.781 0 0 0-12.83-30.875 43.74 43.74 0 0 0-30.873-12.808v-.052Z"/><path d="M828.544 178.38c0-12.436-10.069-45.215-22.5-45.215s-22.5 32.779-22.5 45.215c0 5.97 2.37 11.696 6.59 15.917a22.494 22.494 0 0 0 31.82 0 22.512 22.512 0 0 0 6.59-15.917Z"/></g></svg>