<svg width="252" height="64" fill="none" xmlns="http://www.w3.org/2000/svg"><g clip-path="url(#a)" fill="#32011D"><path d="M32.138 18.948c0 7.285-6.246 8.754-16.052 8.754-10.225 0-16.07-1.458-16.07-9.474h8.02c0 2.916 3.315 2.916 8.035 2.916 4.628 0 7.96 0 7.96-2.185 0-2.565-3.435-2.394-8.055-2.554h-.035C6.14 16.07.366 15.313.366 8.412c0-6.9 5.88-8.374 15.686-8.374 10.226 0 15.705 1.458 15.705 9.474h-8.04c0-2.916-2.922-2.916-7.669-2.916-4.628 0-7.596 0-7.596 1.823 0 2.22 3.082 2.03 7.71 2.19h.035c9.81.296 15.941 1.05 15.941 8.339ZM63.59 10.57a9.835 9.835 0 0 1-2.892 6.951 9.883 9.883 0 0 1-6.968 2.884h-9.86v6.558h-8.035V.735H53.73a9.883 9.883 0 0 1 6.968 2.884 9.835 9.835 0 0 1 2.891 6.951Zm-8.013 0a3.28 3.28 0 0 0-.965-2.319 3.297 3.297 0 0 0-2.324-.962h-8.394v6.55h8.394a3.297 3.297 0 0 0 2.308-.964 3.28 3.28 0 0 0 .962-2.305h.019ZM85.83 24.048H71.69l-1.423 2.916h-8.814L74.345.733h8.776l12.908 26.23h-8.776l-1.423-2.916ZM78.722 9.653l-3.877 7.837h7.692l-3.815-7.837ZM138.103.735l-8.776 26.229h-8.776l-5.112-15.302-5.113 15.301h-8.776L92.774.735h8.776l5.224 15.628L111.993.735h6.868l5.22 15.628L129.304.735h8.799ZM171.969.735v26.229h-9.496l-13.877-15.576v15.575h-8.036V.735h8.776l14.609 16.393V.735h8.024ZM143.941 58.871h-14.152l-1.431 2.927h-8.776l12.878-26.244h8.775l12.908 26.244h-8.775l-1.427-2.927Zm-7.109-14.38-3.869 7.822h7.696l-3.827-7.822ZM174.087 55.229h-9.68v6.57h-8.036V35.553h20.089a9.875 9.875 0 0 1 5.82 1.889 9.835 9.835 0 0 1 3.581 4.95 9.808 9.808 0 0 1-.037 6.105 9.835 9.835 0 0 1-3.641 4.908l4.434 8.373h-9.062l-3.468-6.55Zm-9.68-6.558h10.592a3.294 3.294 0 0 0 2.253-1 3.275 3.275 0 0 0 0-4.56 3.294 3.294 0 0 0-2.253-.999h-10.592v6.559ZM217.367 42.112h-10.592v19.686h-8.013V42.112h-10.596v-6.558h29.216l-.015 6.558ZM237.005 63.922c-2.964 0-5.86-.877-8.325-2.519a14.953 14.953 0 0 1-5.518-6.708 14.915 14.915 0 0 1 3.248-16.29 14.992 14.992 0 0 1 7.672-4.09 15.018 15.018 0 0 1 8.657.85 14.972 14.972 0 0 1 6.724 5.506 14.917 14.917 0 0 1 2.526 8.304 14.952 14.952 0 0 1-4.395 10.564 15.021 15.021 0 0 1-10.589 4.383Zm0-27.785c-2.543-.001-5.028.75-7.143 2.159a12.803 12.803 0 0 0-1.952 19.73 12.883 12.883 0 0 0 14.009 2.782 12.852 12.852 0 0 0 5.77-4.724 12.799 12.799 0 0 0 2.167-7.124 12.818 12.818 0 0 0-3.773-9.053 12.882 12.882 0 0 0-9.078-3.755v-.016Z"/><path d="M243.633 52.302c0-3.647-2.961-13.257-6.616-13.257-3.656 0-6.617 9.61-6.617 13.257 0 1.75.697 3.429 1.938 4.667a6.626 6.626 0 0 0 9.357 0 6.591 6.591 0 0 0 1.938-4.667Z"/></g><defs><clipPath id="a"><path fill="#fff" d="M0 0h252v63.918H0z"/></clipPath></defs></svg>