<svg width="66" height="66" fill="none" xmlns="http://www.w3.org/2000/svg"><path d="M29.373 5.769c2.268 0 2.268 3.445 0 3.445h-12.44c-3.988 0-7.26 3.27-7.26 7.26v8.649l3.34-3.06c1.664-1.525 3.98 1.004 2.315 2.53L9.232 30.18c-.76.767-1.8.767-2.56 0L.576 24.592c-1.665-1.525.652-4.054 2.315-2.53l3.34 3.06v-8.648c0-5.891 4.814-10.705 10.705-10.705h12.44-.002Zm5.439 41.66c0 2.268-3.445 2.268-3.445 0v-2.41c-3.727-.37-5.792-1.98-7.353-3.103-1.83-1.316.189-4.104 2.005-2.784 1.198.869 2.712 2.056 5.348 2.415v-7.302c-3.951-.73-7.539-1.844-7.539-6.742 0-3.897 3.73-6.383 7.539-6.906V18.57c0-2.268 3.445-2.268 3.445 0v2.003c3.532.394 5.57 1.914 7.18 3.082 1.733 1.259.02 4.418-2.403 2.5-.995-.724-2.463-1.748-4.777-2.103v7.309c3.88.732 7.359 1.885 7.359 6.71 0 3.835-3.622 6.31-7.36 6.879v2.479Zm-3.445-16.695v-6.651c-1.842.35-4.094 1.547-4.094 3.419 0 2 1.847 2.751 4.094 3.231Zm3.445 4.144v6.576c1.777-.38 3.914-1.566 3.914-3.384 0-1.946-1.75-2.71-3.914-3.192ZM35.82 6.672 41.408.575c1.526-1.665 4.055.652 2.53 2.315l-3.06 3.34h8.65c5.89 0 10.705 4.814 10.705 10.705v12.439c0 2.268-3.446 2.268-3.446 0v-12.44c0-3.99-3.27-7.26-7.26-7.26h-8.649l3.06 3.34c1.525 1.664-1.004 3.98-2.53 2.315L35.82 9.233c-.783-.777-.742-1.89 0-2.56Zm-5.64 52.656-5.589 6.097c-1.526 1.665-4.054-.652-2.53-2.315l3.06-3.34h-8.649c-5.891 0-10.705-4.813-10.705-10.705V36.626c0-2.268 3.446-2.268 3.446 0v12.44c0 3.988 3.27 7.26 7.26 7.26h8.648l-3.06-3.34c-1.524-1.663 1.004-3.98 2.53-2.315l5.588 6.096c.784.777.743 1.89 0 2.56ZM59.326 35.82l6.098 5.588c1.665 1.526-.652 4.054-2.316 2.53l-3.339-3.06v8.649c0 5.89-4.813 10.705-10.705 10.705h-12.44c-2.267 0-2.267-3.446 0-3.446h12.44c3.99 0 7.26-3.27 7.26-7.26V40.88l-3.34 3.06c-1.663 1.525-3.98-1.004-2.315-2.53l6.096-5.588c.778-.784 1.891-.742 2.56 0h.001Z" fill="url(#a)"/><defs><linearGradient id="a" x1="-7.838" y1="-17.738" x2="69.32" y2="64.348" gradientUnits="userSpaceOnUse"><stop stop-color="#EF3C5A"/><stop offset=".297" stop-color="#F04A3D"/><stop offset="1" stop-color="#F47C20"/></linearGradient></defs></svg>