<svg width="63" height="64" fill="none" xmlns="http://www.w3.org/2000/svg"><path d="M3.328 35.138v25.577h4.887V35.138H3.328Zm26.51 3.486c0-2.163 3.327-2.163 3.327 0v6.248c0 2.162-3.328 2.162-3.328 0v-6.248Zm12.139-3.486v7.322c0 13.76-20.952 13.462-20.952 0v-7.322h-9.483v25.577h39.916V35.138h-9.483.002Zm-17.625 0v7.322c0 9.39 14.296 9.182 14.296 0v-7.322H24.352ZM48.98.814c1.103-1.86 3.963-.201 2.86 1.655l-3.373 5.654c-1.106 1.86-3.963.2-2.86-1.655L48.98.814ZM11.162 2.469C10.059.611 12.915-1.044 14.022.814l3.37 5.654c1.105 1.855-1.752 3.515-2.858 1.655L11.16 2.47Zm18.275-.828c0-2.162 3.327-2.162 3.327 0v5.655c0 2.163-3.327 2.163-3.327 0V1.641Zm25.35 13.692v16.52h4.887v-10.3c0-2.95-2.06-5.498-4.887-6.22Zm0 19.806v25.577h4.887V35.139h-4.887Zm-3.327-3.285V15.13H11.543v16.725H51.46Zm-43.245 0V15.342c-2.83.74-4.887 3.296-4.887 6.255v10.257h4.887ZM9.88 11.845h43.287c5.413 0 9.834 4.365 9.834 9.71v40.803c0 .907-.745 1.642-1.663 1.642H1.663A1.653 1.653 0 0 1 0 62.358v-40.76c0-5.368 4.44-9.753 9.878-9.753h.001Z" fill="url(#a)"/><defs><linearGradient id="a" x1="0" y1="32.604" x2="64.238" y2="31.145" gradientUnits="userSpaceOnUse"><stop stop-color="#EF3C5A"/><stop offset=".297" stop-color="#F04A3D"/><stop offset="1" stop-color="#F47C20"/></linearGradient></defs></svg>