<svg width="50" height="50" fill="none" xmlns="http://www.w3.org/2000/svg"><path d="M46.667 11.562a17.745 17.745 0 0 1-5.107 1.4 8.905 8.905 0 0 0 3.908-4.919 17.825 17.825 0 0 1-5.646 2.159 8.89 8.89 0 0 0-15.378 6.082c0 .696.08 1.376.23 2.024-7.389-.37-13.939-3.91-18.326-9.29a8.869 8.869 0 0 0-1.201 4.472A8.883 8.883 0 0 0 9.1 20.888a8.873 8.873 0 0 1-4.027-1.111v.111a8.892 8.892 0 0 0 7.132 8.717 8.895 8.895 0 0 1-4.015.153 8.901 8.901 0 0 0 8.305 6.175A17.831 17.831 0 0 1 5.453 38.74a17.87 17.87 0 0 1-2.121-.125 25.17 25.17 0 0 0 13.628 3.993c16.353 0 25.294-13.546 25.294-25.295 0-.385-.009-.768-.026-1.15a18.092 18.092 0 0 0 4.439-4.601Z" fill="#000"/></svg>