<svg width="50" height="50" fill="none" xmlns="http://www.w3.org/2000/svg"><path d="M46.667 11.562a17.748 17.748 0 0 1-5.107 1.4 8.906 8.906 0 0 0 3.908-4.918 17.827 17.827 0 0 1-5.646 2.158 8.89 8.89 0 0 0-15.378 6.082c0 .696.08 1.376.23 2.025-7.389-.37-13.939-3.91-18.326-9.29a8.869 8.869 0 0 0-1.201 4.471A8.884 8.884 0 0 0 9.1 20.89a8.873 8.873 0 0 1-4.027-1.112v.112a8.892 8.892 0 0 0 7.132 8.716 8.89 8.89 0 0 1-4.015.154 8.901 8.901 0 0 0 8.305 6.175A17.831 17.831 0 0 1 5.453 38.74c-.716 0-1.425-.041-2.121-.125A25.17 25.17 0 0 0 16.96 42.61c16.353 0 25.294-13.547 25.294-25.295 0-.385-.009-.769-.026-1.15a18.092 18.092 0 0 0 4.439-4.602Z" fill="#FFE9C9"/></svg>