<svg width="420" height="75" fill="none" xmlns="http://www.w3.org/2000/svg"><path d="M85.41 16.53c0 8.73 5.22 11.07 12.24 11.07 6.99 0 12.24-2.34 12.24-11.07V6.03h-6.42v10.5c0 4.65-2.31 5.82-5.82 5.82-3.51 0-5.85-1.17-5.85-5.82V6.03h-6.39v10.5Zm46.384-10.5v13.11l-11.67-13.11h-6.99v21h6.39V14.55l11.1 12.48h7.59v-21h-6.42Zm24.331 0h-14.28v21h6.39v-5.25h7.89c4.35 0 7.86-3.54 7.86-7.89s-3.51-7.86-7.86-7.86Zm-1.17 10.5h-6.72v-5.25h6.72c1.44 0 2.64 1.17 2.64 2.61s-1.2 2.64-2.64 2.64Zm28.419 10.5h7.23l-3.54-6.72c2.01-1.44 3.33-3.78 3.33-6.42 0-4.35-3.54-7.86-7.89-7.86h-16.02v21h6.39v-5.25h7.74l2.76 5.25Zm-10.5-15.75h8.46c1.47 0 2.64 1.17 2.64 2.61s-1.17 2.64-2.64 2.64h-8.46v-5.25Zm26.836 10.5v-2.64h14.01v-5.25h-14.01v-2.61h15.18V6.03h-21.57v21h21.57v-5.25h-15.18Zm30.635 5.25c8.34 0 12.81-2.22 12.81-10.5 0-7.74-4.47-10.5-12.81-10.5h-12.24v21h12.24Zm-5.85-5.25v-10.5h5.85c3.96 0 6.42.81 6.42 5.25 0 4.41-2.52 5.25-6.42 5.25h-5.85Zm27.861 5.25v-21h-6.39v21h6.39Zm22.41-8.19c-.72 2.76-2.85 3.51-6.15 3.51-4.08 0-6.42-1.17-6.42-5.82 0-4.68 2.34-5.85 6.42-5.85 3.36 0 5.46.75 6.15 3.51h7.11c-.84-6.39-5.4-8.76-13.26-8.76-8.76 0-13.41 2.91-13.41 11.1 0 8.73 5.25 11.07 13.41 11.07 7.92 0 12.48-1.92 13.29-8.76h-7.14Zm31.741-12.81h-23.31v5.25h8.43v15.75h6.42V11.28h8.46V6.03ZM324.159 27h7.02l-10.29-20.97h-7.02L303.579 27h7.02l1.14-2.31h11.28l1.14 2.31Zm-3.75-7.56h-6.15l3.09-6.27 3.06 6.27Zm33.869-3.45c.9-1.05 1.44-2.43 1.44-3.93 0-3.33-2.73-6.03-6.06-6.03L332.978 6v21l17.85.03c3.33 0 6.06-2.73 6.06-6.06 0-2.07-1.05-3.9-2.61-4.98Zm-6.45-4.71c.81 0 1.47.63 1.47 1.44 0 .81-.66 1.47-1.47 1.47h-8.46v-2.91h8.46Zm1.17 10.5h-9.63v-2.94h9.63c.81 0 1.47.66 1.47 1.47 0 .81-.66 1.47-1.47 1.47Zm17.03 0V6.03h-6.39v21h21v-5.25h-14.61Zm23.174 0v-2.64h14.01v-5.25h-14.01v-2.61h15.18V6.03h-21.57v21h21.57v-5.25h-15.18ZM107.64 43.03H84.33v5.25h8.43v15.75h6.42V48.28h8.46v-5.25Zm19.044 21h7.23l-3.54-6.72c2.01-1.44 3.33-3.78 3.33-6.42 0-4.35-3.54-7.86-7.89-7.86h-16.02v21h6.39v-5.25h7.74l2.76 5.25Zm-10.5-15.75h8.46c1.47 0 2.64 1.17 2.64 2.61s-1.17 2.64-2.64 2.64h-8.46v-5.25ZM155.38 64h7.02l-10.29-20.97h-7.02L134.8 64h7.02l1.14-2.31h11.28l1.14 2.31Zm-3.75-7.56h-6.15l3.09-6.27 3.06 6.27Zm18.958 7.59v-21h-6.39v21h6.39Zm25.47-21h-23.31v5.25h8.43v15.75h6.42V48.28h8.46v-5.25Zm14.364 7.86h-.03c-3.69-.12-6.15.03-6.15-1.74 0-1.47 2.37-1.47 6.06-1.47 3.78 0 6.12 0 6.12 2.34h6.42c0-6.42-4.38-7.59-12.54-7.59-7.83 0-12.54 1.17-12.54 6.72 0 5.52 4.62 6.12 12.45 6.39h.03c3.69.15 6.42 0 6.42 2.07 0 1.74-2.64 1.74-6.36 1.74-3.75 0-6.42 0-6.42-2.34h-6.39c0 6.42 4.65 7.59 12.81 7.59 7.83 0 12.84-1.17 12.84-6.99 0-5.85-4.89-6.45-12.72-6.72Z" fill="#FFE9C9"/><rect y="3" width="65" height="65" rx="5" fill="#FFE9C9"/><path d="M20.958 40.84a1.644 1.644 0 0 0-1.878 1.383c-.547 3.585-1.315 7.017-2.288 10.176a1.627 1.627 0 0 0 1.57 2.117c.7 0 1.35-.461 1.572-1.16 1.024-3.313 1.827-6.899 2.39-10.655a1.637 1.637 0 0 0-1.366-1.862Zm14.035-16.87c-2.185-.427-4.183-.017-5.754 1.212-1.93 1.503-3.124 4.133-3.295 7.24-.325 5.77-.82 10.176-1.622 14.292-.17.888.41 1.758 1.298 1.929.888.188 1.758-.41 1.929-1.298.836-4.269 1.349-8.81 1.673-14.735.12-2.117.87-3.927 2.032-4.815.82-.632 1.843-.837 3.107-.58 2.681.529 3.586 2.51 3.347 7.324a104.143 104.143 0 0 1-1.673 13.933c-.17.888.41 1.759 1.298 1.93.102.017.205.034.307.034.768 0 1.468-.547 1.605-1.332a105.45 105.45 0 0 0 1.724-14.393c.137-2.613.479-9.46-5.976-10.74v-.001Zm1.76 28.958a1.65 1.65 0 0 0-1.999 1.178 69.69 69.69 0 0 1-1.024 3.569 1.628 1.628 0 0 0 1.57 2.117c.7 0 1.35-.461 1.572-1.161.375-1.23.733-2.459 1.058-3.705a1.623 1.623 0 0 0-1.178-1.998Z" fill="#1D0D1B"/><path d="M25.157 50.606c-.87-.239-1.775.29-2.014 1.16a68.066 68.066 0 0 1-1.144 3.792c-.29.853.188 1.792 1.041 2.083.171.051.342.085.513.085.682 0 1.331-.444 1.553-1.127a61.67 61.67 0 0 0 1.196-3.978c.256-.871-.274-1.776-1.145-2.015Zm8.35-20.865c-.905 0-1.656.734-1.656 1.64-.035 9.049-1.486 18.012-4.2 25.953-.291.853.17 1.792 1.024 2.083.17.068.358.085.53.085.682 0 1.314-.427 1.553-1.11 2.817-8.264 4.32-17.604 4.371-26.995a1.608 1.608 0 0 0-1.622-1.656Zm-.137-14.463c.905 0 1.64-.75 1.622-1.656 0-.905-.717-1.588-1.656-1.622-8.81.085-16.682 6.318-18.714 14.855-.512 2.151-.58 4.354-.665 6.47-.035 1.128-.069 2.17-.171 3.228a76.738 76.738 0 0 1-1.742 10.774c-.205.888.324 1.776 1.212 1.981.137.034.256.051.376.051.734 0 1.417-.512 1.605-1.263.854-3.535 1.451-7.308 1.81-11.235.103-1.144.136-2.288.188-3.415.068-2.05.136-3.995.58-5.823 1.708-7.102 8.248-12.293 15.556-12.344Zm7.445-1.878a1.641 1.641 0 0 0-2.134.905 1.641 1.641 0 0 0 .904 2.134c6.523 2.647 10.263 8.999 9.99 16.972a109.87 109.87 0 0 1-2.255 18.68 1.638 1.638 0 0 0 1.281 1.946c.12.017.222.035.342.035.768 0 1.45-.53 1.604-1.315a111.378 111.378 0 0 0 2.323-19.244c.307-9.253-4.32-16.97-12.055-20.112Zm-7.752 4.508c-4.49.154-8.725 2.612-11.064 6.42-1.81 2.954-1.946 6.096-2.066 9.135-.035.734-.068 1.468-.12 2.22a1.644 1.644 0 0 0 1.52 1.758 1.634 1.634 0 0 0 1.758-1.52c.051-.768.085-1.553.12-2.322.12-2.732.222-5.327 1.588-7.547 1.758-2.885 4.968-4.746 8.366-4.849a10.241 10.241 0 0 1 9.306 5.328c1.536 2.817 1.297 6.112 1.041 9.596l-.034.563a1.644 1.644 0 0 0 1.52 1.758h.12c.853 0 1.57-.666 1.638-1.536l.035-.564c.256-3.62.563-7.734-1.434-11.405-2.39-4.423-7.274-7.189-12.294-7.035Zm11.73 22.76c-.888-.102-1.725.53-1.827 1.434-.598 4.969-1.503 9.716-2.681 14.138-.24.87.29 1.776 1.16 2.014.137.035.291.052.428.052.734 0 1.383-.478 1.587-1.23 1.213-4.56 2.152-9.476 2.767-14.598a1.63 1.63 0 0 0-1.434-1.81Z" fill="#1D0D1B"/></svg>