<svg width="498" height="554" fill="none" xmlns="http://www.w3.org/2000/svg"><path d="m273.084 521.574.006-32.419 56.226 32.419V554l-56.232-32.426Z" fill="url(#a)"/><path d="m273.09 489.155 28.11-16.213 56.226 32.426-28.11 16.206-56.226-32.419Z" fill="url(#b)"/><path d="m301.2 440.523 28.116-16.213 56.226 32.419-28.116 16.213-56.226-32.419Z" fill="url(#c)"/><path d="m329.316 359.464 112.458-64.845L498 327.045 385.542 391.89l-56.226-32.426Z" fill="url(#d)"/><path d="M301.2 472.942v-32.419l56.226 32.419v32.426L301.2 472.942Z" fill="url(#e)"/><path d="M329.316 424.31v-64.846l56.226 32.42v64.845l-56.226-32.419Z" fill="url(#f)"/><path d="M329.316 554v-32.426l28.11-16.206v-32.426l28.116-16.213v-64.845L498 327.045v129.684L329.316 554Z" fill="url(#g)"/><path d="M329.316 554v-32.426l28.11-16.206v-32.426l28.116-16.213v-64.845L498 327.045v129.684L329.316 554Z" fill="url(#h)"/><path d="m84.342 211.216 56.232-32.419 112.458 64.839 112.459-64.839 56.225 32.419-168.684 97.271-168.69-97.271Z" fill="url(#i)"/><path d="m84.342 211.216 56.232-32.419 112.458 64.839 112.459-64.839 56.225 32.419-168.684 97.271-168.69-97.271Z" fill="url(#j)"/><path d="M421.716 211.216v64.845l-112.458 64.846v64.845l-28.116 16.213v32.419l-28.11 16.213v-162.11l168.684-97.271Z" fill="url(#k)"/><path d="M421.716 211.216v64.845l-112.458 64.846v64.845l-28.116 16.213v32.419l-28.11 16.213v-162.11l168.684-97.271Z" fill="url(#l)"/><path d="M84.342 211.216v64.845L196.8 340.907v64.845l28.116 16.213v32.419l28.11 16.213v-162.11L84.342 211.216Z" fill="url(#m)"/><path d="M84.342 211.216v64.845L196.8 340.907v64.845l28.116 16.213v32.419l28.11 16.213v-162.11L84.342 211.216Z" fill="url(#n)"/><path d="m224.916 519.223-.006-32.42-56.226 32.42v32.426l56.232-32.426Z" fill="url(#o)"/><path d="M224.91 486.803 196.8 470.59l-56.226 32.426 28.11 16.207 56.226-32.42Z" fill="url(#p)"/><path d="m196.8 438.171-28.116-16.213-56.226 32.426 28.11 16.206 56.232-32.419Z" fill="url(#q)"/><path d="M168.684 357.113 56.226 292.274 0 324.694l112.458 64.845 56.226-32.426Z" fill="url(#r)"/><path d="M196.8 470.59v-32.419l-56.226 32.419v32.426L196.8 470.59Z" fill="url(#s)"/><path d="M168.684 421.958v-64.845l-56.226 32.426v64.839l56.226-32.42Z" fill="url(#t)"/><path d="M168.684 551.648v-32.425l-28.11-16.207V470.59l-28.116-16.213v-64.838L0 324.694v129.69l168.684 97.264Z" fill="url(#u)"/><path d="m168.684 130.158.006 32.426 84.342 48.626v-32.42l-84.348-48.632Z" fill="url(#v)"/><path d="m168.684 130.158.006 32.426 84.342 48.626v-32.42l-84.348-48.632Z" fill="url(#w)"/><path d="m337.374 130.165-.006 32.425-84.336 48.626v-32.419l84.342-48.632Z" fill="url(#x)"/><path d="m337.374 130.165-.006 32.425-84.336 48.626v-32.419l84.342-48.632Z" fill="url(#y)"/><path d="m168.684 130.158 84.342-48.632 84.348 48.639-84.342 48.632-84.348-48.639Z" fill="url(#z)"/><path d="m168.684 130.158 84.342-48.632 84.348 48.639-84.342 48.632-84.348-48.639Z" fill="url(#A)"/><path d="M258.008 137.901c23.272 0 42.138-18.842 42.138-42.085 0-23.243-18.866-42.085-42.138-42.085-23.273 0-42.139 18.842-42.139 42.085 0 23.243 18.866 42.085 42.139 42.085Z" fill="url(#B)"/><path d="M258.008 137.901c23.272 0 42.138-18.842 42.138-42.085 0-23.243-18.866-42.085-42.138-42.085-23.273 0-42.139 18.842-42.139 42.085 0 23.243 18.866 42.085 42.139 42.085Z" fill="#F2DCC2"/><path style="mix-blend-mode:lighten" d="M258.008 196.361c54.293 0 98.306-43.957 98.306-98.18C356.314 43.956 312.301 0 258.008 0s-98.306 43.957-98.306 98.18c0 54.224 44.013 98.181 98.306 98.181Z" fill="url(#C)"/><defs><linearGradient id="a" x1="294.169" y1="533.734" x2="308.204" y2="509.399" gradientUnits="userSpaceOnUse"><stop stop-color="#A82D65" stop-opacity=".8"/><stop offset=".11" stop-color="#912654" stop-opacity=".84"/><stop offset=".34" stop-color="#661A37" stop-opacity=".91"/><stop offset=".57" stop-color="#481122" stop-opacity=".96"/><stop offset=".8" stop-color="#360C15" stop-opacity=".99"/><stop offset="1" stop-color="#300B11"/></linearGradient><linearGradient id="b" x1="273.09" y1="497.261" x2="357.426" y2="497.261" gradientUnits="userSpaceOnUse"><stop stop-color="#FF8059" stop-opacity=".8"/><stop offset=".39" stop-color="#D2555F" stop-opacity=".9"/><stop offset=".76" stop-color="#B33763" stop-opacity=".97"/><stop offset="1" stop-color="#A82D65"/></linearGradient><linearGradient id="c" x1="301.2" y1="448.622" x2="385.542" y2="448.622" gradientUnits="userSpaceOnUse"><stop stop-color="#FF8059" stop-opacity=".8"/><stop offset=".39" stop-color="#D2555F" stop-opacity=".9"/><stop offset=".76" stop-color="#B33763" stop-opacity=".97"/><stop offset="1" stop-color="#A82D65"/></linearGradient><linearGradient id="d" x1="329.316" y1="343.258" x2="498" y2="343.258" gradientUnits="userSpaceOnUse"><stop stop-color="#FF8059" stop-opacity=".8"/><stop offset=".39" stop-color="#D2555F" stop-opacity=".9"/><stop offset=".76" stop-color="#B33763" stop-opacity=".97"/><stop offset="1" stop-color="#A82D65"/></linearGradient><linearGradient id="e" x1="322.285" y1="485.102" x2="336.313" y2="460.767" gradientUnits="userSpaceOnUse"><stop stop-color="#A82D65" stop-opacity=".8"/><stop offset=".03" stop-color="#9E2A5E" stop-opacity=".82"/><stop offset=".18" stop-color="#761E42" stop-opacity=".88"/><stop offset=".35" stop-color="#57162C" stop-opacity=".93"/><stop offset=".53" stop-color="#410F1D" stop-opacity=".97"/><stop offset=".73" stop-color="#340C13" stop-opacity=".99"/><stop offset="1" stop-color="#300B11"/></linearGradient><linearGradient id="f" x1="343.371" y1="432.416" x2="371.433" y2="383.753" gradientUnits="userSpaceOnUse"><stop stop-color="#A82D65" stop-opacity=".8"/><stop offset=".03" stop-color="#9E2A5E" stop-opacity=".82"/><stop offset=".18" stop-color="#761E42" stop-opacity=".88"/><stop offset=".35" stop-color="#57162C" stop-opacity=".93"/><stop offset=".53" stop-color="#410F1D" stop-opacity=".97"/><stop offset=".73" stop-color="#340C13" stop-opacity=".99"/><stop offset="1" stop-color="#300B11"/></linearGradient><linearGradient id="g" x1="329.316" y1="440.523" x2="498" y2="440.523" gradientUnits="userSpaceOnUse"><stop stop-color="#A82D65" stop-opacity=".8"/><stop offset=".03" stop-color="#9E2A5E" stop-opacity=".82"/><stop offset=".18" stop-color="#761E42" stop-opacity=".88"/><stop offset=".35" stop-color="#57162C" stop-opacity=".93"/><stop offset=".53" stop-color="#410F1D" stop-opacity=".97"/><stop offset=".73" stop-color="#340C13" stop-opacity=".99"/><stop offset="1" stop-color="#300B11"/></linearGradient><linearGradient id="h" x1="357.426" y1="570.207" x2="497.731" y2="326.89" gradientUnits="userSpaceOnUse"><stop stop-color="#A82D65" stop-opacity=".8"/><stop offset=".04" stop-color="#9A295B" stop-opacity=".82"/><stop offset=".19" stop-color="#731E40" stop-opacity=".89"/><stop offset=".34" stop-color="#55152B" stop-opacity=".94"/><stop offset=".51" stop-color="#400F1C" stop-opacity=".97"/><stop offset=".71" stop-color="#330C13" stop-opacity=".99"/><stop offset="1" stop-color="#300B11"/></linearGradient><linearGradient id="i" x1="84.342" y1="243.642" x2="421.716" y2="243.642" gradientUnits="userSpaceOnUse"><stop stop-color="#FF8059" stop-opacity=".8"/><stop offset=".01" stop-color="#FC7D59" stop-opacity=".81"/><stop offset=".23" stop-color="#D75A5E" stop-opacity=".89"/><stop offset=".46" stop-color="#BC4062" stop-opacity=".95"/><stop offset=".71" stop-color="#AD3164" stop-opacity=".99"/><stop offset="1" stop-color="#A82D65"/></linearGradient><linearGradient id="j" x1="84.342" y1="243.642" x2="421.716" y2="243.642" gradientUnits="userSpaceOnUse"><stop stop-color="#FF8059" stop-opacity=".8"/><stop offset=".01" stop-color="#FC7D59" stop-opacity=".81"/><stop offset=".23" stop-color="#D75A5E" stop-opacity=".89"/><stop offset=".46" stop-color="#BC4062" stop-opacity=".95"/><stop offset=".71" stop-color="#AD3164" stop-opacity=".99"/><stop offset="1" stop-color="#A82D65"/></linearGradient><linearGradient id="k" x1="253.032" y1="340.907" x2="421.716" y2="340.907" gradientUnits="userSpaceOnUse"><stop stop-color="#A82D65" stop-opacity=".8"/><stop offset=".13" stop-color="#8B2450" stop-opacity=".85"/><stop offset=".35" stop-color="#631935" stop-opacity=".91"/><stop offset=".57" stop-color="#461121" stop-opacity=".96"/><stop offset=".79" stop-color="#350C15" stop-opacity=".99"/><stop offset="1" stop-color="#300B11"/></linearGradient><linearGradient id="l" x1="253.032" y1="340.907" x2="421.716" y2="340.907" gradientUnits="userSpaceOnUse"><stop stop-color="#A82D65" stop-opacity=".8"/><stop offset=".03" stop-color="#9E2A5E" stop-opacity=".82"/><stop offset=".18" stop-color="#761E42" stop-opacity=".88"/><stop offset=".35" stop-color="#57162C" stop-opacity=".93"/><stop offset=".53" stop-color="#410F1D" stop-opacity=".97"/><stop offset=".73" stop-color="#340C13" stop-opacity=".99"/><stop offset="1" stop-color="#300B11"/></linearGradient><linearGradient id="m" x1="84.342" y1="340.907" x2="253.026" y2="340.907" gradientUnits="userSpaceOnUse"><stop stop-color="#A82D65" stop-opacity=".8"/><stop offset=".03" stop-color="#9E2A5E" stop-opacity=".82"/><stop offset=".18" stop-color="#761E42" stop-opacity=".88"/><stop offset=".35" stop-color="#57162C" stop-opacity=".93"/><stop offset=".53" stop-color="#410F1D" stop-opacity=".97"/><stop offset=".73" stop-color="#340C13" stop-opacity=".99"/><stop offset="1" stop-color="#300B11"/></linearGradient><linearGradient id="n" x1="133.544" y1="401.699" x2="203.696" y2="280.037" gradientUnits="userSpaceOnUse"><stop stop-color="#A82D65" stop-opacity=".8"/><stop offset=".23" stop-color="#942757" stop-opacity=".83"/><stop offset=".65" stop-color="#601832" stop-opacity=".92"/><stop offset="1" stop-color="#300B11"/></linearGradient><linearGradient id="o" x1="168.684" y1="519.223" x2="224.916" y2="519.223" gradientUnits="userSpaceOnUse"><stop stop-color="#A82D65" stop-opacity=".8"/><stop offset=".05" stop-color="#A02A5F" stop-opacity=".81"/><stop offset=".47" stop-color="#631935" stop-opacity=".91"/><stop offset=".81" stop-color="#3E0E1A" stop-opacity=".98"/><stop offset="1" stop-color="#300B11"/></linearGradient><linearGradient id="p" x1="140.574" y1="494.91" x2="224.91" y2="494.91" gradientUnits="userSpaceOnUse"><stop stop-color="#FF8059" stop-opacity=".8"/><stop offset=".01" stop-color="#FC7D59" stop-opacity=".81"/><stop offset=".23" stop-color="#D75A5E" stop-opacity=".89"/><stop offset=".46" stop-color="#BC4062" stop-opacity=".95"/><stop offset=".71" stop-color="#AD3164" stop-opacity=".99"/><stop offset="1" stop-color="#A82D65"/></linearGradient><linearGradient id="q" x1="112.458" y1="446.278" x2="196.8" y2="446.278" gradientUnits="userSpaceOnUse"><stop stop-color="#FF8059" stop-opacity=".8"/><stop offset=".01" stop-color="#FC7D59" stop-opacity=".81"/><stop offset=".23" stop-color="#D75A5E" stop-opacity=".89"/><stop offset=".46" stop-color="#BC4062" stop-opacity=".95"/><stop offset=".71" stop-color="#AD3164" stop-opacity=".99"/><stop offset="1" stop-color="#A82D65"/></linearGradient><linearGradient id="r" x1="0" y1="340.907" x2="168.684" y2="340.907" gradientUnits="userSpaceOnUse"><stop stop-color="#FF8059" stop-opacity=".8"/><stop offset=".01" stop-color="#FC7D59" stop-opacity=".81"/><stop offset=".23" stop-color="#D75A5E" stop-opacity=".89"/><stop offset=".46" stop-color="#BC4062" stop-opacity=".95"/><stop offset=".71" stop-color="#AD3164" stop-opacity=".99"/><stop offset="1" stop-color="#A82D65"/></linearGradient><linearGradient id="s" x1="140.574" y1="470.591" x2="196.8" y2="470.591" gradientUnits="userSpaceOnUse"><stop stop-color="#A82D65" stop-opacity=".8"/><stop offset=".05" stop-color="#A02A5F" stop-opacity=".81"/><stop offset=".47" stop-color="#631935" stop-opacity=".91"/><stop offset=".81" stop-color="#3E0E1A" stop-opacity=".98"/><stop offset="1" stop-color="#300B11"/></linearGradient><linearGradient id="t" x1="112.458" y1="454.378" x2="168.576" y2="357.051" gradientUnits="userSpaceOnUse"><stop stop-color="#A82D65" stop-opacity=".8"/><stop offset=".05" stop-color="#A02A5F" stop-opacity=".81"/><stop offset=".47" stop-color="#631935" stop-opacity=".91"/><stop offset=".81" stop-color="#3E0E1A" stop-opacity=".98"/><stop offset="1" stop-color="#300B11"/></linearGradient><linearGradient id="u" x1="56.226" y1="486.803" x2="112.351" y2="389.477" gradientUnits="userSpaceOnUse"><stop stop-color="#A62C63" stop-opacity=".8"/><stop offset=".18" stop-color="#7B2046" stop-opacity=".87"/><stop offset=".36" stop-color="#5A172E" stop-opacity=".93"/><stop offset=".54" stop-color="#42101E" stop-opacity=".97"/><stop offset=".75" stop-color="#340C14" stop-opacity=".99"/><stop offset="1" stop-color="#300B11"/></linearGradient><linearGradient id="v" x1="168.684" y1="170.684" x2="253.032" y2="170.684" gradientUnits="userSpaceOnUse"><stop stop-color="#A82D65" stop-opacity=".8"/><stop offset=".13" stop-color="#8B2450" stop-opacity=".85"/><stop offset=".35" stop-color="#631935" stop-opacity=".91"/><stop offset=".57" stop-color="#461121" stop-opacity=".96"/><stop offset=".79" stop-color="#350C15" stop-opacity=".99"/><stop offset="1" stop-color="#300B11"/></linearGradient><linearGradient id="w" x1="168.684" y1="170.684" x2="253.032" y2="170.684" gradientUnits="userSpaceOnUse"><stop stop-color="#A82D65" stop-opacity=".8"/><stop offset=".13" stop-color="#8B2450" stop-opacity=".85"/><stop offset=".35" stop-color="#631935" stop-opacity=".91"/><stop offset=".57" stop-color="#461121" stop-opacity=".96"/><stop offset=".79" stop-color="#350C15" stop-opacity=".99"/><stop offset="1" stop-color="#300B11"/></linearGradient><linearGradient id="x" x1="253.032" y1="170.69" x2="337.374" y2="170.69" gradientUnits="userSpaceOnUse"><stop stop-color="#A82D65" stop-opacity=".8"/><stop offset=".13" stop-color="#8B2450" stop-opacity=".85"/><stop offset=".35" stop-color="#631935" stop-opacity=".91"/><stop offset=".57" stop-color="#461121" stop-opacity=".96"/><stop offset=".79" stop-color="#350C15" stop-opacity=".99"/><stop offset="1" stop-color="#300B11"/></linearGradient><linearGradient id="y" x1="253.032" y1="170.69" x2="337.374" y2="170.69" gradientUnits="userSpaceOnUse"><stop stop-color="#A82D65" stop-opacity=".8"/><stop offset=".13" stop-color="#8B2450" stop-opacity=".85"/><stop offset=".35" stop-color="#631935" stop-opacity=".91"/><stop offset=".57" stop-color="#461121" stop-opacity=".96"/><stop offset=".79" stop-color="#350C15" stop-opacity=".99"/><stop offset="1" stop-color="#300B11"/></linearGradient><linearGradient id="z" x1="168.684" y1="130.165" x2="337.374" y2="130.165" gradientUnits="userSpaceOnUse"><stop stop-color="#FF8059" stop-opacity=".8"/><stop offset=".01" stop-color="#FC7D59" stop-opacity=".81"/><stop offset=".23" stop-color="#D75A5E" stop-opacity=".89"/><stop offset=".46" stop-color="#BC4062" stop-opacity=".95"/><stop offset=".71" stop-color="#AD3164" stop-opacity=".99"/><stop offset="1" stop-color="#A82D65"/></linearGradient><linearGradient id="A" x1="168.684" y1="130.165" x2="337.374" y2="130.165" gradientUnits="userSpaceOnUse"><stop stop-color="#FF8059" stop-opacity=".8"/><stop offset=".01" stop-color="#FC7D59" stop-opacity=".81"/><stop offset=".23" stop-color="#D75A5E" stop-opacity=".89"/><stop offset=".46" stop-color="#BC4062" stop-opacity=".95"/><stop offset=".71" stop-color="#AD3164" stop-opacity=".99"/><stop offset="1" stop-color="#A82D65"/></linearGradient><linearGradient id="B" x1="215.869" y1="95.816" x2="300.146" y2="95.816" gradientUnits="userSpaceOnUse"><stop stop-color="#FF8059" stop-opacity=".8"/><stop offset=".01" stop-color="#FC7D59" stop-opacity=".81"/><stop offset=".23" stop-color="#D75A5E" stop-opacity=".89"/><stop offset=".46" stop-color="#BC4062" stop-opacity=".95"/><stop offset=".71" stop-color="#AD3164" stop-opacity=".99"/><stop offset="1" stop-color="#A82D65"/></linearGradient><radialGradient id="C" cx="0" cy="0" r="1" gradientUnits="userSpaceOnUse" gradientTransform="matrix(98.3058 0 0 98.1804 258.008 98.18)"><stop stop-color="#EA9980"/><stop offset=".05" stop-color="#EB9F88" stop-opacity=".94"/><stop offset=".32" stop-color="#F2C1B1" stop-opacity=".61"/><stop offset=".55" stop-color="#F7DBD3" stop-opacity=".35"/><stop offset=".75" stop-color="#FBEEEA" stop-opacity=".16"/><stop offset=".91" stop-color="#FEFAF9" stop-opacity=".04"/><stop offset="1" stop-color="#fff" stop-opacity="0"/></radialGradient></defs></svg>