<svg width="58" height="53" fill="none" xmlns="http://www.w3.org/2000/svg"><path d="M27.591 27.762h5.02a2.508 2.508 0 0 1 2.505 2.524 2.515 2.515 0 0 1-2.505 2.524h-7.539c-1.38-.006-2.498-1.142-2.498-2.535V20.201c0-1.4 1.114-2.534 2.509-2.534 1.385 0 2.508 1.138 2.508 2.534v7.561Zm25.08-.734 1.045-1.05a2.491 2.491 0 0 1 3.547 0c.98.985.986 2.576 0 3.569L51.94 34.9a2.494 2.494 0 0 1-3.547 0l-5.322-5.355a2.528 2.528 0 0 1 0-3.568 2.491 2.491 0 0 1 3.548 0l1.033 1.039c.004-.172.006-.344.006-.517 0-11.848-9.546-21.452-21.321-21.452-11.776 0-21.323 9.605-21.323 21.452 0 11.848 9.546 21.452 21.323 21.452 5.107 0 9.795-1.806 13.467-4.82l4.082 3.13C39.228 50.452 33.078 53 26.339 53 11.792 53 0 41.136 0 26.5S11.792 0 26.339 0c14.546 0 26.339 11.864 26.339 26.5 0 .176-.002.352-.006.528h-.001Z" fill="url(#a)"/><defs><linearGradient id="a" x1="0" y1="27" x2="59.133" y2="25.507" gradientUnits="userSpaceOnUse"><stop stop-color="#EF3C5A"/><stop offset=".297" stop-color="#F04A3D"/><stop offset="1" stop-color="#F47C20"/></linearGradient></defs></svg>