<svg aria-hidden="true" viewBox="0 0 512 512" xmlns="http://www.w3.org/2000/svg"><g class="group"><path class="pane" d="M94 226h148V62H94ZM270 62v164h148V62Z"/><path class="frame" d="M480 31.288C480 13.615 465.673 0 448 0H63.288C45.615 0 32 13.615 32 31.288v258.136l448-.712zM242 226H94V62h148zm176 0H270V62h148zm78 221.288h-16V320.712h-64v126.576H96.712v-128H33.288L32 448.712H14.576C5.739 448.712 0 455.163 0 464v32c0 8.837 6.451 16 15.288 16h481.424c8.837 0 15.288-6.451 15.288-15.288v-33.424c0-8.837-7.163-16-16-16z"/></g></svg>