<svg width="81" height="38" viewBox="0 0 81 38" fill="none" xmlns="http://www.w3.org/2000/svg">
<path d="M23.5219 15.99C24.4219 14.94 24.9619 13.56 24.9619 12.06C24.9619 8.73 22.2319 6.03 18.9019 6.03L2.22188 6V27L20.0719 27.03C23.4019 27.03 26.1319 24.3 26.1319 20.97C26.1319 18.9 25.0819 17.07 23.5219 15.99ZM17.0719 11.28C17.8819 11.28 18.5419 11.91 18.5419 12.72C18.5419 13.53 17.8819 14.19 17.0719 14.19H8.61188V11.28H17.0719ZM18.2419 21.78H8.61188V18.84H18.2419C19.0519 18.84 19.7119 19.5 19.7119 20.31C19.7119 21.12 19.0519 21.78 18.2419 21.78ZM35.272 21.78V19.14H49.282V13.89H35.272V11.28H50.452V6.03H28.882V27.03H50.452V21.78H35.272ZM72.3272 6.03V19.14L60.6572 6.03H53.6672V27.03H60.0572V14.55L71.1572 27.03H78.7472V6.03H72.3272Z" fill="#F8A16B"/>
</svg>
