<svg width="128" height="38" viewBox="0 0 128 38" fill="none" xmlns="http://www.w3.org/2000/svg">
<path d="M23.3939 15.99C24.2939 14.94 24.8339 13.56 24.8339 12.06C24.8339 8.73 22.1039 6.03 18.7739 6.03L2.09395 6V27L19.9439 27.03C23.2739 27.03 26.0039 24.3 26.0039 20.97C26.0039 18.9 24.9539 17.07 23.3939 15.99ZM16.9439 11.28C17.7539 11.28 18.4139 11.91 18.4139 12.72C18.4139 13.53 17.7539 14.19 16.9439 14.19H8.48395V11.28H16.9439ZM18.1139 21.78H8.48395V18.84H18.1139C18.9239 18.84 19.5839 19.5 19.5839 20.31C19.5839 21.12 18.9239 21.78 18.1139 21.78ZM35.1441 21.78V6.03H28.7541V27.03H49.7541V21.78H35.1441ZM70.6779 27H77.6979L67.4079 6.03H60.3879L50.0979 27H57.1179L58.2579 24.69H69.5379L70.6779 27ZM66.9279 19.44H60.7779L63.8679 13.17L66.9279 19.44ZM92.6063 15.15L102.236 6.03H94.0763L85.8863 13.74V6.03H79.4963V27.03H85.8863V21.48L88.1063 19.41L94.6463 27.03H102.806L92.6063 15.15ZM111.111 21.78V19.14H125.121V13.89H111.111V11.28H126.291V6.03H104.721V27.03H126.291V21.78H111.111Z" fill="#F8A16B"/>
</svg>
