<svg width="263" height="78" viewBox="0 0 263 78" fill="none" xmlns="http://www.w3.org/2000/svg">
<path d="M14.539 27.03C22.879 27.03 27.349 24.81 27.349 16.53C27.349 8.79 22.879 6.03 14.539 6.03H2.29902V27.03H14.539ZM8.68902 21.78V11.28H14.539C18.499 11.28 20.959 12.09 20.959 16.53C20.959 20.94 18.439 21.78 14.539 21.78H8.68902ZM47.7971 27H54.8171L44.5271 6.03H37.5071L27.2171 27H34.2371L35.3771 24.69H46.6571L47.7971 27ZM44.0471 19.44H37.8971L40.9871 13.17L44.0471 19.44ZM73.5054 27.03H80.7354L77.1954 20.31C79.2054 18.87 80.5254 16.53 80.5254 13.89C80.5254 9.54 76.9854 6.03 72.6354 6.03H56.6154V27.03H63.0054V21.78H70.7454L73.5054 27.03ZM63.0054 11.28H71.4654C72.9354 11.28 74.1054 12.45 74.1054 13.89C74.1054 15.33 72.9354 16.53 71.4654 16.53H63.0054V11.28ZM110.522 6.03L106.352 18.54L102.182 6.03H96.6919L92.5219 18.54L88.3519 6.03H81.3619L88.3519 27.03H95.3419L99.4219 14.76L103.502 27.03H110.522L117.512 6.03H110.522ZM125.877 27.03V6.03H119.487V27.03H125.877ZM148.166 6.03V19.14L136.496 6.03H129.506V27.03H135.896V14.55L146.996 27.03H154.586V6.03H148.166ZM157.527 6.03V11.28H170.787L157.527 21.87V27.03H180.837V21.78H167.577L180.837 11.16V6.03H157.527ZM190.154 21.78V19.14H204.164V13.89H190.154V11.28H205.334V6.03H183.764V27.03H205.334V21.78H190.154ZM225.439 27.03H232.669L229.129 20.31C231.139 18.87 232.459 16.53 232.459 13.89C232.459 9.54 228.919 6.03 224.569 6.03H208.549V27.03H214.939V21.78H222.679L225.439 27.03ZM214.939 11.28H223.399C224.869 11.28 226.039 12.45 226.039 13.89C226.039 15.33 224.869 16.53 223.399 16.53H214.939V11.28ZM261.425 16.53C261.425 8.34 256.745 5.43 248.015 5.43C239.255 5.43 234.605 8.34 234.605 16.53C234.605 25.26 239.825 27.6 248.015 27.6C256.745 27.6 261.425 25.26 261.425 16.53ZM254.435 16.53C254.435 21.18 252.095 22.35 248.015 22.35C243.935 22.35 241.595 21.18 241.595 16.53C241.595 11.85 243.935 10.68 248.015 10.68C252.155 10.68 254.435 11.85 254.435 16.53Z" fill="#F8A16B"/>
<path d="M90.0419 58.84C89.3219 61.6 87.1919 62.35 83.8919 62.35C79.8119 62.35 77.4719 61.18 77.4719 56.53C77.4719 51.85 79.8119 50.68 83.8919 50.68C87.2519 50.68 89.3519 51.43 90.0419 54.19H97.1519C96.3119 47.8 91.7519 45.43 83.8919 45.43C75.1319 45.43 70.4819 48.34 70.4819 56.53C70.4819 65.26 75.7319 67.6 83.8919 67.6C91.8119 67.6 96.3719 65.68 97.1819 58.84H90.0419ZM118.004 46.03V53.89H106.334V46.03H99.9436V67.03H106.334V59.14H118.004V67.03H124.424V46.03H118.004ZM146.789 67H153.809L143.519 46.03H136.499L126.209 67H133.229L134.369 64.69H145.649L146.789 67ZM143.039 59.44H136.889L139.979 53.17L143.039 59.44ZM161.998 67.03V46.03H155.608V67.03H161.998ZM184.287 46.03V59.14L172.617 46.03H165.627V67.03H172.017V54.55L183.117 67.03H190.707V46.03H184.287Z" fill="#FFE9C9"/>
</svg>
