<svg width="50" height="50" viewBox="0 0 50 50" fill="none" xmlns="http://www.w3.org/2000/svg">
<path d="M41.625 10.7696C37.6445 7.56644 31.3477 7.02347 31.0781 7.00394C30.6602 6.96879 30.2617 7.20316 30.0898 7.58988C30.0742 7.61332 29.9375 7.92972 29.7852 8.42191C32.418 8.86722 35.6523 9.76175 38.5781 11.5782C39.0469 11.8672 39.1914 12.4844 38.9023 12.9532C38.7109 13.2618 38.3867 13.4297 38.0508 13.4297C37.8711 13.4297 37.6875 13.3789 37.5234 13.2774C32.4922 10.1563 26.2109 10 25 10C23.7891 10 17.5039 10.1563 12.4766 13.2774C12.0078 13.5703 11.3906 13.4258 11.1016 12.9571C10.8086 12.4844 10.9531 11.8711 11.4219 11.5782C14.3477 9.76566 17.582 8.86722 20.2148 8.42582C20.0625 7.92972 19.9258 7.61722 19.9141 7.58988C19.7383 7.20316 19.3438 6.96097 18.9219 7.00394C18.6523 7.02347 12.3555 7.56644 8.32031 10.8125C6.21484 12.7618 2 24.1524 2 34C2 34.1758 2.04687 34.3438 2.13281 34.4961C5.03906 39.6055 12.9727 40.9414 14.7812 41C14.7891 41 14.8008 41 14.8125 41C15.1328 41 15.4336 40.8477 15.6211 40.5899L17.4492 38.0743C12.5156 36.8008 9.99609 34.6368 9.85156 34.5078C9.4375 34.1446 9.39844 33.5118 9.76562 33.0977C10.1289 32.6836 10.7617 32.6446 11.1758 33.0078C11.2344 33.0625 15.875 37 25 37C34.1406 37 38.7812 33.0469 38.8281 33.0078C39.2422 32.6485 39.8711 32.6836 40.2383 33.1016C40.6016 33.5157 40.5625 34.1446 40.1484 34.5078C40.0039 34.6368 37.4844 36.8008 32.5508 38.0743L34.3789 40.5899C34.5664 40.8477 34.8672 41 35.1875 41C35.1992 41 35.2109 41 35.2188 41C37.0273 40.9414 44.9609 39.6055 47.8672 34.4961C47.9531 34.3438 48 34.1758 48 34C48 24.1524 43.7852 12.7618 41.625 10.7696ZM18.5 30C16.5664 30 15 28.211 15 26C15 23.7891 16.5664 22 18.5 22C20.4336 22 22 23.7891 22 26C22 28.211 20.4336 30 18.5 30ZM31.5 30C29.5664 30 28 28.211 28 26C28 23.7891 29.5664 22 31.5 22C33.4336 22 35 23.7891 35 26C35 28.211 33.4336 30 31.5 30Z" fill="#FFE9C9"/>
</svg>
