<svg width="36" height="81" viewBox="0 0 36 81" fill="none" xmlns="http://www.w3.org/2000/svg">
<path d="M35.6895 38.6429C35.8838 42.9098 35.2549 46.2308 33.712 49.0951C32.2842 51.7454 30.0419 54.0147 26.6564 56.2357C26.1693 56.5552 25.619 56.7085 25.0754 56.7085C24.1471 56.7085 23.2368 56.2634 22.6854 55.4409C21.8108 54.1368 22.1703 52.3786 23.489 51.5136C27.5681 48.8375 29.4322 46.2704 29.8824 42.2648H13.2621C12.2074 42.2648 11.3519 41.4187 11.3519 40.3756C11.3519 39.3321 12.2074 38.4865 13.2621 38.4865H29.9083C29.5047 35.8829 27.6155 32.9196 25.1467 30.6998C24.0611 29.8473 22.6476 28.9628 21.0742 28.0479C21.0319 28.0302 20.9902 28.0107 20.9478 27.9936C20.6629 27.8787 20.4077 27.7218 20.1847 27.5355C19.4902 27.1399 18.7736 26.739 18.0468 26.3327C12.5222 23.2439 6.27359 19.7476 3.28865 14.8911C0.805522 11.2841 -0.259764 7.26361 0.0532596 2.74024C0.161167 1.17897 1.52998 0.00107414 3.10749 0.107181C4.68619 0.213897 5.87846 1.56642 5.76994 3.12769C5.59049 5.71547 6.03822 8.05134 7.15009 10.2139H23.5766C24.6312 10.2139 25.4868 11.0594 25.4868 12.103C25.4868 13.1467 24.6313 13.9921 23.5766 13.9921H9.93143C10.6528 14.7291 11.4689 15.4484 12.3828 16.1547C12.4675 16.2202 12.5462 16.2898 12.6213 16.3617C15.0924 18.1717 18.0828 19.8438 20.8658 21.3998C21.8239 21.9351 22.7646 22.4622 23.6733 22.9864C25.6132 23.8507 27.45 25.0871 29.0788 26.5587C29.1914 26.6513 29.3035 26.7438 29.4114 26.837C29.5384 26.9467 29.6505 27.0663 29.753 27.1914C33.0576 30.4282 35.3678 34.6314 35.682 38.5462C35.6832 38.5633 35.6826 38.5798 35.6832 38.5963C35.685 38.6122 35.688 38.6276 35.6886 38.6429L35.6895 38.6429ZM17.6773 54.5227C16.9506 54.1165 16.2334 53.7156 15.5394 53.32C15.3164 53.1336 15.0613 52.9774 14.7763 52.8618C14.734 52.8447 14.6922 52.8253 14.6499 52.8076C13.0765 51.8926 11.6631 51.0081 10.5774 50.1557C9.94126 49.5838 9.3451 48.9623 8.80134 48.3102H23.5786C24.6333 48.3102 25.4888 47.4641 25.4888 46.4211C25.4888 45.3781 24.6333 44.532 23.5786 44.532H6.766C6.66108 44.532 6.55913 44.5426 6.45898 44.5585C6.07505 43.65 5.82942 42.7485 5.75668 41.8942C5.65414 39.5269 5.84611 37.6015 6.4232 35.9311H23.0695C24.1241 35.9311 24.9797 35.0856 24.9797 34.042C24.9797 32.9984 24.1241 32.1529 23.0695 32.1529H8.756C9.67172 31.1853 10.8199 30.2696 12.2359 29.3411C13.5546 28.4762 13.9141 26.7174 13.0395 25.4138C12.4881 24.5919 11.5777 24.1461 10.6495 24.1461C10.1058 24.1461 9.55552 24.2994 9.06851 24.619C5.68339 26.84 3.44125 29.1087 2.01288 31.7596C0.469437 34.6239 -0.158897 37.9455 0.0353884 42.2118C0.0359846 42.2277 0.0389632 42.2425 0.0395593 42.2584C0.0407517 42.2755 0.0395616 42.292 0.040754 42.3085C0.354937 46.2235 2.66506 50.4266 5.96974 53.6634C6.07228 53.7884 6.18435 53.908 6.31134 54.0177C6.41925 54.1109 6.53133 54.2034 6.64401 54.296C8.27277 55.7682 10.1096 57.0039 12.0495 57.8683C12.9575 58.3925 13.8988 58.9196 14.8569 59.455C17.6398 61.011 20.6303 62.683 23.1015 64.493C23.1766 64.5655 23.2553 64.6351 23.3399 64.7C24.583 65.6604 25.6448 66.6457 26.5318 67.6656L12.7048 67.6661C11.6501 67.6661 10.7946 68.5122 10.7946 69.5552C10.7946 70.5983 11.6501 71.4443 12.7048 71.4443H28.9527C29.7861 73.3805 30.1117 75.4571 29.9543 77.7276C29.8464 79.2889 31.0381 80.6414 32.6167 80.7481C34.1942 80.8542 35.563 79.6762 35.6709 78.1151C35.9839 73.5917 34.9186 69.5714 32.4356 65.9642C29.4511 61.1077 23.2021 57.6115 17.678 54.5226L17.6773 54.5227ZM13.262 7.9472H29.7236C28.8305 10.9306 26.8244 13.5742 23.6153 16.0535C22.3681 17.0169 22.1469 18.7975 23.121 20.0309C23.6862 20.7461 24.5292 21.1205 25.3812 21.1205C25.9976 21.1205 26.6194 20.9241 27.1429 20.5197C33.557 15.5648 36.4367 9.71605 35.9466 2.63991C35.8381 1.07864 34.4681 -0.101067 32.8924 0.00685185C31.3137 0.113567 30.1214 1.46609 30.2299 3.02736C30.2568 3.41708 30.2681 3.80091 30.2663 4.18001C30.2031 4.17352 30.1393 4.17058 30.0749 4.17058L13.2623 4.1694C12.2077 4.1694 11.3521 5.01487 11.3521 6.0585C11.3521 7.10149 12.2076 7.9476 13.2623 7.9476L13.262 7.9472ZM23.0202 73.7111H7.27592C8.06048 70.456 10.1179 67.6059 13.5614 64.9463C14.8086 63.9829 15.0298 62.2023 14.0557 60.9689C13.0815 59.7354 11.281 59.5167 10.0338 60.4801C3.61966 65.4344 0.740021 71.2831 1.23008 78.3598C1.33382 79.855 2.59234 81 4.08576 81C4.15134 81 4.21811 80.9976 4.28428 80.9929C5.86298 80.8856 7.05525 79.5337 6.94674 77.9724C6.93541 77.8103 6.92707 77.6487 6.92051 77.4884H23.0204C24.075 77.4884 24.9306 76.6423 24.9306 75.5993C24.9306 74.5562 24.0751 73.7108 23.0204 73.7108L23.0202 73.7111Z" fill="url(#paint0_linear_60_121)"/>
<defs>
<linearGradient id="paint0_linear_60_121" x1="-4.6324e-08" y1="41.2641" x2="36.7225" y2="40.8876" gradientUnits="userSpaceOnUse">
<stop stop-color="#EF3C5A"/>
<stop offset="0.296875" stop-color="#F04A3D"/>
<stop offset="1" stop-color="#F47C20"/>
</linearGradient>
</defs>
</svg>
