<svg width="104" height="104" viewBox="0 0 104 104" fill="none" xmlns="http://www.w3.org/2000/svg">
<path d="M96.5694 0.000193362C93.5078 0.000193362 90.872 2.06813 90.0643 4.77951C84.0211 6.84532 75.9946 12.3667 69.7579 17.1377C44.0899 3.65306 12.3605 22.1358 12.3605 51.832C12.3605 58.1886 13.9256 64.449 16.8663 70.0498C11.9474 76.4614 6.2848 84.7045 4.35564 90.7968C1.76893 91.7723 0 94.2396 0 97.1313C0 100.868 3.03977 103.908 6.7769 103.908C9.92684 103.908 12.5777 101.735 13.3387 98.7823C19.3796 96.6117 27.2385 91.1757 33.3223 86.5044C38.9192 89.4436 45.1798 91.0102 51.5384 91.0102C73.1553 91.0102 90.7402 73.4342 90.7402 51.8317C90.7402 45.4564 89.1743 39.1874 86.2336 33.5898C91.0173 27.3361 96.5524 19.2912 98.6022 13.2679C101.365 12.4012 103.369 9.81223 103.369 6.79971C103.369 3.05098 100.319 0 96.5696 0L96.5694 0.000193362ZM96.5694 4.33013C97.9322 4.33013 99.0398 5.43774 99.0398 6.80048C99.0398 8.07722 98.056 9.15004 96.6713 9.26717C96.6373 9.2717 96.6033 9.26566 96.5694 9.2717C95.5478 9.2717 94.6697 8.64805 94.2915 7.75034C93.6173 6.13762 94.8011 4.33019 96.5694 4.33019L96.5694 4.33013ZM44.3481 17.7142L40.9883 21.0741C40.1426 21.9197 40.1426 23.2893 40.9883 24.1349C41.8339 24.9805 43.2035 24.9805 44.0491 24.1349L51.2089 16.9751C51.3199 16.9744 51.4271 16.9585 51.5381 16.9585C56.8261 16.9585 62.0419 18.1643 66.7659 20.4573L61.1079 26.1153C60.2623 26.9609 60.2623 28.3305 61.1079 29.1761C61.9535 30.0218 63.3231 30.0218 64.1688 29.1761L70.6256 22.7193C74.6497 25.3603 78.1145 28.6152 81.0252 33.2185C74.1561 41.9064 66.2315 50.6275 58.2699 58.585C50.4495 66.4039 41.5691 74.4968 32.9556 81.2997C30.9768 80.0486 29.9553 79.1811 28.9956 78.3641L35.1134 72.2463C35.959 71.4006 35.959 70.031 35.1134 69.1854C34.2678 68.3398 32.8982 68.3398 32.0526 69.1854L25.8811 75.357C20.0199 68.9651 16.9318 61.3047 16.7175 52.6983L30.384 39.0311C31.2296 38.1855 31.2296 36.8159 30.384 35.9702C29.5384 35.1246 28.1688 35.1246 27.3231 35.9702L17.203 46.0911C19.558 31.9467 30.4149 20.6512 44.3477 17.7133L44.3481 17.7142ZM6.77574 99.5794C5.42578 99.5794 4.328 98.4809 4.328 97.1317C4.328 95.9055 5.1925 94.8848 6.47983 94.687C6.57269 94.6689 6.67462 94.6614 6.77578 94.6614C8.16048 94.6614 9.24614 95.7471 9.24614 97.1582C9.23481 98.493 8.12645 99.5795 6.77578 99.5795L6.77574 99.5794ZM12.9684 94.3231C12.2156 92.6688 10.5931 91.242 8.94574 90.687C10.5849 86.5888 14.1433 80.8416 19.2599 74.042C19.3596 74.187 19.4774 74.3184 19.5785 74.4618C22.4838 78.5533 25.7584 81.6533 29.3266 84.1133C22.7209 89.0859 17.0651 92.6133 12.9684 94.3232L12.9684 94.3231ZM54.3484 86.5396L58.3764 82.5115C59.222 81.6659 59.222 80.2963 58.3764 79.4507C57.5308 78.6051 56.1612 78.6051 55.3156 79.4507L48.26 86.5063C44.3951 86.1416 40.6139 85.1571 37.0911 83.5543C45.2256 77.0159 53.8623 69.1183 61.3559 61.6263C69.7819 53.2042 77.5501 44.4844 83.2839 37.3596C83.9068 38.7307 84.4081 40.1502 84.8483 41.59L73.0294 53.4088C72.1838 54.2545 72.1838 55.6241 73.0294 56.4697C73.875 57.3153 75.2446 57.3153 76.0902 56.4697L85.9688 46.5912C86.2308 48.3232 86.4112 50.0695 86.4112 51.834C86.4119 70.1023 72.2652 85.1019 54.3493 86.5399L54.3484 86.5396ZM83.8415 29.5944C81.088 25.6019 77.6073 22.1795 73.7583 19.5309C80.4621 14.5017 86.1578 10.9683 90.2448 9.29442C90.8866 10.9169 92.2917 12.4254 94.0764 13.1284C92.4056 17.2001 88.8721 22.8884 83.8415 29.5944Z" fill="url(#paint0_linear_60_78)"/>
<path d="M102.287 90.8053C102.287 85.7059 98.1388 81.5586 93.0402 81.5586C87.9408 81.5586 83.792 85.7066 83.792 90.8053C83.792 95.9047 87.9408 100.053 93.0402 100.053C98.1388 100.053 102.287 95.9047 102.287 90.8053ZM88.1221 90.8053C88.1221 88.0941 90.3282 85.8879 93.0402 85.8879C95.7514 85.8879 97.9575 88.0941 97.9575 90.8053C97.9575 93.5172 95.7514 95.7234 93.0402 95.7234C90.3275 95.7234 88.1221 93.5172 88.1221 90.8053Z" fill="url(#paint1_linear_60_78)"/>
<path d="M10.3283 22.3513C15.4277 22.3513 19.575 18.2033 19.575 13.1047C19.575 8.00527 15.4269 3.85645 10.3283 3.85645C5.22891 3.85645 1.08008 8.00527 1.08008 13.1047C1.08008 18.2041 5.22891 22.3513 10.3283 22.3513ZM10.3283 8.18657C13.0395 8.18657 15.2456 10.3927 15.2456 13.1047C15.2456 15.8159 13.0395 18.022 10.3283 18.022C7.61634 18.022 5.41021 15.8159 5.41021 13.1047C5.41021 10.3927 7.61557 8.18657 10.3283 8.18657Z" fill="url(#paint2_linear_60_78)"/>
<defs>
<linearGradient id="paint0_linear_60_78" x1="-1.33013e-07" y1="52.9344" x2="105.399" y2="50.5154" gradientUnits="userSpaceOnUse">
<stop stop-color="#EF3C5A"/>
<stop offset="0.296875" stop-color="#F04A3D"/>
<stop offset="1" stop-color="#F47C20"/>
</linearGradient>
<linearGradient id="paint1_linear_60_78" x1="83.792" y1="90.9805" x2="102.65" y2="90.5455" gradientUnits="userSpaceOnUse">
<stop stop-color="#EF3C5A"/>
<stop offset="0.296875" stop-color="#F04A3D"/>
<stop offset="1" stop-color="#F47C20"/>
</linearGradient>
<linearGradient id="paint2_linear_60_78" x1="1.08008" y1="13.2784" x2="19.9381" y2="12.8433" gradientUnits="userSpaceOnUse">
<stop stop-color="#EF3C5A"/>
<stop offset="0.296875" stop-color="#F04A3D"/>
<stop offset="1" stop-color="#F47C20"/>
</linearGradient>
</defs>
</svg>
