<svg width="507" height="492" viewBox="0 0 507 492" fill="none" xmlns="http://www.w3.org/2000/svg">
<path d="M144.145 366.454L307.439 272.07L343.682 293.207L144.168 408.187L144.145 366.454Z" fill="url(#paint0_linear_292_164)"/>
<path d="M144.145 366.407L107.796 345.447L271.09 251.186L307.345 272.164L144.145 366.407Z" fill="url(#paint1_linear_292_164)"/>
<path d="M144.098 366.36L144.139 408.24L107.866 387.309L107.796 345.447L144.098 366.36Z" fill="url(#paint2_linear_292_164)"/>
<path d="M380.031 230.302L507 157.019L470.727 136.088L343.7 209.353L380.031 230.302Z" fill="url(#paint3_linear_292_164)"/>
<path d="M507 157.019L506.971 198.899L416.327 251.35L380.031 230.302L507 157.019Z" fill="url(#paint4_linear_292_164)"/>
<path d="M180.476 303.549L180.329 73.3413L216.743 94.2373L216.702 282.589L180.476 303.549Z" fill="url(#paint5_linear_292_164)"/>
<path d="M216.737 94.0847L252.957 73.3002L216.572 52.281L180.329 73.3413L216.737 94.0847Z" fill="url(#paint6_linear_292_164)"/>
<path d="M252.957 73.3003L253.015 261.663L216.702 282.589L216.69 94.1493L252.957 73.3003Z" fill="url(#paint7_linear_292_164)"/>
<path d="M216.443 366.548L216.731 492L180.376 471.016L180.541 387.356L216.443 366.548Z" fill="url(#paint8_linear_292_164)"/>
<path d="M216.731 492L252.998 471.016L252.98 345.488L216.702 366.442L216.731 492Z" fill="url(#paint9_linear_292_164)"/>
<path d="M71.5115 94.2783L71.535 136.058L180.417 198.958L180.376 157.037L71.5115 94.2783Z" fill="url(#paint10_linear_292_164)"/>
<path d="M71.5115 94.2782L107.902 73.2766L180.429 115.192L180.453 157.025L71.5115 94.2782Z" fill="url(#paint11_linear_292_164)"/>
<path d="M253.051 198.922L434.419 303.596L470.633 282.583L253.045 157.031L253.051 198.922Z" fill="url(#paint12_linear_292_164)"/>
<path d="M253.051 198.922L434.419 303.596L470.633 282.583L253.045 157.031L253.051 198.922Z" fill="url(#paint13_linear_292_164)"/>
<path d="M434.419 303.596L434.484 345.411L253.098 240.861L253.051 198.823L434.419 303.596Z" fill="url(#paint14_linear_292_164)"/>
<path d="M434.419 303.596L434.484 345.411L253.098 240.861L253.051 198.823L434.419 303.596Z" fill="url(#paint15_linear_292_164)"/>
<path d="M470.633 282.583L471.285 323.089L434.484 345.411L434.461 303.555L470.633 282.583Z" fill="url(#paint16_linear_292_164)"/>
<path d="M307.41 41.88L343.635 20.9429L307.41 0L271.155 20.9781L307.41 41.88Z" fill="url(#paint17_linear_292_164)"/>
<path d="M307.451 356.464L307.421 460.539L343.741 439.696L344.088 376.432L307.451 356.464Z" fill="url(#paint18_linear_292_164)"/>
<path d="M307.421 460.539L271.225 439.566L271.149 335.087L307.451 356.464L307.421 460.539Z" fill="url(#paint19_linear_292_164)"/>
<path d="M181.034 198.928L17.0938 293.054L53.0785 313.827L181.034 240.632V198.928Z" fill="url(#paint20_linear_292_164)"/>
<path d="M181.034 198.928L17.0938 293.054L53.0785 313.827L181.034 240.632V198.928Z" fill="url(#paint21_linear_292_164)"/>
<path d="M470.68 408.404V450.138L434.414 471.045L434.402 429.318L470.68 408.404Z" fill="url(#paint22_linear_292_164)"/>
<path d="M307.398 314.056L471.009 408.322L434.361 429.183L271.102 334.834L307.398 314.056Z" fill="url(#paint23_linear_292_164)"/>
<path d="M89.6154 188.486L144.333 220.071L107.678 240.932L53.3193 209.265L89.6154 188.486Z" fill="url(#paint24_linear_292_164)"/>
<path d="M434.414 471.045L253.051 366.378L252.969 345.488L271.149 334.963L434.402 429.142L434.414 471.045Z" fill="url(#paint25_linear_292_164)"/>
<path d="M271.131 167.531L271.155 20.978L307.427 41.874L307.539 188.533L271.131 167.531Z" fill="url(#paint26_linear_292_164)"/>
<path d="M343.635 20.9429L343.723 209.353L307.474 188.551L307.41 41.874L343.635 20.9429Z" fill="url(#paint27_linear_292_164)"/>
<path d="M343.682 293.207V335.304L307.398 314.056L343.682 293.207Z" fill="url(#paint28_linear_292_164)"/>
<path d="M53.0784 313.827L53.4308 355.959L16.6707 334.728L17.0936 293.054L53.0784 313.827Z" fill="url(#paint29_linear_292_164)"/>
<path d="M253.045 157.031L271.119 146.647L271.131 167.532L253.045 157.031Z" fill="#A82D65"/>
<path d="M343.688 146.559L416.386 104.456L380.207 83.8596L343.647 104.615L343.688 146.559Z" fill="url(#paint30_linear_292_164)"/>
<path d="M416.245 104.615L416.116 146.43L343.635 189.103L343.688 146.589L416.245 104.615Z" fill="url(#paint31_linear_292_164)"/>
<path d="M53.0784 313.827V355.959L180.364 282.653L181.034 240.632L53.0784 313.827Z" fill="url(#paint32_linear_292_164)"/>
<path d="M180.476 303.549L162.243 313.974L143.969 303.619L162.26 293.107L180.359 282.653L180.476 303.549Z" fill="url(#paint33_linear_292_164)"/>
<path d="M53.3193 209.265V251.526L71.9285 261.957L107.678 240.932L53.3193 209.265Z" fill="url(#paint34_linear_292_164)"/>
<path d="M57.4489 297.421C69.0338 297.421 78.4253 288.037 78.4253 276.461C78.4253 264.884 69.0338 255.5 57.4489 255.5C45.8639 255.5 36.4724 264.884 36.4724 276.461C36.4724 288.037 45.8639 297.421 57.4489 297.421Z" fill="url(#paint35_linear_292_164)"/>
<path d="M57.4489 297.421C69.0338 297.421 78.4253 288.037 78.4253 276.461C78.4253 264.884 69.0338 255.5 57.4489 255.5C45.8639 255.5 36.4724 264.884 36.4724 276.461C36.4724 288.037 45.8639 297.421 57.4489 297.421Z" fill="url(#paint36_linear_292_164)"/>
<path d="M57.4489 297.421C69.0338 297.421 78.4253 288.037 78.4253 276.461C78.4253 264.884 69.0338 255.5 57.4489 255.5C45.8639 255.5 36.4724 264.884 36.4724 276.461C36.4724 288.037 45.8639 297.421 57.4489 297.421Z" fill="#F2DCC2"/>
<path style="mix-blend-mode:lighten" d="M57.4488 329.522C89.1768 329.522 114.898 303.821 114.898 272.117C114.898 240.413 89.1768 214.712 57.4488 214.712C25.7207 214.712 0 240.413 0 272.117C0 303.821 25.7207 329.522 57.4488 329.522Z" fill="url(#paint37_radial_292_164)"/>
<defs>
<linearGradient id="paint0_linear_292_164" x1="144.145" y1="340.129" x2="343.682" y2="340.129" gradientUnits="userSpaceOnUse">
<stop stop-color="#A82D65" stop-opacity="0.8"/>
<stop offset="0.2" stop-color="#98285A" stop-opacity="0.83"/>
<stop offset="0.55" stop-color="#6F1D3D" stop-opacity="0.89"/>
<stop offset="1" stop-color="#300B11"/>
</linearGradient>
<linearGradient id="paint1_linear_292_164" x1="107.796" y1="308.796" x2="307.345" y2="308.796" gradientUnits="userSpaceOnUse">
<stop stop-color="#FF8059" stop-opacity="0.8"/>
<stop offset="0.06" stop-color="#F7785A" stop-opacity="0.82"/>
<stop offset="0.43" stop-color="#CB4F60" stop-opacity="0.92"/>
<stop offset="0.76" stop-color="#B13563" stop-opacity="0.98"/>
<stop offset="1" stop-color="#A82D65"/>
</linearGradient>
<linearGradient id="paint2_linear_292_164" x1="116.901" y1="392.527" x2="135.019" y2="361.124" gradientUnits="userSpaceOnUse">
<stop stop-color="#A82D65" stop-opacity="0.8"/>
<stop offset="0.31" stop-color="#7D2047" stop-opacity="0.87"/>
<stop offset="0.76" stop-color="#451120" stop-opacity="0.96"/>
<stop offset="1" stop-color="#300B11"/>
</linearGradient>
<linearGradient id="paint3_linear_292_164" x1="489.031" y1="206.348" x2="361.685" y2="159.962" gradientUnits="userSpaceOnUse">
<stop stop-color="#FF8059" stop-opacity="0.8"/>
<stop offset="0.05" stop-color="#F87959" stop-opacity="0.81"/>
<stop offset="0.43" stop-color="#CC4F5F" stop-opacity="0.92"/>
<stop offset="0.76" stop-color="#B13663" stop-opacity="0.98"/>
<stop offset="1" stop-color="#A82D65"/>
</linearGradient>
<linearGradient id="paint4_linear_292_164" x1="507" y1="204.188" x2="380.031" y2="204.188" gradientUnits="userSpaceOnUse">
<stop stop-color="#A82D65" stop-opacity="0.8"/>
<stop offset="0.2" stop-color="#98285A" stop-opacity="0.83"/>
<stop offset="0.55" stop-color="#6F1D3D" stop-opacity="0.89"/>
<stop offset="1" stop-color="#300B11"/>
</linearGradient>
<linearGradient id="paint5_linear_292_164" x1="156.093" y1="82.1575" x2="230.054" y2="285.518" gradientUnits="userSpaceOnUse">
<stop stop-color="#A82D65" stop-opacity="0.8"/>
<stop offset="0.18" stop-color="#9E2A5E" stop-opacity="0.82"/>
<stop offset="0.45" stop-color="#83224B" stop-opacity="0.86"/>
<stop offset="0.76" stop-color="#57162C" stop-opacity="0.93"/>
<stop offset="1" stop-color="#300B11"/>
</linearGradient>
<linearGradient id="paint6_linear_292_164" x1="180.329" y1="73.1828" x2="252.957" y2="73.1828" gradientUnits="userSpaceOnUse">
<stop stop-color="#FF8059" stop-opacity="0.8"/>
<stop offset="0.06" stop-color="#F7785A" stop-opacity="0.82"/>
<stop offset="0.43" stop-color="#CB4F60" stop-opacity="0.92"/>
<stop offset="0.76" stop-color="#B13563" stop-opacity="0.98"/>
<stop offset="1" stop-color="#A82D65"/>
</linearGradient>
<linearGradient id="paint7_linear_292_164" x1="184.952" y1="264.269" x2="284.593" y2="91.5481" gradientUnits="userSpaceOnUse">
<stop stop-color="#A82D65" stop-opacity="0.8"/>
<stop offset="0.38" stop-color="#721D3F" stop-opacity="0.89"/>
<stop offset="0.78" stop-color="#42101D" stop-opacity="0.97"/>
<stop offset="1" stop-color="#300B11"/>
</linearGradient>
<linearGradient id="paint8_linear_292_164" x1="180.488" y1="471.092" x2="234.715" y2="377.089" gradientUnits="userSpaceOnUse">
<stop stop-color="#A82D65" stop-opacity="0.8"/>
<stop offset="0.31" stop-color="#7D2047" stop-opacity="0.87"/>
<stop offset="0.76" stop-color="#451120" stop-opacity="0.96"/>
<stop offset="1" stop-color="#300B11"/>
</linearGradient>
<linearGradient id="paint9_linear_292_164" x1="198.275" y1="395.902" x2="271.382" y2="441.618" gradientUnits="userSpaceOnUse">
<stop stop-color="#A82D65" stop-opacity="0.8"/>
<stop offset="1" stop-color="#A82D65" stop-opacity="0.8"/>
</linearGradient>
<linearGradient id="paint10_linear_292_164" x1="149.185" y1="210.315" x2="102.836" y2="82.8862" gradientUnits="userSpaceOnUse">
<stop stop-color="#A82D65" stop-opacity="0.8"/>
<stop offset="0.05" stop-color="#A02A5F" stop-opacity="0.81"/>
<stop offset="0.47" stop-color="#631935" stop-opacity="0.91"/>
<stop offset="0.81" stop-color="#3E0E1A" stop-opacity="0.98"/>
<stop offset="1" stop-color="#300B11"/>
</linearGradient>
<linearGradient id="paint11_linear_292_164" x1="174.25" y1="162.225" x2="98.3826" y2="71.7466" gradientUnits="userSpaceOnUse">
<stop stop-color="#FF8059" stop-opacity="0.8"/>
<stop offset="0.06" stop-color="#F7785A" stop-opacity="0.82"/>
<stop offset="0.43" stop-color="#CB4F60" stop-opacity="0.92"/>
<stop offset="0.76" stop-color="#B13563" stop-opacity="0.98"/>
<stop offset="1" stop-color="#A82D65"/>
</linearGradient>
<linearGradient id="paint12_linear_292_164" x1="253.045" y1="230.313" x2="470.633" y2="230.313" gradientUnits="userSpaceOnUse">
<stop stop-color="#FF8059" stop-opacity="0.8"/>
<stop offset="0.08" stop-color="#E0625D" stop-opacity="0.87"/>
<stop offset="0.19" stop-color="#C74A60" stop-opacity="0.93"/>
<stop offset="0.32" stop-color="#B53963" stop-opacity="0.97"/>
<stop offset="0.5" stop-color="#AA2F64" stop-opacity="0.99"/>
<stop offset="1" stop-color="#A82D65"/>
</linearGradient>
<linearGradient id="paint13_linear_292_164" x1="253.045" y1="230.313" x2="470.633" y2="230.313" gradientUnits="userSpaceOnUse">
<stop stop-color="#FF8059" stop-opacity="0.8"/>
<stop offset="0.06" stop-color="#F7785A" stop-opacity="0.82"/>
<stop offset="0.43" stop-color="#CB4F60" stop-opacity="0.92"/>
<stop offset="0.76" stop-color="#B13563" stop-opacity="0.98"/>
<stop offset="1" stop-color="#A82D65"/>
</linearGradient>
<linearGradient id="paint14_linear_292_164" x1="253.051" y1="272.117" x2="434.484" y2="272.117" gradientUnits="userSpaceOnUse">
<stop stop-color="#A82D65" stop-opacity="0.8"/>
<stop offset="0.05" stop-color="#A02A5F" stop-opacity="0.81"/>
<stop offset="0.47" stop-color="#631935" stop-opacity="0.91"/>
<stop offset="0.81" stop-color="#3E0E1A" stop-opacity="0.98"/>
<stop offset="1" stop-color="#300B11"/>
</linearGradient>
<linearGradient id="paint15_linear_292_164" x1="253.051" y1="272.117" x2="434.484" y2="272.117" gradientUnits="userSpaceOnUse">
<stop stop-color="#A82D65" stop-opacity="0.8"/>
<stop offset="0.05" stop-color="#A02A5F" stop-opacity="0.81"/>
<stop offset="0.47" stop-color="#631935" stop-opacity="0.91"/>
<stop offset="0.81" stop-color="#3E0E1A" stop-opacity="0.98"/>
<stop offset="1" stop-color="#300B11"/>
</linearGradient>
<linearGradient id="paint16_linear_292_164" x1="434.373" y1="345.347" x2="470.592" y2="282.559" gradientUnits="userSpaceOnUse">
<stop stop-color="#A82D65" stop-opacity="0.8"/>
<stop offset="0.2" stop-color="#98285A" stop-opacity="0.83"/>
<stop offset="0.55" stop-color="#6F1D3D" stop-opacity="0.89"/>
<stop offset="1" stop-color="#300B11"/>
</linearGradient>
<linearGradient id="paint17_linear_292_164" x1="271.155" y1="20.9429" x2="343.635" y2="20.9429" gradientUnits="userSpaceOnUse">
<stop stop-color="#FF8059" stop-opacity="0.8"/>
<stop offset="0.06" stop-color="#F7785A" stop-opacity="0.82"/>
<stop offset="0.43" stop-color="#CB4F60" stop-opacity="0.92"/>
<stop offset="0.76" stop-color="#B13563" stop-opacity="0.98"/>
<stop offset="1" stop-color="#A82D65"/>
</linearGradient>
<linearGradient id="paint18_linear_292_164" x1="307.421" y1="408.504" x2="344.088" y2="408.504" gradientUnits="userSpaceOnUse">
<stop stop-color="#A82D65" stop-opacity="0.8"/>
<stop offset="1" stop-color="#A82D65" stop-opacity="0.8"/>
</linearGradient>
<linearGradient id="paint19_linear_292_164" x1="266.637" y1="437.013" x2="311.881" y2="358.582" gradientUnits="userSpaceOnUse">
<stop stop-color="#A82D65" stop-opacity="0.8"/>
<stop offset="0.31" stop-color="#7D2047" stop-opacity="0.87"/>
<stop offset="0.76" stop-color="#451120" stop-opacity="0.96"/>
<stop offset="1" stop-color="#300B11"/>
</linearGradient>
<linearGradient id="paint20_linear_292_164" x1="17.0938" y1="256.374" x2="181.034" y2="256.374" gradientUnits="userSpaceOnUse">
<stop stop-color="#FF8059" stop-opacity="0.8"/>
<stop offset="0.06" stop-color="#F7785A" stop-opacity="0.82"/>
<stop offset="0.43" stop-color="#CB4F60" stop-opacity="0.92"/>
<stop offset="0.76" stop-color="#B13563" stop-opacity="0.98"/>
<stop offset="1" stop-color="#A82D65"/>
</linearGradient>
<linearGradient id="paint21_linear_292_164" x1="17.0938" y1="256.374" x2="181.034" y2="256.374" gradientUnits="userSpaceOnUse">
<stop stop-color="#FF8059" stop-opacity="0.8"/>
<stop offset="0.06" stop-color="#F7785A" stop-opacity="0.82"/>
<stop offset="0.43" stop-color="#CB4F60" stop-opacity="0.92"/>
<stop offset="0.76" stop-color="#B13563" stop-opacity="0.98"/>
<stop offset="1" stop-color="#A82D65"/>
</linearGradient>
<linearGradient id="paint22_linear_292_164" x1="461.593" y1="455.379" x2="443.521" y2="424.059" gradientUnits="userSpaceOnUse">
<stop stop-color="#A82D65" stop-opacity="0.8"/>
<stop offset="0.2" stop-color="#98285A" stop-opacity="0.83"/>
<stop offset="0.55" stop-color="#6F1D3D" stop-opacity="0.89"/>
<stop offset="1" stop-color="#300B11"/>
</linearGradient>
<linearGradient id="paint23_linear_292_164" x1="271.102" y1="371.619" x2="471.009" y2="371.619" gradientUnits="userSpaceOnUse">
<stop stop-color="#FF8059" stop-opacity="0.8"/>
<stop offset="0.06" stop-color="#F7785A" stop-opacity="0.82"/>
<stop offset="0.43" stop-color="#CB4F60" stop-opacity="0.92"/>
<stop offset="0.76" stop-color="#B13563" stop-opacity="0.98"/>
<stop offset="1" stop-color="#A82D65"/>
</linearGradient>
<linearGradient id="paint24_linear_292_164" x1="53.3193" y1="214.712" x2="144.333" y2="214.712" gradientUnits="userSpaceOnUse">
<stop stop-color="#FF8059" stop-opacity="0.8"/>
<stop offset="0.06" stop-color="#F7785A" stop-opacity="0.82"/>
<stop offset="0.43" stop-color="#CB4F60" stop-opacity="0.92"/>
<stop offset="0.76" stop-color="#B13563" stop-opacity="0.98"/>
<stop offset="1" stop-color="#A82D65"/>
</linearGradient>
<linearGradient id="paint25_linear_292_164" x1="359.002" y1="484.334" x2="330.836" y2="324.449" gradientUnits="userSpaceOnUse">
<stop stop-color="#A82D65" stop-opacity="0.8"/>
<stop offset="0.05" stop-color="#A02A5F" stop-opacity="0.81"/>
<stop offset="0.47" stop-color="#631935" stop-opacity="0.91"/>
<stop offset="0.81" stop-color="#3E0E1A" stop-opacity="0.98"/>
<stop offset="1" stop-color="#300B11"/>
</linearGradient>
<linearGradient id="paint26_linear_292_164" x1="237.384" y1="61.191" x2="341.238" y2="148.404" gradientUnits="userSpaceOnUse">
<stop stop-color="#A82D65" stop-opacity="0.8"/>
<stop offset="0.24" stop-color="#912655" stop-opacity="0.84"/>
<stop offset="0.71" stop-color="#57162C" stop-opacity="0.93"/>
<stop offset="1" stop-color="#300B11"/>
</linearGradient>
<linearGradient id="paint27_linear_292_164" x1="293.77" y1="180.644" x2="375.351" y2="39.2378" gradientUnits="userSpaceOnUse">
<stop stop-color="#A82D65" stop-opacity="0.8"/>
<stop offset="0.27" stop-color="#7A1F44" stop-opacity="0.88"/>
<stop offset="0.56" stop-color="#511428" stop-opacity="0.94"/>
<stop offset="0.82" stop-color="#380D17" stop-opacity="0.99"/>
<stop offset="1" stop-color="#300B11"/>
</linearGradient>
<linearGradient id="paint28_linear_292_164" x1="307.398" y1="314.255" x2="343.682" y2="314.255" gradientUnits="userSpaceOnUse">
<stop stop-color="#A82D65" stop-opacity="0.8"/>
<stop offset="1" stop-color="#A82D65" stop-opacity="0.8"/>
</linearGradient>
<linearGradient id="paint29_linear_292_164" x1="26.175" y1="340.234" x2="44.3288" y2="308.767" gradientUnits="userSpaceOnUse">
<stop stop-color="#A82D65" stop-opacity="0.8"/>
<stop offset="0.31" stop-color="#7D2047" stop-opacity="0.87"/>
<stop offset="0.76" stop-color="#451120" stop-opacity="0.96"/>
<stop offset="1" stop-color="#300B11"/>
</linearGradient>
<linearGradient id="paint30_linear_292_164" x1="344.299" y1="147.07" x2="395.035" y2="86.557" gradientUnits="userSpaceOnUse">
<stop stop-color="#FF8059" stop-opacity="0.8"/>
<stop offset="0.4" stop-color="#E1635D" stop-opacity="0.87"/>
<stop offset="1" stop-color="#A82D65"/>
</linearGradient>
<linearGradient id="paint31_linear_292_164" x1="343.635" y1="146.859" x2="416.245" y2="146.859" gradientUnits="userSpaceOnUse">
<stop stop-color="#A82D65" stop-opacity="0.8"/>
<stop offset="0.38" stop-color="#721D3F" stop-opacity="0.89"/>
<stop offset="0.78" stop-color="#42101D" stop-opacity="0.97"/>
<stop offset="1" stop-color="#300B11"/>
</linearGradient>
<linearGradient id="paint32_linear_292_164" x1="53.0784" y1="298.296" x2="181.034" y2="298.296" gradientUnits="userSpaceOnUse">
<stop stop-color="#A82D65" stop-opacity="0.8"/>
<stop offset="0.2" stop-color="#98285A" stop-opacity="0.83"/>
<stop offset="0.55" stop-color="#6F1D3D" stop-opacity="0.89"/>
<stop offset="1" stop-color="#300B11"/>
</linearGradient>
<linearGradient id="paint33_linear_292_164" x1="143.969" y1="298.313" x2="180.476" y2="298.313" gradientUnits="userSpaceOnUse">
<stop stop-color="#A82D65" stop-opacity="0.8"/>
<stop offset="0.05" stop-color="#A02A5F" stop-opacity="0.81"/>
<stop offset="0.47" stop-color="#631935" stop-opacity="0.91"/>
<stop offset="0.81" stop-color="#3E0E1A" stop-opacity="0.98"/>
<stop offset="1" stop-color="#300B11"/>
</linearGradient>
<linearGradient id="paint34_linear_292_164" x1="53.3193" y1="235.614" x2="107.678" y2="235.614" gradientUnits="userSpaceOnUse">
<stop stop-color="#A82D65" stop-opacity="0.8"/>
<stop offset="0.05" stop-color="#A02A5F" stop-opacity="0.81"/>
<stop offset="0.47" stop-color="#631935" stop-opacity="0.91"/>
<stop offset="0.81" stop-color="#3E0E1A" stop-opacity="0.98"/>
<stop offset="1" stop-color="#300B11"/>
</linearGradient>
<linearGradient id="paint35_linear_292_164" x1="36.4724" y1="276.461" x2="78.4253" y2="276.461" gradientUnits="userSpaceOnUse">
<stop stop-color="#FF8059" stop-opacity="0.8"/>
<stop offset="0.61" stop-color="#C54860" stop-opacity="0.93"/>
<stop offset="1" stop-color="#A82D65"/>
</linearGradient>
<linearGradient id="paint36_linear_292_164" x1="36.4724" y1="276.461" x2="78.4253" y2="276.461" gradientUnits="userSpaceOnUse">
<stop stop-color="#FF8059" stop-opacity="0.8"/>
<stop offset="0.61" stop-color="#C54860" stop-opacity="0.93"/>
<stop offset="1" stop-color="#A82D65"/>
</linearGradient>
<radialGradient id="paint37_radial_292_164" cx="0" cy="0" r="1" gradientUnits="userSpaceOnUse" gradientTransform="translate(57.4488 272.117) scale(57.4488 57.4052)">
<stop stop-color="#EA9980"/>
<stop offset="0.05" stop-color="#EB9F88" stop-opacity="0.94"/>
<stop offset="0.32" stop-color="#F2C1B1" stop-opacity="0.61"/>
<stop offset="0.55" stop-color="#F7DBD3" stop-opacity="0.35"/>
<stop offset="0.75" stop-color="#FBEEEA" stop-opacity="0.16"/>
<stop offset="0.91" stop-color="#FEFAF9" stop-opacity="0.04"/>
<stop offset="1" stop-color="white" stop-opacity="0"/>
</radialGradient>
</defs>
</svg>
