<svg width="229" height="51" viewBox="0 0 229 51" fill="none" xmlns="http://www.w3.org/2000/svg">\
<style>
  .genesis-tone-1 {
	  fill: var(--svg-tone-1, #32011D);
  }
  .genesis-tone-2 {
	  fill: var(--svg-tone-2, var(--svg-tone-1, #32011D));
  }
</style>
<path class="genesis-tone-1" d="M25.4042 15.0115H25.3919C25.3919 20.7856 20.455 21.941 12.7037 21.941C4.95233 21.941 0 20.7856 0 14.4337H6.35183C6.35183 16.7446 8.97165 16.7446 12.7037 16.7446C16.4357 16.7446 18.9968 16.7446 18.9968 15.0115C18.9968 12.9786 16.2843 13.1146 12.6295 12.991C12.6233 12.991 12.6202 12.991 12.6172 12.991H12.6048C4.85347 12.7222 0.287315 12.1259 0.287315 6.63915C0.287315 1.15235 4.93688 0 12.6882 0C20.4395 0 25.1015 1.15544 25.1015 7.50727H18.7496C18.7496 5.19639 16.4388 5.19639 12.6882 5.19639C8.93767 5.19639 6.6824 5.19639 6.6824 6.63915C6.6824 8.39702 9.11685 8.24564 12.7747 8.37231H12.8025C20.5508 8.638 25.4011 9.23734 25.4011 15.0115H25.4042Z"/>
<path class="genesis-tone-1" d="M50.2678 8.3754C50.2678 12.6728 46.7706 16.17 42.4732 16.17H34.6786V21.3664H28.3268V0.580811H42.4732C46.7706 0.580811 50.2678 4.07803 50.2678 8.3754ZM43.916 8.3754C43.916 6.94191 42.7512 5.7772 41.3178 5.7772H34.6786V10.9736H41.3178C42.7512 10.9736 43.916 9.80888 43.916 8.3754Z"/>
<path class="genesis-tone-1" d="M67.8465 19.0555H56.6659L55.5259 21.3664H48.5747L58.7667 0.580811H65.7117L75.9129 21.3664H68.9741L67.8465 19.0555ZM62.2268 7.65865L59.1714 13.8591H65.2544L62.2299 7.65865H62.2268Z"/>
<path class="genesis-tone-1" d="M109.167 0.580811L102.238 21.3664H95.3083L91.2673 9.24043L87.2264 21.3664H80.2968L73.3704 0.580811H80.2999L84.4274 12.9663L88.5548 0.580811H93.9829L98.1104 12.9663L102.238 0.580811H109.167Z"/>
<path class="genesis-tone-1" d="M135.937 0.580811V21.3664H128.43L117.459 9.02417V21.3664H111.108V0.580811H118.037L129.585 13.5718V0.580811H135.937Z"/>
<path class="genesis-tone-1" d="M170.641 19.0555H159.46L158.32 21.3664H151.369L161.561 0.580811H168.506L178.707 21.3664H171.768L170.641 19.0555ZM165.021 7.65865L161.966 13.8591H168.049L165.024 7.65865H165.021Z"/>
<path class="genesis-tone-1" d="M194.469 16.1669H186.82V21.3633H180.468V0.580811H196.347C200.645 0.580811 204.142 4.07803 204.142 8.3754C204.142 10.9921 202.844 13.3123 200.861 14.7272L204.364 21.3664H197.212L194.469 16.17V16.1669ZM186.82 10.9705H195.192C196.626 10.9705 197.79 9.8058 197.79 8.37231C197.79 6.93882 196.626 5.77411 195.192 5.77411H186.82V10.9705Z"/>
<path class="genesis-tone-1" d="M228.684 5.7772H220.312V21.3664H213.96V5.7772H205.588V0.580811H228.684V5.7772Z"/>
<g opacity="0.5">
<path class="genesis-tone-2" d="M26.5597 37.9874V48.9579H21.941V48.0496C19.7815 49.1371 16.8867 49.5356 13.2937 49.5356C5.19639 49.5356 0 47.2247 0 38.5651C0 30.4832 4.61867 27.5946 13.2937 27.5946C20.8195 27.5946 25.293 29.7819 26.328 35.6796H19.2038C18.3727 33.4367 16.3523 32.7941 13.2937 32.7941C9.23734 32.7941 6.92955 33.9495 6.92955 38.5682C6.92955 43.1869 9.24043 44.3423 13.2937 44.3423C15.7004 44.3423 17.4953 43.9283 18.5488 42.6091H13.856V37.9905H26.5597V37.9874Z"/>
<path class="genesis-tone-2" d="M51.0865 43.7615V48.9579H29.7233V28.1724H51.0865V33.3688H36.0751V35.9669H49.9311V41.1633H36.0751V43.7615H51.0865Z"/>
<path class="genesis-tone-2" d="M79.0765 28.1724V48.9579H71.5693L60.5988 36.6157V48.9579H54.2469V28.1724H61.1765L72.7247 41.1633V28.1724H79.0765Z"/>
<path class="genesis-tone-2" d="M104.027 43.7615V48.9579H82.6633V28.1724H104.027V33.3688H89.0152V35.9669H102.871V41.1633H89.0152V43.7615H104.027Z"/>
<path class="genesis-tone-2" d="M131.881 42.606H131.868C131.868 48.3801 126.932 49.5356 119.18 49.5356C111.429 49.5356 106.477 48.3801 106.477 42.0283H112.828C112.828 44.3392 115.448 44.3392 119.18 44.3392C122.912 44.3392 125.473 44.3392 125.473 42.606C125.473 40.5732 122.761 40.7091 119.106 40.5855C119.1 40.5855 119.097 40.5855 119.094 40.5855H119.081C111.333 40.3199 106.77 39.7205 106.77 34.2368C106.77 28.7531 111.417 27.5977 119.171 27.5977C126.925 27.5977 131.584 28.7531 131.584 35.1049H125.232C125.232 32.794 122.922 32.794 119.171 32.794C115.42 32.794 113.165 32.794 113.165 34.2368C113.165 35.9947 115.6 35.8433 119.257 35.97H119.285C127.034 36.2357 131.884 36.835 131.884 42.6091L131.881 42.606Z"/>
<path class="genesis-tone-2" d="M134.803 48.9579V28.1724H141.155V48.9579H134.803Z"/>
<path class="genesis-tone-2" d="M169.411 42.606H169.399C169.399 48.3801 164.462 49.5356 156.71 49.5356C148.959 49.5356 144.007 48.3801 144.007 42.0283H150.359C150.359 44.3392 152.978 44.3392 156.71 44.3392C160.442 44.3392 163.004 44.3392 163.004 42.606C163.004 40.5732 160.291 40.7091 156.636 40.5855C156.63 40.5855 156.627 40.5855 156.624 40.5855H156.612C148.863 40.3199 144.3 39.7205 144.3 34.2368C144.3 28.7531 148.947 27.5977 156.701 27.5977C164.456 27.5977 169.114 28.7531 169.114 35.1049H162.763C162.763 32.794 160.452 32.794 156.701 32.794C152.951 32.794 150.695 32.794 150.695 34.2368C150.695 35.9947 153.13 35.8433 156.788 35.97H156.815C164.564 36.2357 169.414 36.835 169.414 42.6091L169.411 42.606Z"/>
<path class="genesis-tone-2" d="M189.739 51.0001C183.137 51.0001 177.768 45.6307 177.768 39.0286C177.768 32.4265 183.137 27.0571 189.739 27.0571C196.341 27.0571 201.711 32.4265 201.711 39.0286C201.711 45.6307 196.341 51.0001 189.739 51.0001ZM189.739 28.7594C184.077 28.7594 179.47 33.3657 179.47 39.0286C179.47 44.6915 184.077 49.2978 189.739 49.2978C195.402 49.2978 200.009 44.6915 200.009 39.0286C200.009 33.3657 195.402 28.7594 189.739 28.7594Z"/>
<path class="genesis-tone-2" d="M195.025 41.6946C195.025 38.7751 192.659 31.0763 189.739 31.0763C186.82 31.0763 184.453 38.7751 184.453 41.6946C184.453 44.6141 186.82 46.9806 189.739 46.9806C192.659 46.9806 195.025 44.6141 195.025 41.6946Z"/>
</g>
</svg>
