<?xml version="1.0" encoding="utf-8"?>
<!-- Generator: Adobe Illustrator 26.0.3, SVG Export Plug-In . SVG Version: 6.00 Build 0)  -->
<svg version="1.1" xmlns="http://www.w3.org/2000/svg" xmlns:xlink="http://www.w3.org/1999/xlink" x="0px" y="0px"
	 viewBox="0 0 1129.9 1441" style="enable-background:new 0 0 1129.9 1441;" xml:space="preserve">
<style type="text/css">
	.st0{display:none;}
	.st1{display:inline;stroke:#FFE9C9;stroke-width:1.0089;}
	.st2{opacity:0.25;}
	.st3{fill:none;stroke:#FFE9C9;}
</style>
<g id="Layer_2" class="st0">
	<rect x="0.5" class="st1" width="1150.3" height="1440.5"/>
</g>
<g id="Layer_1">
	<g class="st2">
		<polyline class="st3" points="1130.5,1440.5 0.5,1440.5 0.5,1.5 1130.5,1.5 		"/>
		<line class="st3" x1="0" y1="0.5" x2="1131" y2="0.5"/>
		<line class="st3" x1="0" y1="90.5" x2="1131" y2="90.5"/>
		<line class="st3" x1="0" y1="180.5" x2="1131" y2="180.5"/>
		<line class="st3" x1="0" y1="270.5" x2="1131" y2="270.5"/>
		<line class="st3" x1="0" y1="360.5" x2="1131" y2="360.5"/>
		<line class="st3" x1="0" y1="450.5" x2="1131" y2="450.5"/>
		<line class="st3" x1="0" y1="540.5" x2="1131" y2="540.5"/>
		<line class="st3" x1="0" y1="630.5" x2="1131" y2="630.5"/>
		<line class="st3" x1="0" y1="720.5" x2="1131" y2="720.5"/>
		<line class="st3" x1="0" y1="810.5" x2="1131" y2="810.5"/>
		<line class="st3" x1="0" y1="900.5" x2="1131" y2="900.5"/>
		<line class="st3" x1="0" y1="990.5" x2="1131" y2="990.5"/>
		<line class="st3" x1="0" y1="1080.5" x2="1131" y2="1080.5"/>
		<line class="st3" x1="0" y1="1170.5" x2="1131" y2="1170.5"/>
		<line class="st3" x1="0" y1="1260.5" x2="1131" y2="1260.5"/>
		<line class="st3" x1="0" y1="1350.5" x2="1131" y2="1350.5"/>
		<line class="st3" x1="0" y1="1440.5" x2="1131" y2="1440.5"/>
		<line class="st3" x1="0.5" y1="1" x2="0.5" y2="1441"/>
		<line class="st3" x1="87.5" y1="1" x2="87.5" y2="1441"/>
		<line class="st3" x1="174.5" y1="1" x2="174.5" y2="1441"/>
		<line class="st3" x1="261.5" y1="1" x2="261.5" y2="1441"/>
		<line class="st3" x1="348.5" y1="1" x2="348.5" y2="1441"/>
		<line class="st3" x1="435.5" y1="1" x2="435.5" y2="1441"/>
		<line class="st3" x1="522.5" y1="1" x2="522.5" y2="1441"/>
		<line class="st3" x1="609.5" y1="1" x2="609.5" y2="1441"/>
		<line class="st3" x1="696.5" y1="1" x2="696.5" y2="1441"/>
		<line class="st3" x1="783.5" y1="1" x2="783.5" y2="1441"/>
		<line class="st3" x1="870.5" y1="1" x2="870.5" y2="1441"/>
		<line class="st3" x1="957.5" y1="1" x2="957.5" y2="1441"/>
		<line class="st3" x1="1044.5" y1="1" x2="1044.5" y2="1441"/>
	</g>
</g>
</svg>
