<svg width="331" height="25" viewBox="0 0 331 25" fill="none" xmlns="http://www.w3.org/2000/svg">
<path d="M11.16 24.032V15.616H32.632V10.016H11.16V7.232H34.488V1.632H0.92V24.032H11.16ZM79.0268 12.832C79.0268 4.096 71.5708 0.991999 57.5868 0.991999C43.5708 0.991999 36.1148 4.096 36.1148 12.832C36.1148 22.144 44.4988 24.64 57.5868 24.64C71.5708 24.64 79.0268 22.144 79.0268 12.832ZM67.8268 12.832C67.8268 17.792 64.0828 19.04 57.5868 19.04C51.0268 19.04 47.3148 17.792 47.3148 12.832C47.3148 7.84 51.0268 6.592 57.5868 6.592C64.2108 6.592 67.8268 7.84 67.8268 12.832ZM81.408 12.832C81.408 22.144 89.792 24.64 101.024 24.64C112.192 24.64 120.576 22.144 120.576 12.832V1.632H110.336V12.832C110.336 17.792 106.592 19.04 101.024 19.04C95.392 19.04 91.648 17.792 91.648 12.832V1.632H81.408V12.832ZM153.807 1.632V15.616L135.151 1.632H123.951V24.032H134.191V10.72L151.919 24.032H164.079V1.632H153.807ZM187.504 24.032C200.88 24.032 208.016 21.664 208.016 12.832C208.016 4.576 200.88 1.632 187.504 1.632H167.92V24.032H187.504ZM178.16 18.432V7.232H187.504C193.84 7.232 197.776 8.096 197.776 12.832C197.776 17.536 193.744 18.432 187.504 18.432H178.16ZM221.098 18.432V15.616H243.498V10.016H221.098V7.232H245.386V1.632H210.858V24.032H245.386V18.432H221.098ZM275.71 24.032H287.294L281.63 16.864C284.83 15.328 286.91 12.832 286.91 10.016C286.91 5.376 281.278 1.632 274.334 1.632H248.67V24.032H258.91V18.432H271.294L275.71 24.032ZM258.91 7.232H272.446C274.782 7.232 276.638 8.48 276.638 10.016C276.638 11.552 274.782 12.832 272.446 12.832H258.91V7.232ZM309.727 10.016C309.695 10.016 309.695 10.016 309.695 10.016C303.775 9.888 299.839 10.048 299.839 8.16C299.839 6.592 303.647 6.592 309.535 6.592C315.615 6.592 319.359 6.592 319.359 9.088H329.631C329.631 2.24 322.623 0.991999 309.535 0.991999C297.023 0.991999 289.503 2.24 289.503 8.16C289.503 14.048 296.895 14.688 309.407 14.976C309.407 14.976 309.407 14.976 309.439 14.976C315.359 15.136 319.743 14.976 319.743 17.184C319.743 19.04 315.487 19.04 309.567 19.04C303.551 19.04 299.295 19.04 299.295 16.544H289.055C289.055 23.392 296.51 24.64 309.567 24.64C322.111 24.64 330.079 23.392 330.079 17.184H330.111C330.111 10.944 322.271 10.304 309.727 10.016Z" fill="white"/>
</svg>
