<svg width="383" height="25" viewBox="0 0 383 25" fill="none" xmlns="http://www.w3.org/2000/svg">
<path d="M21.664 10.016C21.632 10.016 21.632 10.016 21.632 10.016C15.712 9.888 11.776 10.048 11.776 8.16C11.776 6.592 15.584 6.592 21.472 6.592C27.552 6.592 31.296 6.592 31.296 9.088H41.568C41.568 2.24 34.56 0.991999 21.472 0.991999C8.96 0.991999 1.44 2.24 1.44 8.16C1.44 14.048 8.832 14.688 21.344 14.976C21.344 14.976 21.344 14.976 21.376 14.976C27.296 15.136 31.68 14.976 31.68 17.184C31.68 19.04 27.424 19.04 21.504 19.04C15.488 19.04 11.232 19.04 11.232 16.544H0.992C0.992 23.392 8.448 24.64 21.504 24.64C34.048 24.64 42.016 23.392 42.016 17.184H42.048C42.048 10.944 34.208 10.304 21.664 10.016ZM74.901 1.632V15.616L56.245 1.632H45.045V24.032H55.285V10.72L73.013 24.032H85.173V1.632H74.901ZM99.2538 18.432V15.616H121.654V10.016H99.2538V7.232H123.542V1.632H89.0138V24.032H123.542V18.432H99.2538ZM157.706 24H168.906L152.426 1.632H141.194L124.746 24H135.978L137.802 21.536H155.882L157.706 24ZM151.69 15.936H141.866L146.794 9.248L151.69 15.936ZM191.661 11.36L207.085 1.632H194.029L180.941 9.856V1.632H170.701V24.032H180.941V18.112L184.461 15.904L194.957 24.032H208.013L191.661 11.36ZM254.362 1.632H231.514V24.032H241.754V18.432H254.362C261.306 18.432 266.97 14.656 266.97 10.016C266.97 5.376 261.306 1.632 254.362 1.632ZM252.506 12.832H241.754V7.232H252.506C254.81 7.232 256.698 8.48 256.698 10.016C256.698 11.552 254.81 12.832 252.506 12.832ZM279.723 18.432V15.616H302.123V10.016H279.723V7.232H304.011V1.632H269.483V24.032H304.011V18.432H279.723ZM317.535 18.432V15.616H339.935V10.016H317.535V7.232H341.823V1.632H307.295V24.032H341.823V18.432H317.535ZM366.068 11.36L381.492 1.632H368.436L355.348 9.856V1.632H345.108V24.032H355.348V18.112L358.868 15.904L369.364 24.032H382.42L366.068 11.36Z" fill="#FFE9C9"/>
</svg>
