<svg width="252" height="24" viewBox="0 0 252 24" fill="none" xmlns="http://www.w3.org/2000/svg">
<path d="M37.664 0.631998H0.352V6.232H13.856V23.032H24.128V6.232H37.664V0.631998ZM67.0225 23.032H78.6065L72.9425 15.864C76.1425 14.328 78.2225 11.832 78.2225 9.016C78.2225 4.376 72.5905 0.631998 65.6465 0.631998H39.9825V23.032H50.2225V17.432H62.6065L67.0225 23.032ZM50.2225 6.232H63.7585C66.0945 6.232 67.9505 7.48 67.9505 9.016C67.9505 10.552 66.0945 11.832 63.7585 11.832H50.2225V6.232ZM112.175 23H123.375L106.895 0.631998H95.663L79.215 23H90.447L92.271 20.536H110.351L112.175 23ZM106.159 14.936H96.335L101.263 8.248L106.159 14.936ZM135.41 23.032V0.631998H125.17V23.032H135.41ZM149.535 17.432V0.631998H139.295V23.032H172.863V17.432H149.535ZM185.441 17.432V14.616H207.841V9.016H185.441V6.232H209.729V0.631998H175.201V23.032H209.729V17.432H185.441ZM240.054 23.032H251.638L245.974 15.864C249.174 14.328 251.254 11.832 251.254 9.016C251.254 4.376 245.622 0.631998 238.678 0.631998H213.014V23.032H223.254V17.432H235.638L240.054 23.032ZM223.254 6.232H236.79C239.126 6.232 240.982 7.48 240.982 9.016C240.982 10.552 239.126 11.832 236.79 11.832H223.254V6.232Z" fill="#FFE9C9"/>
</svg>
