<svg width="612" height="25" viewBox="0 0 612 25" fill="none" xmlns="http://www.w3.org/2000/svg">
<path d="M47.624 1.632L40.936 14.976L34.28 1.632H25.512L18.824 14.976L12.168 1.632H0.968L12.168 24.032H23.368L29.896 10.944L36.424 24.032H47.624L58.824 1.632H47.624ZM89.6605 1.632V10.016H70.9725V1.632H60.7325V24.032H70.9725V15.616H89.6605V24.032H99.9005V1.632H89.6605ZM145.652 12.832C145.652 4.096 138.196 0.991999 124.212 0.991999C110.196 0.991999 102.74 4.096 102.74 12.832C102.74 22.144 111.124 24.64 124.212 24.64C138.196 24.64 145.652 22.144 145.652 12.832ZM134.452 12.832C134.452 17.792 130.708 19.04 124.212 19.04C117.652 19.04 113.94 17.792 113.94 12.832C113.94 7.84 117.652 6.592 124.212 6.592C130.836 6.592 134.452 7.84 134.452 12.832ZM180.348 24.032V1.632H170.108V24.032H180.348ZM203.977 10.016C203.945 10.016 203.945 10.016 203.945 10.016C198.025 9.888 194.089 10.048 194.089 8.16C194.089 6.592 197.897 6.592 203.785 6.592C209.865 6.592 213.609 6.592 213.609 9.088H223.881C223.881 2.24 216.873 0.991999 203.785 0.991999C191.273 0.991999 183.753 2.24 183.753 8.16C183.753 14.048 191.145 14.688 203.657 14.976C203.657 14.976 203.657 14.976 203.689 14.976C209.609 15.136 213.993 14.976 213.993 17.184C213.993 19.04 209.737 19.04 203.817 19.04C197.801 19.04 193.545 19.04 193.545 16.544H183.305C183.305 23.392 190.76 24.64 203.817 24.64C216.361 24.64 224.329 23.392 224.329 17.184H224.361C224.361 10.944 216.521 10.304 203.977 10.016ZM268.664 10.016C268.632 10.016 268.632 10.016 268.632 10.016C262.712 9.888 258.776 10.048 258.776 8.16C258.776 6.592 262.584 6.592 268.472 6.592C274.552 6.592 278.296 6.592 278.296 9.088H288.568C288.568 2.24 281.56 0.991999 268.472 0.991999C255.96 0.991999 248.44 2.24 248.44 8.16C248.44 14.048 255.832 14.688 268.344 14.976C268.344 14.976 268.344 14.976 268.376 14.976C274.296 15.136 278.68 14.976 278.68 17.184C278.68 19.04 274.424 19.04 268.504 19.04C262.488 19.04 258.232 19.04 258.232 16.544H247.992C247.992 23.392 255.448 24.64 268.504 24.64C281.048 24.64 289.016 23.392 289.016 17.184H289.048C289.048 10.944 281.208 10.304 268.664 10.016ZM314.893 1.632H292.045V24.032H302.285V18.432H314.893C321.837 18.432 327.501 14.656 327.501 10.016C327.501 5.376 321.837 1.632 314.893 1.632ZM313.037 12.832H302.285V7.232H313.037C315.341 7.232 317.229 8.48 317.229 10.016C317.229 11.552 315.341 12.832 313.037 12.832ZM357.738 24H368.938L352.458 1.632H341.226L324.777 24H336.01L337.834 21.536H355.914L357.738 24ZM351.722 15.936H341.898L346.826 9.248L351.722 15.936ZM411.718 1.632L405.03 14.976L398.374 1.632H389.606L382.918 14.976L376.262 1.632H365.062L376.262 24.032H387.462L393.99 10.944L400.518 24.032H411.718L422.918 1.632H411.718ZM454.682 1.632V15.616L436.026 1.632H424.826V24.032H435.066V10.72L452.794 24.032H464.954V1.632H454.682ZM521.238 24H532.438L515.958 1.632H504.726L488.277 24H499.51L501.334 21.536H519.414L521.238 24ZM515.222 15.936H505.398L510.326 9.248L515.222 15.936ZM561.273 24.032H572.857L567.193 16.864C570.393 15.328 572.473 12.832 572.473 10.016C572.473 5.376 566.84 1.632 559.897 1.632H534.233V24.032H544.473V18.432H556.857L561.273 24.032ZM544.473 7.232H558.009C560.345 7.232 562.201 8.48 562.201 10.016C562.201 11.552 560.345 12.832 558.009 12.832H544.473V7.232ZM611.289 1.632H573.977V7.232H587.481V24.032H597.753V7.232H611.289V1.632Z" fill="#FFE9C9"/>
</svg>
