<svg width="117" height="110" viewBox="0 0 117 110" fill="none" xmlns="http://www.w3.org/2000/svg">
<path d="M93.3232 17.637H96.8506V21.1643H93.3232V17.637Z" fill="url(#paint0_linear_60_66)"/>
<path d="M84.5049 12.3462H88.0322V15.8735H84.5049V12.3462Z" fill="url(#paint1_linear_60_66)"/>
<path d="M113.493 62.1476L109.192 66.1127C109.169 61.654 107.425 57.4638 104.27 54.309C101.76 51.7989 100.377 48.4597 100.377 44.9096V44.7017C102.515 43.6451 103.904 41.4586 103.904 38.9288C103.904 37.2361 103.245 35.6448 102.049 34.4512L100.377 32.7796V29.9822C100.377 28.4776 100.047 27.0138 99.4385 25.6611L100.359 25.047L105.659 28.5743L112.723 23.8731V22.9275C112.723 10.2858 102.437 0 89.7951 0C77.1535 0 66.8676 10.2858 66.8676 22.9275V23.8707L73.9206 28.5744L79.21 25.0471L80.1461 25.673C79.5415 27.0249 79.2131 28.4846 79.2131 29.9822V32.7796L77.5408 34.4519C76.3456 35.6456 75.6858 37.2359 75.6858 39.035C75.6858 41.4703 77.0755 43.6473 79.2131 44.7015V44.9093C79.2131 48.4594 77.8306 51.7963 75.3206 54.3079C72.1658 57.4627 70.4209 61.6554 70.3981 66.1157L66.0984 62.146L65.204 64.6679C63.9332 68.2551 63.3403 75.5584 63.3403 79.3645C63.3403 95.8971 75.208 109.347 89.7951 109.347C104.382 109.347 116.25 95.8971 116.25 79.3645C116.25 75.5584 115.657 68.2551 114.384 64.6663L113.493 62.1476ZM107.83 15.8351C107.696 15.8438 107.565 15.8737 107.432 15.8737C104.514 15.8737 102.141 13.4999 102.141 10.5827C102.141 9.83315 102.322 9.1033 102.636 8.4238C104.906 10.4378 106.698 12.9668 107.83 15.8352L107.83 15.8351ZM94.4955 4.12806C93.6208 5.88069 91.8389 7.05532 89.7951 7.05532C87.7513 7.05532 85.9695 5.88061 85.0947 4.12806C86.6033 3.75013 88.1725 3.52809 89.7951 3.52809C91.4177 3.52809 92.987 3.75013 94.4955 4.12806ZM76.9543 8.42372C77.2677 9.1032 77.4495 9.83307 77.4495 10.5826C77.4495 13.4998 75.0757 15.8736 72.1586 15.8736C72.0247 15.8736 71.894 15.8437 71.7602 15.835C72.8924 12.9668 74.6844 10.4362 76.9544 8.42363L76.9543 8.42372ZM73.9206 24.3359L70.4177 21.999C70.4618 21.066 70.5941 20.1574 70.7649 19.2638C71.2255 19.3371 71.6892 19.4008 72.1585 19.4008C77.0212 19.4008 80.9768 15.4452 80.9768 10.5826C80.9768 9.07637 80.5587 7.61983 79.8249 6.31432C80.4493 5.93876 81.0949 5.59862 81.7634 5.29314C83.1357 8.44333 86.2253 10.5825 89.7951 10.5825C93.365 10.5825 96.4545 8.44333 97.8283 5.29314C98.4952 5.59862 99.1424 5.93876 99.7668 6.31432C99.0314 7.61975 98.6133 9.07631 98.6133 10.5826C98.6133 15.4452 102.569 19.4008 107.432 19.4008C107.901 19.4008 108.365 19.3371 108.825 19.2631C108.998 20.1575 109.128 21.0653 109.175 21.9966L105.662 24.3351L100.362 20.8078L95.071 24.3351L89.7816 20.8078L84.4939 24.3351L79.2116 20.8078L73.9206 24.3359ZM80.0351 36.9459L82.7405 34.2398V29.9826C82.7405 29.189 82.8869 28.415 83.1444 27.6758L84.4915 28.5749L89.7793 25.0476L95.0686 28.5749L96.441 27.6592C96.7016 28.4025 96.8496 29.1835 96.8496 29.9826V34.2398L99.5549 36.9467C100.086 37.4758 100.377 38.1797 100.377 39.0347C100.377 40.2448 99.6045 41.3133 98.4582 41.6959C96.5796 42.3218 95.0828 43.8193 94.4546 45.7011C94.0735 46.8483 93.0011 47.6191 91.7934 47.6191H87.7968C86.5867 47.6191 85.5168 46.8483 85.134 45.7003C84.5081 43.8201 83.0106 42.3226 81.1304 41.6951C79.9856 41.314 79.2132 40.2432 79.2132 38.9299C79.2132 38.1803 79.5046 37.4765 80.0352 36.9458L80.0351 36.9459ZM77.8148 56.8029C80.2153 54.4023 81.7988 51.4008 82.4287 48.1382C83.564 49.9735 85.5678 51.1467 87.7968 51.1467H91.7934C94.0246 51.1467 96.0261 49.9735 97.1623 48.1398C97.7938 51.401 99.3755 54.4023 101.776 56.8029C104.285 59.3121 105.668 62.6513 105.668 66.2014V66.9384L101.239 62.8576L95.5089 68.1485L89.7786 62.8576L84.0482 68.1485L78.3249 62.8576L73.922 66.9227V66.2014C73.922 62.6514 75.3046 59.3121 77.8146 56.8029L77.8148 56.8029ZM104.747 70.8853C103.284 73.8819 100.244 75.8376 96.8493 75.8376C92.7363 75.8376 89.2271 72.9521 88.3082 69.016L89.779 67.6578L95.5093 72.9488L101.243 67.6578L104.747 70.8853ZM67.3497 84.7567C67.7741 84.6929 68.2032 84.6559 68.6315 84.6559C73.4942 84.6559 77.4498 88.6115 77.4498 93.4742C77.4498 95.7724 76.5648 97.9117 75.0004 99.5415C71.1692 95.7953 68.4096 90.635 67.3498 84.7567H67.3497ZM77.7073 101.802C79.7953 99.543 80.9772 96.6149 80.9772 93.4742C80.9772 86.6669 75.4375 81.1286 68.6317 81.1286C68.0687 81.1286 67.5081 81.1829 66.9507 81.2609C66.9121 80.631 66.868 80.005 66.868 79.365C66.868 76.6141 67.2121 71.9576 67.8506 68.5625L72.5984 72.9489L78.3271 67.6579L84.0504 72.9489L85.433 71.6718C87.288 76.2132 91.7554 79.365 96.8504 79.365C101.813 79.365 106.225 76.3738 108.155 71.8639L111.741 68.5587C112.379 71.956 112.723 76.6141 112.723 79.365C112.723 82.0955 112.362 84.7299 111.693 87.2117C110.328 86.7055 108.891 86.4196 107.432 86.4196C100.626 86.4196 95.0867 91.9579 95.0867 98.7652C95.0867 100.822 95.6189 102.837 96.5913 104.632C94.4427 105.403 92.161 105.82 89.7957 105.82C85.3567 105.82 81.2223 104.333 77.7075 101.802L77.7073 101.802ZM99.7822 103.14C99.0185 101.816 98.6146 100.33 98.6146 98.7651C98.6146 93.9024 102.57 89.9468 107.433 89.9468C108.498 89.9468 109.552 90.1586 110.549 90.5373C108.318 96.0314 104.506 100.49 99.7822 103.14V103.14Z" fill="url(#paint2_linear_60_66)"/>
<path d="M26.4548 38.8008C11.8677 38.8008 0 54.6241 0 74.0739C0 93.5236 11.8677 109.347 26.4548 109.347C41.0419 109.347 52.9096 93.5236 52.9096 74.0739C52.9096 54.6241 41.0419 38.8008 26.4548 38.8008ZM49.3823 74.0739C49.3823 77.4248 48.9997 80.6522 48.3013 83.6859C45.8235 81.9962 44.0913 78.2429 44.0913 74.0739C44.0913 69.9048 45.8235 66.1515 48.3013 64.4618C48.9997 67.4955 49.3823 70.7227 49.3823 74.0739ZM34.4124 44.3397C32.9716 47.3639 29.8727 49.3819 26.4548 49.3819C23.0369 49.3819 19.938 47.3639 18.4972 44.3397C20.9804 43.061 23.6543 42.3272 26.4548 42.3272C29.2553 42.3272 31.9292 43.061 34.4124 44.3397ZM20.4969 104.693C21.774 102.157 24.0266 100.527 26.4548 100.527C28.883 100.527 31.1357 102.157 32.4127 104.693C30.5097 105.404 28.5186 105.818 26.4548 105.818C24.391 105.818 22.4 105.404 20.4969 104.693ZM35.5958 103.169C33.7282 99.4161 30.2552 96.9998 26.4546 96.9998C22.654 96.9998 19.1811 99.4161 17.3134 103.169C9.21172 98.2697 3.52711 87.0776 3.52711 74.0721C3.52711 62.0581 8.37403 51.586 15.4988 46.1943C17.5868 50.2318 21.8038 52.9087 26.4546 52.9087C31.1054 52.9087 35.3225 50.2318 37.4104 46.1943C41.7526 49.4799 45.2304 54.6669 47.2994 60.9264C43.3099 62.9956 40.5636 68.1958 40.5636 74.0727C40.5636 79.9496 43.3099 85.1499 47.297 87.2191C44.9498 94.3265 40.7759 100.037 35.5958 103.169Z" fill="url(#paint3_linear_60_66)"/>
<path d="M37.0366 56.4375H40.5639V59.9648H37.0366V56.4375Z" fill="url(#paint4_linear_60_66)"/>
<path d="M33.5098 89.9468H37.0371V93.4741H33.5098V89.9468Z" fill="url(#paint5_linear_60_66)"/>
<path d="M14.1094 52.9102H17.6367V56.4375H14.1094V52.9102Z" fill="url(#paint6_linear_60_66)"/>
<defs>
<linearGradient id="paint0_linear_60_66" x1="93.3232" y1="19.4339" x2="96.9198" y2="19.3509" gradientUnits="userSpaceOnUse">
<stop stop-color="#EF3C5A"/>
<stop offset="0.296875" stop-color="#F04A3D"/>
<stop offset="1" stop-color="#F47C20"/>
</linearGradient>
<linearGradient id="paint1_linear_60_66" x1="84.5049" y1="14.1431" x2="88.1014" y2="14.0601" gradientUnits="userSpaceOnUse">
<stop stop-color="#EF3C5A"/>
<stop offset="0.296875" stop-color="#F04A3D"/>
<stop offset="1" stop-color="#F47C20"/>
</linearGradient>
<linearGradient id="paint2_linear_60_66" x1="63.3403" y1="55.7049" x2="117.311" y2="55.1024" gradientUnits="userSpaceOnUse">
<stop stop-color="#EF3C5A"/>
<stop offset="0.296875" stop-color="#F04A3D"/>
<stop offset="1" stop-color="#F47C20"/>
</linearGradient>
<linearGradient id="paint3_linear_60_66" x1="-6.80829e-08" y1="74.7394" x2="53.961" y2="73.8057" gradientUnits="userSpaceOnUse">
<stop stop-color="#EF3C5A"/>
<stop offset="0.296875" stop-color="#F04A3D"/>
<stop offset="1" stop-color="#F47C20"/>
</linearGradient>
<linearGradient id="paint4_linear_60_66" x1="37.0366" y1="58.2344" x2="40.6332" y2="58.1515" gradientUnits="userSpaceOnUse">
<stop stop-color="#EF3C5A"/>
<stop offset="0.296875" stop-color="#F04A3D"/>
<stop offset="1" stop-color="#F47C20"/>
</linearGradient>
<linearGradient id="paint5_linear_60_66" x1="33.5098" y1="91.7437" x2="37.1063" y2="91.6607" gradientUnits="userSpaceOnUse">
<stop stop-color="#EF3C5A"/>
<stop offset="0.296875" stop-color="#F04A3D"/>
<stop offset="1" stop-color="#F47C20"/>
</linearGradient>
<linearGradient id="paint6_linear_60_66" x1="14.1094" y1="54.7071" x2="17.7059" y2="54.6241" gradientUnits="userSpaceOnUse">
<stop stop-color="#EF3C5A"/>
<stop offset="0.296875" stop-color="#F04A3D"/>
<stop offset="1" stop-color="#F47C20"/>
</linearGradient>
</defs>
</svg>
