<svg width="461" height="25" viewBox="0 0 461 25" fill="none" xmlns="http://www.w3.org/2000/svg">
<path d="M29.848 1.632V10.016H11.16V1.632H0.92V24.032H11.16V15.616H29.848V24.032H40.088V1.632H29.848ZM85.8393 12.832C85.8393 4.096 78.3833 0.991999 64.3993 0.991999C50.3833 0.991999 42.9273 4.096 42.9273 12.832C42.9273 22.144 51.3113 24.64 64.3993 24.64C78.3833 24.64 85.8393 22.144 85.8393 12.832ZM74.6393 12.832C74.6393 17.792 70.8953 19.04 64.3993 19.04C57.8393 19.04 54.1273 17.792 54.1273 12.832C54.1273 7.84 57.8393 6.592 64.3993 6.592C71.0233 6.592 74.6393 7.84 74.6393 12.832ZM131.905 1.632L125.217 14.976L118.561 1.632H109.793L103.105 14.976L96.4493 1.632H85.2492L96.4493 24.032H107.649L114.177 10.944L120.705 24.032H131.905L143.105 1.632H131.905ZM176.816 24.032V1.632H166.576V24.032H176.816ZM216.445 1.632H179.133V7.232H192.637V24.032H202.909V7.232H216.445V1.632ZM285.03 1.632L278.342 14.976L271.686 1.632H262.918L256.23 14.976L249.574 1.632H238.374L249.574 24.032H260.774L267.302 10.944L273.83 24.032H285.03L296.23 1.632H285.03ZM338.527 12.832C338.527 4.096 331.071 0.991999 317.087 0.991999C303.071 0.991999 295.615 4.096 295.615 12.832C295.615 22.144 303.999 24.64 317.087 24.64C331.071 24.64 338.527 22.144 338.527 12.832ZM327.327 12.832C327.327 17.792 323.583 19.04 317.087 19.04C310.527 19.04 306.815 17.792 306.815 12.832C306.815 7.84 310.527 6.592 317.087 6.592C323.711 6.592 327.327 7.84 327.327 12.832ZM368.46 24.032H380.044L374.38 16.864C377.58 15.328 379.66 12.832 379.66 10.016C379.66 5.376 374.028 1.632 367.084 1.632H341.42V24.032H351.66V18.432H364.044L368.46 24.032ZM351.66 7.232H365.196C367.532 7.232 369.388 8.48 369.388 10.016C369.388 11.552 367.532 12.832 365.196 12.832H351.66V7.232ZM403.693 11.36L419.117 1.632H406.061L392.973 9.856V1.632H382.733V24.032H392.973V18.112L396.493 15.904L406.989 24.032H420.045L403.693 11.36ZM440.289 10.016C440.257 10.016 440.257 10.016 440.257 10.016C434.337 9.888 430.401 10.048 430.401 8.16C430.401 6.592 434.209 6.592 440.097 6.592C446.177 6.592 449.921 6.592 449.921 9.088H460.193C460.193 2.24 453.185 0.991999 440.097 0.991999C427.585 0.991999 420.065 2.24 420.065 8.16C420.065 14.048 427.457 14.688 439.969 14.976C439.969 14.976 439.969 14.976 440.001 14.976C445.921 15.136 450.305 14.976 450.305 17.184C450.305 19.04 446.049 19.04 440.129 19.04C434.113 19.04 429.857 19.04 429.857 16.544H419.617C419.617 23.392 427.073 24.64 440.129 24.64C452.673 24.64 460.641 23.392 460.641 17.184H460.673C460.673 10.944 452.833 10.304 440.289 10.016Z" fill="#FFE9C9"/>
</svg>
