<svg width="475" height="27" viewBox="0 0 475 27" fill="none" xmlns="http://www.w3.org/2000/svg">
<path d="M28.2108 1.16453H20.6074V13.6C20.6074 19.1072 17.8716 20.4929 14.4252 20.4929C10.9432 20.4929 8.1719 19.1072 8.1719 13.6H0.60401C0.60401 23.9393 6.78623 26.7106 14.4252 26.7106C21.9931 26.7106 28.2108 23.9393 28.2108 13.6V1.16453ZM62.8809 13.6C62.8809 3.90034 57.3382 0.453929 46.999 0.453929C36.6242 0.453929 31.1171 3.90034 31.1171 13.6C31.1171 23.9393 37.2993 26.7106 46.999 26.7106C57.3382 26.7106 62.8809 23.9393 62.8809 13.6ZM54.6024 13.6C54.6024 19.1072 51.8311 20.4929 46.999 20.4929C42.1669 20.4929 39.3956 19.1072 39.3956 13.6C39.3956 8.05735 42.1669 6.67168 46.999 6.67168C51.9021 6.67168 54.6024 8.05735 54.6024 13.6ZM73.8549 26.0355V1.16453H66.287V26.0355H73.8549ZM100.253 1.16453V16.6911L86.432 1.16453H78.1535V26.0355H85.7214V11.255L98.8675 26.0355H107.857V1.16453H100.253ZM154.365 1.16453H126.758V7.38228H136.742V26.0355H144.346V7.38228H154.365V1.16453ZM178.305 1.16453V10.4734H164.484V1.16453H156.916V26.0355H164.484V16.6911H178.305V26.0355H185.909V1.16453H178.305ZM197.759 19.8178V16.6911H214.351V10.4734H197.759V7.38228H215.737V1.16453H190.191V26.0355H215.737V19.8178H197.759ZM257.276 1.16453V10.4734H243.455V1.16453H235.887V26.0355H243.455V16.6911H257.276V26.0355H264.88V1.16453H257.276ZM276.73 26.0355V1.16453H269.162V26.0355H276.73ZM302.346 1.16453L294.743 16.3358L287.14 1.16453H278.861L291.297 26.0355H298.189L310.625 1.16453H302.346ZM320.31 19.8178V16.6911H336.902V10.4734H320.31V7.38228H338.288V1.16453H312.742V26.0355H338.288V19.8178H320.31ZM384.659 1.16453L376.381 17.7215L368.102 1.16453H358.438V26.0355H366.006V12.2144L372.934 26.0355H379.827L386.755 12.2144V26.0355H394.359V1.16453H384.659ZM406.22 26.0355V1.16453H398.652V26.0355H406.22ZM432.618 1.16453V16.6911L418.797 1.16453H410.519V26.0355H418.087V11.255L431.233 26.0355H440.222V1.16453H432.618ZM459.018 26.0355C468.896 26.0355 474.189 23.4063 474.189 13.6C474.189 4.43329 468.896 1.16453 459.018 1.16453H444.522V26.0355H459.018ZM452.09 19.8178V7.38228H459.018C463.708 7.38228 466.622 8.34159 466.622 13.6C466.622 18.8229 463.637 19.8178 459.018 19.8178H452.09Z" fill="#CF384B"/>
</svg>
