<svg width="50" height="50" viewBox="0 0 50 50" fill="none" xmlns="http://www.w3.org/2000/svg">
<g clip-path="url(#clip0_132_30)">
<path d="M14.1667 11.6665C12.3063 11.6665 10.4641 12.0329 8.74532 12.7449C7.02654 13.4568 5.46482 14.5003 4.14932 15.8158C2.83382 17.1313 1.79031 18.693 1.07837 20.4118C0.366432 22.1306 0 23.9728 0 25.8332C0 27.6936 0.366432 29.5357 1.07837 31.2545C1.79031 32.9733 2.83382 34.535 4.14932 35.8505C5.46482 37.166 7.02654 38.2095 8.74532 38.9215C10.4641 39.6334 12.3063 39.9998 14.1667 39.9998C16.0271 39.9998 17.8692 39.6334 19.588 38.9215C21.3068 38.2095 22.8685 37.166 24.184 35.8505C25.4995 34.535 26.543 32.9733 27.255 31.2545C27.9669 29.5357 28.3333 27.6936 28.3333 25.8332C28.3333 23.9728 27.9669 22.1306 27.255 20.4118C26.543 18.693 25.4995 17.1313 24.184 15.8158C22.8685 14.5003 21.3068 13.4568 19.588 12.7449C17.8692 12.0329 16.0271 11.6665 14.1667 11.6665ZM36.6667 13.3332C35.7912 13.3332 34.9243 13.6565 34.1154 14.2847C33.3066 14.9129 32.5717 15.8336 31.9526 16.9943C31.3336 18.1551 30.8425 19.5331 30.5075 21.0496C30.1724 22.5662 30 24.1916 30 25.8332C30 27.4747 30.1724 29.1001 30.5075 30.6167C30.8425 32.1333 31.3336 33.5113 31.9526 34.672C32.5717 35.8327 33.3066 36.7535 34.1154 37.3817C34.9243 38.0098 35.7912 38.3332 36.6667 38.3332C37.5421 38.3332 38.409 38.0098 39.2179 37.3817C40.0267 36.7535 40.7617 35.8327 41.3807 34.672C41.9998 33.5113 42.4908 32.1333 42.8259 30.6167C43.1609 29.1001 43.3333 27.4747 43.3333 25.8332C43.3333 24.1916 43.1609 22.5662 42.8259 21.0496C42.4908 19.5331 41.9998 18.1551 41.3807 16.9943C40.7617 15.8336 40.0267 14.9129 39.2179 14.2847C38.409 13.6565 37.5421 13.3332 36.6667 13.3332ZM47.5 14.9998C46.837 14.9998 46.2011 16.1412 45.7322 18.1728C45.2634 20.2045 45 22.96 45 25.8332C45 28.7063 45.2634 31.4618 45.7322 33.4935C46.2011 35.5251 46.837 36.6665 47.5 36.6665C48.163 36.6665 48.7989 35.5251 49.2678 33.4935C49.7366 31.4618 50 28.7063 50 25.8332C50 22.96 49.7366 20.2045 49.2678 18.1728C48.7989 16.1412 48.163 14.9998 47.5 14.9998Z" fill="#FFE9C9"/>
</g>
<defs>
<clipPath id="clip0_132_30">
<rect width="50" height="50" fill="white"/>
</clipPath>
</defs>
</svg>
