<svg width="50" height="50" viewBox="0 0 50 50" fill="none" xmlns="http://www.w3.org/2000/svg">
<style>
	.medium-tone {
		fill: var(--medium-tone, black);
	}
</style>
<g clip-path="url(#clip0_128_6)">
<path class="medium-tone" d="M14.1667 11.6666C12.3063 11.6666 10.4641 12.0331 8.74532 12.745C7.02654 13.4569 5.46482 14.5005 4.14932 15.8159C2.83382 17.1314 1.79031 18.6932 1.07837 20.4119C0.366432 22.1307 0 23.9729 0 25.8333C0 27.6937 0.366432 29.5359 1.07837 31.2546C1.79031 32.9734 2.83382 34.5351 4.14932 35.8506C5.46482 37.1661 7.02654 38.2096 8.74532 38.9216C10.4641 39.6335 12.3063 40 14.1667 40C16.0271 40 17.8692 39.6335 19.588 38.9216C21.3068 38.2096 22.8685 37.1661 24.184 35.8506C25.4995 34.5351 26.543 32.9734 27.255 31.2546C27.9669 29.5359 28.3333 27.6937 28.3333 25.8333C28.3333 23.9729 27.9669 22.1307 27.255 20.4119C26.543 18.6932 25.4995 17.1314 24.184 15.8159C22.8685 14.5005 21.3068 13.4569 19.588 12.745C17.8692 12.0331 16.0271 11.6666 14.1667 11.6666ZM36.6667 13.3333C35.7912 13.3333 34.9243 13.6566 34.1154 14.2848C33.3066 14.913 32.5717 15.8337 31.9526 16.9945C31.3336 18.1552 30.8425 19.5332 30.5075 21.0497C30.1724 22.5663 30 24.1918 30 25.8333C30 27.4748 30.1724 29.1003 30.5075 30.6168C30.8425 32.1334 31.3336 33.5114 31.9526 34.6721C32.5717 35.8329 33.3066 36.7536 34.1154 37.3818C34.9243 38.01 35.7912 38.3333 36.6667 38.3333C37.5421 38.3333 38.409 38.01 39.2179 37.3818C40.0267 36.7536 40.7617 35.8329 41.3807 34.6721C41.9998 33.5114 42.4908 32.1334 42.8259 30.6168C43.1609 29.1003 43.3333 27.4748 43.3333 25.8333C43.3333 24.1918 43.1609 22.5663 42.8259 21.0497C42.4908 19.5332 41.9998 18.1552 41.3807 16.9945C40.7617 15.8337 40.0267 14.913 39.2179 14.2848C38.409 13.6566 37.5421 13.3333 36.6667 13.3333ZM47.5 15C46.837 15 46.2011 16.1413 45.7322 18.173C45.2634 20.2046 45 22.9601 45 25.8333C45 28.7065 45.2634 31.462 45.7322 33.4936C46.2011 35.5253 46.837 36.6666 47.5 36.6666C48.163 36.6666 48.7989 35.5253 49.2678 33.4936C49.7366 31.462 50 28.7065 50 25.8333C50 22.9601 49.7366 20.2046 49.2678 18.173C48.7989 16.1413 48.163 15 47.5 15Z"/>
</g>
<defs>
<clipPath id="clip0_128_6">
<rect width="50" height="50" fill="white"/>
</clipPath>
</defs>
</svg>
