<svg width="229" height="78" viewBox="0 0 229 78" fill="none" xmlns="http://www.w3.org/2000/svg">
<path d="M20.8926 6.03V19.14L9.22262 6.03H2.23262V27.03H8.62262V14.55L19.7226 27.03H27.3126V6.03H20.8926ZM56.9836 16.53C56.9836 8.34 52.3036 5.43 43.5736 5.43C34.8136 5.43 30.1636 8.34 30.1636 16.53C30.1636 25.26 35.3836 27.6 43.5736 27.6C52.3036 27.6 56.9836 25.26 56.9836 16.53ZM49.9936 16.53C49.9936 21.18 47.6536 22.35 43.5736 22.35C39.4936 22.35 37.1536 21.18 37.1536 16.53C37.1536 11.85 39.4936 10.68 43.5736 10.68C47.7136 10.68 49.9936 11.85 49.9936 16.53ZM72.0696 13.89H72.0396C68.3496 13.77 65.8896 13.92 65.8896 12.15C65.8896 10.68 68.2596 10.68 71.9496 10.68C75.7296 10.68 78.0696 10.68 78.0696 13.02H84.4896C84.4896 6.6 80.1096 5.43 71.9496 5.43C64.1196 5.43 59.4096 6.6 59.4096 12.15C59.4096 17.67 64.0296 18.27 71.8596 18.54H71.8896C75.5796 18.69 78.3096 18.54 78.3096 20.61C78.3096 22.35 75.6696 22.35 71.9496 22.35C68.1996 22.35 65.5296 22.35 65.5296 20.01H59.1396C59.1396 26.43 63.7896 27.6 71.9496 27.6C79.7796 27.6 84.7896 26.43 84.7896 20.61C84.7896 14.76 79.8996 14.16 72.0696 13.89ZM109.59 6.03H86.2802V11.28H94.7102V27.03H101.13V11.28H109.59V6.03ZM128.634 27.03H135.864L132.324 20.31C134.334 18.87 135.654 16.53 135.654 13.89C135.654 9.54 132.114 6.03 127.764 6.03H111.744V27.03H118.134V21.78H125.874L128.634 27.03ZM118.134 11.28H126.594C128.064 11.28 129.234 12.45 129.234 13.89C129.234 15.33 128.064 16.53 126.594 16.53H118.134V11.28ZM164.62 16.53C164.62 8.34 159.94 5.43 151.21 5.43C142.45 5.43 137.8 8.34 137.8 16.53C137.8 25.26 143.02 27.6 151.21 27.6C159.94 27.6 164.62 25.26 164.62 16.53ZM157.63 16.53C157.63 21.18 155.29 22.35 151.21 22.35C147.13 22.35 144.79 21.18 144.79 16.53C144.79 11.85 147.13 10.68 151.21 10.68C155.35 10.68 157.63 11.85 157.63 16.53ZM189.636 6.03L182.646 20.01L175.656 6.03H167.496V27.03H173.886V15.36L179.736 27.03H185.556L191.406 15.36V27.03H197.826V6.03H189.636ZM227.491 16.53C227.491 8.34 222.811 5.43 214.081 5.43C205.321 5.43 200.671 8.34 200.671 16.53C200.671 25.26 205.891 27.6 214.081 27.6C222.811 27.6 227.491 25.26 227.491 16.53ZM220.501 16.53C220.501 21.18 218.161 22.35 214.081 22.35C210.001 22.35 207.661 21.18 207.661 16.53C207.661 11.85 210.001 10.68 214.081 10.68C218.221 10.68 220.501 11.85 220.501 16.53Z" fill="#F8A16B"/>
<path d="M95.8508 67H102.871L92.5808 46.03H85.5608L75.2708 67H82.2908L83.4308 64.69H94.7108L95.8508 67ZM92.1008 59.44H85.9508L89.0408 53.17L92.1008 59.44ZM121.559 67.03H128.789L125.249 60.31C127.259 58.87 128.579 56.53 128.579 53.89C128.579 49.54 125.039 46.03 120.689 46.03H104.669V67.03H111.059V61.78H118.799L121.559 67.03ZM111.059 51.28H119.519C120.989 51.28 122.159 52.45 122.159 53.89C122.159 55.33 120.989 56.53 119.519 56.53H111.059V51.28ZM153.345 46.03H130.035V51.28H138.465V67.03H144.885V51.28H153.345V46.03Z" fill="#FFE9C9"/>
</svg>
