<svg width="291" height="75" viewBox="0 0 291 75" fill="none" xmlns="http://www.w3.org/2000/svg">
<path d="M100.08 6.03H85.8V27.03H92.19V21.78H100.08C104.43 21.78 107.94 18.24 107.94 13.89C107.94 9.54 104.43 6.03 100.08 6.03ZM98.91 16.53H92.19V11.28H98.91C100.35 11.28 101.55 12.45 101.55 13.89C101.55 15.33 100.35 16.53 98.91 16.53ZM127.329 27.03H134.559L131.019 20.31C133.029 18.87 134.349 16.53 134.349 13.89C134.349 9.54 130.809 6.03 126.459 6.03H110.439V27.03H116.829V21.78H124.569L127.329 27.03ZM116.829 11.28H125.289C126.759 11.28 127.929 12.45 127.929 13.89C127.929 15.33 126.759 16.53 125.289 16.53H116.829V11.28ZM143.665 27.03V6.03H137.275V27.03H143.665ZM165.294 6.03L158.874 18.84L152.454 6.03H145.464L155.964 27.03H161.784L172.284 6.03H165.294ZM189.716 27H196.736L186.446 6.03H179.426L169.136 27H176.156L177.296 24.69H188.576L189.716 27ZM185.966 19.44H179.816L182.906 13.17L185.966 19.44ZM217.122 6.03H193.812V11.28H202.242V27.03H208.662V11.28H217.122V6.03ZM225.667 21.78V19.14H239.677V13.89H225.667V11.28H240.847V6.03H219.277V27.03H240.847V21.78H225.667ZM107.94 43.03L100.95 57.01L93.96 43.03H85.8V64.03H92.19V52.36L98.04 64.03H103.86L109.71 52.36V64.03H116.13V43.03H107.94ZM126.145 58.78V56.14H140.155V50.89H126.145V48.28H141.325V43.03H119.755V64.03H141.325V58.78H126.145ZM166.38 43.03H143.07V48.28H151.5V64.03H157.92V48.28H166.38V43.03ZM184.032 64H191.052L180.762 43.03H173.742L163.452 64H170.472L171.612 61.69H182.892L184.032 64ZM180.282 56.44H174.132L177.222 50.17L180.282 56.44ZM205.091 64.03C213.431 64.03 217.901 61.81 217.901 53.53C217.901 45.79 213.431 43.03 205.091 43.03H192.851V64.03H205.091ZM199.241 58.78V48.28H205.091C209.051 48.28 211.511 49.09 211.511 53.53C211.511 57.94 208.991 58.78 205.091 58.78H199.241ZM238.349 64H245.369L235.079 43.03H228.059L217.769 64H224.789L225.929 61.69H237.209L238.349 64ZM234.599 56.44H228.449L231.539 50.17L234.599 56.44ZM265.755 43.03H242.445V48.28H250.875V64.03H257.295V48.28H265.755V43.03ZM283.407 64H290.427L280.137 43.03H273.117L262.827 64H269.847L270.987 61.69H282.267L283.407 64ZM279.657 56.44H273.507L276.597 50.17L279.657 56.44Z" fill="#FFE9C9"/>
<rect y="3" width="65" height="65" rx="5" fill="#FFE9C9"/>
<path d="M53.8378 16.0721L50.7739 13L25.7857 38.0809C24.073 36.9418 22.0274 36.2679 19.8255 36.2679C13.8567 36.2679 9 41.1446 9 47.1354C9 53.1287 13.8562 58 19.8255 58C25.7943 58 30.6539 53.1263 30.6539 47.1354C30.6539 44.9255 29.9852 42.8697 28.8502 41.1536L41.4796 28.4761L46.4439 33.4584L49.505 30.3863L44.5406 25.404L47.9746 21.9576L52.939 26.9399L56 23.8678L51.0381 18.8822L53.8378 16.0721ZM19.8257 53.6531C16.2441 53.6531 13.3306 50.729 13.3306 47.1344C13.3306 43.5398 16.2441 40.613 19.8257 40.613C23.4074 40.613 26.3209 43.537 26.3209 47.1344C26.3209 50.7295 23.4074 53.6531 19.8257 53.6531V53.6531Z" fill="#1D0D1B"/>
</svg>
