<svg width="391" height="619" viewBox="0 0 391 619" fill="none" xmlns="http://www.w3.org/2000/svg">
<g clip-path="url(#clip0_292_38)">
<path d="M115.841 37.2709L0.75728 104.02L0.701172 194.189L117.601 261.883L274.401 260.917L390.298 193.696L390.214 104.394L273.104 36.2L115.841 37.2709Z" fill="url(#paint0_linear_292_38)"/>
<path d="M115.841 37.2709L0.75728 104.02L0.701172 194.189L117.601 261.883L274.401 260.917L390.298 193.696L390.214 104.394L273.104 36.2L115.841 37.2709Z" fill="url(#paint1_linear_292_38)"/>
<path d="M115.841 361.26L0.75728 428.002L0.701172 518.171L117.601 585.872L274.401 584.9L390.298 517.685L390.214 428.383L273.104 360.189L115.841 361.26Z" fill="url(#paint2_linear_292_38)"/>
<path d="M115.841 361.26L0.75728 428.002L0.701172 518.171L117.601 585.872L274.401 584.9L390.298 517.685L390.214 428.383L273.104 360.189L115.841 361.26Z" fill="url(#paint3_linear_292_38)"/>
<path d="M310.156 125.425H71.3198V138.424H71.3619C71.3619 138.748 71.3198 147.012 71.3198 147.336C71.3198 185.918 124.783 217.193 190.738 217.193C256.692 217.193 310.156 185.918 310.156 147.336C310.156 147.012 310.121 138.748 310.114 138.424H310.156V125.425Z" fill="url(#paint4_linear_292_38)"/>
<path d="M310.156 125.425H71.3198V138.424H71.3619C71.3619 138.748 71.3198 147.012 71.3198 147.336C71.3198 185.918 124.783 217.193 190.738 217.193C256.692 217.193 310.156 185.918 310.156 147.336C310.156 147.012 310.121 138.748 310.114 138.424H310.156V125.425Z" fill="url(#paint5_linear_292_38)"/>
<path d="M190.738 195.767C256.691 195.767 310.156 164.492 310.156 125.911C310.156 87.3302 256.691 56.0543 190.738 56.0543C124.785 56.0543 71.3198 87.3302 71.3198 125.911C71.3198 164.492 124.785 195.767 190.738 195.767Z" fill="url(#paint6_linear_292_38)"/>
<path d="M190.738 195.767C256.691 195.767 310.156 164.492 310.156 125.911C310.156 87.3302 256.691 56.0543 190.738 56.0543C124.785 56.0543 71.3198 87.3302 71.3198 125.911C71.3198 164.492 124.785 195.767 190.738 195.767Z" fill="url(#paint7_linear_292_38)"/>
<path d="M190.738 145.399C217.414 145.399 239.039 123.674 239.039 96.8761C239.039 70.0778 217.414 48.3535 190.738 48.3535C164.061 48.3535 142.436 70.0778 142.436 96.8761C142.436 123.674 164.061 145.399 190.738 145.399Z" fill="url(#paint8_linear_292_38)"/>
<path d="M190.738 145.399C217.414 145.399 239.039 123.674 239.039 96.8761C239.039 70.0778 217.414 48.3535 190.738 48.3535C164.061 48.3535 142.436 70.0778 142.436 96.8761C142.436 123.674 164.061 145.399 190.738 145.399Z" fill="#F2DCC2"/>
<path d="M0.701172 227.31V518.171" stroke="#FF8059" stroke-width="2" stroke-miterlimit="10"/>
<path d="M390.298 227.31V518.171" stroke="#FF8059" stroke-width="2" stroke-miterlimit="10"/>
<path d="M102.684 433.336L178.162 477.11L278.798 418.745L203.32 374.971L102.684 433.336Z" fill="url(#paint9_linear_292_38)"/>
<path d="M102.684 433.336L178.162 477.11L278.798 418.745L203.32 374.971L102.684 433.336Z" fill="url(#paint10_linear_292_38)"/>
<path d="M178.163 477.11L278.799 418.745V481.274L178.163 539.639V477.11Z" fill="url(#paint11_linear_292_38)"/>
<path d="M102.684 433.336V495.865L178.162 539.639V477.11L102.684 433.336Z" fill="url(#paint12_linear_292_38)"/>
<path d="M259.519 371.906L258.6 418.237L178.773 464.569L178.92 450.689L179.621 415.898C179.621 395.818 167.649 372.505 152.879 363.811L148.685 361.338C142.064 357.448 136.012 357.152 131.341 359.823C131.313 359.83 131.299 359.837 131.271 359.851L209.351 314.647C215.383 311.096 222.859 311.18 228.743 314.971C248.655 325.194 255.773 346.514 258.214 357.794C259.021 361.507 259.413 365.29 259.413 369.081V371.962L259.519 371.913V371.906Z" fill="url(#paint13_linear_292_38)"/>
<path d="M259.519 371.906L258.6 418.237L178.773 464.569L178.92 450.689L179.621 415.898C179.621 395.818 167.649 372.505 152.879 363.811L148.685 361.338C142.064 357.448 136.012 357.152 131.341 359.823C131.313 359.83 131.299 359.837 131.271 359.851L209.351 314.647C215.383 311.096 222.859 311.18 228.743 314.971C248.655 325.194 255.773 346.514 258.214 357.794C259.021 361.507 259.413 365.29 259.413 369.081V371.962L259.519 371.913V371.906Z" fill="url(#paint14_linear_292_38)"/>
<path d="M226.521 405.119L230.034 422.317L213.756 431.758L217.031 410.424C214.99 409.888 213.672 407.873 213.672 404.745C213.672 399.517 217.347 393.134 221.899 390.506C226.443 387.871 230.125 389.971 230.125 395.206C230.125 398.468 228.695 402.16 226.528 405.126L226.521 405.119Z" fill="#FF8059"/>
<path d="M179.628 415.898L178.927 450.689L178.78 464.569L121.957 431.751V381.953C121.957 370.884 125.597 363.106 131.348 359.823C136.019 357.153 142.071 357.448 148.692 361.338L152.886 363.811C167.656 372.512 179.628 395.818 179.628 415.898Z" fill="url(#paint15_linear_292_38)"/>
<path d="M179.628 415.898L178.927 450.689L178.78 464.569L121.957 431.751V381.953C121.957 370.884 125.597 363.106 131.348 359.823C136.019 357.153 142.071 357.448 148.692 361.338L152.886 363.811C167.656 372.512 179.628 395.818 179.628 415.898Z" fill="url(#paint16_linear_292_38)"/>
<path d="M117.601 295.011V584.9" stroke="#FF8059" stroke-width="2" stroke-miterlimit="10"/>
<path d="M274.401 294.039V584.9" stroke="#FF8059" stroke-width="2" stroke-miterlimit="10"/>
<path d="M117.601 261.883V295.011L274.401 294.039V260.917L117.601 261.883Z" fill="url(#paint17_linear_292_38)"/>
<path d="M117.601 261.883V295.011L274.401 294.039V260.917L117.601 261.883Z" fill="url(#paint18_linear_292_38)"/>
<path d="M0.701172 227.31V194.189L117.601 261.883V295.011L0.701172 227.31Z" fill="url(#paint19_linear_292_38)"/>
<path d="M0.701172 227.31V194.189L117.601 261.883V295.011L0.701172 227.31Z" fill="url(#paint20_linear_292_38)"/>
<path d="M390.299 193.696V226.817L274.401 294.039V260.917L390.299 193.696Z" fill="url(#paint21_linear_292_38)"/>
<path d="M390.299 193.696V226.817L274.401 294.039V260.917L390.299 193.696Z" fill="url(#paint22_linear_292_38)"/>
<path d="M117.601 585.872V619L274.401 618.028V584.9L117.601 585.872Z" fill="url(#paint23_linear_292_38)"/>
<path d="M117.601 585.872V619L274.401 618.028V584.9L117.601 585.872Z" fill="url(#paint24_linear_292_38)"/>
<path d="M390.299 517.685V550.806L274.401 618.028V584.899L390.299 517.685Z" fill="url(#paint25_linear_292_38)"/>
<path d="M390.299 517.685V550.806L274.401 618.028V584.899L390.299 517.685Z" fill="url(#paint26_linear_292_38)"/>
<path d="M0.701172 551.299V518.171L117.601 585.872V619L0.701172 551.299Z" fill="url(#paint27_linear_292_38)"/>
<path d="M0.701172 551.299V518.171L117.601 585.872V619L0.701172 551.299Z" fill="url(#paint28_linear_292_38)"/>
<path style="mix-blend-mode:lighten" d="M190.738 195.739C244.544 195.739 288.162 151.921 288.162 97.8696C288.162 43.8177 244.544 0 190.738 0C136.932 0 93.314 43.8177 93.314 97.8696C93.314 151.921 136.932 195.739 190.738 195.739Z" fill="url(#paint29_radial_292_38)"/>
</g>
<defs>
<linearGradient id="paint0_linear_292_38" x1="0.701172" y1="149.041" x2="390.298" y2="149.041" gradientUnits="userSpaceOnUse">
<stop stop-color="#FF8059" stop-opacity="0.8"/>
<stop offset="0.03" stop-color="#FB7C59" stop-opacity="0.81"/>
<stop offset="0.67" stop-color="#BF4361" stop-opacity="0.95"/>
<stop offset="1" stop-color="#A82D65"/>
</linearGradient>
<linearGradient id="paint1_linear_292_38" x1="0.701172" y1="149.041" x2="390.298" y2="149.041" gradientUnits="userSpaceOnUse">
<stop stop-color="#FF8059" stop-opacity="0.8"/>
<stop offset="0.3" stop-color="#EA6C5B" stop-opacity="0.85"/>
<stop offset="0.87" stop-color="#B63A63" stop-opacity="0.97"/>
<stop offset="1" stop-color="#A82D65"/>
</linearGradient>
<linearGradient id="paint2_linear_292_38" x1="-0.000173272" y1="473.031" x2="0.701172" y2="473.031" gradientUnits="userSpaceOnUse">
<stop stop-color="#FF8059" stop-opacity="0.8"/>
<stop offset="0.3" stop-color="#EA6C5B" stop-opacity="0.85"/>
<stop offset="0.87" stop-color="#B63A63" stop-opacity="0.97"/>
<stop offset="1" stop-color="#A82D65"/>
</linearGradient>
<linearGradient id="paint3_linear_292_38" x1="-0.000173272" y1="473.031" x2="0.701172" y2="473.031" gradientUnits="userSpaceOnUse">
<stop stop-color="#FF8059" stop-opacity="0.8"/>
<stop offset="0.3" stop-color="#EA6C5B" stop-opacity="0.85"/>
<stop offset="0.87" stop-color="#B63A63" stop-opacity="0.97"/>
<stop offset="1" stop-color="#A82D65"/>
</linearGradient>
<linearGradient id="paint4_linear_292_38" x1="71.3198" y1="171.312" x2="310.156" y2="171.312" gradientUnits="userSpaceOnUse">
<stop stop-color="#A82D65" stop-opacity="0.8"/>
<stop offset="0.26" stop-color="#7B2045" stop-opacity="0.87"/>
<stop offset="0.56" stop-color="#521429" stop-opacity="0.94"/>
<stop offset="0.82" stop-color="#390D17" stop-opacity="0.98"/>
<stop offset="1" stop-color="#300B11"/>
</linearGradient>
<linearGradient id="paint5_linear_292_38" x1="71.3198" y1="171.312" x2="310.156" y2="171.312" gradientUnits="userSpaceOnUse">
<stop stop-color="#A82D65" stop-opacity="0.8"/>
<stop offset="0.26" stop-color="#7B2045" stop-opacity="0.87"/>
<stop offset="0.56" stop-color="#521429" stop-opacity="0.94"/>
<stop offset="0.82" stop-color="#390D17" stop-opacity="0.98"/>
<stop offset="1" stop-color="#300B11"/>
</linearGradient>
<linearGradient id="paint6_linear_292_38" x1="71.3198" y1="125.911" x2="310.156" y2="125.911" gradientUnits="userSpaceOnUse">
<stop stop-color="#FF8059" stop-opacity="0.8"/>
<stop offset="0.03" stop-color="#FB7C59" stop-opacity="0.81"/>
<stop offset="0.67" stop-color="#BF4361" stop-opacity="0.95"/>
<stop offset="1" stop-color="#A82D65"/>
</linearGradient>
<linearGradient id="paint7_linear_292_38" x1="71.3198" y1="125.911" x2="310.156" y2="125.911" gradientUnits="userSpaceOnUse">
<stop stop-color="#FF8059" stop-opacity="0.8"/>
<stop offset="0.03" stop-color="#FB7C59" stop-opacity="0.81"/>
<stop offset="0.67" stop-color="#BF4361" stop-opacity="0.95"/>
<stop offset="1" stop-color="#A82D65"/>
</linearGradient>
<linearGradient id="paint8_linear_292_38" x1="142.443" y1="96.8761" x2="239.039" y2="96.8761" gradientUnits="userSpaceOnUse">
<stop stop-color="#FF8059" stop-opacity="0.8"/>
<stop offset="0.03" stop-color="#FB7C59" stop-opacity="0.81"/>
<stop offset="0.67" stop-color="#BF4361" stop-opacity="0.95"/>
<stop offset="1" stop-color="#A82D65"/>
</linearGradient>
<linearGradient id="paint9_linear_292_38" x1="102.684" y1="426.037" x2="278.798" y2="426.037" gradientUnits="userSpaceOnUse">
<stop stop-color="#FF8059" stop-opacity="0.8"/>
<stop offset="0.3" stop-color="#EA6C5B" stop-opacity="0.85"/>
<stop offset="0.87" stop-color="#B63A63" stop-opacity="0.97"/>
<stop offset="1" stop-color="#A82D65"/>
</linearGradient>
<linearGradient id="paint10_linear_292_38" x1="102.684" y1="426.037" x2="278.798" y2="426.037" gradientUnits="userSpaceOnUse">
<stop stop-color="#FF8059" stop-opacity="0.8"/>
<stop offset="0.3" stop-color="#EA6C5B" stop-opacity="0.85"/>
<stop offset="0.87" stop-color="#B63A63" stop-opacity="0.97"/>
<stop offset="1" stop-color="#A82D65"/>
</linearGradient>
<linearGradient id="paint11_linear_292_38" x1="189.84" y1="546.417" x2="267.645" y2="412.274" gradientUnits="userSpaceOnUse">
<stop stop-color="#A82D65" stop-opacity="0.8"/>
<stop offset="0.34" stop-color="#791F44" stop-opacity="0.88"/>
<stop offset="0.77" stop-color="#44101F" stop-opacity="0.97"/>
<stop offset="1" stop-color="#300B11"/>
</linearGradient>
<linearGradient id="paint12_linear_292_38" x1="126.943" y1="509.935" x2="154.081" y2="463.147" gradientUnits="userSpaceOnUse">
<stop stop-color="#A82D65" stop-opacity="0.8"/>
<stop offset="0.31" stop-color="#87234E" stop-opacity="0.85"/>
<stop offset="0.96" stop-color="#350C14" stop-opacity="0.99"/>
<stop offset="1" stop-color="#300B11"/>
</linearGradient>
<linearGradient id="paint13_linear_292_38" x1="131.278" y1="388.308" x2="259.519" y2="388.308" gradientUnits="userSpaceOnUse">
<stop stop-color="#A82D65" stop-opacity="0.8"/>
<stop offset="0.13" stop-color="#8B2451" stop-opacity="0.85"/>
<stop offset="0.35" stop-color="#631935" stop-opacity="0.91"/>
<stop offset="0.57" stop-color="#461121" stop-opacity="0.96"/>
<stop offset="0.79" stop-color="#350C15" stop-opacity="0.99"/>
<stop offset="1" stop-color="#300B11"/>
</linearGradient>
<linearGradient id="paint14_linear_292_38" x1="131.278" y1="388.308" x2="259.519" y2="388.308" gradientUnits="userSpaceOnUse">
<stop stop-color="#A82D65" stop-opacity="0.8"/>
<stop offset="0.58" stop-color="#5E1831" stop-opacity="0.92"/>
<stop offset="1" stop-color="#300B11"/>
</linearGradient>
<linearGradient id="paint15_linear_292_38" x1="121.957" y1="411.319" x2="179.628" y2="411.319" gradientUnits="userSpaceOnUse">
<stop stop-color="#A82D65" stop-opacity="0.8"/>
<stop offset="0.13" stop-color="#8B2451" stop-opacity="0.85"/>
<stop offset="0.35" stop-color="#631935" stop-opacity="0.91"/>
<stop offset="0.57" stop-color="#461121" stop-opacity="0.96"/>
<stop offset="0.79" stop-color="#350C15" stop-opacity="0.99"/>
<stop offset="1" stop-color="#300B11"/>
</linearGradient>
<linearGradient id="paint16_linear_292_38" x1="137.484" y1="440.755" x2="174.769" y2="376.464" gradientUnits="userSpaceOnUse">
<stop stop-color="#A82D65" stop-opacity="0.8"/>
<stop offset="0.13" stop-color="#8B2451" stop-opacity="0.85"/>
<stop offset="0.35" stop-color="#631935" stop-opacity="0.91"/>
<stop offset="0.57" stop-color="#461121" stop-opacity="0.96"/>
<stop offset="0.79" stop-color="#350C15" stop-opacity="0.99"/>
<stop offset="1" stop-color="#300B11"/>
</linearGradient>
<linearGradient id="paint17_linear_292_38" x1="117.601" y1="277.961" x2="274.401" y2="277.961" gradientUnits="userSpaceOnUse">
<stop stop-color="#A82D65" stop-opacity="0.8"/>
<stop offset="0.26" stop-color="#7B2045" stop-opacity="0.87"/>
<stop offset="0.56" stop-color="#521429" stop-opacity="0.94"/>
<stop offset="0.82" stop-color="#390D17" stop-opacity="0.98"/>
<stop offset="1" stop-color="#300B11"/>
</linearGradient>
<linearGradient id="paint18_linear_292_38" x1="169.052" y1="324.849" x2="223.32" y2="231.287" gradientUnits="userSpaceOnUse">
<stop stop-color="#A82D65" stop-opacity="0.8"/>
<stop offset="0.13" stop-color="#8B2451" stop-opacity="0.85"/>
<stop offset="0.35" stop-color="#631935" stop-opacity="0.91"/>
<stop offset="0.57" stop-color="#461121" stop-opacity="0.96"/>
<stop offset="0.79" stop-color="#350C15" stop-opacity="0.99"/>
<stop offset="1" stop-color="#300B11"/>
</linearGradient>
<linearGradient id="paint19_linear_292_38" x1="0.701172" y1="244.6" x2="117.601" y2="244.6" gradientUnits="userSpaceOnUse">
<stop stop-color="#A82D65" stop-opacity="0.8"/>
<stop offset="0.05" stop-color="#982859" stop-opacity="0.83"/>
<stop offset="0.19" stop-color="#721D3F" stop-opacity="0.89"/>
<stop offset="0.34" stop-color="#54152A" stop-opacity="0.94"/>
<stop offset="0.51" stop-color="#400F1C" stop-opacity="0.97"/>
<stop offset="0.7" stop-color="#330C13" stop-opacity="0.99"/>
<stop offset="1" stop-color="#300B11"/>
</linearGradient>
<linearGradient id="paint20_linear_292_38" x1="51.9906" y1="257.056" x2="66.4103" y2="232.193" gradientUnits="userSpaceOnUse">
<stop stop-color="#A82D65" stop-opacity="0.8"/>
<stop offset="0.23" stop-color="#82224A" stop-opacity="0.86"/>
<stop offset="0.55" stop-color="#55152B" stop-opacity="0.94"/>
<stop offset="0.82" stop-color="#390D17" stop-opacity="0.98"/>
<stop offset="1" stop-color="#300B11"/>
</linearGradient>
<linearGradient id="paint21_linear_292_38" x1="274.401" y1="243.867" x2="390.299" y2="243.867" gradientUnits="userSpaceOnUse">
<stop stop-color="#A82D65" stop-opacity="0.8"/>
<stop offset="0.05" stop-color="#982859" stop-opacity="0.83"/>
<stop offset="0.19" stop-color="#721D3F" stop-opacity="0.89"/>
<stop offset="0.34" stop-color="#54152A" stop-opacity="0.94"/>
<stop offset="0.51" stop-color="#400F1C" stop-opacity="0.97"/>
<stop offset="0.7" stop-color="#330C13" stop-opacity="0.99"/>
<stop offset="1" stop-color="#300B11"/>
</linearGradient>
<linearGradient id="paint22_linear_292_38" x1="296.241" y1="306.699" x2="368.961" y2="181.316" gradientUnits="userSpaceOnUse">
<stop stop-color="#A82D65" stop-opacity="0.8"/>
<stop offset="0.09" stop-color="#942757" stop-opacity="0.83"/>
<stop offset="0.34" stop-color="#691B38" stop-opacity="0.9"/>
<stop offset="0.58" stop-color="#491222" stop-opacity="0.96"/>
<stop offset="0.8" stop-color="#360C15" stop-opacity="0.99"/>
<stop offset="1" stop-color="#300B11"/>
</linearGradient>
<linearGradient id="paint23_linear_292_38" x1="117.601" y1="601.95" x2="274.401" y2="601.95" gradientUnits="userSpaceOnUse">
<stop stop-color="#A82D65" stop-opacity="0.8"/>
<stop offset="0.18" stop-color="#8E2553" stop-opacity="0.84"/>
<stop offset="0.73" stop-color="#4A1223" stop-opacity="0.96"/>
<stop offset="1" stop-color="#300B11"/>
</linearGradient>
<linearGradient id="paint24_linear_292_38" x1="117.601" y1="601.95" x2="274.401" y2="601.95" gradientUnits="userSpaceOnUse">
<stop stop-color="#A82D65" stop-opacity="0.8"/>
<stop offset="0.18" stop-color="#8E2553" stop-opacity="0.84"/>
<stop offset="0.73" stop-color="#4A1223" stop-opacity="0.96"/>
<stop offset="1" stop-color="#300B11"/>
</linearGradient>
<linearGradient id="paint25_linear_292_38" x1="274.401" y1="567.856" x2="390.299" y2="567.856" gradientUnits="userSpaceOnUse">
<stop stop-color="#A82D65" stop-opacity="0.8"/>
<stop offset="0.09" stop-color="#942757" stop-opacity="0.83"/>
<stop offset="0.34" stop-color="#691B38" stop-opacity="0.9"/>
<stop offset="0.58" stop-color="#491222" stop-opacity="0.96"/>
<stop offset="0.8" stop-color="#360C15" stop-opacity="0.99"/>
<stop offset="1" stop-color="#300B11"/>
</linearGradient>
<linearGradient id="paint26_linear_292_38" x1="274.401" y1="567.856" x2="390.299" y2="567.856" gradientUnits="userSpaceOnUse">
<stop stop-color="#A82D65" stop-opacity="0.8"/>
<stop offset="0.18" stop-color="#8E2553" stop-opacity="0.84"/>
<stop offset="0.73" stop-color="#4A1223" stop-opacity="0.96"/>
<stop offset="1" stop-color="#300B11"/>
</linearGradient>
<linearGradient id="paint27_linear_292_38" x1="0.701172" y1="568.582" x2="117.601" y2="568.582" gradientUnits="userSpaceOnUse">
<stop stop-color="#A82D65" stop-opacity="0.8"/>
<stop offset="0.18" stop-color="#8E2553" stop-opacity="0.84"/>
<stop offset="0.73" stop-color="#4A1223" stop-opacity="0.96"/>
<stop offset="1" stop-color="#300B11"/>
</linearGradient>
<linearGradient id="paint28_linear_292_38" x1="0.701172" y1="568.582" x2="117.601" y2="568.582" gradientUnits="userSpaceOnUse">
<stop stop-color="#A82D65" stop-opacity="0.8"/>
<stop offset="0.18" stop-color="#8E2553" stop-opacity="0.84"/>
<stop offset="0.73" stop-color="#4A1223" stop-opacity="0.96"/>
<stop offset="1" stop-color="#300B11"/>
</linearGradient>
<radialGradient id="paint29_radial_292_38" cx="0" cy="0" r="1" gradientUnits="userSpaceOnUse" gradientTransform="translate(190.738 97.8696) scale(97.4239 97.8696)">
<stop stop-color="#EA9980"/>
<stop offset="0.05" stop-color="#EB9F88" stop-opacity="0.94"/>
<stop offset="0.32" stop-color="#F2C1B1" stop-opacity="0.61"/>
<stop offset="0.55" stop-color="#F7DBD3" stop-opacity="0.35"/>
<stop offset="0.75" stop-color="#FBEEEA" stop-opacity="0.16"/>
<stop offset="0.91" stop-color="#FEFAF9" stop-opacity="0.04"/>
<stop offset="1" stop-color="white" stop-opacity="0"/>
</radialGradient>
<clipPath id="clip0_292_38">
<rect width="391" height="619" fill="white"/>
</clipPath>
</defs>
</svg>
