<svg width="306" height="75" viewBox="0 0 306 75" fill="none" xmlns="http://www.w3.org/2000/svg">
<path d="M100.01 13.89H99.98C96.29 13.77 93.83 13.92 93.83 12.15C93.83 10.68 96.2 10.68 99.89 10.68C103.67 10.68 106.01 10.68 106.01 13.02H112.43C112.43 6.6 108.05 5.43 99.89 5.43C92.06 5.43 87.35 6.6 87.35 12.15C87.35 17.67 91.97 18.27 99.8 18.54H99.83C103.52 18.69 106.25 18.54 106.25 20.61C106.25 22.35 103.61 22.35 99.89 22.35C96.14 22.35 93.47 22.35 93.47 20.01H87.08C87.08 26.43 91.73 27.6 99.89 27.6C107.72 27.6 112.73 26.43 112.73 20.61C112.73 14.76 107.84 14.16 100.01 13.89ZM137.531 6.03H114.221V11.28H122.651V27.03H129.071V11.28H137.531V6.03ZM156.575 27.03H163.805L160.265 20.31C162.275 18.87 163.595 16.53 163.595 13.89C163.595 9.54 160.055 6.03 155.705 6.03H139.685V27.03H146.075V21.78H153.815L156.575 27.03ZM146.075 11.28H154.535C156.005 11.28 157.175 12.45 157.175 13.89C157.175 15.33 156.005 16.53 154.535 16.53H146.075V11.28ZM172.911 27.03V6.03H166.521V27.03H172.911ZM189.65 15.15L199.28 6.03H191.12L182.93 13.74V6.03H176.54V27.03H182.93V21.48L185.15 19.41L191.69 27.03H199.85L189.65 15.15ZM208.155 27.03V6.03H201.765V27.03H208.155ZM230.444 6.03V19.14L218.774 6.03H211.784V27.03H218.174V14.55L229.274 27.03H236.864V6.03H230.444ZM253.695 15.93V20.61H258.435C257.385 21.93 255.555 22.35 253.125 22.35C249.045 22.35 246.705 21.18 246.705 16.53C246.705 11.85 249.045 10.68 253.125 10.68C256.215 10.68 258.255 11.34 259.095 13.59H266.295C265.245 7.65 260.745 5.43 253.125 5.43C244.365 5.43 239.715 8.34 239.715 16.53C239.715 25.26 244.965 27.6 253.125 27.6C256.755 27.6 259.695 27.21 261.855 26.1V27.03H266.535V15.93H253.695ZM106.55 64H113.57L103.28 43.03H96.26L85.97 64H92.99L94.13 61.69H105.41L106.55 64ZM102.8 56.44H96.65L99.74 50.17L102.8 56.44ZM121.758 58.78V56.14H135.768V50.89H121.758V48.28H136.938V43.03H115.368V64.03H136.938V58.78H121.758ZM152.364 50.89H152.334C148.644 50.77 146.184 50.92 146.184 49.15C146.184 47.68 148.554 47.68 152.244 47.68C156.024 47.68 158.364 47.68 158.364 50.02H164.784C164.784 43.6 160.404 42.43 152.244 42.43C144.414 42.43 139.704 43.6 139.704 49.15C139.704 54.67 144.324 55.27 152.154 55.54H152.184C155.874 55.69 158.604 55.54 158.604 57.61C158.604 59.35 155.964 59.35 152.244 59.35C148.494 59.35 145.824 59.35 145.824 57.01H139.434C139.434 63.43 144.084 64.6 152.244 64.6C160.074 64.6 165.084 63.43 165.084 57.61C165.084 51.76 160.194 51.16 152.364 50.89ZM189.884 43.03H166.574V48.28H175.004V64.03H181.424V48.28H189.884V43.03ZM210.098 43.03V50.89H198.428V43.03H192.038V64.03H198.428V56.14H210.098V64.03H216.518V43.03H210.098ZM226.524 58.78V56.14H240.534V50.89H226.524V48.28H241.704V43.03H220.134V64.03H241.704V58.78H226.524ZM266.759 43.03H243.449V48.28H251.879V64.03H258.299V48.28H266.759V43.03ZM275.303 64.03V43.03H268.913V64.03H275.303ZM297.713 55.84C296.993 58.6 294.863 59.35 291.563 59.35C287.483 59.35 285.143 58.18 285.143 53.53C285.143 48.85 287.483 47.68 291.563 47.68C294.923 47.68 297.023 48.43 297.713 51.19H304.823C303.983 44.8 299.423 42.43 291.563 42.43C282.803 42.43 278.153 45.34 278.153 53.53C278.153 62.26 283.403 64.6 291.563 64.6C299.483 64.6 304.043 62.68 304.853 55.84H297.713Z" fill="#FFE9C9"/>
<rect y="3" width="65" height="65" rx="5" fill="#FFE9C9"/>
<path d="M50.4527 51.9798C48.4733 52.6678 46.9179 54.2236 46.2304 56.2025L44.9471 59.8954C44.93 59.9538 44.8763 59.9939 44.8156 59.9939C44.7548 59.9939 44.7015 59.9538 44.6843 59.8954L43.4042 56.2025C42.7163 54.2228 41.1594 52.6666 39.1787 51.9798L35.4879 50.697C35.433 50.6779 35.396 50.6261 35.396 50.5677C35.396 50.5093 35.433 50.4576 35.4879 50.4381L39.1787 49.1552V49.1556C41.1593 48.4685 42.7162 46.9127 43.4042 44.9326L44.6843 41.2397C44.7015 41.1817 44.7548 41.1416 44.8156 41.1416C44.8763 41.1416 44.93 41.1817 44.9471 41.2397L46.2304 44.9326C46.9179 46.9119 48.4733 48.4677 50.4527 49.1556L54.1466 50.4385V50.4381C54.2015 50.4576 54.2385 50.5093 54.2385 50.5677C54.2385 50.6261 54.2015 50.6779 54.1466 50.697L50.4527 51.9798Z" fill="#1D0D1B"/>
<path d="M53.4327 25.5425C50.9585 26.4022 49.0138 28.3469 48.1545 30.8211L46.5509 35.437C46.5275 35.5074 46.4621 35.5549 46.3881 35.5549C46.3141 35.5549 46.2484 35.5074 46.2254 35.437L44.6217 30.8211C43.7621 28.3469 41.8173 26.4022 39.3427 25.5425L34.7272 23.9392C34.6582 23.9155 34.6123 23.8505 34.6123 23.7777C34.6123 23.7045 34.6582 23.6398 34.7272 23.6157L39.3427 22.0124C41.8173 21.1532 43.7621 19.208 44.6217 16.7338L46.2254 12.118C46.2484 12.0475 46.3142 12 46.3881 12C46.4621 12 46.5275 12.0475 46.5509 12.118L48.1545 16.7338C49.0138 19.208 50.9585 21.1528 53.4327 22.0124L58.0483 23.6157C58.1172 23.6398 58.1635 23.7045 58.1635 23.7777C58.1635 23.8505 58.1172 23.9155 58.0483 23.9392L53.4327 25.5425Z" fill="#1D0D1B"/>
<path d="M33.139 39.9457C29.7027 41.1395 27.002 43.8406 25.8083 47.2769L23.5802 53.688C23.5475 53.7845 23.4571 53.8496 23.3551 53.8496C23.2531 53.8496 23.1624 53.7845 23.1297 53.688L20.9019 47.2769C19.7082 43.8406 17.0074 41.1395 13.5711 39.9457L7.15963 37.7187C7.06424 37.6852 7 37.5953 7 37.4941C7 37.3928 7.06424 37.3025 7.15963 37.2694L13.5711 35.0424C17.0074 33.8487 19.7082 31.1475 20.9019 27.7109L23.13 21.2997L23.1296 21.3001C23.1623 21.2036 23.253 21.1385 23.355 21.1385C23.457 21.1385 23.5474 21.2036 23.5801 21.3001L25.8082 27.7112V27.7109C27.0019 31.1474 29.7026 33.8487 33.1389 35.0424L39.5505 37.2694H39.5501C39.6458 37.3025 39.7097 37.3928 39.7097 37.4941C39.7097 37.5953 39.6458 37.6852 39.5501 37.7187L33.139 39.9457Z" fill="#1D0D1B"/>
</svg>
