<svg width="252" height="64" viewBox="0 0 252 64" fill="none" xmlns="http://www.w3.org/2000/svg">
<g clip-path="url(#clip0_127_1206)">
<path d="M32.1383 18.9475C32.1383 26.2327 25.8923 27.7019 16.0864 27.7019C5.86076 27.7019 0.0153809 26.2441 0.0153809 18.2282H8.0356C8.0356 21.1438 11.3513 21.1438 16.0711 21.1438C20.6993 21.1438 24.0303 21.1438 24.0303 18.959C24.0303 16.3936 20.5963 16.5648 15.9757 16.405H15.9414C6.13929 16.07 0.366402 15.3126 0.366402 8.41184C0.366402 1.51111 6.24613 0.0380859 16.052 0.0380859C26.2776 0.0380859 31.7567 1.49589 31.7567 9.51185H23.7174C23.7174 6.59626 20.7947 6.59626 16.0482 6.59626C11.42 6.59626 8.4515 6.59626 8.4515 8.41946C8.4515 10.6385 11.5344 10.4482 16.1627 10.6081H16.197C26.0067 10.9049 32.1383 11.6586 32.1383 18.9475Z" fill="#32011D"/>
<path d="M63.5894 10.57C63.5864 13.1775 62.5467 15.6774 60.6984 17.5213C58.85 19.3651 56.344 20.4023 53.7301 20.4053H43.8708V26.9635H35.8353V0.734619H53.7301C56.344 0.737641 58.85 1.77483 60.6984 3.61866C62.5467 5.46249 63.5864 7.9624 63.5894 10.57ZM55.5768 10.57C55.5758 9.70011 55.229 8.86616 54.6124 8.25107C53.9958 7.63598 53.1598 7.28999 52.2879 7.28898H43.8937V13.8395H52.2879C53.1546 13.8335 53.9839 13.4869 54.5961 12.8748C55.2082 12.2627 55.5538 11.4346 55.5578 10.57H55.5768Z" fill="#32011D"/>
<path d="M85.8302 24.0479H71.6899L70.2667 26.9635H61.4529L74.3455 0.734619H83.1212L96.0291 26.9635H87.2534L85.8302 24.0479ZM78.7219 9.65266L74.8454 17.4897H82.5374L78.7219 9.65266Z" fill="#32011D"/>
<path d="M138.103 0.734619L129.327 26.9635H120.551L115.439 11.6624L110.326 26.9635H101.55L92.7744 0.734619H101.55L106.774 16.3631L111.993 0.734619H118.861L124.081 16.3631L129.304 0.734619H138.103Z" fill="#32011D"/>
<path d="M171.969 0.734619V26.9635H162.473L148.596 11.3883V26.9635H140.56V0.734619H149.336L163.945 17.1281V0.734619H171.969Z" fill="#32011D"/>
<path d="M143.941 58.8713H129.789L128.358 61.7983H119.582L132.46 35.5542H141.235L154.143 61.7983H145.368L143.941 58.8713ZM136.832 44.4913L132.963 52.3131H140.659L136.832 44.4913Z" fill="#32011D"/>
<path d="M174.087 55.2287H164.407V61.7983H156.371V35.5542H176.46C178.552 35.552 180.59 36.2134 182.28 37.4429C183.97 38.6723 185.224 40.4061 185.861 42.3934C186.498 44.3808 186.486 46.5188 185.824 48.4984C185.163 50.478 183.888 52.1965 182.183 53.4055L186.617 61.7793H177.555L174.087 55.2287ZM164.407 48.6706H174.999C175.851 48.6416 176.659 48.2834 177.252 47.6716C177.845 47.0598 178.176 46.2423 178.176 45.3915C178.176 44.5406 177.845 43.7231 177.252 43.1113C176.659 42.4995 175.851 42.1414 174.999 42.1124H164.407V48.6706Z" fill="#32011D"/>
<path d="M217.367 42.1124H206.775V61.7983H198.762V42.1124H188.166V35.5542H217.382L217.367 42.1124Z" fill="#32011D"/>
<path d="M237.005 63.9221C234.041 63.9221 231.145 63.0455 228.68 61.4031C226.216 59.7607 224.296 57.4263 223.162 54.695C222.028 51.9638 221.731 48.9584 222.309 46.0589C222.887 43.1595 224.314 40.4962 226.41 38.4058C228.505 36.3154 231.175 34.8918 234.082 34.315C236.988 33.7383 240.001 34.0343 242.739 35.1656C245.477 36.2969 247.817 38.2128 249.463 40.6708C251.11 43.1288 251.989 46.0187 251.989 48.975C251.983 52.9377 250.403 56.7366 247.594 59.5387C244.785 62.3407 240.977 63.9171 237.005 63.9221ZM237.005 36.1365C234.462 36.1357 231.977 36.8872 229.862 38.2958C227.748 39.7043 226.1 41.7068 225.126 44.0499C224.153 46.393 223.898 48.9714 224.393 51.4591C224.889 53.9468 226.113 56.2321 227.91 58.0258C229.708 59.8196 231.998 61.0413 234.492 61.5364C236.986 62.0314 239.57 61.7777 241.919 60.8073C244.268 59.8368 246.276 58.1932 247.689 56.0844C249.102 53.9755 249.856 51.4961 249.856 48.9598C249.849 45.563 248.492 42.3076 246.083 39.9069C243.674 37.5061 240.41 36.1558 237.005 36.1517V36.1365Z" fill="#32011D"/>
<path d="M243.633 52.3017C243.633 48.6553 240.672 39.0446 237.017 39.0446C233.361 39.0446 230.4 48.6553 230.4 52.3017C230.4 54.0522 231.097 55.7309 232.338 56.9687C233.579 58.2064 235.262 58.9018 237.017 58.9018C238.771 58.9018 240.454 58.2064 241.695 56.9687C242.936 55.7309 243.633 54.0522 243.633 52.3017Z" fill="#32011D"/>
</g>
<defs>
<clipPath id="clip0_127_1206">
<rect width="252" height="63.9184" fill="white"/>
</clipPath>
</defs>
</svg>
