<svg width="365" height="25" viewBox="0 0 365 25" fill="none" xmlns="http://www.w3.org/2000/svg">
<path d="M21.664 10.016C21.632 10.016 21.632 10.016 21.632 10.016C15.712 9.888 11.776 10.048 11.776 8.16C11.776 6.592 15.584 6.592 21.472 6.592C27.552 6.592 31.296 6.592 31.296 9.088H41.568C41.568 2.24 34.56 0.991999 21.472 0.991999C8.96 0.991999 1.44 2.24 1.44 8.16C1.44 14.048 8.832 14.688 21.344 14.976C21.344 14.976 21.344 14.976 21.376 14.976C27.296 15.136 31.68 14.976 31.68 17.184C31.68 19.04 27.424 19.04 21.504 19.04C15.488 19.04 11.232 19.04 11.232 16.544H0.992C0.992 23.392 8.448 24.64 21.504 24.64C34.048 24.64 42.016 23.392 42.016 17.184H42.048C42.048 10.944 34.208 10.304 21.664 10.016ZM67.893 1.632H45.045V24.032H55.285V18.432H67.893C74.837 18.432 80.501 14.656 80.501 10.016C80.501 5.376 74.837 1.632 67.893 1.632ZM66.037 12.832H55.285V7.232H66.037C68.341 7.232 70.229 8.48 70.229 10.016C70.229 11.552 68.341 12.832 66.037 12.832ZM110.738 24H121.938L105.458 1.632H94.2255L77.7775 24H89.0095L90.8335 21.536H108.914L110.738 24ZM104.722 15.936H94.8975L99.8255 9.248L104.722 15.936ZM164.718 1.632L158.03 14.976L151.374 1.632H142.606L135.918 14.976L129.262 1.632H118.062L129.262 24.032H140.462L146.99 10.944L153.518 24.032H164.718L175.918 1.632H164.718ZM207.682 1.632V15.616L189.026 1.632H177.826V24.032H188.066V10.72L205.794 24.032H217.954V1.632H207.682ZM274.238 24H285.438L268.958 1.632H257.726L241.277 24H252.51L254.334 21.536H272.414L274.238 24ZM268.222 15.936H258.398L263.326 9.248L268.222 15.936ZM314.273 24.032H325.857L320.193 16.864C323.393 15.328 325.473 12.832 325.473 10.016C325.473 5.376 319.84 1.632 312.897 1.632H287.233V24.032H297.473V18.432H309.857L314.273 24.032ZM297.473 7.232H311.009C313.345 7.232 315.201 8.48 315.201 10.016C315.201 11.552 313.345 12.832 311.009 12.832H297.473V7.232ZM364.289 1.632H326.977V7.232H340.481V24.032H350.753V7.232H364.289V1.632Z" fill="white"/>
</svg>
