<svg width="857" height="218" viewBox="0 0 857 218" fill="none" xmlns="http://www.w3.org/2000/svg">
	<g>
		<path d="M109.295 64.6224C109.295 89.4692 88.0538 94.4801 54.706 94.4801C19.9308 94.4801 0.0518799 89.5081 0.0518799 62.1689H27.327C27.327 72.1128 38.603 72.1128 54.654 72.1128C70.3937 72.1128 81.7216 72.1128 81.7216 64.6614C81.7216 55.9118 70.0434 56.4959 54.3297 55.9507H54.2129C20.878 54.8083 1.24563 52.225 1.24563 28.6893C1.24563 5.15369 21.2414 0.129807 54.5892 0.129807C89.3643 0.129807 107.998 5.10178 107.998 32.441H80.6576C80.6576 22.4971 70.7181 22.4971 54.5762 22.4971C38.8365 22.4971 28.7414 22.4971 28.7414 28.7153C28.7414 36.2836 39.2258 35.6345 54.9655 36.1797H55.0823C88.4431 37.1923 109.295 39.7627 109.295 64.6224Z" fill="#FFE9C9"/>
		<path d="M216.255 36.0499C216.244 44.9433 212.709 53.4695 206.423 59.7581C200.137 66.0466 191.615 69.5841 182.725 69.5944H149.196V91.9617H121.869V2.50546H182.725C191.615 2.51577 200.137 6.0532 206.423 12.3418C212.709 18.6303 216.244 27.1565 216.255 36.0499ZM189.006 36.0499C189.002 33.0832 187.823 30.2389 185.726 28.1411C183.629 26.0433 180.786 24.8632 177.82 24.8598H149.274V47.2011H177.82C180.768 47.1806 183.588 45.9984 185.67 43.9108C187.752 41.8232 188.927 38.9987 188.941 36.0499H189.006Z" fill="#FFE9C9"/>
		<path d="M291.891 82.0178H243.802L238.962 91.9617H208.988L252.834 2.50546H282.678L326.575 91.9617H296.731L291.891 82.0178ZM267.717 32.9213L254.533 59.6505H280.693L267.717 32.9213Z" fill="#FFE9C9"/>
		<path d="M469.659 2.50546L439.815 91.9617H409.971L392.583 39.7756L375.195 91.9617H345.351L315.507 2.50546H345.351L363.115 55.8079L380.866 2.50546H404.222L421.973 55.8079L439.737 2.50546H469.659Z" fill="#FFE9C9"/>
		<path d="M584.832 2.50546V91.9617H552.536L505.343 38.841V91.9617H478.016V2.50546H507.86L557.544 58.4172V2.50546H584.832Z" fill="#FFE9C9"/>
		<path d="M489.512 200.786H441.385L436.519 210.769H406.675L450.468 121.261H480.312L524.21 210.769H494.365L489.512 200.786ZM465.338 151.742L452.181 178.419H478.353L465.338 151.742Z" fill="#FFE9C9"/>
		<path d="M592.034 188.363H559.114V210.769H531.787V121.261H600.105C607.218 121.254 614.149 123.51 619.897 127.703C625.644 131.896 629.909 137.809 632.076 144.587C634.243 151.365 634.199 158.657 631.951 165.409C629.702 172.16 625.366 178.021 619.569 182.145L634.647 210.704H603.829L592.034 188.363ZM559.114 165.996H595.135C598.034 165.897 600.781 164.675 602.797 162.589C604.813 160.502 605.94 157.714 605.94 154.812C605.94 151.91 604.813 149.122 602.797 147.035C600.781 144.949 598.034 143.727 595.135 143.628H559.114V165.996Z" fill="#FFE9C9"/>
		<path d="M739.219 143.628H703.198V210.769H675.949V143.628H639.915V121.261H739.27L739.219 143.628Z" fill="#FFE9C9"/>
		<path d="M806.005 218.013C795.927 218.013 786.075 215.023 777.695 209.422C769.316 203.82 762.785 195.858 758.928 186.543C755.071 177.228 754.062 166.978 756.028 157.089C757.994 147.2 762.847 138.116 769.974 130.987C777.1 123.857 786.179 119.002 796.064 117.035C805.948 115.068 816.194 116.078 825.505 119.936C834.816 123.794 842.774 130.329 848.373 138.712C853.973 147.095 856.961 156.952 856.961 167.034C856.944 180.549 851.57 193.506 842.017 203.063C832.465 212.619 819.514 217.996 806.005 218.013ZM806.005 123.247C797.358 123.245 788.905 125.808 781.714 130.612C774.524 135.416 768.919 142.245 765.608 150.237C762.297 158.228 761.43 167.022 763.115 175.507C764.8 183.991 768.963 191.785 775.076 197.903C781.189 204.021 788.978 208.187 797.459 209.876C805.939 211.565 814.729 210.699 822.718 207.389C830.707 204.08 837.535 198.474 842.339 191.282C847.143 184.089 849.708 175.633 849.708 166.982C849.684 155.397 845.07 144.295 836.878 136.107C828.687 127.918 817.585 123.313 806.005 123.299V123.247Z" fill="#FFE9C9"/>
		<path d="M828.544 178.38C828.544 165.944 818.475 133.165 806.044 133.165C793.613 133.165 783.544 165.944 783.544 178.38C783.544 184.35 785.914 190.076 790.134 194.297C794.354 198.519 800.077 200.89 806.044 200.89C812.011 200.89 817.734 198.519 821.954 194.297C826.174 190.076 828.544 184.35 828.544 178.38Z" fill="#FFE9C9"/>
	</g>
</svg>
