<svg width="66" height="66" viewBox="0 0 66 66" fill="none" xmlns="http://www.w3.org/2000/svg">
<path d="M29.3733 5.76853C31.6413 5.76853 31.6413 9.21431 29.3733 9.21431H16.9339C12.9448 9.21431 9.67346 12.4846 9.67346 16.4736V25.1226L13.0129 22.0621C14.6766 20.5379 16.9934 23.0666 15.3283 24.5923L9.23233 30.1805C8.4717 30.9471 7.43225 30.9471 6.67255 30.1805L0.575045 24.5923C-1.09019 23.0665 1.22673 20.5383 2.89046 22.0621L6.22989 25.1226V16.4736C6.22989 10.5826 11.0441 5.76853 16.9352 5.76853H29.3746H29.3733ZM34.8117 47.4291C34.8117 49.697 31.3668 49.697 31.3668 47.4291V45.0183C27.6401 44.6495 25.5747 43.0398 24.0139 41.9164C22.1842 40.5996 24.2028 37.8115 26.0194 39.1318C27.2168 40.0008 28.7305 41.1882 31.3668 41.547V34.2453C27.4157 33.5152 23.828 32.4008 23.828 27.5028C23.828 23.6063 27.5571 21.12 31.3668 20.5969V18.5709C31.3668 16.303 34.8117 16.303 34.8117 18.5709V20.5739C38.3444 20.9682 40.3814 22.4879 41.9917 23.6563C43.7253 24.9147 42.0127 28.0735 39.5894 26.156C38.5944 25.4319 37.1261 24.4079 34.8117 24.0527V31.3619C38.6918 32.0941 42.171 33.2474 42.171 38.0714C42.171 41.9069 38.5492 44.3822 34.8117 44.9509V47.4296V47.4291ZM31.3668 30.7336V24.0826C29.5248 24.4339 27.2728 25.6303 27.2728 27.5019C27.2728 29.5014 29.12 30.253 31.3668 30.7333V30.7336ZM34.8117 34.8781V41.4536C36.5889 41.0743 38.7263 39.8885 38.7263 38.0704C38.7263 36.1244 36.9761 35.3608 34.8117 34.8776V34.8781ZM35.8202 6.67238L41.4085 0.57503C42.9343 -1.09016 45.4626 1.2267 43.9387 2.89039L40.8782 6.22973H49.5274C55.4186 6.22973 60.2327 11.0438 60.2327 16.9348V29.3738C60.2327 31.6417 56.7869 31.6417 56.7869 29.3738V16.9348C56.7869 12.9447 53.5165 9.67449 49.5274 9.67449H40.8782L43.9387 13.0138C45.463 14.6775 42.9342 16.9943 41.4085 15.3292L35.8202 9.23337C35.0366 8.45578 35.078 7.34238 35.8202 6.67366V6.67238ZM30.1794 59.3276L24.5911 65.425C23.0653 67.0902 20.537 64.7733 22.0609 63.1096L25.1214 59.7703H16.4722C10.581 59.7703 5.76686 54.9572 5.76686 49.0652V36.6262C5.76686 34.3583 9.21273 34.3583 9.21273 36.6262V49.0652C9.21273 53.0542 12.4827 56.3255 16.4722 56.3255H25.1214L22.0609 52.9862C20.5366 51.3225 23.0654 49.0057 24.5911 50.6708L30.1794 56.7666C30.963 57.5442 30.9216 58.6576 30.1794 59.3263V59.3276ZM59.3274 35.8209L65.425 41.4091C67.0902 42.9349 64.7733 45.4631 63.1095 43.9393L59.7701 40.8788V49.5278C59.7701 55.4188 54.957 60.2329 49.0648 60.2329H36.6254C34.3575 60.2329 34.3575 56.7871 36.6254 56.7871H49.0648C53.0549 56.7871 56.3253 53.5168 56.3253 49.5278V40.8788L52.9858 43.9393C51.3221 45.4635 49.0053 42.9348 50.6704 41.4091L56.7664 35.8209C57.544 35.0374 58.6574 35.0788 59.3262 35.8209H59.3274Z" fill="url(#paint0_linear_60_100)"/>
<defs>
<linearGradient id="paint0_linear_60_100" x1="-7.8375" y1="-17.7375" x2="69.3203" y2="64.3478" gradientUnits="userSpaceOnUse">
<stop stop-color="#EF3C5A"/>
<stop offset="0.296875" stop-color="#F04A3D"/>
<stop offset="1" stop-color="#F47C20"/>
</linearGradient>
</defs>
</svg>
