<svg width="50" height="50" viewBox="0 0 50 50" fill="none" xmlns="http://www.w3.org/2000/svg">
<path d="M46.6668 11.5619C45.0718 12.2702 43.3585 12.7469 41.5601 12.9619C43.3968 11.8619 44.8051 10.1202 45.4685 8.04356C43.7518 9.06189 41.8485 9.80189 39.8218 10.2019C38.2001 8.47355 35.8901 7.39355 33.3335 7.39355C28.4235 7.39355 24.4435 11.3752 24.4435 16.2836C24.4435 16.9802 24.5235 17.6602 24.6735 18.3086C17.2851 17.9386 10.7351 14.3986 6.34845 9.01855C5.58512 10.3319 5.14679 11.8586 5.14679 13.4902C5.14679 16.5736 6.71512 19.2952 9.10012 20.8886C7.64345 20.8419 6.27179 20.4419 5.07345 19.7769C5.07345 19.8152 5.07345 19.8502 5.07345 19.8886C5.07345 24.1969 8.13679 27.7902 12.2051 28.6052C11.4601 28.8086 10.6735 28.9169 9.86179 28.9169C9.29012 28.9169 8.73179 28.8602 8.19012 28.7586C9.32179 32.2902 12.6051 34.8619 16.4951 34.9336C13.4535 37.3186 9.62012 38.7402 5.45345 38.7402C4.73679 38.7402 4.02845 38.6986 3.33179 38.6152C7.26679 41.1369 11.9385 42.6086 16.9601 42.6086C33.3135 42.6086 42.2535 29.0619 42.2535 17.3136C42.2535 16.9286 42.2451 16.5452 42.2285 16.1636C43.9668 14.9086 45.4751 13.3436 46.6668 11.5619Z" fill="#FFE9C9"/>
</svg>
