<svg width="420" height="75" viewBox="0 0 420 75" fill="none" xmlns="http://www.w3.org/2000/svg">
<path d="M85.41 16.53C85.41 25.26 90.63 27.6 97.65 27.6C104.64 27.6 109.89 25.26 109.89 16.53V6.03H103.47V16.53C103.47 21.18 101.16 22.35 97.65 22.35C94.14 22.35 91.8 21.18 91.8 16.53V6.03H85.41V16.53ZM131.794 6.03V19.14L120.124 6.03H113.134V27.03H119.524V14.55L130.624 27.03H138.214V6.03H131.794ZM156.125 6.03H141.845V27.03H148.235V21.78H156.125C160.475 21.78 163.985 18.24 163.985 13.89C163.985 9.54 160.475 6.03 156.125 6.03ZM154.955 16.53H148.235V11.28H154.955C156.395 11.28 157.595 12.45 157.595 13.89C157.595 15.33 156.395 16.53 154.955 16.53ZM183.374 27.03H190.604L187.064 20.31C189.074 18.87 190.394 16.53 190.394 13.89C190.394 9.54 186.854 6.03 182.504 6.03H166.484V27.03H172.874V21.78H180.614L183.374 27.03ZM172.874 11.28H181.334C182.804 11.28 183.974 12.45 183.974 13.89C183.974 15.33 182.804 16.53 181.334 16.53H172.874V11.28ZM199.71 21.78V19.14H213.72V13.89H199.71V11.28H214.89V6.03H193.32V27.03H214.89V21.78H199.71ZM230.345 27.03C238.685 27.03 243.155 24.81 243.155 16.53C243.155 8.79 238.685 6.03 230.345 6.03H218.105V27.03H230.345ZM224.495 21.78V11.28H230.345C234.305 11.28 236.765 12.09 236.765 16.53C236.765 20.94 234.245 21.78 230.345 21.78H224.495ZM252.356 27.03V6.03H245.966V27.03H252.356ZM274.766 18.84C274.046 21.6 271.916 22.35 268.616 22.35C264.536 22.35 262.196 21.18 262.196 16.53C262.196 11.85 264.536 10.68 268.616 10.68C271.976 10.68 274.076 11.43 274.766 14.19H281.876C281.036 7.8 276.476 5.43 268.616 5.43C259.856 5.43 255.206 8.34 255.206 16.53C255.206 25.26 260.456 27.6 268.616 27.6C276.536 27.6 281.096 25.68 281.906 18.84H274.766ZM306.507 6.03H283.197V11.28H291.627V27.03H298.047V11.28H306.507V6.03ZM324.159 27H331.179L320.889 6.03H313.869L303.579 27H310.599L311.739 24.69H323.019L324.159 27ZM320.409 19.44H314.259L317.349 13.17L320.409 19.44ZM354.278 15.99C355.178 14.94 355.718 13.56 355.718 12.06C355.718 8.73 352.988 6.03 349.658 6.03L332.978 6V27L350.828 27.03C354.158 27.03 356.888 24.3 356.888 20.97C356.888 18.9 355.838 17.07 354.278 15.99ZM347.828 11.28C348.638 11.28 349.298 11.91 349.298 12.72C349.298 13.53 348.638 14.19 347.828 14.19H339.368V11.28H347.828ZM348.998 21.78H339.368V18.84H348.998C349.808 18.84 350.468 19.5 350.468 20.31C350.468 21.12 349.808 21.78 348.998 21.78ZM366.028 21.78V6.03H359.638V27.03H380.638V21.78H366.028ZM389.202 21.78V19.14H403.212V13.89H389.202V11.28H404.382V6.03H382.812V27.03H404.382V21.78H389.202ZM107.64 43.03H84.33V48.28H92.76V64.03H99.18V48.28H107.64V43.03ZM126.684 64.03H133.914L130.374 57.31C132.384 55.87 133.704 53.53 133.704 50.89C133.704 46.54 130.164 43.03 125.814 43.03H109.794V64.03H116.184V58.78H123.924L126.684 64.03ZM116.184 48.28H124.644C126.114 48.28 127.284 49.45 127.284 50.89C127.284 52.33 126.114 53.53 124.644 53.53H116.184V48.28ZM155.38 64H162.4L152.11 43.03H145.09L134.8 64H141.82L142.96 61.69H154.24L155.38 64ZM151.63 56.44H145.48L148.57 50.17L151.63 56.44ZM170.588 64.03V43.03H164.198V64.03H170.588ZM196.058 43.03H172.748V48.28H181.178V64.03H187.598V48.28H196.058V43.03ZM210.422 50.89H210.392C206.702 50.77 204.242 50.92 204.242 49.15C204.242 47.68 206.612 47.68 210.302 47.68C214.082 47.68 216.422 47.68 216.422 50.02H222.842C222.842 43.6 218.462 42.43 210.302 42.43C202.472 42.43 197.762 43.6 197.762 49.15C197.762 54.67 202.382 55.27 210.212 55.54H210.242C213.932 55.69 216.662 55.54 216.662 57.61C216.662 59.35 214.022 59.35 210.302 59.35C206.552 59.35 203.882 59.35 203.882 57.01H197.492C197.492 63.43 202.142 64.6 210.302 64.6C218.132 64.6 223.142 63.43 223.142 57.61C223.142 51.76 218.252 51.16 210.422 50.89Z" fill="#FFE9C9"/>
<rect y="3" width="65" height="65" rx="5" fill="#FFE9C9"/>
<path d="M20.9581 40.8395C20.0533 40.703 19.2163 41.3174 19.0799 42.2226C18.5334 45.8083 17.765 49.2403 16.7921 52.399C16.5188 53.2699 17.0139 54.1918 17.8847 54.4479C18.0383 54.499 18.2091 54.5162 18.3627 54.5162C19.0628 54.5162 19.7114 54.055 19.9337 53.3553C20.9582 50.0429 21.7609 46.4573 22.3241 42.7008C22.4606 41.8128 21.8458 40.9758 20.9582 40.8394L20.9581 40.8395ZM34.9934 23.9699C32.808 23.543 30.8101 23.9528 29.2391 25.1823C27.3098 26.6847 26.1146 29.3145 25.9439 32.4218C25.6195 38.1927 25.1245 42.5982 24.3218 46.7136C24.1511 47.6016 24.7315 48.4721 25.6196 48.6428C26.5076 48.8307 27.378 48.2331 27.5488 47.3451C28.3854 43.0764 28.8976 38.5345 29.2219 32.6103C29.3416 30.4931 30.0928 28.6831 31.2537 27.7951C32.0731 27.1632 33.0975 26.9585 34.3614 27.2146C37.0423 27.744 37.947 29.7248 37.7081 34.5395C37.4691 39.1839 36.9054 43.8622 36.035 48.4722C35.8642 49.3603 36.4447 50.2307 37.3328 50.4015C37.4353 50.4186 37.5378 50.4358 37.6399 50.4358C38.4083 50.4358 39.1084 49.8892 39.2448 49.1042C40.1496 44.3405 40.7305 39.5081 40.9695 34.7109C41.1063 32.0979 41.4478 25.2513 34.9934 23.9705L34.9934 23.9699ZM36.7522 52.9282C35.8813 52.7064 34.9766 53.2354 34.7543 54.1063C34.4471 55.3015 34.1056 56.4795 33.7298 57.6747C33.4566 58.5456 33.9517 59.4675 34.8225 59.7237C34.9761 59.7747 35.1468 59.7919 35.3004 59.7919C36.0006 59.7919 36.6492 59.3307 36.8715 58.631C37.2473 57.4015 37.6055 56.1724 37.9303 54.9257C38.1693 54.0552 37.6399 53.1504 36.7523 52.9281L36.7522 52.9282Z" fill="#1D0D1B"/>
<path d="M25.1575 50.6061C24.2866 50.3671 23.3818 50.8965 23.1429 51.7669C22.8185 52.945 22.4599 54.1917 21.9987 55.5577C21.7083 56.4114 22.1866 57.3505 23.0403 57.6409C23.2111 57.692 23.3818 57.7263 23.5526 57.7263C24.2355 57.7263 24.8842 57.2823 25.1064 56.5993C25.5844 55.1651 25.9773 53.8674 26.3016 52.6211C26.5578 51.7499 26.0284 50.8451 25.1575 50.6062V50.6061ZM33.5072 29.7411C32.6024 29.7411 31.8507 30.4751 31.8507 31.3803C31.8164 40.4298 30.3651 49.3934 27.6503 57.3335C27.3599 58.1872 27.8211 59.1263 28.6748 59.4168C28.8455 59.485 29.0334 59.5022 29.2042 59.5022C29.8872 59.5022 30.5191 59.0753 30.7581 58.3923C33.5753 50.1284 35.0777 40.788 35.1292 31.3971C35.146 30.4748 34.4291 29.7407 33.5071 29.7407L33.5072 29.7411ZM33.3703 15.2785C34.2751 15.2785 35.0096 14.5273 34.9924 13.6221C34.9924 12.7173 34.2751 12.0343 33.336 12C24.5255 12.0854 16.6538 18.3176 14.6224 26.8548C14.1101 29.0063 14.0419 31.2088 13.9566 33.3259C13.9223 34.4529 13.8883 35.4946 13.7858 36.5529C13.4443 40.3265 12.8467 43.9459 12.044 47.3274C11.839 48.2154 12.3684 49.103 13.2564 49.3081C13.3928 49.3424 13.5125 49.3592 13.6322 49.3592C14.3662 49.3592 15.0492 48.8469 15.2371 48.0958C16.0908 44.5612 16.6884 40.7881 17.0471 36.8608C17.1496 35.7166 17.1835 34.5729 17.235 33.4459C17.3032 31.3969 17.3714 29.4505 17.8154 27.6234C19.5229 20.5207 26.0626 15.3298 33.3708 15.279L33.3703 15.2785ZM40.8149 13.4003C39.9783 13.0588 39.0221 13.4685 38.6806 14.3051C38.3391 15.1417 38.7488 16.0979 39.5854 16.4394C46.108 19.0859 49.8476 25.4378 49.5744 33.4114C49.3694 39.6436 48.601 45.9265 47.3204 52.0909C47.1325 52.9789 47.6962 53.8494 48.601 54.0373C48.7207 54.0544 48.8228 54.0716 48.9425 54.0716C49.7108 54.0716 50.3938 53.5422 50.5474 52.7567C51.879 46.4048 52.6645 39.9332 52.8696 33.5132C53.1772 24.2595 48.55 16.5422 40.815 13.4005L40.8149 13.4003ZM33.0632 17.9083C28.5724 18.0618 24.338 20.5205 21.9989 24.328C20.189 27.2817 20.0526 30.4237 19.9328 33.4628C19.8985 34.1969 19.8646 34.9313 19.8132 35.6825C19.7449 36.5873 20.4279 37.3728 21.3327 37.441C22.2546 37.5092 23.023 36.8262 23.0912 35.9214C23.1422 35.1531 23.1765 34.3676 23.2108 33.5992C23.3305 30.8673 23.4327 28.2718 24.7986 26.0521C26.557 23.1666 29.7673 21.3056 33.1651 21.203C37.0412 21.0834 40.6435 23.1666 42.4706 26.5305C44.0074 29.3478 43.7684 32.6429 43.5123 36.1265L43.478 36.6898C43.4098 37.5946 44.0927 38.3801 44.9975 38.4483H45.1172C45.9709 38.4483 46.6882 37.7825 46.7564 36.9116L46.7907 36.3483C47.0469 32.7283 47.354 28.6138 45.3566 24.9425C42.9665 20.5204 38.0832 17.7541 33.063 17.9081L33.0632 17.9083ZM44.7929 40.668C43.9048 40.5655 43.0683 41.1974 42.9657 42.1022C42.3681 47.071 41.4634 51.8175 40.2848 56.2399C40.0459 57.1107 40.5752 58.0155 41.4457 58.2545C41.5821 58.2888 41.7361 58.3055 41.8726 58.3055C42.6066 58.3055 43.2557 57.8276 43.4603 57.076C44.6727 52.5169 45.6118 47.5996 46.2265 42.4778C46.3294 41.5905 45.6979 40.7711 44.7928 40.6686L44.7929 40.668Z" fill="#1D0D1B"/>
</svg>
