<svg width="498" height="554" viewBox="0 0 498 554" fill="none" xmlns="http://www.w3.org/2000/svg">
<path d="M273.084 521.574L273.09 489.155L329.316 521.574V554L273.084 521.574Z" fill="url(#paint0_linear_292_438)"/>
<path d="M273.09 489.155L301.2 472.942L357.426 505.368L329.316 521.574L273.09 489.155Z" fill="url(#paint1_linear_292_438)"/>
<path d="M301.2 440.523L329.316 424.31L385.542 456.729L357.426 472.942L301.2 440.523Z" fill="url(#paint2_linear_292_438)"/>
<path d="M329.316 359.464L441.774 294.619L498 327.045L385.542 391.89L329.316 359.464Z" fill="url(#paint3_linear_292_438)"/>
<path d="M301.2 472.942V440.523L357.426 472.942V505.368L301.2 472.942Z" fill="url(#paint4_linear_292_438)"/>
<path d="M329.316 424.31V359.464L385.542 391.884V456.729L329.316 424.31Z" fill="url(#paint5_linear_292_438)"/>
<path d="M329.316 554V521.574L357.426 505.368V472.942L385.542 456.729V391.884L498 327.045V456.729L329.316 554Z" fill="url(#paint6_linear_292_438)"/>
<path d="M329.316 554V521.574L357.426 505.368V472.942L385.542 456.729V391.884L498 327.045V456.729L329.316 554Z" fill="url(#paint7_linear_292_438)"/>
<path d="M84.342 211.216L140.574 178.797L253.032 243.636L365.491 178.797L421.716 211.216L253.032 308.487L84.342 211.216Z" fill="url(#paint8_linear_292_438)"/>
<path d="M84.342 211.216L140.574 178.797L253.032 243.636L365.491 178.797L421.716 211.216L253.032 308.487L84.342 211.216Z" fill="url(#paint9_linear_292_438)"/>
<path d="M421.716 211.216V276.061L309.258 340.907V405.752L281.142 421.965V454.384L253.032 470.597V308.487L421.716 211.216Z" fill="url(#paint10_linear_292_438)"/>
<path d="M421.716 211.216V276.061L309.258 340.907V405.752L281.142 421.965V454.384L253.032 470.597V308.487L421.716 211.216Z" fill="url(#paint11_linear_292_438)"/>
<path d="M84.342 211.216V276.061L196.8 340.907V405.752L224.916 421.965V454.384L253.026 470.597V308.487L84.342 211.216Z" fill="url(#paint12_linear_292_438)"/>
<path d="M84.342 211.216V276.061L196.8 340.907V405.752L224.916 421.965V454.384L253.026 470.597V308.487L84.342 211.216Z" fill="url(#paint13_linear_292_438)"/>
<path d="M224.916 519.223L224.91 486.803L168.684 519.223V551.649L224.916 519.223Z" fill="url(#paint14_linear_292_438)"/>
<path d="M224.91 486.803L196.8 470.59L140.574 503.016L168.684 519.223L224.91 486.803Z" fill="url(#paint15_linear_292_438)"/>
<path d="M196.8 438.171L168.684 421.958L112.458 454.384L140.568 470.59L196.8 438.171Z" fill="url(#paint16_linear_292_438)"/>
<path d="M168.684 357.113L56.2258 292.274L0 324.694L112.458 389.539L168.684 357.113Z" fill="url(#paint17_linear_292_438)"/>
<path d="M196.8 470.59V438.171L140.574 470.59V503.016L196.8 470.59Z" fill="url(#paint18_linear_292_438)"/>
<path d="M168.684 421.958V357.113L112.458 389.539V454.378L168.684 421.958Z" fill="url(#paint19_linear_292_438)"/>
<path d="M168.684 551.648V519.223L140.574 503.016V470.59L112.458 454.377V389.539L0 324.694V454.384L168.684 551.648Z" fill="url(#paint20_linear_292_438)"/>
<path d="M168.684 130.158L168.69 162.584L253.032 211.21V178.79L168.684 130.158Z" fill="url(#paint21_linear_292_438)"/>
<path d="M168.684 130.158L168.69 162.584L253.032 211.21V178.79L168.684 130.158Z" fill="url(#paint22_linear_292_438)"/>
<path d="M337.374 130.165L337.368 162.59L253.032 211.216V178.797L337.374 130.165Z" fill="url(#paint23_linear_292_438)"/>
<path d="M337.374 130.165L337.368 162.59L253.032 211.216V178.797L337.374 130.165Z" fill="url(#paint24_linear_292_438)"/>
<path d="M168.684 130.158L253.026 81.5258L337.374 130.165L253.032 178.797L168.684 130.158Z" fill="url(#paint25_linear_292_438)"/>
<path d="M168.684 130.158L253.026 81.5258L337.374 130.165L253.032 178.797L168.684 130.158Z" fill="url(#paint26_linear_292_438)"/>
<path d="M258.008 137.901C281.28 137.901 300.146 119.059 300.146 95.8161C300.146 72.5733 281.28 53.7313 258.008 53.7313C234.735 53.7313 215.869 72.5733 215.869 95.8161C215.869 119.059 234.735 137.901 258.008 137.901Z" fill="url(#paint27_linear_292_438)"/>
<path d="M258.008 137.901C281.28 137.901 300.146 119.059 300.146 95.8161C300.146 72.5733 281.28 53.7313 258.008 53.7313C234.735 53.7313 215.869 72.5733 215.869 95.8161C215.869 119.059 234.735 137.901 258.008 137.901Z" fill="#F2DCC2"/>
<path style="mix-blend-mode:lighten" d="M258.008 196.361C312.301 196.361 356.314 152.404 356.314 98.1804C356.314 43.9569 312.301 0 258.008 0C203.715 0 159.702 43.9569 159.702 98.1804C159.702 152.404 203.715 196.361 258.008 196.361Z" fill="url(#paint28_radial_292_438)"/>
<defs>
<linearGradient id="paint0_linear_292_438" x1="294.169" y1="533.734" x2="308.204" y2="509.399" gradientUnits="userSpaceOnUse">
<stop stop-color="#A82D65" stop-opacity="0.8"/>
<stop offset="0.11" stop-color="#912654" stop-opacity="0.84"/>
<stop offset="0.34" stop-color="#661A37" stop-opacity="0.91"/>
<stop offset="0.57" stop-color="#481122" stop-opacity="0.96"/>
<stop offset="0.8" stop-color="#360C15" stop-opacity="0.99"/>
<stop offset="1" stop-color="#300B11"/>
</linearGradient>
<linearGradient id="paint1_linear_292_438" x1="273.09" y1="497.261" x2="357.426" y2="497.261" gradientUnits="userSpaceOnUse">
<stop stop-color="#FF8059" stop-opacity="0.8"/>
<stop offset="0.39" stop-color="#D2555F" stop-opacity="0.9"/>
<stop offset="0.76" stop-color="#B33763" stop-opacity="0.97"/>
<stop offset="1" stop-color="#A82D65"/>
</linearGradient>
<linearGradient id="paint2_linear_292_438" x1="301.2" y1="448.622" x2="385.542" y2="448.622" gradientUnits="userSpaceOnUse">
<stop stop-color="#FF8059" stop-opacity="0.8"/>
<stop offset="0.39" stop-color="#D2555F" stop-opacity="0.9"/>
<stop offset="0.76" stop-color="#B33763" stop-opacity="0.97"/>
<stop offset="1" stop-color="#A82D65"/>
</linearGradient>
<linearGradient id="paint3_linear_292_438" x1="329.316" y1="343.258" x2="498" y2="343.258" gradientUnits="userSpaceOnUse">
<stop stop-color="#FF8059" stop-opacity="0.8"/>
<stop offset="0.39" stop-color="#D2555F" stop-opacity="0.9"/>
<stop offset="0.76" stop-color="#B33763" stop-opacity="0.97"/>
<stop offset="1" stop-color="#A82D65"/>
</linearGradient>
<linearGradient id="paint4_linear_292_438" x1="322.285" y1="485.102" x2="336.313" y2="460.767" gradientUnits="userSpaceOnUse">
<stop stop-color="#A82D65" stop-opacity="0.8"/>
<stop offset="0.03" stop-color="#9E2A5E" stop-opacity="0.82"/>
<stop offset="0.18" stop-color="#761E42" stop-opacity="0.88"/>
<stop offset="0.35" stop-color="#57162C" stop-opacity="0.93"/>
<stop offset="0.53" stop-color="#410F1D" stop-opacity="0.97"/>
<stop offset="0.73" stop-color="#340C13" stop-opacity="0.99"/>
<stop offset="1" stop-color="#300B11"/>
</linearGradient>
<linearGradient id="paint5_linear_292_438" x1="343.371" y1="432.416" x2="371.433" y2="383.753" gradientUnits="userSpaceOnUse">
<stop stop-color="#A82D65" stop-opacity="0.8"/>
<stop offset="0.03" stop-color="#9E2A5E" stop-opacity="0.82"/>
<stop offset="0.18" stop-color="#761E42" stop-opacity="0.88"/>
<stop offset="0.35" stop-color="#57162C" stop-opacity="0.93"/>
<stop offset="0.53" stop-color="#410F1D" stop-opacity="0.97"/>
<stop offset="0.73" stop-color="#340C13" stop-opacity="0.99"/>
<stop offset="1" stop-color="#300B11"/>
</linearGradient>
<linearGradient id="paint6_linear_292_438" x1="329.316" y1="440.523" x2="498" y2="440.523" gradientUnits="userSpaceOnUse">
<stop stop-color="#A82D65" stop-opacity="0.8"/>
<stop offset="0.03" stop-color="#9E2A5E" stop-opacity="0.82"/>
<stop offset="0.18" stop-color="#761E42" stop-opacity="0.88"/>
<stop offset="0.35" stop-color="#57162C" stop-opacity="0.93"/>
<stop offset="0.53" stop-color="#410F1D" stop-opacity="0.97"/>
<stop offset="0.73" stop-color="#340C13" stop-opacity="0.99"/>
<stop offset="1" stop-color="#300B11"/>
</linearGradient>
<linearGradient id="paint7_linear_292_438" x1="357.426" y1="570.207" x2="497.731" y2="326.89" gradientUnits="userSpaceOnUse">
<stop stop-color="#A82D65" stop-opacity="0.8"/>
<stop offset="0.04" stop-color="#9A295B" stop-opacity="0.82"/>
<stop offset="0.19" stop-color="#731E40" stop-opacity="0.89"/>
<stop offset="0.34" stop-color="#55152B" stop-opacity="0.94"/>
<stop offset="0.51" stop-color="#400F1C" stop-opacity="0.97"/>
<stop offset="0.71" stop-color="#330C13" stop-opacity="0.99"/>
<stop offset="1" stop-color="#300B11"/>
</linearGradient>
<linearGradient id="paint8_linear_292_438" x1="84.342" y1="243.642" x2="421.716" y2="243.642" gradientUnits="userSpaceOnUse">
<stop stop-color="#FF8059" stop-opacity="0.8"/>
<stop offset="0.01" stop-color="#FC7D59" stop-opacity="0.81"/>
<stop offset="0.23" stop-color="#D75A5E" stop-opacity="0.89"/>
<stop offset="0.46" stop-color="#BC4062" stop-opacity="0.95"/>
<stop offset="0.71" stop-color="#AD3164" stop-opacity="0.99"/>
<stop offset="1" stop-color="#A82D65"/>
</linearGradient>
<linearGradient id="paint9_linear_292_438" x1="84.342" y1="243.642" x2="421.716" y2="243.642" gradientUnits="userSpaceOnUse">
<stop stop-color="#FF8059" stop-opacity="0.8"/>
<stop offset="0.01" stop-color="#FC7D59" stop-opacity="0.81"/>
<stop offset="0.23" stop-color="#D75A5E" stop-opacity="0.89"/>
<stop offset="0.46" stop-color="#BC4062" stop-opacity="0.95"/>
<stop offset="0.71" stop-color="#AD3164" stop-opacity="0.99"/>
<stop offset="1" stop-color="#A82D65"/>
</linearGradient>
<linearGradient id="paint10_linear_292_438" x1="253.032" y1="340.907" x2="421.716" y2="340.907" gradientUnits="userSpaceOnUse">
<stop stop-color="#A82D65" stop-opacity="0.8"/>
<stop offset="0.13" stop-color="#8B2450" stop-opacity="0.85"/>
<stop offset="0.35" stop-color="#631935" stop-opacity="0.91"/>
<stop offset="0.57" stop-color="#461121" stop-opacity="0.96"/>
<stop offset="0.79" stop-color="#350C15" stop-opacity="0.99"/>
<stop offset="1" stop-color="#300B11"/>
</linearGradient>
<linearGradient id="paint11_linear_292_438" x1="253.032" y1="340.907" x2="421.716" y2="340.907" gradientUnits="userSpaceOnUse">
<stop stop-color="#A82D65" stop-opacity="0.8"/>
<stop offset="0.03" stop-color="#9E2A5E" stop-opacity="0.82"/>
<stop offset="0.18" stop-color="#761E42" stop-opacity="0.88"/>
<stop offset="0.35" stop-color="#57162C" stop-opacity="0.93"/>
<stop offset="0.53" stop-color="#410F1D" stop-opacity="0.97"/>
<stop offset="0.73" stop-color="#340C13" stop-opacity="0.99"/>
<stop offset="1" stop-color="#300B11"/>
</linearGradient>
<linearGradient id="paint12_linear_292_438" x1="84.342" y1="340.907" x2="253.026" y2="340.907" gradientUnits="userSpaceOnUse">
<stop stop-color="#A82D65" stop-opacity="0.8"/>
<stop offset="0.03" stop-color="#9E2A5E" stop-opacity="0.82"/>
<stop offset="0.18" stop-color="#761E42" stop-opacity="0.88"/>
<stop offset="0.35" stop-color="#57162C" stop-opacity="0.93"/>
<stop offset="0.53" stop-color="#410F1D" stop-opacity="0.97"/>
<stop offset="0.73" stop-color="#340C13" stop-opacity="0.99"/>
<stop offset="1" stop-color="#300B11"/>
</linearGradient>
<linearGradient id="paint13_linear_292_438" x1="133.544" y1="401.699" x2="203.696" y2="280.037" gradientUnits="userSpaceOnUse">
<stop stop-color="#A82D65" stop-opacity="0.8"/>
<stop offset="0.23" stop-color="#942757" stop-opacity="0.83"/>
<stop offset="0.65" stop-color="#601832" stop-opacity="0.92"/>
<stop offset="1" stop-color="#300B11"/>
</linearGradient>
<linearGradient id="paint14_linear_292_438" x1="168.684" y1="519.223" x2="224.916" y2="519.223" gradientUnits="userSpaceOnUse">
<stop stop-color="#A82D65" stop-opacity="0.8"/>
<stop offset="0.05" stop-color="#A02A5F" stop-opacity="0.81"/>
<stop offset="0.47" stop-color="#631935" stop-opacity="0.91"/>
<stop offset="0.81" stop-color="#3E0E1A" stop-opacity="0.98"/>
<stop offset="1" stop-color="#300B11"/>
</linearGradient>
<linearGradient id="paint15_linear_292_438" x1="140.574" y1="494.91" x2="224.91" y2="494.91" gradientUnits="userSpaceOnUse">
<stop stop-color="#FF8059" stop-opacity="0.8"/>
<stop offset="0.01" stop-color="#FC7D59" stop-opacity="0.81"/>
<stop offset="0.23" stop-color="#D75A5E" stop-opacity="0.89"/>
<stop offset="0.46" stop-color="#BC4062" stop-opacity="0.95"/>
<stop offset="0.71" stop-color="#AD3164" stop-opacity="0.99"/>
<stop offset="1" stop-color="#A82D65"/>
</linearGradient>
<linearGradient id="paint16_linear_292_438" x1="112.458" y1="446.278" x2="196.8" y2="446.278" gradientUnits="userSpaceOnUse">
<stop stop-color="#FF8059" stop-opacity="0.8"/>
<stop offset="0.01" stop-color="#FC7D59" stop-opacity="0.81"/>
<stop offset="0.23" stop-color="#D75A5E" stop-opacity="0.89"/>
<stop offset="0.46" stop-color="#BC4062" stop-opacity="0.95"/>
<stop offset="0.71" stop-color="#AD3164" stop-opacity="0.99"/>
<stop offset="1" stop-color="#A82D65"/>
</linearGradient>
<linearGradient id="paint17_linear_292_438" x1="0" y1="340.907" x2="168.684" y2="340.907" gradientUnits="userSpaceOnUse">
<stop stop-color="#FF8059" stop-opacity="0.8"/>
<stop offset="0.01" stop-color="#FC7D59" stop-opacity="0.81"/>
<stop offset="0.23" stop-color="#D75A5E" stop-opacity="0.89"/>
<stop offset="0.46" stop-color="#BC4062" stop-opacity="0.95"/>
<stop offset="0.71" stop-color="#AD3164" stop-opacity="0.99"/>
<stop offset="1" stop-color="#A82D65"/>
</linearGradient>
<linearGradient id="paint18_linear_292_438" x1="140.574" y1="470.591" x2="196.8" y2="470.591" gradientUnits="userSpaceOnUse">
<stop stop-color="#A82D65" stop-opacity="0.8"/>
<stop offset="0.05" stop-color="#A02A5F" stop-opacity="0.81"/>
<stop offset="0.47" stop-color="#631935" stop-opacity="0.91"/>
<stop offset="0.81" stop-color="#3E0E1A" stop-opacity="0.98"/>
<stop offset="1" stop-color="#300B11"/>
</linearGradient>
<linearGradient id="paint19_linear_292_438" x1="112.458" y1="454.378" x2="168.576" y2="357.051" gradientUnits="userSpaceOnUse">
<stop stop-color="#A82D65" stop-opacity="0.8"/>
<stop offset="0.05" stop-color="#A02A5F" stop-opacity="0.81"/>
<stop offset="0.47" stop-color="#631935" stop-opacity="0.91"/>
<stop offset="0.81" stop-color="#3E0E1A" stop-opacity="0.98"/>
<stop offset="1" stop-color="#300B11"/>
</linearGradient>
<linearGradient id="paint20_linear_292_438" x1="56.2258" y1="486.803" x2="112.351" y2="389.477" gradientUnits="userSpaceOnUse">
<stop stop-color="#A62C63" stop-opacity="0.8"/>
<stop offset="0.18" stop-color="#7B2046" stop-opacity="0.87"/>
<stop offset="0.36" stop-color="#5A172E" stop-opacity="0.93"/>
<stop offset="0.54" stop-color="#42101E" stop-opacity="0.97"/>
<stop offset="0.75" stop-color="#340C14" stop-opacity="0.99"/>
<stop offset="1" stop-color="#300B11"/>
</linearGradient>
<linearGradient id="paint21_linear_292_438" x1="168.684" y1="170.684" x2="253.032" y2="170.684" gradientUnits="userSpaceOnUse">
<stop stop-color="#A82D65" stop-opacity="0.8"/>
<stop offset="0.13" stop-color="#8B2450" stop-opacity="0.85"/>
<stop offset="0.35" stop-color="#631935" stop-opacity="0.91"/>
<stop offset="0.57" stop-color="#461121" stop-opacity="0.96"/>
<stop offset="0.79" stop-color="#350C15" stop-opacity="0.99"/>
<stop offset="1" stop-color="#300B11"/>
</linearGradient>
<linearGradient id="paint22_linear_292_438" x1="168.684" y1="170.684" x2="253.032" y2="170.684" gradientUnits="userSpaceOnUse">
<stop stop-color="#A82D65" stop-opacity="0.8"/>
<stop offset="0.13" stop-color="#8B2450" stop-opacity="0.85"/>
<stop offset="0.35" stop-color="#631935" stop-opacity="0.91"/>
<stop offset="0.57" stop-color="#461121" stop-opacity="0.96"/>
<stop offset="0.79" stop-color="#350C15" stop-opacity="0.99"/>
<stop offset="1" stop-color="#300B11"/>
</linearGradient>
<linearGradient id="paint23_linear_292_438" x1="253.032" y1="170.69" x2="337.374" y2="170.69" gradientUnits="userSpaceOnUse">
<stop stop-color="#A82D65" stop-opacity="0.8"/>
<stop offset="0.13" stop-color="#8B2450" stop-opacity="0.85"/>
<stop offset="0.35" stop-color="#631935" stop-opacity="0.91"/>
<stop offset="0.57" stop-color="#461121" stop-opacity="0.96"/>
<stop offset="0.79" stop-color="#350C15" stop-opacity="0.99"/>
<stop offset="1" stop-color="#300B11"/>
</linearGradient>
<linearGradient id="paint24_linear_292_438" x1="253.032" y1="170.69" x2="337.374" y2="170.69" gradientUnits="userSpaceOnUse">
<stop stop-color="#A82D65" stop-opacity="0.8"/>
<stop offset="0.13" stop-color="#8B2450" stop-opacity="0.85"/>
<stop offset="0.35" stop-color="#631935" stop-opacity="0.91"/>
<stop offset="0.57" stop-color="#461121" stop-opacity="0.96"/>
<stop offset="0.79" stop-color="#350C15" stop-opacity="0.99"/>
<stop offset="1" stop-color="#300B11"/>
</linearGradient>
<linearGradient id="paint25_linear_292_438" x1="168.684" y1="130.165" x2="337.374" y2="130.165" gradientUnits="userSpaceOnUse">
<stop stop-color="#FF8059" stop-opacity="0.8"/>
<stop offset="0.01" stop-color="#FC7D59" stop-opacity="0.81"/>
<stop offset="0.23" stop-color="#D75A5E" stop-opacity="0.89"/>
<stop offset="0.46" stop-color="#BC4062" stop-opacity="0.95"/>
<stop offset="0.71" stop-color="#AD3164" stop-opacity="0.99"/>
<stop offset="1" stop-color="#A82D65"/>
</linearGradient>
<linearGradient id="paint26_linear_292_438" x1="168.684" y1="130.165" x2="337.374" y2="130.165" gradientUnits="userSpaceOnUse">
<stop stop-color="#FF8059" stop-opacity="0.8"/>
<stop offset="0.01" stop-color="#FC7D59" stop-opacity="0.81"/>
<stop offset="0.23" stop-color="#D75A5E" stop-opacity="0.89"/>
<stop offset="0.46" stop-color="#BC4062" stop-opacity="0.95"/>
<stop offset="0.71" stop-color="#AD3164" stop-opacity="0.99"/>
<stop offset="1" stop-color="#A82D65"/>
</linearGradient>
<linearGradient id="paint27_linear_292_438" x1="215.869" y1="95.8161" x2="300.146" y2="95.8161" gradientUnits="userSpaceOnUse">
<stop stop-color="#FF8059" stop-opacity="0.8"/>
<stop offset="0.01" stop-color="#FC7D59" stop-opacity="0.81"/>
<stop offset="0.23" stop-color="#D75A5E" stop-opacity="0.89"/>
<stop offset="0.46" stop-color="#BC4062" stop-opacity="0.95"/>
<stop offset="0.71" stop-color="#AD3164" stop-opacity="0.99"/>
<stop offset="1" stop-color="#A82D65"/>
</linearGradient>
<radialGradient id="paint28_radial_292_438" cx="0" cy="0" r="1" gradientUnits="userSpaceOnUse" gradientTransform="translate(258.008 98.1804) scale(98.3058 98.1804)">
<stop stop-color="#EA9980"/>
<stop offset="0.05" stop-color="#EB9F88" stop-opacity="0.94"/>
<stop offset="0.32" stop-color="#F2C1B1" stop-opacity="0.61"/>
<stop offset="0.55" stop-color="#F7DBD3" stop-opacity="0.35"/>
<stop offset="0.75" stop-color="#FBEEEA" stop-opacity="0.16"/>
<stop offset="0.91" stop-color="#FEFAF9" stop-opacity="0.04"/>
<stop offset="1" stop-color="white" stop-opacity="0"/>
</radialGradient>
</defs>
</svg>
